<?xml version="1.0" encoding="UTF-8"?><svg id="Capa_2" xmlns="http://www.w3.org/2000/svg" xmlns:xlink="http://www.w3.org/1999/xlink" viewBox="0 0 490.25 296.42"><defs><style>.cls-1{stroke:#fff;stroke-miterlimit:10;stroke-width:3px;}.cls-1,.cls-2{fill:none;}.cls-3{opacity:.4;}.cls-4{clip-path:url(#clippath);}</style><clipPath id="clippath"><rect class="cls-2" x="193.83" width="296.42" height="296.42"/></clipPath></defs><g id="Capa_1-2"><g class="cls-4"><g class="cls-3"><path class="cls-1" d="M206.55,276.98c-81.47,0-158.09-45.4-199.95-118.49l-4.87-8.5,4.87-8.5C48.46,68.42,125.07,23.02,206.55,23.02c81.47,0,158.09,45.4,199.95,118.49l4.87,8.5-4.87,8.5c-41.86,73.09-118.48,118.49-199.95,118.49ZM38.99,150c37.08,58.14,100.41,93.86,167.56,93.86s130.48-35.72,167.56-93.86c-37.07-58.14-100.41-93.86-167.56-93.86S76.06,91.86,38.99,150Z"/><ellipse class="cls-1" cx="308.71" cy="140.95" rx="21.17" ry="22.08"/></g></g></g></svg>