<?xml version="1.0" encoding="UTF-8"?><svg id="Capa_2" xmlns="http://www.w3.org/2000/svg" xmlns:xlink="http://www.w3.org/1999/xlink" viewBox="0 0 262.11 300"><defs><style>.cls-1{stroke:#fff;stroke-miterlimit:10;stroke-width:3px;}.cls-1,.cls-2{fill:none;}.cls-3{opacity:.4;}.cls-4{clip-path:url(#clippath);}</style><clipPath id="clippath"><rect class="cls-2" width="262.11" height="300"/></clipPath></defs><g id="Capa_1-2"><g class="cls-4"><g class="cls-3"><path class="cls-1" d="M72.1,159.77l-5.84-9.77,5.84-9.77C122.34,56.16,214.29,3.95,312.06,3.95s189.73,52.22,239.97,136.28l5.84,9.77-5.84,9.77c-50.24,84.06-142.19,136.28-239.97,136.28S122.34,243.84,72.1,159.77ZM312.06,42.05c-80.59,0-156.6,41.08-201.09,107.95,44.49,66.87,120.5,107.95,201.09,107.95,80.59,0,156.6-41.08,201.09-107.95-44.49-66.87-120.5-107.95-201.09-107.95Z"/><circle class="cls-1" cx="189.45" cy="139.59" r="25.4"/></g></g></g></svg>