<?xml version="1.0" encoding="UTF-8"?><svg id="Capa_2" xmlns="http://www.w3.org/2000/svg" viewBox="0 0 287.07 60.13"><defs><style>.cls-1{fill:#fff;}</style></defs><g id="Capa_1-2"><g><g><g><path class="cls-1" d="M76.66,28.17c-4.08,0-7.44-1.35-10.1-4.06-2.66-2.71-3.99-6.05-3.99-10.02s1.33-7.35,3.99-10.04c2.66-2.7,6.02-4.04,10.1-4.04,2.45,0,4.71,.57,6.79,1.72,2.08,1.15,3.7,2.7,4.86,4.66l-4.61,2.67c-.67-1.21-1.63-2.16-2.86-2.84-1.24-.68-2.63-1.03-4.18-1.03-2.63,0-4.75,.83-6.37,2.48-1.61,1.65-2.42,3.79-2.42,6.42s.81,4.73,2.42,6.39c1.61,1.65,3.73,2.48,6.37,2.48,1.55,0,2.95-.34,4.2-1.03,1.25-.68,2.2-1.62,2.84-2.81l4.61,2.67c-1.16,1.96-2.77,3.52-4.84,4.66-2.06,1.15-4.33,1.72-6.81,1.72Z"/><path class="cls-1" d="M107.97,25.21c-1.99,1.97-4.41,2.96-7.28,2.96s-5.28-.99-7.26-2.96c-1.97-1.97-2.96-4.39-2.96-7.26s.99-5.28,2.96-7.26c1.97-1.97,4.39-2.96,7.26-2.96s5.29,.99,7.28,2.96c1.99,1.97,2.98,4.39,2.98,7.26s-.99,5.28-2.98,7.26Zm-11.01-3.42c.99,1.01,2.24,1.51,3.73,1.51s2.75-.5,3.75-1.51c1.01-1.01,1.51-2.28,1.51-3.83s-.5-2.82-1.51-3.83c-1.01-1.01-2.26-1.51-3.75-1.51s-2.74,.5-3.73,1.51c-.99,1.01-1.49,2.28-1.49,3.83s.5,2.83,1.49,3.83Z"/><path class="cls-1" d="M118.65,13.78c0,.52,.34,.94,1.03,1.26,.68,.32,1.52,.61,2.5,.85,.98,.25,1.96,.56,2.94,.93,.98,.37,1.81,1,2.5,1.88,.68,.88,1.03,1.97,1.03,3.29,0,1.99-.74,3.52-2.23,4.59-1.48,1.07-3.33,1.61-5.55,1.61-3.97,0-6.68-1.53-8.13-4.61l4.33-2.44c.57,1.68,1.83,2.52,3.79,2.52,1.78,0,2.67-.55,2.67-1.66,0-.52-.34-.93-1.03-1.26-.68-.32-1.52-.61-2.5-.87-.98-.26-1.96-.58-2.94-.97-.98-.39-1.81-1-2.5-1.84-.68-.84-1.03-1.89-1.03-3.15,0-1.91,.7-3.41,2.11-4.51,1.41-1.1,3.15-1.64,5.24-1.64,1.57,0,3.01,.36,4.3,1.06,1.29,.71,2.31,1.72,3.06,3.04l-4.26,2.32c-.62-1.32-1.65-1.97-3.1-1.97-.65,0-1.18,.14-1.61,.43-.43,.28-.64,.67-.64,1.16Z"/><path class="cls-1" d="M135.79,20.01c.67,2.43,2.49,3.64,5.46,3.64,1.91,0,3.35-.64,4.33-1.94l4.02,2.32c-1.91,2.76-4.72,4.14-8.44,4.14-3.2,0-5.77-.97-7.7-2.9-1.94-1.94-2.9-4.37-2.9-7.31s.95-5.35,2.86-7.29c1.91-1.95,4.36-2.92,7.35-2.92,2.84,0,5.18,.98,7.02,2.94,1.84,1.96,2.77,4.39,2.77,7.28,0,.65-.06,1.33-.19,2.05h-14.59Zm-.08-3.87h9.87c-.28-1.32-.87-2.3-1.76-2.94-.89-.64-1.9-.97-3.04-.97-1.34,0-2.45,.34-3.33,1.03-.88,.68-1.46,1.64-1.74,2.88Z"/><path class="cls-1" d="M163.11,28.17c-2.92,0-5.35-.98-7.29-2.94-1.95-1.96-2.92-4.39-2.92-7.28s.97-5.31,2.92-7.28c1.95-1.96,4.38-2.94,7.29-2.94,1.88,0,3.6,.45,5.15,1.35,1.55,.9,2.72,2.12,3.52,3.64l-4.3,2.52c-.39-.8-.97-1.43-1.76-1.9-.79-.46-1.67-.7-2.65-.7-1.5,0-2.73,.5-3.72,1.49-.98,.99-1.47,2.26-1.47,3.81s.49,2.78,1.47,3.77c.98,.99,2.22,1.49,3.72,1.49,1.01,0,1.9-.23,2.69-.68,.79-.45,1.37-1.08,1.76-1.88l4.33,2.48c-.85,1.52-2.05,2.74-3.6,3.66-1.55,.92-3.26,1.37-5.15,1.37Z"/><path class="cls-1" d="M185.25,7.74c2.12,0,3.86,.71,5.24,2.13,1.38,1.42,2.07,3.38,2.07,5.88v11.88h-4.99v-11.26c0-1.29-.35-2.28-1.04-2.96-.7-.68-1.63-1.03-2.79-1.03-1.29,0-2.32,.4-3.1,1.2-.77,.8-1.16,2-1.16,3.6v10.45h-4.99V.54h4.99V10.45c1.21-1.81,3.13-2.71,5.77-2.71Z"/><path class="cls-1" d="M211.53,8.28h4.99V27.63h-4.99v-2.28c-1.5,1.88-3.6,2.82-6.31,2.82s-4.79-.99-6.64-2.96c-1.84-1.97-2.77-4.39-2.77-7.26s.92-5.28,2.77-7.26c1.84-1.97,4.06-2.96,6.64-2.96,2.71,0,4.81,.94,6.31,2.83v-2.28Zm-9.21,13.6c1.01,1.02,2.28,1.53,3.83,1.53s2.83-.51,3.85-1.53c1.02-1.02,1.53-2.33,1.53-3.93s-.51-2.91-1.53-3.93c-1.02-1.02-2.3-1.53-3.85-1.53s-2.83,.51-3.83,1.53c-1.01,1.02-1.51,2.33-1.51,3.93s.5,2.91,1.51,3.93Z"/><path class="cls-1" d="M231.8,7.74c2.12,0,3.86,.71,5.24,2.13,1.38,1.42,2.07,3.38,2.07,5.88v11.88h-4.99v-11.26c0-1.29-.35-2.28-1.04-2.96-.7-.68-1.63-1.03-2.79-1.03-1.29,0-2.32,.4-3.1,1.2-.77,.8-1.16,2-1.16,3.6v10.45h-4.99V8.28h4.99v2.17c1.21-1.81,3.13-2.71,5.77-2.71Z"/><path class="cls-1" d="M258.04,.54h4.99V27.63h-4.99v-2.28c-1.47,1.88-3.56,2.82-6.27,2.82s-4.83-.99-6.68-2.96c-1.84-1.97-2.77-4.39-2.77-7.26s.92-5.28,2.77-7.26c1.84-1.97,4.07-2.96,6.68-2.96s4.8,.94,6.27,2.83V.54Zm-9.19,21.34c1.02,1.02,2.3,1.53,3.85,1.53s2.83-.51,3.83-1.53c1.01-1.02,1.51-2.33,1.51-3.93s-.5-2.91-1.51-3.93c-1.01-1.02-2.28-1.53-3.83-1.53s-2.83,.51-3.85,1.53c-1.02,1.02-1.53,2.33-1.53,3.93s.51,2.91,1.53,3.93Z"/><path class="cls-1" d="M284.09,25.21c-1.99,1.97-4.41,2.96-7.28,2.96s-5.28-.99-7.26-2.96c-1.97-1.97-2.96-4.39-2.96-7.26s.99-5.28,2.96-7.26c1.97-1.97,4.39-2.96,7.26-2.96s5.29,.99,7.28,2.96c1.99,1.97,2.98,4.39,2.98,7.26s-.99,5.28-2.98,7.26Zm-11.01-3.42c.99,1.01,2.24,1.51,3.73,1.51s2.75-.5,3.75-1.51c1.01-1.01,1.51-2.28,1.51-3.83s-.5-2.82-1.51-3.83c-1.01-1.01-2.26-1.51-3.75-1.51s-2.74,.5-3.73,1.51c-.99,1.01-1.49,2.28-1.49,3.83s.5,2.83,1.49,3.83Z"/></g><g><path class="cls-1" d="M65.63,37.91c-.83,0-1.54-.3-2.15-.91-.61-.61-.91-1.32-.91-2.15s.3-1.55,.91-2.17c.61-.62,1.32-.93,2.15-.93s1.58,.31,2.19,.93c.61,.62,.91,1.34,.91,2.17s-.3,1.54-.91,2.15c-.61,.61-1.34,.91-2.19,.91Zm-2.48,21.67v-19.35h4.99v19.35h-4.99Z"/><path class="cls-1" d="M83.47,39.69c2.12,0,3.86,.71,5.24,2.13,1.38,1.42,2.07,3.38,2.07,5.88v11.88h-4.99v-11.26c0-1.29-.35-2.28-1.04-2.96-.7-.68-1.63-1.03-2.79-1.03-1.29,0-2.32,.4-3.1,1.2-.77,.8-1.16,2-1.16,3.6v10.45h-4.99v-19.35h4.99v2.17c1.21-1.81,3.13-2.71,5.77-2.71Z"/><path class="cls-1" d="M105.8,39.69c2.12,0,3.86,.71,5.24,2.13,1.38,1.42,2.07,3.38,2.07,5.88v11.88h-4.99v-11.26c0-1.29-.35-2.28-1.04-2.96-.7-.68-1.63-1.03-2.79-1.03-1.29,0-2.32,.4-3.1,1.2-.77,.8-1.16,2-1.16,3.6v10.45h-4.99v-19.35h4.99v2.17c1.21-1.81,3.13-2.71,5.77-2.71Z"/><path class="cls-1" d="M133.86,57.17c-1.99,1.97-4.41,2.96-7.28,2.96s-5.28-.99-7.26-2.96c-1.97-1.97-2.96-4.39-2.96-7.26s.99-5.28,2.96-7.26c1.97-1.97,4.39-2.96,7.26-2.96s5.29,.99,7.28,2.96c1.99,1.97,2.98,4.39,2.98,7.26s-.99,5.28-2.98,7.26Zm-11.01-3.42c.99,1.01,2.24,1.51,3.73,1.51s2.75-.5,3.75-1.51c1.01-1.01,1.51-2.28,1.51-3.83s-.5-2.82-1.51-3.83c-1.01-1.01-2.26-1.51-3.75-1.51s-2.74,.5-3.73,1.51c-.99,1.01-1.49,2.28-1.49,3.83s.5,2.83,1.49,3.83Z"/><path class="cls-1" d="M152.32,40.24h5.5l-7.35,19.35h-5.69l-7.35-19.35h5.5l4.69,13.54,4.71-13.54Z"/><path class="cls-1" d="M174.14,40.24h4.99v19.35h-4.99v-2.28c-1.5,1.88-3.6,2.82-6.31,2.82s-4.79-.99-6.64-2.96c-1.84-1.97-2.77-4.39-2.77-7.26s.92-5.28,2.77-7.26c1.84-1.97,4.06-2.96,6.64-2.96,2.71,0,4.81,.94,6.31,2.83v-2.28Zm-9.21,13.6c1.01,1.02,2.28,1.53,3.83,1.53s2.83-.51,3.85-1.53,1.53-2.33,1.53-3.93-.51-2.91-1.53-3.93c-1.02-1.02-2.3-1.53-3.85-1.53s-2.83,.51-3.83,1.53c-1.01,1.02-1.51,2.33-1.51,3.93s.5,2.91,1.51,3.93Z"/><path class="cls-1" d="M192.87,60.13c-2.92,0-5.35-.98-7.29-2.94-1.95-1.96-2.92-4.39-2.92-7.28s.97-5.31,2.92-7.28c1.95-1.96,4.38-2.94,7.29-2.94,1.88,0,3.6,.45,5.15,1.35,1.55,.9,2.72,2.12,3.52,3.64l-4.3,2.52c-.39-.8-.97-1.43-1.76-1.9-.79-.46-1.67-.7-2.65-.7-1.5,0-2.73,.5-3.72,1.49-.98,.99-1.47,2.26-1.47,3.81s.49,2.78,1.47,3.77c.98,.99,2.22,1.49,3.72,1.49,1.01,0,1.9-.23,2.69-.68,.79-.45,1.37-1.08,1.76-1.88l4.33,2.48c-.85,1.52-2.05,2.74-3.6,3.66-1.55,.92-3.26,1.37-5.15,1.37Z"/><path class="cls-1" d="M206.73,37.91c-.83,0-1.54-.3-2.15-.91-.61-.61-.91-1.32-.91-2.15s.3-1.55,.91-2.17c.61-.62,1.32-.93,2.15-.93s1.58,.31,2.19,.93c.61,.62,.91,1.34,.91,2.17s-.3,1.54-.91,2.15c-.61,.61-1.34,.91-2.19,.91Zm-2.48,21.67v-19.35h4.99v19.35h-4.99Z"/><path class="cls-1" d="M230.29,57.17c-1.99,1.97-4.41,2.96-7.28,2.96s-5.28-.99-7.26-2.96c-1.97-1.97-2.96-4.39-2.96-7.26s.99-5.28,2.96-7.26c1.97-1.97,4.39-2.96,7.26-2.96s5.29,.99,7.28,2.96c1.99,1.97,2.98,4.39,2.98,7.26s-.99,5.28-2.98,7.26Zm-11.01-3.42c.99,1.01,2.24,1.51,3.73,1.51s2.75-.5,3.75-1.51c1.01-1.01,1.51-2.28,1.51-3.83s-.5-2.82-1.51-3.83c-1.01-1.01-2.26-1.51-3.75-1.51s-2.74,.5-3.73,1.51c-.99,1.01-1.49,2.28-1.49,3.83s.5,2.83,1.49,3.83Zm.64-16.25h4.8l4.3-5.3h-6l-3.1,5.3Z"/><path class="cls-1" d="M247.55,39.69c2.12,0,3.86,.71,5.24,2.13,1.38,1.42,2.07,3.38,2.07,5.88v11.88h-4.99v-11.26c0-1.29-.35-2.28-1.04-2.96-.7-.68-1.63-1.03-2.79-1.03-1.29,0-2.32,.4-3.1,1.2-.77,.8-1.16,2-1.16,3.6v10.45h-4.99v-19.35h4.99v2.17c1.21-1.81,3.13-2.71,5.77-2.71Z"/></g></g><g><path class="cls-1" d="M30.06,31.43c-10.52,0-20.41-5.62-25.82-14.66l-.63-1.05,.63-1.05C9.65,5.62,19.54,0,30.06,0s20.41,5.62,25.82,14.66l.63,1.05-.63,1.05c-5.41,9.05-15.3,14.66-25.82,14.66ZM8.43,15.72c4.79,7.2,12.97,11.62,21.64,11.62s16.85-4.42,21.64-11.62c-4.79-7.2-12.97-11.62-21.64-11.62S13.21,8.52,8.43,15.72Z"/><circle class="cls-1" cx="16.87" cy="42.17" r="2.73"/><circle class="cls-1" cx="43.26" cy="14.6" r="2.73"/><path class="cls-1" d="M30.06,60.13c-10.87,0-20.92-5.9-26.24-15.4l-.56-1,.56-1c5.32-9.5,15.37-15.4,26.24-15.4s20.92,5.9,26.24,15.4l.56,1-.56,1c-5.32,9.5-15.37,15.4-26.24,15.4ZM7.99,43.73c4.72,7.62,13.08,12.3,22.07,12.3s17.35-4.68,22.07-12.3c-4.72-7.62-13.08-12.3-22.07-12.3s-17.35,4.68-22.07,12.3Z"/><path class="cls-1" d="M30.06,60.13C13.49,60.13,0,46.64,0,30.06S13.49,0,30.06,0c1.13,0,2.05,.92,2.05,2.05s-.92,2.05-2.05,2.05C15.75,4.1,4.1,15.75,4.1,30.06s11.65,25.96,25.96,25.96c1.13,0,2.05,.92,2.05,2.05s-.92,2.05-2.05,2.05Z"/><path class="cls-1" d="M30.06,59.8c-1.13,0-2.05-.92-2.05-2.05V2.38c0-1.13,.92-2.05,2.05-2.05s2.05,.92,2.05,2.05V57.75c0,1.13-.92,2.05-2.05,2.05Z"/></g></g></g></svg>