<?xml version="1.0" encoding="UTF-8"?><svg id="Capa_2" xmlns="http://www.w3.org/2000/svg" viewBox="0 0 61.87 44.46"><defs><style>.cls-1{fill:#fff;}</style></defs><g id="Capa_1-2"><g><path class="cls-1" d="M27.12,44.46c-1.05,0-2.1,0-3.15-.02-.7-.01-1.4-.02-2.1-.02-2.23-.02-4.54-.04-6.82-.19-2.54-.17-6.02-.39-8.89-1.56C.57,40.39,.3,33.68,.12,29.25-.02,25.86,0,22.48,.01,18.75c0-.42,0-.85,0-1.28,0-3.67,0-7.83,1.6-11.29C3.72,1.66,8.21,.93,12.61,.58c3.31-.26,6.67-.34,9.92-.41,6.31-.14,12.83-.29,19.28-.04,3.44,.13,6.56,.36,9.55,.7,2.62,.3,5.57,.81,7.54,3.2,2.11,2.55,2.53,5.92,2.8,9.44,.05,.69,.09,1.4,.12,2.16,.06,1.71,.05,3.44,.03,5.11,0,.78-.01,1.56,0,2.33,0,.54,0,1.08,0,1.63,.02,2.8,.04,5.7-.37,8.56-.55,3.83-1.66,7.94-5.73,9.33-4.17,1.42-8.56,1.51-12.81,1.59h-.36c-1.41,.04-2.81,.07-4.22,.1-3.69,.09-7.47,.17-11.24,.17ZM34.2,2.31c-3.9,0-7.8,.09-11.61,.17-3.22,.07-6.55,.15-9.79,.4-4.03,.32-7.5,.86-9.09,4.27-1.39,2.99-1.39,6.88-1.39,10.31,0,.44,0,.87,0,1.29-.02,3.71-.03,7.05,.11,10.4,.17,4.3,.39,9.65,4.61,11.36,2.52,1.03,5.79,1.24,8.17,1.39,2.22,.14,4.49,.17,6.69,.19,.7,0,1.41,.01,2.11,.02,4.76,.07,9.61-.04,14.3-.15,1.41-.03,2.82-.07,4.23-.09h.36c4.07-.09,8.29-.17,12.11-1.48,2.88-.98,3.71-4.17,4.19-7.47,.39-2.69,.37-5.5,.35-8.22,0-.55,0-1.09,0-1.64,0-.78,0-1.57,0-2.36,.01-1.65,.02-3.35-.03-5.01h0c-.03-.73-.06-1.41-.11-2.07-.24-3.13-.59-6.11-2.27-8.14-1.42-1.72-3.76-2.12-6.02-2.37-2.93-.33-6-.56-9.38-.68-2.5-.1-5.01-.13-7.53-.13Z"/><path class="cls-1" d="M40.32,22.16c-5.2-3.05-10.29-6.04-15.42-9.06V31.22c5.15-3.03,10.24-6.02,15.42-9.06Z"/></g></g></svg>