<?xml version="1.0" encoding="UTF-8"?><svg id="Capa_2" xmlns="http://www.w3.org/2000/svg" viewBox="0 0 82.1 75.94"><defs><style>.cls-1{fill:#fff;}</style></defs><g id="Capa_1-2"><g><path class="cls-1" d="M82.1,49.61v4.82c-1.18,0-2.34,.04-3.5-.02-.73-.04-.94,.19-.94,.93,.03,4.97,.02,9.94,.02,14.91,0,.26,0,.52,0,.88h4.4v4.8H.08v-4.77H4.33v-16.73H.05v-4.81H4.34c.02-.35,.04-.61,.04-.86,0-5.08,0-10.15,.01-15.23,0-.54-.19-.88-.57-1.23C1.5,30.13,.24,27.42,.06,24.25c-.09-1.65-.04-3.31-.03-4.97,0-.27,.11-.57,.25-.82C3.6,12.49,6.94,6.53,10.27,.56,10.49,.16,10.73,0,11.2,0c19.91,.01,39.82,.01,59.73,0,.46,0,.72,.13,.94,.54,3.31,5.98,6.63,11.95,9.95,17.92,.1,.18,.25,.39,.25,.58-.03,2.66,.27,5.34-.51,7.96-.6,2.02-1.64,3.77-3.18,5.19-.52,.48-.7,.97-.7,1.66,.03,4.97,.03,9.94,0,14.91,0,.66,.18,.89,.85,.86,1.17-.05,2.34-.01,3.59-.01ZM9.27,54.47v16.64h63.54v-16.64H9.27Zm53.26-4.91c.03-.15,.06-.25,.06-.35,0-5.24,0-10.47,0-15.71,0-.2-.05-.45-.18-.58-.68-.7-1.38-1.37-2.1-2.07-2.5,3.06-5.68,4.74-9.65,4.73-3.96,0-7.13-1.73-9.61-4.77-5.07,6.41-14.4,6.32-19.22,.13-.56,.51-1.1,1.05-1.7,1.53-.44,.35-.59,.74-.59,1.3,.02,4.97,.01,9.94,.01,14.91v.87H62.53ZM5.14,19.68c.17,.02,.27,.05,.36,.05,4.51,0,9.03,0,13.54,.01,.51,0,.61-.25,.73-.64,1.38-4.54,2.77-9.08,4.15-13.61,.06-.2,.1-.4,.16-.67-3.33,0-6.59,.02-9.84-.02-.61,0-.94,.17-1.25,.71-2.47,4.48-4.99,8.95-7.48,13.42-.13,.23-.23,.46-.37,.74Zm52.5,.02c-1.05-5.01-2.09-9.93-3.12-14.84h-10.99v14.84h14.12Zm19.31-.02c-.06-.16-.09-.25-.14-.34-2.61-4.69-5.21-9.38-7.84-14.05-.14-.24-.57-.45-.87-.45-2.08-.04-4.17-.02-6.25-.02-.77,0-1.53,0-2.4,0,1.06,5.04,2.09,9.96,3.13,14.87h14.39ZM38.62,4.82h-.87c-2.56,0-5.13,.02-7.69-.02-.67-.01-.97,.17-1.16,.84-1.08,3.68-2.23,7.35-3.35,11.02-.3,.99-.59,1.98-.9,3h13.97V4.82ZM9.2,35.46c0,4.51,0,9.07,0,13.63,0,.53,.32,.52,.68,.52,1.34,0,2.67-.03,4.01,.01,.65,.02,.87-.15,.87-.84-.03-4.22-.01-8.44-.02-12.66,0-.23-.03-.46-.05-.67h-5.49Zm63.6,14.11v-14.11h-5.32v14.11h5.32Zm-9.89-24.98c.46,3.58,3.61,6.25,7.21,6.19,3.56-.06,6.66-2.79,6.99-6.19h-14.2Zm-38.61-.01c.33,3.62,3.79,6.43,7.59,6.19,3.39-.22,6.65-3.28,6.55-6.19h-14.14Zm-5.11,.01H5.02c.05,3.09,3.25,6.02,6.71,6.18,3.73,.18,7.07-2.59,7.45-6.18Zm24.44-.01c.25,3.47,3.64,6.32,7.31,6.2,3.52-.11,6.8-3.07,6.83-6.2h-14.13Z"/><path class="cls-1" d="M30.01,60.34h22.12v4.71H30.01v-4.71Z"/></g></g></svg>