<?xml version="1.0" encoding="UTF-8"?><svg id="Capa_2" xmlns="http://www.w3.org/2000/svg" viewBox="0 0 25.01 27.91"><defs><style>.cls-1{fill:#fff;}</style></defs><g id="Capa_1-2"><g><path class="cls-1" d="M3.9,27.91c-.12-.03-.24-.06-.37-.08C1.45,27.4,.02,25.67,.01,23.48c-.01-6.35-.01-12.7,0-19.04C.01,2.25,1.44,.51,3.52,.09,3.82,.03,4.13,0,4.44,0,8.85,0,13.27,0,17.68,0c2.13,0,3.83,1.33,4.33,3.4,.08,.35,.11,.72,.11,1.08,0,2.14,0,4.29,0,6.43,0,.65-.28,1.06-.81,1.2-.62,.17-1.26-.25-1.34-.89-.02-.14-.02-.29-.02-.43,0-2.09,0-4.18,0-6.27,0-.95-.37-1.68-1.23-2.1-.31-.15-.68-.23-1.02-.23-4.42-.01-8.85-.01-13.27,0-1.25,0-2.14,.86-2.23,2.1,0,.1,0,.2,0,.3,0,6.25,0,12.5,0,18.74,0,.97,.35,1.73,1.23,2.15,.32,.15,.71,.22,1.08,.23,1.16,.03,2.32,0,3.49,.01,.46,0,.81,.2,1.01,.62,.19,.39,.16,.79-.12,1.12-.16,.18-.4,.29-.6,.43H3.9Z"/><path class="cls-1" d="M12.67,27.91s-.06-.04-.09-.06c-.6-.24-.88-.76-.7-1.38,.42-1.42,.85-2.83,1.29-4.24,.07-.21,.21-.41,.36-.56,1.95-1.96,3.9-3.91,5.86-5.85,.94-.93,2.07-1.23,3.33-.83,1.24,.39,1.99,1.27,2.23,2.55,.18,.99-.07,1.89-.72,2.67-.14,.17-.3,.32-.45,.47-1.84,1.84-3.69,3.68-5.53,5.53-.25,.25-.54,.42-.88,.51-1.42,.39-2.84,.79-4.27,1.19h-.44Zm6.48-8.86c-.04,.07-.08,.17-.15,.24-.82,.82-1.65,1.64-2.47,2.47-.45,.46-1.01,.86-1.32,1.4-.32,.55-.41,1.23-.6,1.85-.02,.06-.02,.13-.03,.22,.67-.18,1.31-.35,1.94-.54,.15-.04,.3-.13,.41-.24,1.22-1.21,2.43-2.42,3.65-3.64,.06-.06,.12-.13,.16-.18l-1.58-1.58Zm1.69-1.58l1.54,1.53c.64-.5,.54-1.28,.13-1.68-.49-.48-1.17-.41-1.67,.15Z"/><path class="cls-1" d="M11.05,8.72c-1.84,0-3.69,0-5.53,0-.74,0-1.23-.54-1.15-1.24,.06-.49,.45-.87,.96-.93,.05,0,.09,0,.14,0,3.72,0,7.45,0,11.17,0,.67,0,1.15,.5,1.11,1.14-.03,.59-.49,1.03-1.12,1.03-.83,0-1.65,0-2.48,0-1.04,0-2.07,0-3.11,0Z"/><path class="cls-1" d="M11.04,13.08c-1.84,0-3.69,0-5.53,0-.74,0-1.23-.55-1.13-1.25,.06-.49,.46-.87,.97-.92,.1,0,.2,0,.3,0,3.61,0,7.23,0,10.84,0,.13,0,.26,0,.38,.02,.56,.1,.93,.59,.88,1.16-.04,.55-.48,.97-1.04,.99-.49,.02-.98,0-1.47,0-1.4,0-2.8,0-4.2,0Z"/><path class="cls-1" d="M8.86,15.26c1.12,0,2.25,0,3.37,0,.72,0,1.21,.58,1.1,1.28-.08,.53-.53,.9-1.13,.9-1.1,0-2.2,0-3.29,0-1.14,0-2.29,0-3.43,0-.72,0-1.21-.58-1.1-1.28,.08-.53,.53-.9,1.13-.9,1.12,0,2.23,0,3.35,0Z"/></g></g></svg>