<?xml version="1.0" encoding="UTF-8"?><svg id="Capa_2" xmlns="http://www.w3.org/2000/svg" viewBox="0 0 63.74 63.73"><defs><style>.cls-1{fill:#fff;}.cls-2{fill:none;stroke:#fff;stroke-miterlimit:10;stroke-width:1.84px;}</style></defs><g id="Capa_1-2"><g><path class="cls-2" d="M62.82,31.84c0,16.22-12.46,29.55-28.28,30.82-.87,.16-1.76,.16-2.63,.16-2.32,0-4.56-.23-6.71-.71C11.31,58.97,.92,46.6,.92,31.84,.92,14.74,14.83,.92,31.92,.92s30.91,13.82,30.91,30.92"/><path class="cls-1" d="M35.43,24.36c.48-.56,1.44-.96,2.8-.96,1.27,0,2.79,.17,4.23,.58l1.21-6.49c-2.48-.87-5.03-1.11-7.67-1.11s-4.72,.4-6.39,1.36c-1.68,.95-2.8,2-3.43,3.53-.64,1.34-.96,3.66-.96,6.54v2.55h-5.12v7.43h5.12v23.33c2.15,.48,4.39,.71,6.71,.71,.87,0,1.76,0,2.63-.16v-23.88h6.79v-7.43h-6.79v-2.39c0-1.83,.24-2.96,.88-3.59"/></g></g></svg>