<?xml version="1.0" encoding="UTF-8"?><svg id="Capa_2" xmlns="http://www.w3.org/2000/svg" viewBox="0 0 94.89 85.12"><defs><style>.cls-1{fill:#fff;}</style></defs><g id="Capa_1-2"><g><path class="cls-1" d="M94.89,1.31V72.85c-.58,1.03-1.47,1.32-2.62,1.31-7.78-.03-15.56-.02-23.33-.02h-1.1c0,3.01-.01,5.88,0,8.75,0,.95-.27,1.73-1.2,2.09-.88,.34-1.61-.01-2.25-.66-1.67-1.69-3.36-3.37-5.04-5.04-.25-.25-.52-.5-.81-.77-1.94,1.94-3.83,3.81-5.69,5.7-.68,.69-1.41,1.15-2.38,.77-1.02-.41-1.2-1.29-1.19-2.29,.03-2.31,0-4.63,0-6.94v-1.6h-1.21c-15.15,0-30.31,0-45.46,.02-1.15,0-2.05-.28-2.62-1.31V1.31C.58,.28,1.47,0,2.62,0,32.5,.02,62.38,.02,92.27,0c1.15,0,2.05,.28,2.62,1.31Zm-27.06,61.71c3.48,0,6.86,0,10.25-.03,.19,0,.45-.35,.54-.59,.84-2.17,2.32-3.7,4.51-4.48,.5-.18,.64-.41,.64-.93-.01-13.28-.01-26.56,0-39.84,0-.52-.16-.74-.65-.92-2.15-.78-3.66-2.26-4.44-4.41-.19-.53-.43-.7-.98-.7-20.17,.01-40.34,.01-60.5,0-.53,0-.8,.12-1,.67-.76,2.12-2.22,3.62-4.34,4.39-.61,.22-.76,.52-.76,1.13,.02,13.16,.02,26.31,0,39.47,0,.62,.11,.97,.79,1.21,2.03,.72,3.46,2.14,4.21,4.15,.26,.7,.58,.9,1.32,.9,10.28-.03,20.57-.02,30.85-.02h1.01c0-.88-.04-1.62,.01-2.36,.05-.65-.18-1.07-.65-1.51-3.78-3.53-5.41-7.87-4.74-13.01,.77-5.94,5.14-10.78,11.07-12.32,5.66-1.47,11.87,.72,15.4,5.45,4.65,6.23,3.82,14.72-1.94,19.95-.25,.23-.56,.56-.58,.86-.08,.94-.03,1.9-.03,2.93Zm23.28,7.37V3.77H3.76V70.38H49.25v-3.64h-1.13c-10.87,0-21.74,0-32.62,0-1.8,0-2.33-.47-2.55-2.2-.23-1.85-1.53-3.12-3.41-3.35-1.61-.19-2.13-.78-2.13-2.43,0-14.46,0-28.91,0-43.37,0-1.65,.52-2.23,2.13-2.43,1.92-.23,3.19-1.51,3.41-3.44,.18-1.55,.78-2.1,2.36-2.1,21.4,0,42.81,0,64.21,0,1.63,0,2.2,.52,2.4,2.16,.23,1.87,1.51,3.15,3.37,3.38,1.64,.2,2.16,.77,2.16,2.39,0,14.49,0,28.97,0,43.46,0,1.58-.55,2.19-2.09,2.37-1.94,.23-3.22,1.49-3.45,3.41-.19,1.61-.78,2.13-2.42,2.14-3.55,0-7.1,0-10.66,0h-.98v3.66h23.24Zm-32.53-11.08c6.12,0,11.12-5.04,11.1-11.16-.02-6.08-5-11.06-11.09-11.07-6.12-.01-11.14,4.99-11.14,11.11,0,6.12,5.02,11.13,11.14,11.12Zm-5.55,19.41c.34-.31,.56-.51,.77-.72,1.05-1.04,2.09-2.1,3.14-3.14,1.14-1.12,2.07-1.12,3.2-.03,.4,.39,.8,.77,1.18,1.18,.85,.91,1.69,1.83,2.54,2.74l.21-.2v-16.59c-3.7,1.41-7.35,1.39-11.03,0v16.77Z"/><path class="cls-1" d="M43.64,29.67c-7.38,0-14.76,0-22.14,0-.19,0-.37,0-.56,0-1.5,0-2.4-.7-2.4-1.85,0-1.15,.89-1.85,2.4-1.85,15.2,0,30.39,0,45.59,0,.4,0,.81,.03,1.18,.15,.78,.27,1.2,.89,1.2,1.69,0,.81-.41,1.44-1.2,1.69-.43,.14-.91,.15-1.37,.16-7.57,0-15.13,0-22.7,0Z"/><path class="cls-1" d="M43.72,17.76c.83-.86,1.49-1.59,2.2-2.28,1.05-1.02,2.01-1.02,3.06,.02,.7,.69,1.36,1.43,2.14,2.26,.78-.8,1.44-1.52,2.14-2.21,1.12-1.11,2.06-1.1,3.2,.01,1.08,1.06,2.15,2.12,3.21,3.21,.92,.95,.98,2,.19,2.79-.76,.76-1.88,.71-2.8-.17-.73-.7-1.42-1.44-2.22-2.26-.76,.79-1.43,1.51-2.13,2.2-1.1,1.07-2.03,1.07-3.14-.01-.68-.67-1.33-1.37-2.07-2.15-.52,.5-1,.92-1.42,1.39-1.9,2.08-2.82,2.08-4.72-.03-.39-.44-.79-.87-1.32-1.45-.78,.82-1.47,1.55-2.17,2.27-.57,.6-1.25,.91-2.08,.68-1.21-.34-1.75-1.86-.89-2.83,1.27-1.43,2.64-2.77,4.05-4.06,.74-.68,1.68-.54,2.49,.24,.75,.72,1.45,1.51,2.28,2.39Z"/><path class="cls-1" d="M28.3,40.79c-2.44,0-4.88,0-7.32,0-.4,0-.81-.02-1.18-.14-.79-.25-1.22-.86-1.23-1.67-.01-.85,.42-1.49,1.25-1.75,.37-.12,.79-.13,1.19-.14,4.91,0,9.82,0,14.73,0,.25,0,.5,0,.74,.03,.97,.14,1.67,.88,1.69,1.79,.02,.94-.7,1.73-1.71,1.86-.27,.04-.55,.02-.83,.02-2.44,0-4.88,0-7.32,0Z"/><path class="cls-1" d="M28.33,51.91c-2.56,0-5.13,.02-7.69,0-1.54-.01-2.47-1.22-1.96-2.5,.32-.81,.97-1.19,1.81-1.19,5.25-.01,10.5-.02,15.75,0,1.13,0,1.93,.85,1.91,1.86-.01,1.01-.81,1.81-1.95,1.82-2.62,.03-5.25,0-7.87,.01Z"/><path class="cls-1" d="M74.52,25.98c.97,.01,1.83,.89,1.82,1.86-.01,.97-.89,1.83-1.86,1.82-.97-.01-1.83-.89-1.82-1.86,.01-.97,.89-1.83,1.86-1.82Z"/><path class="cls-1" d="M58.52,55.61c-4.07-.04-7.44-3.47-7.37-7.49,.08-4.05,3.44-7.36,7.45-7.32,4.07,.04,7.44,3.47,7.37,7.49-.08,4.05-3.44,7.36-7.45,7.32Zm3.74-7.41c0-2.03-1.69-3.71-3.72-3.7-2,.01-3.65,1.66-3.68,3.65-.03,2.03,1.64,3.73,3.68,3.75,2.03,.01,3.72-1.67,3.72-3.7Z"/></g></g></svg>