<?xml version="1.0" encoding="UTF-8"?><svg id="Capa_2" xmlns="http://www.w3.org/2000/svg" viewBox="0 0 47.51 47.51"><defs><style>.cls-1{fill:#fff;}</style></defs><g id="Capa_1-2"><g><circle class="cls-1" cx="27.75" cy="19.49" r="1.86"/><circle class="cls-1" cx="27.75" cy="27.56" r="1.86"/><circle class="cls-1" cx="35.82" cy="19.49" r="1.86"/><path class="cls-1" d="M45.65,23.2c1.02,0,1.86-.83,1.86-1.86V11.14c0-4.09-3.33-7.42-7.42-7.42h-2.41V1.86c0-1.02-.83-1.86-1.86-1.86s-1.86,.83-1.86,1.86v1.86h-8.44V1.86c0-1.02-.83-1.86-1.86-1.86s-1.86,.83-1.86,1.86v1.86H13.45V1.86c0-1.02-.83-1.86-1.86-1.86s-1.86,.83-1.86,1.86v1.86h-2.32C3.33,3.71,0,7.04,0,11.14v28.95c0,4.09,3.33,7.42,7.42,7.42H30.81c.06,0,.13,0,.19,0,.06,0,.12,0,.18,0,.49,0,.98-.2,1.34-.57l14.48-15.03c.52-.54,.66-1.33,.37-2.01-.29-.68-.96-1.13-1.71-1.13h-8.91c-4.09,0-7.42,3.33-7.42,7.42v7.61H7.42c-2.05,0-3.71-1.67-3.71-3.71V11.14c0-2.05,1.67-3.71,3.71-3.71h2.32v1.86c0,1.02,.83,1.86,1.86,1.86s1.86-.83,1.86-1.86v-1.86h8.35v1.86c0,1.02,.83,1.86,1.86,1.86s1.86-.83,1.86-1.86v-1.86h8.44v1.86c0,1.02,.83,1.86,1.86,1.86s1.86-.83,1.86-1.86v-1.86h2.41c2.05,0,3.71,1.67,3.71,3.71v10.21c0,1.02,.83,1.86,1.86,1.86Zm-12.62,12.99c0-2.05,1.67-3.71,3.71-3.71h4.54l-8.26,8.57v-4.86Z"/><circle class="cls-1" cx="11.6" cy="19.49" r="1.86"/><circle class="cls-1" cx="19.67" cy="27.56" r="1.86"/><circle class="cls-1" cx="11.6" cy="35.63" r="1.86"/><circle class="cls-1" cx="11.6" cy="27.56" r="1.86"/><circle class="cls-1" cx="19.67" cy="35.63" r="1.86"/><circle class="cls-1" cx="19.67" cy="19.49" r="1.86"/></g></g></svg>