<?xml version="1.0" encoding="UTF-8"?><svg id="Capa_2" xmlns="http://www.w3.org/2000/svg" viewBox="0 0 93.22 93.27"><defs><style>.cls-1{fill:#fff;}</style></defs><g id="Capa_1-2"><g><path class="cls-1" d="M19.84,93.27c-1.49-.49-2.95-1.11-3.67-2.6-.45-.93-.82-2-.84-3.01-.08-5.04-.05-10.08-.03-15.12,0-1.54,1.08-2.44,2.38-2.04,.81,.25,1.25,.96,1.26,2.09,0,3.16,0,6.31,0,9.47,0,1.7,0,3.4,0,5.1,0,1.85,.61,2.46,2.46,2.46,16.69,0,33.38,0,50.08,0,5.22,0,10.44,0,15.66,0,1.85,0,2.46-.61,2.46-2.46,0-21.98,0-43.95,0-65.93v-1c-.39,0-.71,0-1.04,0-3.22,0-6.43,0-9.65,0-3.58-.01-5.87-2.29-5.88-5.86-.01-3.52,0-7.04,0-10.71h-.98c-16.87,0-33.75,0-50.62,0-1.89,0-2.48,.6-2.48,2.53,0,.51,0,1.03,0,1.61,1.15-.14,2.25-.28,3.34-.4,.45-.05,.91-.08,1.36-.09,1.47-.04,2.21,.66,2.22,2.13,.01,2.76,0,5.52,0,8.29,0,4.34,0,8.68,0,13.02,0,1.8-.61,2.42-2.39,2.42-7.01,0-14.02,0-21.03,0-1.85,0-2.52-.65-2.42-2.47C.6,20.79,5.4,13.68,14.34,9.39c.7-.34,1.04-.65,.96-1.46-.08-.78-.03-1.58-.01-2.37C15.37,2.36,17.64,.08,20.85,.03c2.37-.04,4.73,0,7.1,0,15.36,0,30.71,0,46.07-.02,1.08,0,1.9,.32,2.66,1.09,5.13,5.17,10.29,10.31,15.44,15.47,.4,.4,.74,.87,1.1,1.31V88.71c-.18,.47-.34,.96-.55,1.42-.79,1.74-2.27,2.6-4,3.13H19.84ZM22.16,11.14c-9.78,.47-18.05,9.43-18.31,18.32H22.16V11.14Zm54.48-4.7c0,2.67,0,5.27,0,7.87,0,1.6,.67,2.26,2.28,2.27,2.39,0,4.79,0,7.18,0,.22,0,.45-.04,.63-.05-3.35-3.35-6.68-6.69-10.09-10.09Z"/><path class="cls-1" d="M28.75,36.07c0-3.51,0-6.88,0-10.25,0-3.22,0-6.43,0-9.65,0-1.72,.66-2.36,2.38-2.32,11.24,.26,20.88,8.37,23.03,19.41,2.54,12.98-5.97,25.65-18.96,28.21-12.95,2.56-25.76-6.02-28.22-18.93-.27-1.39-.35-2.83-.43-4.25-.08-1.52,.64-2.23,2.18-2.23,6.28,0,12.56,0,18.84,0,.36,0,.71,0,1.18,0Zm17.4-11.21c-4.64,4.64-9.23,9.22-13.81,13.83-.71,.72-1.48,1.04-2.5,1.04-6.19-.03-12.38-.01-18.56-.01h-.98c.52,8.67,7.29,16.24,16.18,18.18,8.6,1.87,17.86-2.47,22.06-10.35,4.38-8.21,2.36-17.42-2.38-22.68Zm-13.68-7.29v15.47c3.6-3.6,7.28-7.28,10.97-10.97-3.14-2.56-6.8-4.09-10.97-4.5Z"/><path class="cls-1" d="M79.75,57.52c2.18,0,4.21,1.29,5.02,3.3,.87,2.17,.53,4.21-1.09,5.9-1.62,1.69-3.63,2.1-5.83,1.29-.51-.19-.81-.09-1.17,.28-3.1,3.12-6.21,6.24-9.33,9.33-.39,.39-.51,.7-.32,1.25,.75,2.24-.05,4.62-1.98,6.04-1.85,1.37-4.51,1.36-6.38-.02-1.91-1.41-2.72-3.83-1.97-6.06,.19-.55,.11-.88-.29-1.27-1.93-1.89-3.84-3.8-5.73-5.73-.37-.38-.69-.48-1.18-.24-1.24,.61-2.51,.49-3.81,.15-.33-.09-.85,0-1.08,.22-1.94,1.87-3.82,3.82-5.76,5.69-.43,.41-.34,.75-.19,1.2,.76,2.37-.2,4.97-2.3,6.25-2.17,1.32-4.91,1.02-6.7-.74-1.79-1.76-2.13-4.49-.82-6.7,1.24-2.1,3.89-3.15,6.22-2.37,.62,.21,.97,.09,1.4-.35,1.82-1.87,3.67-3.71,5.53-5.54,.36-.35,.49-.65,.32-1.18-.74-2.28,.06-4.63,1.98-6.06,1.75-1.3,4.29-1.36,6.16-.15,1.92,1.24,2.88,3.6,2.3,5.87-.15,.58,0,.89,.37,1.26,1.97,1.94,3.92,3.89,5.86,5.86,.39,.39,.71,.52,1.26,.32,1.12-.41,2.27-.4,3.38,.04,.46,.18,.75,.1,1.11-.26,3.16-3.19,6.34-6.36,9.52-9.53,.37-.37,.43-.69,.29-1.2-.95-3.5,1.64-6.87,5.23-6.87Zm-16.09,23.01c.03-.95-.81-1.81-1.77-1.83-.98-.02-1.8,.78-1.82,1.76-.02,.98,.78,1.82,1.75,1.85,.94,.02,1.82-.82,1.84-1.78Zm-30.14,1.78c.96-.03,1.79-.91,1.77-1.85-.03-.96-.9-1.78-1.85-1.76-.96,.03-1.78,.88-1.76,1.85,.03,.96,.89,1.79,1.84,1.77Zm46.26-21.14c-.98-.01-1.82,.79-1.84,1.76-.02,.96,.81,1.8,1.79,1.81,.98,.02,1.81-.79,1.83-1.76,.02-.98-.79-1.8-1.78-1.81Zm-30.51,5.4c-.02-.98-.85-1.77-1.83-1.76-.99,.01-1.78,.82-1.76,1.82,.02,.99,.84,1.78,1.82,1.76,.98-.02,1.79-.85,1.77-1.82Z"/><path class="cls-1" d="M72.1,28.97c-3.58,0-7.16,0-10.73,0-1.47,0-2.33-.97-2.04-2.22,.2-.89,.87-1.4,1.96-1.41,1.73-.02,3.46,0,5.19,0,5.46,0,10.92,0,16.37,0,1.27,0,2.03,.51,2.2,1.46,.23,1.29-.61,2.17-2.11,2.18-3.61,.01-7.22,0-10.83,0Z"/><path class="cls-1" d="M72.09,37.72c-3.58,0-7.16,.01-10.73,0-1.47,0-2.33-.97-2.04-2.23,.2-.89,.88-1.4,1.96-1.41,1.94-.02,3.88,0,5.82,0,5.25,0,10.49,0,15.74,0,1.35,0,2.13,.59,2.22,1.65,.1,1.21-.71,1.99-2.14,1.99-3.61,.01-7.22,0-10.83,0Z"/><path class="cls-1" d="M65.77,46.46c-1.45,0-2.91,0-4.36,0-1.32-.01-2.16-.72-2.17-1.81,0-1.09,.84-1.82,2.15-1.82,2.97-.01,5.93-.01,8.9,0,1.33,0,2.16,.72,2.16,1.81,0,1.09-.83,1.81-2.15,1.82-1.51,.01-3.03,0-4.54,0Z"/><path class="cls-1" d="M78.98,42.83c.96,.02,1.78,.88,1.76,1.84-.02,.97-.87,1.8-1.83,1.78-.97-.02-1.76-.85-1.75-1.84,.01-.98,.84-1.8,1.81-1.78Z"/><path class="cls-1" d="M18.91,65.62c-.03,.95-.9,1.79-1.85,1.77-.95-.03-1.79-.9-1.76-1.85,.03-.95,.9-1.79,1.85-1.77,.95,.03,1.79,.9,1.76,1.85Z"/></g></g></svg>