<?xml version="1.0" encoding="UTF-8"?><svg id="Capa_2" xmlns="http://www.w3.org/2000/svg" viewBox="0 0 188.77 39.54"><defs><style>.cls-1{fill:#fff;}</style></defs><g id="Capa_1-2"><g><g><g><path class="cls-1" d="M50.41,18.53c-2.68,0-4.89-.89-6.64-2.67-1.75-1.78-2.62-3.98-2.62-6.59s.87-4.83,2.62-6.6c1.75-1.77,3.96-2.66,6.64-2.66,1.61,0,3.1,.38,4.47,1.13,1.37,.75,2.43,1.78,3.19,3.07l-3.03,1.76c-.44-.8-1.07-1.42-1.88-1.87-.81-.45-1.73-.67-2.75-.67-1.73,0-3.13,.54-4.19,1.63-1.06,1.09-1.59,2.49-1.59,4.22s.53,3.11,1.59,4.2c1.06,1.09,2.46,1.63,4.19,1.63,1.02,0,1.94-.22,2.76-.67,.82-.45,1.45-1.06,1.87-1.84l3.03,1.76c-.76,1.29-1.82,2.31-3.18,3.07-1.36,.76-2.85,1.13-4.48,1.13Z"/><path class="cls-1" d="M71,16.58c-1.31,1.3-2.9,1.95-4.78,1.95s-3.47-.65-4.77-1.95c-1.3-1.3-1.95-2.89-1.95-4.77s.65-3.47,1.95-4.77c1.3-1.3,2.89-1.95,4.77-1.95s3.48,.65,4.78,1.95c1.31,1.3,1.96,2.89,1.96,4.77s-.65,3.47-1.96,4.77Zm-7.24-2.25c.65,.66,1.47,.99,2.46,.99s1.81-.33,2.47-.99c.66-.66,.99-1.5,.99-2.52s-.33-1.86-.99-2.52c-.66-.66-1.48-.99-2.47-.99s-1.8,.33-2.46,.99c-.65,.66-.98,1.5-.98,2.52s.33,1.86,.98,2.52Z"/><path class="cls-1" d="M78.02,9.06c0,.34,.22,.62,.67,.83,.45,.21,1,.4,1.64,.56,.64,.16,1.29,.37,1.93,.61,.64,.25,1.19,.66,1.64,1.23,.45,.58,.67,1.3,.67,2.16,0,1.31-.49,2.31-1.46,3.02-.98,.7-2.19,1.06-3.65,1.06-2.61,0-4.39-1.01-5.34-3.03l2.85-1.6c.37,1.1,1.2,1.65,2.49,1.65,1.17,0,1.76-.36,1.76-1.09,0-.34-.23-.61-.67-.83-.45-.21-1-.4-1.64-.57-.64-.17-1.29-.38-1.93-.64-.64-.25-1.19-.66-1.64-1.21-.45-.55-.67-1.24-.67-2.07,0-1.26,.46-2.24,1.39-2.96,.92-.72,2.07-1.08,3.45-1.08,1.03,0,1.98,.23,2.82,.7,.85,.47,1.52,1.13,2.01,2l-2.8,1.53c-.41-.87-1.09-1.3-2.04-1.3-.42,0-.78,.09-1.06,.28-.28,.19-.42,.44-.42,.76Z"/><path class="cls-1" d="M89.29,13.16c.44,1.59,1.64,2.39,3.59,2.39,1.26,0,2.21-.42,2.85-1.27l2.65,1.53c-1.26,1.82-3.1,2.72-5.55,2.72-2.1,0-3.79-.64-5.06-1.91-1.27-1.27-1.91-2.88-1.91-4.81s.63-3.52,1.88-4.8c1.26-1.28,2.87-1.92,4.84-1.92,1.87,0,3.41,.64,4.62,1.93,1.21,1.29,1.82,2.88,1.82,4.78,0,.42-.04,.87-.13,1.35h-9.59Zm-.05-2.54h6.49c-.19-.87-.57-1.51-1.16-1.93-.59-.42-1.25-.64-2-.64-.88,0-1.61,.22-2.19,.67-.58,.45-.96,1.08-1.15,1.9Z"/><path class="cls-1" d="M107.26,18.53c-1.92,0-3.52-.64-4.8-1.93-1.28-1.29-1.92-2.88-1.92-4.78s.64-3.49,1.92-4.78c1.28-1.29,2.88-1.93,4.8-1.93,1.24,0,2.37,.3,3.38,.89,1.02,.59,1.79,1.39,2.32,2.39l-2.82,1.65c-.25-.53-.64-.94-1.16-1.25-.52-.31-1.1-.46-1.74-.46-.98,0-1.8,.33-2.44,.98-.64,.65-.97,1.49-.97,2.51s.32,1.83,.97,2.48c.64,.65,1.46,.98,2.44,.98,.66,0,1.25-.15,1.77-.45,.52-.3,.9-.71,1.16-1.23l2.85,1.63c-.56,1-1.35,1.8-2.37,2.4-1.02,.6-2.15,.9-3.38,.9Z"/><path class="cls-1" d="M121.82,5.09c1.39,0,2.54,.47,3.45,1.4,.91,.93,1.36,2.22,1.36,3.87v7.81h-3.28v-7.41c0-.85-.23-1.5-.69-1.95-.46-.45-1.07-.67-1.83-.67-.85,0-1.53,.26-2.04,.79-.51,.53-.76,1.32-.76,2.37v6.87h-3.28V.36h3.28V6.87c.8-1.19,2.06-1.78,3.79-1.78Z"/><path class="cls-1" d="M139.1,5.45h3.28v12.72h-3.28v-1.5c-.98,1.24-2.37,1.86-4.15,1.86s-3.15-.65-4.36-1.95c-1.21-1.3-1.82-2.89-1.82-4.77s.61-3.47,1.82-4.77c1.21-1.3,2.67-1.95,4.36-1.95,1.78,0,3.16,.62,4.15,1.86v-1.5Zm-6.06,8.94c.66,.67,1.5,1.01,2.52,1.01s1.86-.33,2.53-1.01,1.01-1.53,1.01-2.58-.34-1.91-1.01-2.58c-.67-.67-1.51-1.01-2.53-1.01s-1.86,.33-2.52,1.01c-.66,.67-.99,1.53-.99,2.58s.33,1.91,.99,2.58Z"/><path class="cls-1" d="M152.43,5.09c1.39,0,2.54,.47,3.45,1.4,.91,.93,1.36,2.22,1.36,3.87v7.81h-3.28v-7.41c0-.85-.23-1.5-.69-1.95-.46-.45-1.07-.67-1.83-.67-.85,0-1.53,.26-2.04,.79-.51,.53-.76,1.32-.76,2.37v6.87h-3.28V5.45h3.28v1.43c.8-1.19,2.06-1.78,3.79-1.78Z"/><path class="cls-1" d="M169.68,.36h3.28V18.17h-3.28v-1.5c-.97,1.24-2.34,1.86-4.12,1.86s-3.18-.65-4.39-1.95c-1.21-1.3-1.82-2.89-1.82-4.77s.61-3.47,1.82-4.77c1.21-1.3,2.68-1.95,4.39-1.95s3.16,.62,4.12,1.86V.36Zm-6.04,14.03c.67,.67,1.51,1.01,2.53,1.01s1.86-.33,2.52-1.01c.66-.67,.99-1.53,.99-2.58s-.33-1.91-.99-2.58c-.66-.67-1.5-1.01-2.52-1.01s-1.86,.33-2.53,1.01c-.67,.67-1.01,1.53-1.01,2.58s.33,1.91,1.01,2.58Z"/><path class="cls-1" d="M186.81,16.58c-1.31,1.3-2.9,1.95-4.78,1.95s-3.47-.65-4.77-1.95c-1.3-1.3-1.95-2.89-1.95-4.77s.65-3.47,1.95-4.77c1.3-1.3,2.89-1.95,4.77-1.95s3.48,.65,4.78,1.95c1.31,1.3,1.96,2.89,1.96,4.77s-.65,3.47-1.96,4.77Zm-7.24-2.25c.65,.66,1.47,.99,2.46,.99s1.81-.33,2.47-.99c.66-.66,.99-1.5,.99-2.52s-.33-1.86-.99-2.52c-.66-.66-1.48-.99-2.47-.99s-1.8,.33-2.46,.99c-.65,.66-.98,1.5-.98,2.52s.33,1.86,.98,2.52Z"/></g><g><path class="cls-1" d="M43.16,24.93c-.54,0-1.01-.2-1.41-.6-.4-.4-.6-.87-.6-1.41s.2-1.02,.6-1.43c.4-.41,.87-.61,1.41-.61s1.04,.2,1.44,.61c.4,.41,.6,.88,.6,1.43s-.2,1.01-.6,1.41c-.4,.4-.88,.6-1.44,.6Zm-1.63,14.25v-12.72h3.28v12.72h-3.28Z"/><path class="cls-1" d="M54.89,26.1c1.39,0,2.54,.47,3.45,1.4,.91,.93,1.36,2.22,1.36,3.87v7.81h-3.28v-7.41c0-.85-.23-1.5-.69-1.95-.46-.45-1.07-.67-1.83-.67-.85,0-1.53,.26-2.04,.79-.51,.53-.76,1.32-.76,2.37v6.87h-3.28v-12.72h3.28v1.43c.8-1.19,2.06-1.78,3.79-1.78Z"/><path class="cls-1" d="M69.57,26.1c1.39,0,2.54,.47,3.45,1.4,.91,.93,1.36,2.22,1.36,3.87v7.81h-3.28v-7.41c0-.85-.23-1.5-.69-1.95-.46-.45-1.07-.67-1.83-.67-.85,0-1.53,.26-2.04,.79-.51,.53-.76,1.32-.76,2.37v6.87h-3.28v-12.72h3.28v1.43c.8-1.19,2.06-1.78,3.79-1.78Z"/><path class="cls-1" d="M88.02,37.59c-1.31,1.3-2.9,1.95-4.78,1.95s-3.47-.65-4.77-1.95c-1.3-1.3-1.95-2.89-1.95-4.77s.65-3.47,1.95-4.77c1.3-1.3,2.89-1.95,4.77-1.95s3.48,.65,4.78,1.95c1.31,1.3,1.96,2.89,1.96,4.77s-.65,3.47-1.96,4.77Zm-7.24-2.25c.65,.66,1.47,.99,2.46,.99s1.81-.33,2.47-.99c.66-.66,.99-1.5,.99-2.52s-.33-1.86-.99-2.52c-.66-.66-1.48-.99-2.47-.99s-1.8,.33-2.46,.99c-.65,.66-.98,1.5-.98,2.52s.33,1.86,.98,2.52Z"/><path class="cls-1" d="M100.16,26.46h3.61l-4.84,12.72h-3.74l-4.84-12.72h3.61l3.08,8.9,3.1-8.9Z"/><path class="cls-1" d="M114.51,26.46h3.28v12.72h-3.28v-1.5c-.98,1.24-2.37,1.86-4.15,1.86s-3.15-.65-4.36-1.95c-1.21-1.3-1.82-2.89-1.82-4.77s.61-3.47,1.82-4.77c1.21-1.3,2.67-1.95,4.36-1.95,1.78,0,3.16,.62,4.15,1.86v-1.5Zm-6.06,8.94c.66,.67,1.5,1.01,2.52,1.01s1.86-.33,2.53-1.01,1.01-1.53,1.01-2.58-.34-1.91-1.01-2.58c-.67-.67-1.51-1.01-2.53-1.01s-1.86,.33-2.52,1.01c-.66,.67-.99,1.53-.99,2.58s.33,1.91,.99,2.58Z"/><path class="cls-1" d="M126.83,39.54c-1.92,0-3.52-.64-4.8-1.93-1.28-1.29-1.92-2.88-1.92-4.78s.64-3.49,1.92-4.78c1.28-1.29,2.88-1.93,4.8-1.93,1.24,0,2.37,.3,3.38,.89,1.02,.59,1.79,1.39,2.32,2.39l-2.82,1.65c-.25-.53-.64-.94-1.16-1.25-.52-.31-1.1-.46-1.74-.46-.98,0-1.8,.33-2.44,.98-.64,.65-.97,1.49-.97,2.51s.32,1.83,.97,2.48c.64,.65,1.46,.98,2.44,.98,.66,0,1.25-.15,1.77-.45,.52-.3,.9-.71,1.16-1.23l2.85,1.63c-.56,1-1.35,1.8-2.37,2.4-1.02,.6-2.15,.9-3.38,.9Z"/><path class="cls-1" d="M135.94,24.93c-.54,0-1.01-.2-1.41-.6-.4-.4-.6-.87-.6-1.41s.2-1.02,.6-1.43c.4-.41,.87-.61,1.41-.61s1.04,.2,1.44,.61c.4,.41,.6,.88,.6,1.43s-.2,1.01-.6,1.41c-.4,.4-.88,.6-1.44,.6Zm-1.63,14.25v-12.72h3.28v12.72h-3.28Z"/><path class="cls-1" d="M151.44,37.59c-1.31,1.3-2.9,1.95-4.78,1.95s-3.47-.65-4.77-1.95c-1.3-1.3-1.95-2.89-1.95-4.77s.65-3.47,1.95-4.77c1.3-1.3,2.89-1.95,4.77-1.95s3.48,.65,4.78,1.95c1.31,1.3,1.96,2.89,1.96,4.77s-.65,3.47-1.96,4.77Zm-7.24-2.25c.65,.66,1.47,.99,2.46,.99s1.81-.33,2.47-.99c.66-.66,.99-1.5,.99-2.52s-.33-1.86-.99-2.52c-.66-.66-1.48-.99-2.47-.99s-1.8,.33-2.46,.99c-.65,.66-.98,1.5-.98,2.52s.33,1.86,.98,2.52Zm.42-10.69h3.16l2.82-3.49h-3.94l-2.04,3.49Z"/><path class="cls-1" d="M162.79,26.1c1.39,0,2.54,.47,3.45,1.4,.91,.93,1.36,2.22,1.36,3.87v7.81h-3.28v-7.41c0-.85-.23-1.5-.69-1.95-.46-.45-1.07-.67-1.83-.67-.85,0-1.53,.26-2.04,.79-.51,.53-.76,1.32-.76,2.37v6.87h-3.28v-12.72h3.28v1.43c.8-1.19,2.06-1.78,3.79-1.78Z"/></g></g><g><path class="cls-1" d="M19.77,20.67c-6.92,0-13.42-3.69-16.98-9.64l-.41-.69,.41-.69C6.35,3.69,12.85,0,19.77,0s13.42,3.69,16.98,9.64l.41,.69-.41,.69c-3.55,5.95-10.06,9.64-16.98,9.64ZM5.54,10.33c3.15,4.73,8.53,7.64,14.23,7.64s11.08-2.91,14.23-7.64c-3.15-4.73-8.53-7.64-14.23-7.64s-11.08,2.91-14.23,7.64Z"/><circle class="cls-1" cx="11.09" cy="27.73" r="1.8"/><circle class="cls-1" cx="28.45" cy="9.6" r="1.8"/><path class="cls-1" d="M19.77,39.54c-7.15,0-13.76-3.88-17.26-10.12l-.37-.66,.37-.66c3.5-6.25,10.11-10.12,17.26-10.12s13.76,3.88,17.26,10.12l.37,.66-.37,.66c-3.5,6.25-10.11,10.12-17.26,10.12ZM5.25,28.76c3.11,5.01,8.6,8.09,14.52,8.09s11.41-3.08,14.52-8.09c-3.11-5.01-8.6-8.09-14.52-8.09s-11.41,3.08-14.52,8.09Z"/><path class="cls-1" d="M19.77,39.54C8.87,39.54,0,30.67,0,19.77S8.87,0,19.77,0c.74,0,1.35,.6,1.35,1.35s-.6,1.35-1.35,1.35C10.36,2.7,2.7,10.36,2.7,19.77s7.66,17.07,17.07,17.07c.74,0,1.35,.6,1.35,1.35s-.6,1.35-1.35,1.35Z"/><path class="cls-1" d="M19.77,39.32c-.74,0-1.35-.6-1.35-1.35V1.57c0-.74,.6-1.35,1.35-1.35s1.35,.6,1.35,1.35V37.97c0,.74-.6,1.35-1.35,1.35Z"/></g></g></g></svg>