<?xml version="1.0" encoding="UTF-8"?><svg id="Capa_2" xmlns="http://www.w3.org/2000/svg" viewBox="0 0 422.64 224.34"><defs><style>.cls-1{fill:#fff;}</style></defs><g id="Capa_1-2"><g><g><path class="cls-1" d="M213.82,48.24c-16.15,0-31.33-8.62-39.63-22.51l-.96-1.61,.96-1.61C182.49,8.62,197.68,0,213.82,0s31.33,8.62,39.63,22.51l.96,1.61-.96,1.61c-8.3,13.88-23.48,22.51-39.63,22.51Zm-33.21-24.12c7.35,11.04,19.9,17.83,33.21,17.83s25.86-6.79,33.21-17.83c-7.35-11.04-19.9-17.83-33.21-17.83s-25.86,6.79-33.21,17.83Z"/><circle class="cls-1" cx="193.57" cy="64.73" r="4.2"/><circle class="cls-1" cx="234.07" cy="22.4" r="4.2"/><path class="cls-1" d="M213.82,92.29c-16.68,0-32.12-9.06-40.28-23.63l-.86-1.54,.86-1.54c8.16-14.58,23.6-23.63,40.28-23.63s32.12,9.06,40.28,23.63l.86,1.54-.86,1.54c-8.16,14.58-23.6,23.63-40.28,23.63Zm-33.88-25.17c7.25,11.69,20.07,18.88,33.88,18.88s26.63-7.19,33.88-18.88c-7.25-11.69-20.07-18.88-33.88-18.88s-26.63,7.19-33.88,18.88Z"/><path class="cls-1" d="M213.82,92.29c-25.45,0-46.15-20.7-46.15-46.15S188.38,0,213.82,0c1.74,0,3.15,1.41,3.15,3.15s-1.41,3.15-3.15,3.15c-21.98,0-39.85,17.88-39.85,39.85s17.88,39.85,39.85,39.85c1.74,0,3.15,1.41,3.15,3.15s-1.41,3.15-3.15,3.15Z"/><path class="cls-1" d="M213.82,91.78c-1.74,0-3.15-1.41-3.15-3.15V3.66c0-1.74,1.41-3.15,3.15-3.15s3.15,1.41,3.15,3.15V88.64c0,1.74-1.41,3.15-3.15,3.15Z"/></g><g><path class="cls-1" d="M26.52,155.64c-7.67,0-14.01-2.55-19.02-7.65-5-5.1-7.5-11.39-7.5-18.87s2.5-13.83,7.5-18.91c5-5.07,11.34-7.61,19.02-7.61,4.61,0,8.88,1.08,12.79,3.24,3.91,2.16,6.96,5.09,9.14,8.78l-8.67,5.03c-1.26-2.28-3.06-4.07-5.39-5.35-2.33-1.29-4.95-1.93-7.87-1.93-4.95,0-8.95,1.55-11.98,4.66-3.04,3.11-4.55,7.14-4.55,12.09s1.52,8.91,4.55,12.02c3.03,3.11,7.03,4.66,11.98,4.66,2.91,0,5.55-.64,7.91-1.93,2.36-1.29,4.14-3.05,5.36-5.28l8.67,5.03c-2.19,3.69-5.22,6.62-9.11,8.78-3.89,2.16-8.16,3.24-12.82,3.24Z"/><path class="cls-1" d="M85.46,150.07c-3.74,3.72-8.31,5.57-13.7,5.57s-9.94-1.86-13.66-5.57c-3.72-3.72-5.57-8.27-5.57-13.66s1.86-9.94,5.57-13.66c3.72-3.72,8.27-5.57,13.66-5.57s9.96,1.86,13.7,5.57c3.74,3.72,5.61,8.27,5.61,13.66s-1.87,9.94-5.61,13.66Zm-20.73-6.45c1.87,1.89,4.21,2.84,7.03,2.84s5.17-.95,7.07-2.84c1.89-1.89,2.84-4.3,2.84-7.21s-.95-5.32-2.84-7.21c-1.89-1.89-4.25-2.84-7.07-2.84s-5.16,.95-7.03,2.84c-1.87,1.89-2.81,4.3-2.81,7.21s.93,5.32,2.81,7.21Z"/><path class="cls-1" d="M105.57,128.54c0,.97,.64,1.76,1.93,2.37,1.29,.61,2.85,1.14,4.7,1.6,1.85,.46,3.69,1.04,5.54,1.75,1.85,.7,3.41,1.88,4.7,3.53,1.29,1.65,1.93,3.72,1.93,6.19,0,3.74-1.4,6.62-4.19,8.63-2.79,2.02-6.28,3.02-10.45,3.02-7.48,0-12.58-2.89-15.3-8.67l8.16-4.59c1.07,3.16,3.45,4.74,7.14,4.74,3.35,0,5.03-1.04,5.03-3.13,0-.97-.64-1.76-1.93-2.37-1.29-.61-2.85-1.15-4.7-1.64-1.85-.49-3.69-1.09-5.54-1.82-1.85-.73-3.41-1.88-4.7-3.46-1.29-1.58-1.93-3.56-1.93-5.94,0-3.59,1.32-6.42,3.97-8.49,2.65-2.06,5.94-3.1,9.87-3.1,2.96,0,5.66,.67,8.09,2,2.43,1.34,4.35,3.24,5.76,5.72l-8.01,4.37c-1.17-2.48-3.11-3.72-5.83-3.72-1.21,0-2.22,.27-3.02,.8-.8,.54-1.2,1.26-1.2,2.19Z"/><path class="cls-1" d="M137.85,140.27c1.26,4.57,4.69,6.85,10.27,6.85,3.59,0,6.31-1.21,8.16-3.64l7.58,4.37c-3.59,5.2-8.89,7.8-15.88,7.8-6.02,0-10.86-1.82-14.5-5.46-3.64-3.64-5.46-8.23-5.46-13.77s1.8-10.07,5.39-13.73c3.59-3.67,8.21-5.5,13.84-5.5,5.34,0,9.75,1.85,13.22,5.54,3.47,3.69,5.21,8.26,5.21,13.7,0,1.21-.12,2.5-.36,3.86h-27.47Zm-.15-7.29h18.58c-.54-2.48-1.64-4.32-3.32-5.54-1.68-1.21-3.58-1.82-5.72-1.82-2.53,0-4.61,.64-6.27,1.93-1.65,1.29-2.74,3.1-3.28,5.43Z"/><path class="cls-1" d="M189.28,155.64c-5.49,0-10.07-1.85-13.73-5.54-3.67-3.69-5.5-8.26-5.5-13.7s1.83-10.01,5.5-13.7c3.67-3.69,8.24-5.54,13.73-5.54,3.54,0,6.78,.85,9.69,2.55,2.91,1.7,5.12,3.98,6.63,6.85l-8.09,4.74c-.73-1.5-1.83-2.7-3.31-3.57-1.48-.87-3.15-1.31-4.99-1.31-2.82,0-5.15,.94-6.99,2.8-1.85,1.87-2.77,4.26-2.77,7.18s.92,5.23,2.77,7.1c1.85,1.87,4.18,2.8,6.99,2.8,1.89,0,3.58-.42,5.06-1.27,1.48-.85,2.59-2.03,3.31-3.53l8.16,4.66c-1.6,2.87-3.86,5.16-6.78,6.88-2.91,1.72-6.15,2.59-9.69,2.59Z"/><path class="cls-1" d="M230.96,117.17c3.98,0,7.27,1.34,9.87,4.01,2.6,2.67,3.9,6.36,3.9,11.07v22.37h-9.4v-21.2c0-2.43-.66-4.29-1.97-5.57-1.31-1.29-3.06-1.93-5.25-1.93-2.43,0-4.37,.75-5.83,2.26-1.46,1.51-2.19,3.76-2.19,6.78v19.67h-9.4v-51h9.4v18.65c2.28-3.4,5.9-5.1,10.86-5.1Z"/><path class="cls-1" d="M280.43,118.19h9.4v36.43h-9.4v-4.3c-2.82,3.55-6.78,5.32-11.88,5.32s-9.02-1.86-12.49-5.57c-3.47-3.72-5.21-8.27-5.21-13.66s1.74-9.94,5.21-13.66c3.47-3.72,7.64-5.57,12.49-5.57,5.1,0,9.06,1.77,11.88,5.32v-4.3Zm-17.34,25.61c1.89,1.92,4.3,2.88,7.21,2.88s5.33-.96,7.25-2.88c1.92-1.92,2.88-4.38,2.88-7.39s-.96-5.48-2.88-7.39c-1.92-1.92-4.33-2.88-7.25-2.88s-5.32,.96-7.21,2.88c-1.89,1.92-2.84,4.38-2.84,7.39s.95,5.48,2.84,7.39Z"/><path class="cls-1" d="M318.6,117.17c3.98,0,7.27,1.34,9.87,4.01,2.6,2.67,3.9,6.36,3.9,11.07v22.37h-9.4v-21.2c0-2.43-.66-4.29-1.97-5.57-1.31-1.29-3.06-1.93-5.25-1.93-2.43,0-4.37,.75-5.83,2.26-1.46,1.51-2.19,3.76-2.19,6.78v19.67h-9.4v-36.43h9.4v4.08c2.28-3.4,5.9-5.1,10.86-5.1Z"/><path class="cls-1" d="M368,103.62h9.4v51h-9.4v-4.3c-2.77,3.55-6.7,5.32-11.8,5.32s-9.1-1.86-12.57-5.57c-3.47-3.72-5.21-8.27-5.21-13.66s1.74-9.94,5.21-13.66c3.47-3.72,7.66-5.57,12.57-5.57s9.03,1.77,11.8,5.32v-18.87Zm-17.3,40.18c1.92,1.92,4.33,2.88,7.25,2.88s5.32-.96,7.21-2.88c1.89-1.92,2.84-4.38,2.84-7.39s-.95-5.48-2.84-7.39c-1.89-1.92-4.3-2.88-7.21-2.88s-5.33,.96-7.25,2.88c-1.92,1.92-2.88,4.38-2.88,7.39s.96,5.48,2.88,7.39Z"/><path class="cls-1" d="M417.03,150.07c-3.74,3.72-8.31,5.57-13.7,5.57s-9.94-1.86-13.66-5.57c-3.72-3.72-5.57-8.27-5.57-13.66s1.86-9.94,5.57-13.66c3.72-3.72,8.27-5.57,13.66-5.57s9.96,1.86,13.7,5.57c3.74,3.72,5.61,8.27,5.61,13.66s-1.87,9.94-5.61,13.66Zm-20.73-6.45c1.87,1.89,4.21,2.84,7.03,2.84s5.17-.95,7.07-2.84c1.89-1.89,2.84-4.3,2.84-7.21s-.95-5.32-2.84-7.21c-1.89-1.89-4.25-2.84-7.07-2.84s-5.16,.95-7.03,2.84c-1.87,1.89-2.81,4.3-2.81,7.21s.93,5.32,2.81,7.21Z"/></g><g><path class="cls-1" d="M6.72,175.52c-1.82,0-3.39-.67-4.72-2C.67,172.19,0,170.62,0,168.8s.67-3.4,2-4.76c1.33-1.36,2.91-2.04,4.72-2.04s3.47,.68,4.81,2.04c1.33,1.36,2,2.95,2,4.76s-.67,3.39-2,4.72c-1.33,1.33-2.93,2-4.81,2ZM1.28,223.15v-42.53H12.25v42.53H1.28Z"/><path class="cls-1" d="M45.93,179.43c4.65,0,8.49,1.56,11.52,4.68,3.03,3.12,4.55,7.43,4.55,12.93v26.11h-10.97v-24.75c0-2.83-.77-5-2.3-6.51-1.53-1.5-3.57-2.25-6.12-2.25-2.84,0-5.1,.88-6.8,2.64-1.7,1.76-2.55,4.4-2.55,7.91v22.97h-10.97v-42.53h10.97v4.76c2.66-3.97,6.89-5.95,12.67-5.95Z"/><path class="cls-1" d="M95.01,179.43c4.65,0,8.49,1.56,11.52,4.68,3.03,3.12,4.55,7.43,4.55,12.93v26.11h-10.97v-24.75c0-2.83-.77-5-2.3-6.51-1.53-1.5-3.57-2.25-6.12-2.25-2.84,0-5.1,.88-6.8,2.64-1.7,1.76-2.55,4.4-2.55,7.91v22.97h-10.97v-42.53h10.97v4.76c2.66-3.97,6.89-5.95,12.67-5.95Z"/><path class="cls-1" d="M156.67,217.84c-4.37,4.34-9.7,6.51-15.99,6.51s-11.61-2.17-15.95-6.51c-4.34-4.34-6.51-9.65-6.51-15.95s2.17-11.61,6.51-15.95c4.34-4.34,9.65-6.51,15.95-6.51s11.62,2.17,15.99,6.51c4.37,4.34,6.55,9.65,6.55,15.95s-2.18,11.61-6.55,15.95Zm-24.2-7.53c2.18,2.21,4.92,3.32,8.21,3.32s6.04-1.11,8.25-3.32c2.21-2.21,3.32-5.02,3.32-8.42s-1.11-6.21-3.32-8.42c-2.21-2.21-4.96-3.32-8.25-3.32s-6.03,1.11-8.21,3.32c-2.18,2.21-3.27,5.02-3.27,8.42s1.09,6.21,3.27,8.42Z"/><path class="cls-1" d="M197.24,180.63h12.08l-16.16,42.53h-12.5l-16.16-42.53h12.08l10.31,29.76,10.36-29.76Z"/><path class="cls-1" d="M245.22,180.63h10.97v42.53h-10.97v-5.02c-3.29,4.14-7.91,6.21-13.86,6.21s-10.53-2.17-14.59-6.51c-4.05-4.34-6.08-9.65-6.08-15.95s2.03-11.61,6.08-15.95c4.05-4.34,8.92-6.51,14.59-6.51,5.95,0,10.58,2.07,13.86,6.21v-5.02Zm-20.24,29.9c2.21,2.24,5.02,3.36,8.42,3.36s6.22-1.12,8.46-3.36c2.24-2.24,3.36-5.12,3.36-8.63s-1.12-6.39-3.36-8.63c-2.24-2.24-5.06-3.36-8.46-3.36s-6.21,1.12-8.42,3.36c-2.21,2.24-3.32,5.12-3.32,8.63s1.11,6.39,3.32,8.63Z"/><path class="cls-1" d="M286.38,224.34c-6.41,0-11.75-2.15-16.03-6.46-4.28-4.31-6.42-9.64-6.42-15.99s2.14-11.68,6.42-15.99c4.28-4.31,9.62-6.46,16.03-6.46,4.14,0,7.91,.99,11.31,2.98,3.4,1.99,5.98,4.65,7.74,8l-9.44,5.53c-.85-1.76-2.14-3.15-3.87-4.17-1.73-1.02-3.67-1.53-5.83-1.53-3.29,0-6.01,1.09-8.17,3.27-2.16,2.18-3.23,4.98-3.23,8.38s1.08,6.11,3.23,8.29c2.15,2.18,4.88,3.27,8.17,3.27,2.21,0,4.18-.5,5.91-1.49,1.73-.99,3.02-2.37,3.87-4.13l9.53,5.44c-1.87,3.35-4.51,6.03-7.91,8.04-3.4,2.01-7.17,3.02-11.31,3.02Z"/><path class="cls-1" d="M316.83,175.52c-1.82,0-3.39-.67-4.72-2-1.33-1.33-2-2.91-2-4.72s.67-3.4,2-4.76c1.33-1.36,2.91-2.04,4.72-2.04s3.47,.68,4.81,2.04c1.33,1.36,2,2.95,2,4.76s-.67,3.39-2,4.72c-1.33,1.33-2.93,2-4.81,2Zm-5.44,47.63v-42.53h10.97v42.53h-10.97Z"/><path class="cls-1" d="M368.63,217.84c-4.37,4.34-9.7,6.51-15.99,6.51s-11.61-2.17-15.95-6.51c-4.34-4.34-6.51-9.65-6.51-15.95s2.17-11.61,6.51-15.95c4.34-4.34,9.65-6.51,15.95-6.51s11.62,2.17,15.99,6.51c4.37,4.34,6.55,9.65,6.55,15.95s-2.18,11.61-6.55,15.95Zm-24.2-7.53c2.18,2.21,4.92,3.32,8.21,3.32s6.04-1.11,8.25-3.32c2.21-2.21,3.32-5.02,3.32-8.42s-1.11-6.21-3.32-8.42c-2.21-2.21-4.96-3.32-8.25-3.32s-6.03,1.11-8.21,3.32c-2.18,2.21-3.27,5.02-3.27,8.42s1.09,6.21,3.27,8.42Zm1.4-35.72h10.55l9.44-11.65h-13.18l-6.8,11.65Z"/><path class="cls-1" d="M406.57,179.43c4.65,0,8.49,1.56,11.52,4.68,3.03,3.12,4.55,7.43,4.55,12.93v26.11h-10.97v-24.75c0-2.83-.77-5-2.3-6.51-1.53-1.5-3.57-2.25-6.12-2.25-2.84,0-5.1,.88-6.8,2.64-1.7,1.76-2.55,4.4-2.55,7.91v22.97h-10.97v-42.53h10.97v4.76c2.66-3.97,6.89-5.95,12.67-5.95Z"/></g></g></g></svg>