<?xml version="1.0" encoding="UTF-8"?><svg id="Capa_2" xmlns="http://www.w3.org/2000/svg" viewBox="0 0 63.74 63.76"><defs><style>.cls-1{fill:#fff;fill-rule:evenodd;}.cls-2{fill:none;stroke:#fff;stroke-miterlimit:10;stroke-width:1.84px;}</style></defs><g id="Capa_1-2"><g><path class="cls-2" d="M62.82,31.89c0,17.08-13.86,30.94-30.94,30.94S.92,48.97,.92,31.89,14.77,.92,31.88,.92s30.94,13.85,30.94,30.97"/><path class="cls-1" d="M13.14,44.49c2.94,.19,5.8-.26,8.48-1.47,1.21-.52,2.31-1.17,3.4-2.03-1.28-.04-2.45-.33-3.52-.88-1.82-.91-3.1-2.38-3.88-4.33q-.17-.43,.3-.4c1.3,.11,2.25,.09,2.99-.2-.7-.24-1.37-.38-1.92-.75-2.71-1.49-4.15-3.82-4.4-6.92-.03-.36,.07-.4,.4-.25,.95,.52,1.99,.77,3.19,.88-.52-.47-.97-.85-1.37-1.25-2.25-2.42-2.79-6.28-1.29-9.22,.2-.39,.28-.39,.55-.09,3.79,4.37,8.51,7.02,14.2,7.92,.58,.12,1.21,.13,1.8,.23,.4,.07,.45-.12,.39-.43-.59-3.42,1.01-6.79,4.04-8.51,3.09-1.8,7.1-1.23,9.58,1.2,.29,.25,.56,.32,.9,.22,1.53-.33,2.96-.91,4.3-1.67,.11-.03,.2-.1,.35-.22-.58,1.92-1.73,3.33-3.43,4.49,1.57-.16,2.99-.61,4.39-1.15,.03,.2-.12,.32-.2,.47-.95,1.3-2.06,2.47-3.38,3.45-.24,.2-.3,.35-.3,.66,.1,5.96-1.81,11.27-5.61,15.88-3.58,4.21-8.15,6.74-13.59,7.63-5.77,.89-11.2-.09-16.19-3.16-.06-.04-.13-.09-.17-.09"/></g></g></svg>