<?xml version="1.0" encoding="UTF-8"?><svg id="Capa_2" xmlns="http://www.w3.org/2000/svg" viewBox="0 0 28.61 28.62"><defs><style>.cls-1{fill:#fff;}</style></defs><g id="Capa_1-2"><g><path class="cls-1" d="M0,14.29C0,6.38,6.43-.02,14.35,0c7.89,.02,14.29,6.44,14.27,14.34-.02,7.9-6.43,14.29-14.33,14.28C6.39,28.61,0,22.19,0,14.29Zm3.06,0c0,6.2,5.02,11.24,11.22,11.25,6.21,.01,11.26-5.03,11.27-11.24,0-6.2-5.02-11.24-11.22-11.25-6.21-.01-11.26,5.03-11.27,11.24Z"/><path class="cls-1" d="M13.11,16.93c0-.21,0-.32,0-.44,0-2.75,0-5.5,0-8.25,0-1.12,1.03-1.87,2.05-1.51,.63,.22,1.01,.79,1.01,1.52,0,2.68,0,5.37,0,8.05,0,.12,0,.24,0,.44,.51-.51,.96-.96,1.41-1.41,.28-.28,.61-.47,1.02-.5,.66-.04,1.21,.27,1.5,.84,.29,.58,.2,1.24-.26,1.73-.3,.33-.62,.63-.93,.95-.88,.88-1.75,1.77-2.63,2.64-.95,.95-2.22,.98-3.21,.07-1.28-1.16-2.55-2.34-3.82-3.51-.7-.65-.76-1.6-.15-2.25,.59-.63,1.54-.64,2.23,0,.57,.52,1.14,1.05,1.78,1.63Z"/></g></g></svg>