<?xml version="1.0" encoding="UTF-8"?><svg id="Capa_2" xmlns="http://www.w3.org/2000/svg" viewBox="0 0 87.56 87.56"><defs><style>.cls-1{fill:#fff;}</style></defs><g id="Capa_1-2"><g><path class="cls-1" d="M60.37,0c.12,.06,.24,.13,.37,.17,3.05,.83,4.92,3.22,4.93,6.37,.01,5.36,.01,10.71,0,16.07,0,3.77-2.71,6.51-6.51,6.58-2.31,.04-4.62,.03-6.92,0-.59,0-1,.16-1.39,.62-1.57,1.84-3.17,3.66-4.78,5.47-1.5,1.69-3.33,1.62-4.68-.17-1.29-1.7-2.59-3.4-3.83-5.14-.41-.57-.84-.8-1.54-.79-2.42,.04-4.84,.02-7.27,.01-4.16-.01-6.85-2.7-6.85-6.84,0-5.1,0-10.2,0-15.3,0-3.76,1.55-5.84,5.18-6.94,.05-.01,.08-.07,.12-.11H60.37Zm-16.42,29.4c1.29-1.47,2.53-2.81,3.68-4.22,.84-1.04,1.83-1.5,3.18-1.47,2.68,.07,5.36,.02,8.04,.02,1.09,0,1.36-.28,1.36-1.37,0-5.16,0-10.32,0-15.47,0-1.16-.25-1.41-1.39-1.41-10,0-20.01,0-30.01,0-1.21,0-1.43,.23-1.43,1.45,0,5.1,0,10.2,0,15.3,0,1.26,.23,1.5,1.49,1.5,2.99,0,5.98,.03,8.98-.01,1.29-.02,2.23,.44,2.98,1.48,.99,1.39,2.04,2.73,3.14,4.2Z"/><path class="cls-1" d="M60.37,87.56c-1.62-.74-2.13-2.04-2.03-3.74,.08-1.45,.03-2.9,.01-4.36-.04-2.72-1.9-4.66-4.62-4.67-6.64-.04-13.27-.04-19.91,0-2.72,.02-4.58,1.96-4.62,4.67-.02,1.48-.07,2.97,.01,4.44,.09,1.68-.45,2.93-2.03,3.65h-1.37c-1.59-.63-2.21-1.8-2.11-3.49,.12-2.19-.12-4.42,.24-6.56,.81-4.82,4.85-8.15,9.74-8.19,6.72-.06,13.45-.07,20.17,0,5.62,.06,9.89,4.43,9.96,10.05,.02,1.6-.06,3.19,.02,4.79,.09,1.67-.57,2.79-2.11,3.4h-1.37Z"/><path class="cls-1" d="M0,9.06c.13-.4,.24-.81,.39-1.21C1.29,5.35,3.57,3.72,6.36,3.65c1.79-.05,3.59-.04,5.38,0,1.68,.03,2.85,1.21,2.83,2.79-.02,1.54-1.18,2.65-2.83,2.67-1.65,.02-3.3,0-4.96,0-1.03,0-1.31,.3-1.31,1.34,0,5.21,0,10.43,0,15.64,0,.98,.29,1.26,1.27,1.28,.4,0,.8,.02,1.2,0,1.01-.04,1.82,.34,2.48,1.1,1.3,1.51,2.62,3,4,4.57,.32-.43,.6-.81,.89-1.17,.96-1.18,2.55-1.41,3.74-.56,1.22,.87,1.53,2.52,.65,3.79-.95,1.35-1.93,2.68-2.96,3.97-1.13,1.42-3.01,1.46-4.23,.09-1.71-1.91-3.37-3.86-5.09-5.77-.23-.26-.63-.51-.97-.52-3.26-.18-5.45-1.91-6.3-5.03-.03-.1-.1-.19-.15-.29V9.06Z"/><path class="cls-1" d="M87.56,27.36c-.1,.32-.2,.64-.3,.96-.82,2.63-3.17,4.44-5.92,4.49-.57,.01-.94,.21-1.3,.62-1.6,1.86-3.21,3.7-4.83,5.54-1.45,1.64-3.31,1.55-4.62-.19-.87-1.16-1.75-2.32-2.6-3.5-.99-1.36-.79-3,.46-3.94,1.24-.94,2.89-.66,3.91,.66,.24,.31,.48,.63,.78,1.03,1.19-1.35,2.4-2.63,3.49-4.01,.97-1.23,2.11-1.78,3.68-1.69,1.67,.1,1.78-.08,1.78-1.78,0-5.01,0-10.03,0-15.04,0-1.14-.26-1.41-1.4-1.41-1.6,0-3.19,0-4.79,0-1.72-.02-2.89-1.11-2.91-2.68-.02-1.59,1.13-2.75,2.83-2.78,1.79-.03,3.59-.05,5.38,0,3.12,.09,5.45,2.01,6.2,5.03,.03,.13,.1,.26,.16,.39V27.36Z"/><path class="cls-1" d="M0,74.39c.41-1.66,.91-3.28,1.98-4.66,2.03-2.62,4.69-4,8.01-4.05,2.99-.04,5.98-.02,8.97,0,1.68,0,2.9,1.14,2.93,2.69,.02,1.59-1.21,2.77-2.93,2.78-2.88,.01-5.75,0-8.63,0-2.94,0-4.84,1.92-4.85,4.88,0,.46,0,.91,0,1.37-.02,1.42-.9,2.56-2.16,2.81-1.37,.27-2.55-.38-3.15-1.75-.05-.1-.11-.2-.16-.29v-3.76Z"/><path class="cls-1" d="M87.56,78.15c-.48,1.09-1.16,1.96-2.46,2.07-1.64,.14-2.95-1.02-3.01-2.67-.02-.57,0-1.14,0-1.71-.03-2.74-1.96-4.69-4.68-4.71-2.99-.02-5.98,0-8.97-.01-1.44-.01-2.6-1.06-2.75-2.43-.15-1.38,.77-2.67,2.15-2.97,.3-.07,.62-.06,.93-.06,2.79,0,5.58,0,8.38,0,5.31,0,9.23,3.21,10.28,8.42,.02,.11,.09,.2,.14,.3v3.76Z"/><path class="cls-1" d="M43.76,63.83c-6.03,0-10.92-4.9-10.93-10.92,0-6,4.91-10.94,10.92-10.96,6.02-.02,10.99,4.95,10.97,10.99-.02,6.02-4.93,10.9-10.96,10.89Zm0-5.48c3.04,0,5.49-2.44,5.48-5.46,0-3.01-2.51-5.5-5.5-5.47-2.98,.03-5.42,2.47-5.44,5.45-.01,3.03,2.43,5.48,5.46,5.49Z"/><path class="cls-1" d="M7.32,54.71c0-4.02,3.27-7.29,7.27-7.29,4.03,0,7.32,3.32,7.3,7.36-.02,3.99-3.35,7.28-7.33,7.25-4.01-.03-7.25-3.3-7.24-7.32Zm5.48,.02c0,.99,.78,1.79,1.76,1.82,1,.02,1.86-.82,1.85-1.83,0-.97-.81-1.79-1.78-1.82-1.01-.03-1.84,.8-1.84,1.83Z"/><path class="cls-1" d="M80.24,54.72c0,4.02-3.24,7.29-7.25,7.31-4.01,.02-7.33-3.31-7.32-7.34,.02-3.99,3.32-7.28,7.31-7.27,4,0,7.26,3.28,7.26,7.3Zm-5.48,.04c.02-1.02-.8-1.87-1.8-1.86-.97,0-1.79,.81-1.81,1.79-.02,1,.82,1.87,1.82,1.86,.98,0,1.78-.8,1.8-1.79Z"/></g></g></svg>