<?xml version="1.0" encoding="UTF-8"?><svg id="Capa_2" xmlns="http://www.w3.org/2000/svg" viewBox="0 0 63.75 63.76"><defs><style>.cls-1{fill:#fff;}.cls-2{fill:none;stroke:#fff;stroke-miterlimit:10;stroke-width:1.84px;}</style></defs><g id="Capa_1-2"><g><path class="cls-2" d="M62.83,31.88c0,17.11-13.87,30.96-30.97,30.96S.92,48.99,.92,31.88,14.77,.92,31.86,.92s30.97,13.86,30.97,30.96"/><g><path class="cls-1" d="M16.31,19.02c0-2.32,1.62-3.9,3.99-3.9s3.99,1.58,3.99,3.9-1.58,3.9-3.99,3.9-3.99-1.58-3.99-3.9m.74,29.23V25.98c0-.51,.28-.79,.79-.79h4.96c.51,0,.79,.28,.79,.79v22.27c0,.51-.28,.79-.79,.79h-4.96c-.51,0-.79-.28-.79-.79"/><path class="cls-1" d="M49.08,33.26v14.99c0,.51-.28,.79-.79,.79h-4.96c-.51,0-.79-.28-.79-.79v-13.64c0-2.46-1.49-4.17-3.76-4.17s-3.85,1.67-3.85,4.17v13.64c0,.51-.28,.79-.79,.79h-4.96c-.51,0-.79-.28-.79-.79V25.98c0-.51,.28-.79,.79-.79h4.96c.51,0,.79,.28,.79,.79v1.3c0,.23,.14,.33,.28,.14,1.3-1.76,3.15-2.6,5.61-2.6,4.87,0,8.26,3.16,8.26,8.44"/></g></g></g></svg>