<?xml version="1.0" encoding="UTF-8"?><svg id="Capa_2" xmlns="http://www.w3.org/2000/svg" viewBox="0 0 63.74 63.77"><defs><style>.cls-1{fill:#fff;fill-rule:evenodd;}.cls-2{fill:none;stroke:#fff;stroke-miterlimit:10;stroke-width:1.84px;}</style></defs><g id="Capa_1-2"><g><path class="cls-2" d="M62.82,31.89c0,17.09-13.85,30.96-30.96,30.96S.92,48.99,.92,31.89,14.78,.92,31.86,.92s30.96,13.88,30.96,30.97"/><path class="cls-1" d="M44.18,15.19H19.57c-2.93,0-4.44,1.53-4.44,4.47v24.55c0,2.83,1.56,4.38,4.3,4.38h24.76c2.86,0,4.43-1.56,4.43-4.43V19.56c0-2.84-1.57-4.37-4.43-4.37m-2.71,3.77q3.32,0,3.32,3.32t-3.26,3.24-3.29-3.29,3.23-3.27m-9.58,6.45c3.49,0,6.49,3.01,6.43,6.49-.03,3.56-3,6.52-6.55,6.46-3.52-.09-6.49-3.04-6.4-6.55,.09-3.5,3.03-6.4,6.52-6.4m12.9,17.4c-.03,1.56-.43,2-1.99,2H20.93c-1.53,0-1.96-.45-1.96-2,0-4.01,.01-8.11-.06-12.17,0-1.16,.32-1.42,1.38-1.37,1.53,.1,1.56,.04,1.39,1.53-.59,5.18,2.99,10.18,8.08,11.18,5.25,1.01,10.5-2.13,11.94-7.17,.43-1.57,.56-3.24,.23-4.8-.11-.58,.03-.69,.55-.69,2.31-.17,2.31-.22,2.31,2.18v11.32Z"/></g></g></svg>