<?xml version="1.0" encoding="UTF-8"?><svg id="Capa_2" xmlns="http://www.w3.org/2000/svg" xmlns:xlink="http://www.w3.org/1999/xlink" viewBox="0 0 137.5 137.84"><defs><style>.cls-1{fill:#fff;}.cls-2{fill:#ff7634;}.cls-3{opacity:.4;}.cls-4{clip-path:url(#clippath);}.cls-5{fill:#004ba5;}</style><clipPath id="clippath"><ellipse class="cls-5" cx="68.68" cy="68.92" rx="45.07" ry="45.19"/></clipPath></defs><g id="Capa_1-2"><g><ellipse class="cls-2" cx="68.75" cy="68.92" rx="68.75" ry="68.92"/><g><g><ellipse class="cls-5" cx="68.68" cy="68.92" rx="45.07" ry="45.19"/><g class="cls-4"><g class="cls-3"><path class="cls-1" d="M99.76,91.26s-.92-2.61,2.09-3.83c0,0-1.58,3.01,1.58,4.49,0,0-1.44,.94-3.67-.66Z"/><path class="cls-1" d="M93.77,79.6s-2.66,3.98,.04,8.33c0,0-2.89-3.09-1.57-7.35l1.53-.97Z"/><path class="cls-1" d="M96.36,77.41c-3.49,2.22-4.53,6.87-2.31,10.37,1.25,1.97,3.26,3.16,5.4,3.43l-.04-.74s-.07-.05-.1-.07c-5.45-3.89-1.12-7.95-1.12-7.95,2.31-2.95,.62-6.04,.62-6.04-.85,.18-1.68,.52-2.45,1.01Zm.94,4.79c-2.07-.44-2.67-2.36-2.67-2.36,1.17,2.13,3.43,1.96,3.43,1.96l-.76,.41Zm.22-3.08c-.14,.26-.46,.35-.72,.21-.26-.14-.35-.46-.21-.72,.14-.26,.46-.35,.72-.21,.26,.14,.35,.46,.21,.72Z"/><path class="cls-1" d="M107.62,88.95s-1.27,7.89-10.06,6.41l1.43,2.26s7.82,1.81,10.06-6.41l-1.43-2.26Z"/><path class="cls-1" d="M95.64,101.43s-1.96-1.94-4.35,.27c0,0,3.39-.16,3.39,3.34,0,0,1.46-.91,.96-3.61Z"/><path class="cls-1" d="M87.65,91.03s4.73-.72,7.5,3.57c0,0-1.56-3.94-5.97-4.54l-1.53,.97Z"/><path class="cls-1" d="M84.57,92.46c-.77,.49-1.43,1.1-1.95,1.79,0,0,2.07,2.85,5.72,2,0,0,5.5-2.2,6.7,4.4,0,.04,.02,.08,.02,.13l.65,.35c.67-2.06,.45-4.39-.8-6.36-2.22-3.5-6.85-4.54-10.35-2.31Zm1.55,1.22c.02,.29-.21,.55-.5,.56-.29,.02-.54-.21-.56-.5-.02-.29,.2-.55,.5-.56,.29-.02,.54,.21,.56,.5Zm2.37,1.67l-.69,.52s1.12-1.98-.31-3.94c0,0,1.48,1.36,1,3.43Z"/><path class="cls-1" d="M86.81,114.6s-.92-2.61,2.09-3.83c0,0-1.58,3.01,1.58,4.49,0,0-1.44,.94-3.67-.66Z"/><path class="cls-1" d="M80.81,102.93s-2.66,3.98,.04,8.33c0,0-2.89-3.09-1.57-7.35l1.53-.97Z"/><path class="cls-1" d="M83.41,100.74c-3.5,2.23-4.53,6.87-2.31,10.37,1.25,1.97,3.26,3.16,5.4,3.43l-.04-.74s-.07-.05-.1-.07c-5.45-3.89-1.12-7.95-1.12-7.95,2.31-2.95,.62-6.04,.62-6.04-.85,.18-1.68,.52-2.45,1.01Zm.94,4.79c-2.07-.44-2.67-2.36-2.67-2.36,1.17,2.13,3.43,1.96,3.43,1.96l-.76,.41Zm.22-3.08c-.14,.26-.46,.35-.72,.21-.26-.14-.35-.47-.21-.72,.14-.26,.46-.35,.72-.21,.26,.14,.35,.47,.21,.72Z"/><path class="cls-1" d="M101,100.53s-1.27,7.89-10.06,6.41l1.43,2.26s7.82,1.81,10.06-6.41"/><path class="cls-1" d="M111.07,94.12s-1.27,7.89-10.06,6.41l1.43,2.26s7.82,1.81,10.06-6.41l-1.43-2.26Z"/><path class="cls-1" d="M104.18,105.85s-1.27,7.89-10.06,6.41l1.43,2.26s7.82,1.81,10.06-6.41"/><path class="cls-1" d="M114.25,99.44s-1.27,7.89-10.06,6.41l1.43,2.26s7.82,1.81,10.06-6.41l-1.43-2.26Z"/><path class="cls-1" d="M94.12,112.26s-1.28,7.89-10.07,6.41l1.43,2.26s7.82,1.81,10.07-6.41"/><path class="cls-1" d="M118.33,99.51s4.13,5.87-2.45,10.46l2.34,.55s6.17-3.76,2.45-10.46l-2.34-.55Z"/><polygon class="cls-1" points="105.27 75.53 103.76 76.5 118.34 99.5 119.85 98.54 105.27 75.53"/><path class="cls-1" d="M93.33,74.03s5.86-4.14,10.44,2.46l.55-2.34s-3.75-6.18-10.44-2.46l-.55,2.34Z"/><polygon class="cls-1" points="69.4 87.12 70.36 88.64 93.32 74.02 92.35 72.51 69.4 87.12"/><path class="cls-1" d="M67.88,99.13s-4.13-5.87,2.45-10.46l-2.34-.55s-6.17,3.76-2.45,10.46l2.34,.55Z"/><polygon class="cls-1" points="80.96 123.12 82.47 122.16 67.89 99.15 66.38 100.12 80.96 123.12"/><g><path class="cls-1" d="M92.92,124.61s-5.86,4.14-10.44-2.46l-.55,2.34s3.75,6.18,10.44,2.46l.55-2.34Z"/><polygon class="cls-1" points="116.83 111.5 115.87 109.99 92.92 124.6 93.88 126.12 116.83 111.5"/></g></g></g></g><path class="cls-1" d="M68.75,137.84c-18.36,0-35.63-7.17-48.61-20.19C7.15,104.64,0,87.33,0,68.92S7.15,33.2,20.14,20.19C33.12,7.17,50.38,0,68.75,0s35.63,7.17,48.61,20.19c12.98,13.02,20.14,30.32,20.14,48.73s-7.15,35.72-20.14,48.73c-12.98,13.02-30.25,20.19-48.61,20.19ZM68.75,1.59c-17.94,0-34.81,7-47.49,19.72C8.57,34.03,1.58,50.94,1.58,68.92s6.99,34.89,19.67,47.61c12.69,12.72,29.55,19.72,47.49,19.72s34.81-7,47.49-19.72c12.69-12.72,19.67-29.63,19.67-47.61s-6.99-34.89-19.67-47.61C103.55,8.59,86.69,1.59,68.75,1.59Z"/><g><g><path class="cls-1" d="M16.88,82.88c.28-.25,.49-.41,.63-.46,.35-.12,.74,.05,1.18,.53,.23,.25,.38,.47,.45,.67,.06,.15,.06,.3,.01,.45-.05,.15-.1,.26-.18,.34-.07,.08-.19,.2-.35,.35-.38,.36-.96,.9-1.73,1.61l.18,.41,.62,1.72,1.54-.55c.21-.08,.37-.12,.48-.15,.11-.02,.24-.02,.41,0,.16,.02,.3,.11,.42,.27,.12,.15,.23,.38,.33,.67,.09,.24,.13,.44,.14,.61,0,.17,0,.31-.04,.41-.03,.1-.11,.2-.21,.28s-.2,.15-.29,.18c-.08,.04-.21,.08-.39,.15l-7.56,2.72c-.21,.08-.37,.12-.48,.15s-.25,.02-.41,0c-.16-.02-.3-.11-.42-.27-.12-.15-.23-.38-.33-.67l-1.06-2.95c-.14-.38-.2-.8-.2-1.26,0-.46,.08-.92,.23-1.39,.15-.47,.43-.9,.82-1.31,.4-.41,.89-.72,1.48-.93,1.03-.37,1.99-.33,2.9,.11,.41-.37,1.01-.94,1.81-1.7Zm-1.6,6.49l-.63-1.75c-.09-.26-.29-.49-.58-.68-.29-.19-.65-.21-1.05-.07-.39,.14-.64,.38-.75,.72-.11,.34-.11,.65-.01,.93l.62,1.72,2.41-.87Z"/><path class="cls-1" d="M14.8,75.44l-.41-4.45c-.02-.22-.03-.39-.02-.5s.04-.24,.1-.4c.06-.15,.18-.26,.36-.34,.18-.07,.42-.13,.73-.15,.25-.02,.46-.02,.63,.02s.3,.08,.39,.14c.09,.06,.17,.15,.22,.28,.05,.13,.09,.23,.1,.33,.01,.09,.03,.23,.04,.41l.52,5.72c.02,.25,.02,.46-.02,.63-.03,.17-.08,.3-.14,.39-.06,.09-.15,.17-.28,.22-.13,.06-.23,.09-.33,.1-.09,.01-.23,.03-.41,.05l-8.01,.74c-.49,.05-.83-.02-1.03-.18-.19-.17-.32-.5-.36-1.02l-.52-5.69c-.02-.22-.03-.39-.02-.5,0-.11,.04-.24,.1-.4,.06-.15,.18-.26,.36-.34,.18-.07,.42-.13,.73-.15,.25-.02,.46-.02,.63,.02,.17,.03,.3,.08,.39,.14,.09,.06,.17,.15,.22,.28,.06,.13,.09,.23,.1,.33,.01,.09,.03,.23,.05,.41l.41,4.44,1.46-.13-.26-2.86c-.02-.22-.03-.39-.02-.5,0-.11,.04-.24,.1-.4s.18-.26,.36-.34c.18-.07,.42-.13,.73-.15,.25-.02,.46-.02,.63,.02,.17,.03,.3,.08,.39,.14,.09,.06,.17,.15,.22,.29,.06,.13,.09,.24,.1,.33,.01,.09,.03,.23,.04,.41l.26,2.83,1.46-.13Z"/><path class="cls-1" d="M13.28,54.9c1.44,.25,2.6,.98,3.45,2.19,.86,1.21,1.16,2.54,.9,4l-.46,2.62c-.05,.29-.12,.51-.21,.69-.09,.17-.2,.28-.35,.34-.14,.05-.28,.08-.41,.08-.13,0-.31-.02-.53-.06l-7.93-1.39c-.23-.04-.39-.08-.5-.11-.1-.03-.22-.1-.35-.2-.13-.1-.21-.25-.23-.44-.03-.19-.01-.44,.04-.74,.05-.29,.13-.72,.24-1.31,.11-.59,.19-1.03,.24-1.33,.24-1.38,.95-2.51,2.13-3.38,1.18-.87,2.49-1.18,3.95-.93Zm-.39,2.54c-.76-.13-1.45,.02-2.06,.47-.61,.45-.98,1.03-1.11,1.76l-.24,1.37,5.39,.95,.24-1.39c.12-.69-.03-1.35-.44-1.99-.41-.64-1.01-1.03-1.79-1.17Z"/><path class="cls-1" d="M23.86,33.99c1.21,.82,1.97,1.96,2.26,3.41,.29,1.45,.02,2.79-.81,4.02l-1.48,2.2c-.16,.24-.32,.42-.47,.54-.15,.12-.3,.17-.45,.17s-.29-.04-.4-.1c-.12-.06-.27-.15-.45-.27l-6.67-4.52c-.19-.13-.33-.23-.41-.3-.08-.07-.16-.18-.23-.33-.08-.15-.09-.31-.03-.5,.05-.18,.17-.41,.34-.66,.16-.24,.41-.61,.75-1.1,.34-.49,.59-.87,.76-1.11,.78-1.16,1.89-1.9,3.32-2.22,1.43-.32,2.76-.06,3.98,.77Zm-1.39,2.16c-.64-.43-1.33-.57-2.07-.41-.74,.16-1.32,.54-1.73,1.15l-.78,1.15,4.53,3.07,.79-1.17c.39-.58,.53-1.24,.41-2-.11-.75-.5-1.35-1.15-1.8Z"/><path class="cls-1" d="M31.64,30.07l3.38-2.92c.17-.15,.3-.25,.39-.31,.09-.06,.22-.11,.38-.15,.16-.04,.32,0,.49,.1s.35,.27,.55,.5c.16,.19,.28,.36,.35,.52,.07,.16,.11,.29,.11,.4,0,.11-.03,.22-.1,.34-.07,.12-.14,.21-.21,.27-.07,.06-.17,.16-.31,.28l-4.34,3.75c-.19,.16-.36,.28-.52,.35-.16,.07-.29,.11-.4,.11-.11,0-.22-.03-.34-.1-.12-.07-.21-.14-.27-.21-.06-.07-.15-.17-.27-.31l-5.25-6.12c-.32-.37-.47-.69-.45-.94,.02-.26,.23-.55,.62-.89l4.32-3.73c.17-.15,.3-.25,.39-.31,.09-.06,.22-.11,.38-.15s.32,0,.49,.1,.35,.27,.55,.5c.16,.19,.28,.36,.35,.52,.07,.16,.11,.29,.11,.4,0,.11-.03,.22-.1,.34-.07,.12-.14,.21-.2,.27-.07,.06-.17,.16-.31,.28l-3.37,2.91,.95,1.11,2.17-1.87c.17-.15,.3-.25,.39-.31,.09-.06,.22-.11,.38-.15,.16-.04,.32,0,.49,.1,.16,.1,.35,.27,.55,.5,.16,.19,.28,.36,.35,.52,.07,.16,.11,.29,.11,.4s-.03,.23-.1,.35c-.07,.12-.14,.21-.21,.28-.07,.06-.17,.16-.31,.28l-2.15,1.86,.95,1.11Z"/><path class="cls-1" d="M45.08,13.77c-.08-.21-.13-.37-.16-.48-.03-.11-.03-.25,0-.41,.02-.16,.11-.3,.26-.42,.15-.12,.37-.23,.66-.34,.23-.09,.44-.14,.61-.15,.17-.01,.31,0,.41,.03,.1,.03,.2,.1,.29,.21,.09,.11,.15,.2,.18,.29,.04,.08,.09,.21,.15,.38l2.83,7.55c.08,.22,.13,.38,.16,.48,.02,.1,.02,.24,0,.4-.02,.16-.11,.3-.26,.42-.15,.12-.37,.23-.66,.34-.24,.09-.44,.14-.61,.15-.17,.01-.31,0-.41-.03-.1-.03-.2-.1-.29-.21-.09-.11-.15-.2-.18-.29-.04-.08-.09-.21-.15-.38l-2.83-7.55Z"/><path class="cls-1" d="M61.73,8.4c.24-.03,.44-.04,.62-.02,.17,.02,.31,.06,.4,.12,.09,.06,.17,.14,.23,.27s.1,.23,.12,.32c.02,.09,.04,.23,.07,.41l1.17,7.97c.03,.23,.05,.4,.05,.51,0,.11-.03,.24-.08,.39-.06,.15-.17,.27-.34,.36-.17,.08-.41,.15-.72,.19-.37,.05-.63,.06-.79,.03-.15-.04-.28-.11-.4-.22-2.57-2.56-4.26-4.22-5.06-5l.69,4.72c.03,.23,.05,.4,.05,.51,0,.11-.03,.24-.08,.39s-.17,.27-.34,.36c-.17,.08-.41,.15-.72,.19-.3,.04-.54,.05-.72,.02-.19-.03-.33-.11-.42-.25-.1-.13-.16-.25-.19-.37s-.06-.28-.09-.5l-1.17-8.01c-.03-.22-.05-.38-.04-.49,0-.11,.03-.23,.08-.38,.05-.14,.16-.26,.34-.34,.17-.08,.41-.15,.72-.19,.27-.04,.49-.04,.66-.02,.17,.03,.3,.07,.38,.12,.08,.05,.18,.14,.3,.26l.08,.08c2.42,2.45,4.03,4.07,4.84,4.85l-.71-4.85c-.03-.22-.05-.38-.04-.49,0-.11,.03-.23,.08-.38,.05-.14,.16-.26,.34-.34,.17-.08,.41-.15,.72-.19Z"/><path class="cls-1" d="M78.56,9.23c.24,.03,.44,.08,.6,.15,.16,.07,.28,.14,.35,.22,.07,.08,.12,.18,.15,.32,.03,.14,.03,.25,.03,.34,0,.09-.02,.23-.05,.41l-1.06,7.98c-.03,.23-.06,.4-.09,.5-.03,.1-.09,.22-.19,.36-.1,.13-.24,.22-.43,.25-.19,.03-.44,.03-.74-.01-.37-.05-.63-.11-.76-.19-.14-.08-.24-.18-.32-.32-1.77-3.16-2.93-5.23-3.5-6.21l-.63,4.73c-.03,.23-.06,.4-.09,.5-.03,.1-.09,.22-.19,.36-.1,.13-.24,.22-.43,.25-.19,.03-.44,.03-.74-.01-.3-.04-.53-.1-.7-.18-.17-.08-.28-.2-.34-.35s-.09-.29-.08-.41c0-.12,.02-.29,.05-.51l1.07-8.03c.03-.22,.06-.38,.09-.49s.09-.22,.18-.34c.09-.12,.23-.2,.42-.24,.19-.03,.44-.03,.74,.01,.27,.04,.48,.09,.64,.17,.16,.08,.27,.15,.33,.22,.06,.07,.13,.18,.22,.33l.06,.1c1.65,3.02,2.76,5.02,3.32,5.99l.65-4.86c.03-.22,.06-.38,.09-.49,.03-.1,.09-.22,.18-.34,.09-.12,.23-.2,.42-.24,.19-.03,.44-.03,.74,.01Z"/><path class="cls-1" d="M91.85,13.35c1.3,.58,2.23,1.56,2.77,2.93,.54,1.37,.49,2.79-.15,4.24-.6,1.35-1.58,2.32-2.93,2.89-1.35,.58-2.69,.57-4-.01-1.37-.61-2.3-1.61-2.81-3-.51-1.39-.46-2.76,.13-4.1,.33-.73,.76-1.36,1.31-1.88,.55-.52,1.14-.9,1.77-1.14,.63-.24,1.29-.35,1.97-.34,.68,0,1.33,.15,1.94,.42Zm-3.35,7.67c.63,.28,1.31,.3,2.02,.04,.71-.25,1.25-.79,1.61-1.6,.35-.8,.38-1.55,.09-2.26-.29-.71-.75-1.21-1.36-1.48-.63-.28-1.31-.29-2.03-.03-.72,.27-1.26,.8-1.61,1.59-.35,.78-.37,1.53-.08,2.24,.29,.72,.74,1.21,1.36,1.49Z"/><path class="cls-1" d="M109.78,25.67c.26,.58,.27,1,.06,1.26-.1,.12-.3,.25-.61,.39l-8.28,3.64c-.22,.09-.45,.12-.7,.08-.25-.04-.46-.14-.64-.28l-.11-.09c-.18-.16-.32-.35-.4-.59-.08-.24-.1-.48-.04-.71l2.17-8.8c.09-.33,.18-.55,.28-.67,.22-.26,.63-.31,1.25-.16,.35,.08,.61,.19,.78,.33,.09,.07,.15,.16,.2,.24,.04,.09,.06,.19,.05,.31,0,.12-.02,.22-.03,.3-.01,.08-.04,.2-.07,.36,0,.02-.11,.38-.3,1.08-.2,.7-.4,1.45-.62,2.24-.22,.79-.42,1.54-.61,2.24-.19,.7-.3,1.1-.32,1.18l6.3-2.99c.18-.09,.32-.15,.44-.19,.11-.04,.24-.05,.38-.04,.14,.01,.27,.07,.39,.17,.17,.14,.32,.38,.46,.71Z"/><path class="cls-1" d="M116.76,35.22l-4.32,7.88c-.17,.32-.33,.53-.46,.63-.28,.2-.7,.16-1.25-.14-.32-.17-.55-.35-.68-.53-.09-.13-.13-.26-.13-.41,0-.15,.03-.27,.07-.37,.05-.1,.12-.24,.22-.44l.84-1.52-2.32-3.28-1.71,.29c-.21,.03-.37,.05-.47,.06-.1,0-.22-.01-.37-.06-.14-.05-.26-.13-.35-.26-.13-.18-.22-.45-.28-.82-.1-.61-.01-1.02,.27-1.22,.13-.1,.38-.17,.74-.23l8.86-1.51c.24-.04,.48-.01,.72,.09,.24,.1,.42,.25,.56,.44,.3,.43,.32,.89,.06,1.38Zm-3.51,1.06l-2.17,.37,1.12,1.57,1.05-1.94Z"/><path class="cls-1" d="M117.81,53.02l.08,.06c.29,.24,.47,.43,.51,.55,.1,.28-.04,.68-.42,1.19-.24,.32-.46,.51-.66,.59-.18,.07-.36,.06-.53-.01-.17-.08-.38-.21-.61-.4-.08-.06-.2-.15-.35-.27-.15-.12-.38-.38-.69-.79-.32-.41-.56-.84-.73-1.31-.15-.4-.25-.84-.29-1.32-.05-.48-.03-1.01,.07-1.57,.09-.57,.27-1.11,.51-1.62,.25-.51,.63-1,1.14-1.47,.51-.46,1.13-.83,1.84-1.09,.7-.26,1.38-.38,2.04-.35,.66,.02,1.25,.15,1.76,.38,.51,.23,.98,.53,1.41,.91,.43,.38,.79,.77,1.07,1.18,.28,.41,.5,.82,.65,1.24,.16,.43,.25,.88,.28,1.37,.03,.49,.02,.87-.03,1.15l-.07,.4c-.04,.2-.08,.36-.11,.47-.04,.11-.1,.23-.19,.35-.09,.12-.2,.21-.34,.26-.23,.08-.51,.08-.84-.01-.62-.17-.98-.4-1.08-.68-.06-.16-.05-.43,.04-.8,.17-.5,.13-1.06-.1-1.7-.1-.28-.26-.55-.48-.81-.21-.26-.47-.49-.77-.7-.3-.2-.67-.33-1.1-.38-.43-.05-.87,.01-1.32,.18-.46,.17-.84,.41-1.14,.73-.3,.32-.49,.65-.59,1.01-.1,.36-.14,.7-.13,1.04,.01,.34,.07,.64,.17,.91,.1,.28,.24,.53,.4,.76,.16,.22,.3,.37,.42,.46l.18,.12Z"/><path class="cls-1" d="M125.86,59.21c.22-.03,.39-.05,.5-.05,.11,0,.25,.02,.4,.08,.15,.06,.27,.17,.36,.34,.08,.17,.15,.41,.19,.72,.04,.25,.04,.46,.02,.63s-.06,.3-.12,.4c-.05,.1-.14,.18-.27,.24-.12,.06-.23,.1-.32,.12-.09,.02-.23,.04-.41,.07l-7.96,1.18c-.23,.03-.4,.05-.5,.05-.11,0-.24-.03-.39-.08-.15-.06-.27-.17-.36-.34-.08-.17-.15-.41-.19-.72-.04-.25-.04-.46-.02-.63,.02-.17,.06-.3,.12-.4,.05-.1,.14-.17,.27-.24,.12-.06,.23-.1,.32-.12,.09-.02,.23-.04,.41-.07l7.96-1.18Z"/><path class="cls-1" d="M127.92,73.72c-.11,1.43-.71,2.63-1.82,3.6-1.11,.97-2.45,1.4-4.03,1.28-1.47-.11-2.71-.71-3.7-1.79-1-1.08-1.44-2.34-1.33-3.78,.11-1.5,.74-2.72,1.87-3.66,1.14-.95,2.43-1.37,3.9-1.26,.8,.06,1.54,.26,2.21,.6,.68,.34,1.23,.77,1.67,1.29,.44,.52,.76,1.1,.99,1.75,.22,.65,.31,1.3,.26,1.97Zm-8.33-.58c-.05,.69,.16,1.34,.64,1.93,.48,.59,1.16,.92,2.05,.98,.87,.07,1.58-.16,2.16-.67,.57-.51,.88-1.11,.93-1.78,.05-.69-.17-1.34-.66-1.93-.49-.59-1.17-.92-2.04-.98-.85-.06-1.56,.16-2.13,.68-.58,.51-.89,1.11-.94,1.78Zm8.86,.11h0v-.04c-.06-.2-.07-.33-.07-.4,.02-.29,.32-.5,.9-.64,.24-.06,.45-.08,.63-.07,.14,.01,.26,.05,.34,.12s.14,.14,.17,.22c.03,.08,.06,.19,.09,.33l.56,2.44c.05,.26,.07,.4,.07,.44-.02,.29-.32,.5-.9,.63-.24,.06-.44,.08-.61,.07-.14-.01-.26-.05-.34-.12-.08-.07-.14-.14-.17-.22s-.06-.19-.09-.33l-.57-2.43Z"/><path class="cls-1" d="M122.83,93.84c-.09,.23-.18,.41-.29,.55-.11,.14-.2,.24-.3,.29-.09,.05-.21,.08-.34,.07-.14,0-.25-.02-.34-.05-.09-.03-.22-.07-.39-.14l-7.51-2.85c-.22-.08-.37-.15-.47-.2-.09-.05-.2-.14-.3-.26-.11-.12-.16-.28-.15-.47,.01-.19,.07-.43,.18-.72,.13-.35,.25-.59,.36-.7,.11-.12,.23-.2,.39-.24,3.48-1.01,5.75-1.68,6.82-2l-4.45-1.69c-.22-.08-.37-.15-.47-.2-.09-.05-.2-.14-.3-.26-.11-.12-.16-.28-.15-.47,.01-.19,.07-.43,.18-.72,.11-.28,.22-.49,.33-.64,.12-.15,.26-.23,.42-.25,.16-.02,.3-.02,.41,0,.11,.03,.27,.08,.48,.16l7.55,2.87c.21,.08,.36,.15,.45,.2s.19,.14,.29,.26c.1,.12,.15,.27,.13,.46-.01,.19-.07,.43-.18,.72-.1,.25-.2,.45-.31,.59-.11,.14-.21,.23-.29,.27-.08,.04-.21,.09-.37,.14l-.11,.04c-3.31,.93-5.5,1.55-6.58,1.88l4.58,1.74c.21,.08,.36,.15,.45,.2,.09,.06,.19,.14,.29,.26,.1,.12,.15,.27,.13,.46-.01,.19-.07,.43-.18,.72Z"/><path class="cls-1" d="M109.34,107.42c-.94,1.05-1.94,1.1-2.98,.15-1.05-.95-1.1-1.94-.15-2.99,.94-1.05,1.94-1.1,2.98-.15,1.05,.95,1.1,1.94,.15,2.99Z"/><path class="cls-1" d="M24.87,107.26c-.94-1.05-.89-2.05,.16-2.99,1.05-.94,2.04-.89,2.98,.16,.94,1.05,.89,2.05-.16,2.99-1.05,.94-2.04,.89-2.98-.16Z"/></g><g><path class="cls-1" d="M47.39,117.79c.02,.57-.09,1.14-.34,1.72-.25,.58-.59,1.05-1.03,1.41-.43,.36-.89,.61-1.37,.72-.48,.12-.95,.16-1.41,.14-.46-.03-.88-.12-1.25-.29l-1.66-.73-.66,1.5c-.09,.2-.16,.35-.22,.45-.06,.1-.15,.2-.28,.3-.13,.1-.29,.14-.48,.12s-.43-.09-.71-.22c-.23-.1-.41-.21-.54-.32-.13-.11-.22-.21-.28-.31s-.07-.21-.06-.35,.03-.25,.07-.34c.03-.09,.09-.21,.16-.38l3.22-7.38c.09-.2,.16-.35,.22-.45,.06-.1,.15-.2,.28-.3,.13-.1,.29-.14,.48-.12,.19,.02,.43,.09,.71,.22l2.84,1.24c.37,.16,.72,.4,1.05,.72,.33,.32,.61,.69,.85,1.13,.24,.43,.37,.93,.4,1.5Zm-2.67,.68c.17-.38,.16-.73,0-1.04-.17-.31-.39-.53-.67-.65l-1.66-.73-1.03,2.35,1.67,.73c.27,.12,.57,.13,.91,.05,.34-.08,.6-.32,.77-.72Z"/><path class="cls-1" d="M60.44,118.66c.24,.04,.44,.1,.59,.18,.16,.08,.27,.16,.34,.24,.07,.08,.11,.19,.13,.33,.02,.14,.02,.25,.01,.34-.01,.09-.03,.23-.07,.41l-1.42,7.93c-.04,.23-.08,.39-.11,.5-.03,.1-.1,.22-.2,.35-.1,.13-.25,.21-.44,.23-.19,.02-.44,0-.74-.04-.37-.07-.62-.14-.75-.22-.13-.08-.24-.19-.31-.34-1.63-3.24-2.7-5.36-3.22-6.36l-.84,4.7c-.04,.23-.08,.39-.11,.5-.03,.1-.1,.22-.2,.35-.1,.13-.25,.21-.44,.23-.19,.02-.44,0-.74-.04-.29-.05-.52-.12-.69-.21-.17-.09-.27-.21-.32-.37-.05-.16-.07-.29-.07-.41,0-.12,.03-.28,.07-.5l1.42-7.97c.04-.22,.08-.38,.12-.48,.04-.1,.1-.21,.2-.33,.09-.12,.24-.19,.43-.22,.19-.02,.44,0,.74,.04,.27,.05,.48,.11,.63,.19,.16,.08,.26,.16,.32,.23,.06,.07,.12,.19,.2,.34l.06,.1c1.52,3.09,2.53,5.14,3.05,6.13l.86-4.83c.04-.22,.08-.38,.12-.48,.04-.1,.1-.21,.2-.33,.09-.12,.24-.19,.43-.22,.19-.03,.44,0,.74,.04Z"/><path class="cls-1" d="M66.26,120.2c0-.22,0-.39,.01-.5,.01-.11,.06-.24,.13-.39,.08-.15,.2-.25,.39-.31,.18-.06,.43-.09,.74-.1,.25,0,.46,.02,.62,.06,.16,.05,.29,.1,.38,.17s.15,.16,.2,.29c.05,.13,.07,.24,.08,.33s.01,.23,.01,.41l.11,8.07c0,.23,0,.4-.01,.51s-.06,.23-.13,.38c-.08,.15-.2,.25-.39,.31-.18,.06-.43,.09-.74,.1-.25,0-.46-.02-.62-.06-.16-.05-.29-.1-.38-.17-.09-.07-.15-.16-.2-.29-.05-.13-.07-.24-.08-.33,0-.09-.01-.23-.01-.41l-.11-8.07Z"/><path class="cls-1" d="M81.49,119.25c.34,.46,.58,.99,.7,1.61,.12,.62,.11,1.2-.04,1.75-.15,.55-.39,1.01-.71,1.37-.33,.37-.69,.67-1.08,.91-.4,.24-.79,.4-1.19,.48l-1.78,.35,.31,1.61c.04,.22,.07,.38,.07,.5,0,.11-.01,.25-.06,.4-.05,.16-.16,.28-.33,.37-.17,.09-.4,.17-.71,.23-.25,.05-.45,.06-.62,.05-.17-.02-.3-.05-.4-.1-.1-.05-.18-.13-.25-.25s-.11-.22-.13-.31c-.02-.09-.05-.22-.09-.4l-1.54-7.9c-.04-.22-.07-.38-.07-.5,0-.11,.01-.25,.06-.4,.05-.16,.16-.28,.33-.37,.17-.09,.4-.17,.71-.23l3.04-.6c.4-.08,.82-.08,1.27,0,.45,.07,.9,.22,1.34,.44,.44,.22,.83,.56,1.18,1.01Zm-1.81,2.08c-.08-.41-.28-.69-.59-.85-.32-.16-.62-.21-.92-.15l-1.78,.35,.49,2.52,1.79-.35c.28-.06,.54-.21,.78-.48,.23-.26,.31-.61,.23-1.03Z"/><path class="cls-1" d="M90.27,114.5l6.81,5.86c.28,.24,.45,.43,.52,.58,.14,.32,0,.72-.39,1.2-.24,.28-.45,.47-.66,.56-.14,.06-.28,.08-.43,.05s-.26-.08-.35-.15c-.09-.07-.21-.17-.38-.31l-1.31-1.14-3.68,1.6-.07,1.74c-.01,.22-.02,.37-.04,.48-.01,.1-.06,.22-.13,.35-.07,.13-.18,.23-.32,.29-.2,.09-.49,.12-.85,.1-.62-.02-1-.2-1.14-.52-.07-.15-.09-.41-.07-.78l.36-9c0-.25,.09-.48,.23-.69,.15-.21,.33-.36,.55-.46,.48-.21,.93-.13,1.36,.23Zm.31,3.66l-.08,2.21,1.77-.77-1.68-1.44Z"/></g></g><path class="cls-1" d="M86.98,68.62c.75,.38,1.87-.11,1.87-.11,.01,.17,1.57,.28,1.57,.28,1.83-.66,4.08-3.43,4.7-4.24h0c.45-.26,3.21-1.35,3.21-1.35,.24-.06,2.43-1.13,2.43-1.13,2.07-.44,4.47-2.05,4.47-2.05,2.09-.82,3.27-2.53,3.27-2.53,1.49-1.83,1.02-2.36,1.02-2.36-.12-.31-.51-.32-.76-.3,0,0,.28,.04,.31,.33,.04,.37-.06,.54-.19,.87-.13,.33-.65,.78-.91,.94-.14,.09-.34,.2-.5,.17,.01,0,.06-.06,.08-.07,.02-.02,.05-.05,.07-.07,.05-.05,.09-.1,.14-.15,.08-.09,.15-.19,.22-.29,.15-.23,.28-.49,.36-.78,.07-.27,.1-.56,.08-.85,0-.09-.08-.17-.17-.18-.92-.12-3.49,.35-3.49,.35-1.69,.37-9.08,.29-9.08,.29-1.8,.06-8.18,0-8.18,0-3.48,.34-11.85,1.53-11.85,1.53l-13.44,3.64-6.96,1.14c-1.42-1.26-3.63-1.72-3.63-1.72-1.57-.26-5.43,.47-5.43,.47-2.05,.18-5.07,1.8-5.07,1.8-.63,.1-3.49,1.11-3.49,1.11-1.81,.35-4.27,3.38-4.27,3.38l-.72,.18-.44,.62s-.26-.02-.37,.09c-.11,.11-.86,1.75-.86,1.75-.31,.68,.14,2.01,.14,2.01-.15,.07-1.36-.42-1.36-.42-1.55-.26-1.59,.4-1.59,.4-.43-.26-1.15-.05-1.15-.05l.03,.45c-.37,.35-.73,1.58-.73,1.58l.34,.57c-.38,.29-.33,.82-.33,.82,.33,.09,.36,.93,.36,.93-.18,.39,.13,.52,.13,.52,.47,.19,.32,.51,.32,.51-.16,.34,.1,.38,.1,.38,.58,.06,.57,.71,.57,.71-.02,.23,1.52,.73,1.52,.73,.92,1.14,2.2-.16,2.2-.16,1.48-1.9,2.62-2.39,2.62-2.39,.8-.32,1.31-.11,1.31-.11-1.72,.38-3.13,2.72-3.13,2.72-.17,.96,2.01,1.56,2.01,1.56,1.12,.62,2.32-.11,2.32-.11,.15,.7,4.32,.86,4.32,.86,2.04,.67,7.79-1.58,7.79-1.58,.16,.3,3.84-1.26,3.84-1.26l2.34-2.07c.53-.2,4-.82,5.28-1.04,.22-.04,.43,.09,.49,.3l.3,1.01,.5,.07c.75,.61,1.78-.03,1.78-.03,.99-.34,1.06-1.75,1.06-1.75,.34-.23,.67-.93,.76-1.21,8.07-1.34,15.72-4.22,17.44-4.9h0l.1-.04h0c.11-.04,.25-.1,.25-.1,.45,.57,2.21,.32,2.21,.32,.45,.11,1.88-.05,1.88-.05m-54.3,2.89l.04-.05c.46-.62,.94-.99,1.68-1.51,2.74-1.93,10.17-5.55,18.38-7.23,0,0-16.78,5.96-20.1,8.79Zm60.03-14.55c-.53,3.39,2.26,6.58,2.26,6.58-4.33-2.7-2.26-6.58-2.26-6.58Zm12.04,.5c-.4,.1-.79-.12-.89-.5-.09-.38,.15-.76,.54-.86,.4-.1,.79,.12,.89,.5s-.15,.76-.54,.86Z"/><g><path class="cls-1" d="M51.83,84.88c.56,.32,1,.77,1.3,1.36,.31,.59,.46,1.26,.46,2.01s-.15,1.4-.46,1.97c-.31,.57-.74,1.01-1.3,1.31s-1.21,.46-1.94,.46h-1.63c-.06,0-.09,.03-.09,.09v4.3c0,.06-.02,.11-.06,.15-.04,.04-.09,.06-.15,.06h-2.47c-.06,0-.11-.02-.15-.06-.04-.04-.06-.09-.06-.15v-11.77c0-.06,.02-.11,.06-.15,.04-.04,.09-.06,.15-.06h4.39c.73,0,1.38,.16,1.94,.48Zm-1.47,4.46c.24-.25,.36-.59,.36-1.02s-.12-.79-.36-1.05c-.24-.26-.56-.39-.96-.39h-1.15c-.06,0-.09,.03-.09,.09v2.66c0,.06,.03,.09,.09,.09h1.15c.39,0,.71-.12,.96-.37Z"/><path class="cls-1" d="M60.11,87.83c.58,.26,1.03,.61,1.36,1.05,.33,.45,.5,.96,.5,1.52v5.97c0,.06-.02,.11-.06,.15s-.09,.06-.15,.06h-2.47c-.06,0-.11-.02-.15-.06-.04-.04-.06-.09-.06-.15v-.49s-.01-.06-.03-.06c-.02,0-.05,0-.07,.04-.42,.56-1.09,.84-2.01,.85-.8,0-1.46-.2-1.97-.61-.52-.41-.77-1.08-.77-2.04,0-1.01,.3-1.73,.91-2.16,.61-.43,1.5-.64,2.67-.64h1.2c.06,0,.09-.03,.09-.09v-.38c0-.27-.08-.48-.25-.64-.17-.16-.4-.24-.69-.24-.21,0-.39,.05-.53,.15-.15,.1-.25,.23-.3,.39-.04,.13-.11,.19-.23,.17l-2.52-.16c-.14-.02-.21-.09-.21-.19,.03-.56,.22-1.05,.55-1.48,.33-.43,.78-.76,1.34-1,.56-.24,1.19-.36,1.88-.36,.74,0,1.4,.13,1.98,.38Zm-1.36,6.52c.23-.18,.34-.42,.34-.71v-.52c0-.06-.03-.09-.09-.09h-.78c-.34,0-.6,.07-.79,.22-.19,.15-.29,.35-.29,.62,0,.23,.07,.42,.22,.55,.14,.13,.34,.2,.58,.2,.31,0,.58-.09,.81-.27Z"/><path class="cls-1" d="M63.56,86.55c-.31-.3-.46-.7-.46-1.2s.15-.9,.46-1.2c.31-.3,.7-.45,1.19-.45s.9,.15,1.21,.45,.46,.7,.46,1.2-.15,.9-.46,1.2-.71,.45-1.21,.45-.88-.15-1.19-.45Zm-.19,9.99s-.06-.09-.06-.15v-8.58c0-.06,.02-.11,.06-.15,.04-.04,.09-.06,.15-.06h2.47c.06,0,.11,.02,.15,.06,.04,.04,.06,.09,.06,.15v8.58c0,.06-.02,.11-.06,.15-.04,.04-.09,.06-.15,.06h-2.47c-.06,0-.11-.02-.15-.06Z"/><path class="cls-1" d="M68.72,95.97c-.66-.5-1.07-1.2-1.23-2.1-.1-.52-.16-1.13-.16-1.81s.05-1.27,.16-1.81c.16-.86,.58-1.54,1.24-2.05,.67-.5,1.51-.76,2.53-.76s1.81,.24,2.48,.73c.67,.49,1.09,1.14,1.25,1.97,.02,.12,.05,.3,.07,.56v.04c0,.1-.06,.17-.19,.19l-2.45,.24h-.05c-.08,0-.13-.05-.16-.14v-.1l-.05-.28c-.06-.22-.17-.4-.32-.53s-.36-.2-.6-.2c-.49,0-.79,.27-.92,.82-.06,.29-.09,.73-.09,1.32,0,.65,.04,1.12,.1,1.41,.06,.24,.16,.44,.31,.57s.35,.21,.59,.21c.27,0,.47-.07,.62-.22s.24-.33,.28-.57c.02-.12,.03-.2,.03-.26,.02-.15,.1-.21,.23-.19l2.45,.21c.14,.02,.2,.1,.19,.23,0,.1-.01,.24-.03,.4-.13,.91-.53,1.61-1.2,2.12-.67,.5-1.52,.76-2.55,.76s-1.88-.25-2.54-.76Z"/><path class="cls-1" d="M82.91,88.28c.49,.55,.73,1.32,.73,2.31v5.8c0,.06-.02,.11-.06,.15-.04,.04-.09,.06-.15,.06h-2.47c-.06,0-.11-.02-.15-.06-.04-.04-.06-.09-.06-.15v-5.38c0-.32-.08-.59-.23-.78s-.37-.3-.63-.3-.5,.1-.66,.29-.24,.46-.24,.79v5.38c0,.06-.02,.11-.06,.15-.04,.04-.09,.06-.15,.06h-2.47c-.06,0-.11-.02-.15-.06-.04-.04-.06-.09-.06-.15v-11.77c0-.06,.02-.11,.06-.15s.09-.06,.15-.06h2.47c.06,0,.11,.02,.15,.06,.04,.04,.06,.09,.06,.15v3.67s.01,.06,.04,.06c.03,0,.05,0,.08-.04,.41-.57,1-.85,1.79-.85,.86,0,1.53,.28,2.01,.83Z"/><path class="cls-1" d="M89.86,93.6c.05-.12,.13-.16,.26-.14l2.03,.38c.14,.03,.19,.12,.16,.24-.23,.82-.67,1.47-1.3,1.94s-1.41,.71-2.33,.71-1.75-.25-2.41-.74c-.65-.49-1.09-1.13-1.31-1.92-.17-.59-.26-1.32-.26-2.19,0-.45,.02-.84,.07-1.17,.13-1.03,.51-1.84,1.15-2.41,.64-.57,1.53-.86,2.67-.86,2.25,0,3.51,1.18,3.79,3.55,.06,.58,.09,1.14,.09,1.69,0,.14-.07,.21-.21,.21h-4.58c-.06,0-.09,.03-.09,.09,.02,.23,.05,.39,.07,.47,.06,.24,.18,.44,.37,.59s.43,.23,.72,.23c.52,0,.89-.22,1.11-.66Zm-1.9-3.47c-.13,.13-.23,.33-.29,.6-.02,.1-.05,.26-.07,.47-.02,.06,0,.09,.07,.09h1.79c.06,0,.09-.03,.09-.09-.02-.21-.05-.36-.07-.45-.1-.55-.42-.82-.94-.82-.25,0-.45,.07-.58,.2Z"/></g></g></g></g></svg>