<?xml version="1.0" encoding="UTF-8"?><svg id="Capa_2" xmlns="http://www.w3.org/2000/svg" viewBox="0 0 38.96 47.51"><defs><style>.cls-1{fill:#fff;}</style></defs><g id="Capa_1-2"><g><path class="cls-1" d="M19.48,0C8.74,0,0,8.74,0,19.48c0,7.17,7.85,17.93,14.44,25.7,1.26,1.48,3.09,2.33,5.04,2.33s3.78-.85,5.04-2.33c6.59-7.77,14.44-18.53,14.44-25.7C38.96,8.74,30.22,0,19.48,0Zm1,41.75c-.34,.4-.77,.46-1,.46s-.66-.06-1-.46C10.22,32.02,5.29,23.7,5.29,19.48c0-7.82,6.37-14.19,14.19-14.19s14.19,6.37,14.19,14.19c0,4.21-4.93,12.54-13.19,22.27Z"/><path class="cls-1" d="M23.51,18.67c0,2.22-1.8,4.02-4.02,4.02s-4.02-1.8-4.02-4.02,1.8-4.02,4.02-4.02,4.02,1.8,4.02,4.02Z"/></g></g></svg>