<?xml version="1.0" encoding="UTF-8"?><svg id="Capa_2" xmlns="http://www.w3.org/2000/svg" xmlns:xlink="http://www.w3.org/1999/xlink" viewBox="0 0 137.5 137.84"><defs><style>.cls-1{fill:#00a397;}.cls-2{fill:#fff;}.cls-3{fill:#00b7a3;}.cls-4{opacity:.4;}.cls-5{clip-path:url(#clippath);}.cls-6{fill:#004ba5;}</style><clipPath id="clippath"><ellipse class="cls-6" cx="68.75" cy="68.92" rx="45.07" ry="45.19"/></clipPath></defs><g id="Capa_1-2"><g><ellipse class="cls-3" cx="68.75" cy="68.92" rx="68.75" ry="68.92"/><g><g><g><path class="cls-2" d="M16.88,82.88c.28-.25,.49-.41,.63-.46,.35-.12,.74,.05,1.18,.53,.23,.25,.38,.47,.45,.67,.06,.15,.06,.3,.01,.45-.05,.15-.1,.26-.18,.34-.07,.08-.19,.2-.35,.35-.38,.36-.96,.9-1.73,1.61l.18,.41,.62,1.72,1.54-.55c.21-.08,.37-.12,.48-.15,.11-.02,.24-.02,.41,0,.16,.02,.3,.11,.42,.27,.12,.15,.23,.38,.33,.67,.09,.24,.13,.44,.14,.61,0,.17,0,.31-.04,.41-.03,.1-.11,.2-.21,.28s-.2,.15-.29,.18c-.08,.04-.21,.08-.39,.15l-7.56,2.72c-.21,.08-.37,.12-.48,.15s-.25,.02-.41,0c-.16-.02-.3-.11-.42-.27-.12-.15-.23-.38-.33-.67l-1.06-2.95c-.14-.38-.2-.8-.2-1.26,0-.46,.08-.92,.23-1.39,.15-.47,.43-.9,.82-1.31,.4-.41,.89-.72,1.48-.93,1.03-.37,1.99-.33,2.9,.11,.41-.37,1.01-.94,1.81-1.7Zm-1.6,6.49l-.63-1.75c-.09-.26-.29-.49-.58-.68-.29-.19-.65-.21-1.05-.07-.39,.14-.64,.38-.75,.72-.11,.34-.11,.65-.01,.93l.62,1.72,2.41-.87Z"/><path class="cls-2" d="M14.8,75.44l-.41-4.45c-.02-.22-.03-.39-.02-.5s.04-.24,.1-.4c.06-.15,.18-.26,.36-.34,.18-.07,.42-.13,.73-.15,.25-.02,.46-.02,.63,.02s.3,.08,.39,.14c.09,.06,.17,.15,.22,.28,.05,.13,.09,.23,.1,.33,.01,.09,.03,.23,.04,.41l.52,5.72c.02,.25,.02,.46-.02,.63-.03,.17-.08,.3-.14,.39-.06,.09-.15,.17-.28,.22-.13,.06-.23,.09-.33,.1-.09,.01-.23,.03-.41,.05l-8.01,.74c-.49,.05-.83-.02-1.03-.18-.19-.17-.32-.5-.36-1.02l-.52-5.69c-.02-.22-.03-.39-.02-.5,0-.11,.04-.24,.1-.4,.06-.15,.18-.26,.36-.34,.18-.07,.42-.13,.73-.15,.25-.02,.46-.02,.63,.02,.17,.03,.3,.08,.39,.14,.09,.06,.17,.15,.22,.28,.06,.13,.09,.23,.1,.33,.01,.09,.03,.23,.05,.41l.41,4.44,1.46-.13-.26-2.86c-.02-.22-.03-.39-.02-.5,0-.11,.04-.24,.1-.4,.06-.15,.18-.26,.36-.34,.18-.07,.42-.13,.73-.15,.25-.02,.46-.02,.63,.02,.17,.03,.3,.08,.39,.14,.09,.06,.17,.15,.22,.29,.06,.13,.09,.24,.1,.33,.01,.09,.03,.23,.04,.41l.26,2.83,1.46-.13Z"/><path class="cls-2" d="M13.28,54.9c1.44,.25,2.6,.98,3.45,2.19,.86,1.21,1.16,2.54,.9,4l-.46,2.62c-.05,.29-.12,.51-.21,.69-.09,.17-.2,.28-.35,.34-.14,.05-.28,.08-.41,.08-.13,0-.31-.02-.53-.06l-7.93-1.39c-.23-.04-.39-.08-.5-.11-.1-.03-.22-.1-.35-.2-.13-.1-.21-.25-.23-.44-.03-.19-.01-.44,.04-.74,.05-.29,.13-.72,.24-1.31,.11-.59,.19-1.03,.24-1.33,.24-1.38,.95-2.51,2.13-3.38,1.18-.87,2.49-1.18,3.95-.93Zm-.39,2.54c-.76-.13-1.45,.02-2.06,.47-.61,.45-.98,1.03-1.11,1.76l-.24,1.37,5.39,.95,.24-1.39c.12-.69-.03-1.35-.44-1.99-.41-.64-1.01-1.03-1.79-1.17Z"/><path class="cls-2" d="M23.86,34c1.21,.82,1.97,1.96,2.26,3.41,.29,1.45,.02,2.79-.81,4.02l-1.48,2.2c-.16,.24-.32,.42-.47,.54-.15,.12-.3,.17-.45,.17s-.29-.04-.4-.1c-.12-.06-.27-.15-.45-.27l-6.67-4.52c-.19-.13-.33-.23-.41-.3-.08-.07-.16-.18-.23-.33-.08-.15-.09-.31-.03-.5,.05-.18,.17-.41,.34-.66,.16-.24,.41-.61,.75-1.1,.34-.49,.59-.87,.76-1.11,.78-1.16,1.89-1.9,3.32-2.22,1.43-.32,2.76-.06,3.98,.77Zm-1.39,2.16c-.64-.43-1.33-.57-2.07-.41-.74,.16-1.32,.54-1.73,1.15l-.78,1.15,4.53,3.07,.79-1.17c.39-.58,.53-1.24,.41-2-.11-.75-.5-1.35-1.15-1.8Z"/><path class="cls-2" d="M31.64,30.07l3.38-2.92c.17-.15,.3-.25,.39-.31,.09-.06,.22-.11,.38-.15,.16-.04,.32,0,.49,.1s.35,.27,.55,.5c.16,.19,.28,.36,.35,.52,.07,.16,.11,.29,.11,.4,0,.11-.03,.22-.1,.34-.07,.12-.14,.21-.21,.27-.07,.06-.17,.16-.31,.28l-4.34,3.75c-.19,.16-.36,.28-.52,.35-.16,.07-.29,.11-.4,.11-.11,0-.22-.03-.34-.1-.12-.07-.21-.14-.27-.21-.06-.07-.15-.17-.27-.31l-5.25-6.12c-.32-.37-.47-.69-.45-.94,.02-.26,.23-.55,.62-.89l4.32-3.73c.17-.15,.3-.25,.39-.31,.09-.06,.22-.11,.38-.15s.32,0,.49,.1c.16,.1,.35,.27,.55,.5,.16,.19,.28,.36,.35,.52,.07,.16,.11,.29,.11,.4,0,.11-.03,.22-.1,.34-.07,.12-.14,.21-.2,.27-.07,.06-.17,.16-.31,.28l-3.37,2.91,.95,1.11,2.17-1.87c.17-.15,.3-.25,.39-.31,.09-.06,.22-.11,.38-.15,.16-.04,.32,0,.49,.1,.16,.1,.35,.27,.55,.5,.16,.19,.28,.36,.35,.52,.07,.16,.11,.29,.11,.4s-.03,.23-.1,.35c-.07,.12-.14,.21-.21,.28-.07,.06-.17,.16-.31,.28l-2.15,1.86,.95,1.11Z"/><path class="cls-2" d="M45.08,13.77c-.08-.21-.13-.37-.16-.48-.03-.11-.03-.25,0-.41,.02-.16,.11-.3,.26-.42,.15-.12,.37-.23,.66-.34,.23-.09,.44-.14,.61-.15,.17-.01,.31,0,.41,.03,.1,.03,.2,.1,.29,.21,.09,.11,.15,.2,.18,.29,.04,.08,.09,.21,.15,.38l2.83,7.55c.08,.22,.13,.38,.16,.48,.02,.1,.02,.24,0,.4-.02,.16-.11,.3-.26,.42-.15,.12-.37,.23-.66,.34-.24,.09-.44,.14-.61,.15-.17,.01-.31,0-.41-.03-.1-.03-.2-.1-.29-.21-.09-.11-.15-.2-.18-.29-.04-.08-.09-.21-.15-.38l-2.83-7.55Z"/><path class="cls-2" d="M61.73,8.4c.24-.03,.44-.04,.62-.02,.17,.02,.31,.06,.4,.12,.09,.06,.17,.14,.23,.27s.1,.23,.12,.32c.02,.09,.04,.23,.07,.41l1.17,7.97c.03,.23,.05,.4,.05,.51,0,.11-.03,.24-.08,.39-.06,.15-.17,.27-.34,.36-.17,.08-.41,.15-.72,.19-.37,.05-.63,.06-.79,.03-.15-.04-.28-.11-.4-.22-2.57-2.56-4.26-4.22-5.06-5l.69,4.72c.03,.23,.05,.4,.05,.51,0,.11-.03,.24-.08,.39s-.17,.27-.34,.36c-.17,.08-.41,.15-.72,.19-.3,.04-.54,.05-.72,.02-.19-.03-.33-.11-.42-.25-.1-.13-.16-.25-.19-.37s-.06-.28-.09-.5l-1.17-8.01c-.03-.22-.05-.38-.04-.49,0-.11,.03-.23,.08-.38,.05-.14,.16-.26,.34-.34,.17-.08,.41-.15,.72-.19,.27-.04,.49-.04,.66-.02,.17,.03,.3,.07,.38,.12,.08,.05,.18,.14,.3,.26l.08,.08c2.42,2.45,4.03,4.07,4.84,4.85l-.71-4.85c-.03-.22-.05-.38-.04-.49,0-.11,.03-.23,.08-.38,.05-.14,.16-.26,.34-.34,.17-.08,.41-.15,.72-.19Z"/><path class="cls-2" d="M78.56,9.23c.24,.03,.44,.08,.6,.15,.16,.07,.28,.14,.35,.22,.07,.08,.12,.18,.15,.32,.03,.14,.03,.25,.03,.34,0,.09-.02,.23-.05,.41l-1.06,7.98c-.03,.23-.06,.4-.09,.5-.03,.1-.09,.22-.19,.36-.1,.13-.24,.22-.43,.25-.19,.03-.44,.03-.74-.01-.37-.05-.63-.11-.76-.19-.14-.08-.24-.18-.32-.32-1.77-3.16-2.93-5.23-3.5-6.21l-.63,4.73c-.03,.23-.06,.4-.09,.5-.03,.1-.09,.22-.19,.36-.1,.13-.24,.22-.43,.25-.19,.03-.44,.03-.74-.01-.3-.04-.53-.1-.7-.18-.17-.08-.28-.2-.34-.35s-.09-.29-.08-.41c0-.12,.02-.29,.05-.51l1.07-8.03c.03-.22,.06-.38,.09-.49s.09-.22,.18-.34c.09-.12,.23-.2,.42-.24,.19-.03,.44-.03,.74,.01,.27,.04,.48,.09,.64,.17,.16,.08,.27,.15,.33,.22,.06,.07,.13,.18,.22,.33l.06,.1c1.65,3.02,2.76,5.02,3.32,5.99l.65-4.86c.03-.22,.06-.38,.09-.49,.03-.1,.09-.22,.18-.34,.09-.12,.23-.2,.42-.24,.19-.03,.44-.03,.74,.01Z"/><path class="cls-2" d="M91.85,13.35c1.3,.58,2.23,1.56,2.77,2.93,.54,1.37,.49,2.79-.15,4.24-.6,1.35-1.58,2.32-2.93,2.89-1.35,.58-2.69,.57-4-.01-1.37-.61-2.3-1.61-2.81-3-.51-1.39-.46-2.76,.13-4.1,.33-.73,.76-1.36,1.31-1.88,.55-.52,1.14-.9,1.77-1.14,.63-.24,1.29-.35,1.97-.34,.68,0,1.33,.15,1.94,.42Zm-3.35,7.67c.63,.28,1.31,.3,2.02,.04,.71-.25,1.25-.79,1.61-1.6,.35-.8,.38-1.55,.09-2.26-.29-.71-.75-1.21-1.36-1.48-.63-.28-1.31-.29-2.03-.03-.72,.27-1.26,.8-1.61,1.59-.35,.78-.37,1.53-.08,2.24,.29,.72,.74,1.21,1.36,1.49Z"/><path class="cls-2" d="M109.78,25.67c.26,.58,.27,1,.06,1.26-.1,.12-.3,.25-.61,.39l-8.28,3.64c-.22,.09-.45,.12-.7,.08-.25-.04-.46-.14-.64-.28l-.11-.09c-.18-.16-.32-.35-.4-.59-.08-.24-.1-.48-.04-.71l2.17-8.8c.09-.33,.18-.55,.28-.67,.22-.26,.63-.31,1.25-.16,.35,.08,.61,.19,.78,.33,.09,.07,.15,.16,.2,.24,.04,.09,.06,.19,.05,.31,0,.12-.02,.22-.03,.3-.01,.08-.04,.2-.07,.36,0,.02-.11,.38-.3,1.08-.2,.7-.4,1.45-.62,2.24-.22,.79-.42,1.54-.61,2.24-.19,.7-.3,1.1-.32,1.18l6.3-2.99c.18-.09,.32-.15,.44-.19,.11-.04,.24-.05,.38-.04,.14,.01,.27,.07,.39,.17,.17,.14,.32,.38,.46,.71Z"/><path class="cls-2" d="M116.76,35.22l-4.32,7.88c-.17,.32-.33,.53-.46,.63-.28,.2-.7,.16-1.25-.14-.32-.17-.55-.35-.68-.53-.09-.13-.13-.26-.13-.41,0-.15,.03-.27,.07-.37,.05-.1,.12-.24,.22-.44l.84-1.52-2.32-3.28-1.71,.29c-.21,.03-.37,.05-.47,.06-.1,0-.22-.01-.37-.06-.14-.05-.26-.13-.35-.26-.13-.18-.22-.45-.28-.82-.1-.61-.01-1.02,.27-1.22,.13-.1,.38-.17,.74-.23l8.86-1.51c.24-.04,.48-.01,.72,.09,.24,.1,.42,.25,.56,.44,.3,.43,.32,.89,.06,1.38Zm-3.51,1.06l-2.17,.37,1.12,1.57,1.05-1.94Z"/><path class="cls-2" d="M117.81,53.02l.08,.06c.29,.24,.47,.43,.51,.55,.1,.28-.04,.68-.42,1.19-.24,.32-.46,.51-.66,.59-.18,.07-.36,.06-.53-.01-.17-.08-.38-.21-.61-.4-.08-.06-.2-.15-.35-.27-.15-.12-.38-.38-.69-.79-.32-.41-.56-.84-.73-1.31-.15-.4-.25-.84-.29-1.32-.05-.48-.03-1.01,.07-1.57,.09-.57,.27-1.11,.51-1.62,.25-.51,.63-1,1.14-1.47,.51-.46,1.13-.83,1.84-1.09,.7-.26,1.38-.38,2.04-.35,.66,.02,1.25,.15,1.76,.38,.51,.23,.98,.53,1.41,.91,.43,.38,.79,.77,1.07,1.18,.28,.41,.5,.82,.65,1.24,.16,.43,.25,.88,.28,1.37,.03,.49,.02,.87-.03,1.15l-.07,.4c-.04,.2-.08,.36-.11,.47-.04,.11-.1,.23-.19,.35-.09,.12-.2,.21-.34,.26-.23,.08-.51,.08-.84-.01-.62-.17-.98-.4-1.08-.68-.06-.16-.05-.43,.04-.8,.17-.5,.13-1.06-.1-1.7-.1-.28-.26-.55-.48-.81-.21-.26-.47-.49-.77-.7-.3-.2-.67-.33-1.1-.38-.43-.05-.87,.01-1.32,.18-.46,.17-.84,.41-1.14,.73-.3,.32-.49,.65-.59,1.01-.1,.36-.14,.7-.13,1.04,.01,.34,.07,.64,.17,.91,.1,.28,.24,.53,.4,.76,.16,.22,.3,.37,.42,.46l.18,.12Z"/><path class="cls-2" d="M125.86,59.21c.22-.03,.39-.05,.5-.05,.11,0,.25,.02,.4,.08,.15,.06,.27,.17,.36,.34,.08,.17,.15,.41,.19,.72,.04,.25,.04,.46,.02,.63-.02,.17-.06,.3-.12,.4-.05,.1-.14,.18-.27,.24-.12,.06-.23,.1-.32,.12-.09,.02-.23,.04-.41,.07l-7.96,1.18c-.23,.03-.4,.05-.5,.05-.11,0-.24-.03-.39-.08-.15-.06-.27-.17-.36-.34-.08-.17-.15-.41-.19-.72-.04-.25-.04-.46-.02-.63,.02-.17,.06-.3,.12-.4,.05-.1,.14-.17,.27-.24,.12-.06,.23-.1,.32-.12,.09-.02,.23-.04,.41-.07l7.96-1.18Z"/><path class="cls-2" d="M127.92,73.72c-.11,1.43-.71,2.63-1.82,3.6-1.11,.97-2.45,1.4-4.03,1.28-1.47-.11-2.71-.71-3.7-1.79-1-1.08-1.44-2.34-1.33-3.78,.11-1.5,.74-2.72,1.87-3.66,1.14-.95,2.43-1.37,3.9-1.26,.8,.06,1.54,.26,2.21,.6,.68,.34,1.23,.77,1.67,1.29,.44,.52,.76,1.1,.99,1.75,.22,.65,.31,1.3,.26,1.97Zm-8.33-.58c-.05,.69,.16,1.34,.64,1.93,.48,.59,1.16,.92,2.05,.98,.87,.07,1.58-.16,2.16-.67,.57-.51,.88-1.11,.93-1.78,.05-.69-.17-1.34-.66-1.93-.49-.59-1.17-.92-2.04-.98-.85-.06-1.56,.16-2.13,.68-.58,.51-.89,1.11-.94,1.78Zm8.86,.11h0v-.04c-.06-.2-.07-.33-.07-.4,.02-.29,.32-.5,.9-.64,.24-.06,.45-.08,.63-.07,.14,.01,.26,.05,.34,.12s.14,.14,.17,.22c.03,.08,.06,.19,.09,.33l.56,2.44c.05,.26,.07,.4,.07,.44-.02,.29-.32,.5-.9,.63-.24,.06-.44,.08-.61,.07-.14-.01-.26-.05-.34-.12-.08-.07-.14-.14-.17-.22s-.06-.19-.09-.33l-.57-2.43Z"/><path class="cls-2" d="M122.83,93.84c-.09,.23-.18,.41-.29,.55-.11,.14-.2,.24-.3,.29-.09,.05-.21,.08-.34,.07s-.25-.02-.34-.05c-.09-.03-.22-.07-.39-.14l-7.51-2.85c-.22-.08-.37-.15-.47-.2-.09-.05-.2-.14-.3-.26-.11-.12-.16-.28-.15-.47,.01-.19,.07-.43,.18-.72,.13-.35,.25-.59,.36-.7,.11-.12,.23-.2,.39-.24,3.48-1.01,5.75-1.68,6.82-2l-4.45-1.69c-.22-.08-.37-.15-.47-.2-.09-.05-.2-.14-.3-.26-.11-.12-.16-.28-.15-.47,.01-.19,.07-.43,.18-.72,.11-.28,.22-.49,.33-.64,.12-.15,.26-.23,.42-.25,.16-.02,.3-.02,.41,0,.11,.03,.27,.08,.48,.16l7.55,2.87c.21,.08,.36,.15,.45,.2s.19,.14,.29,.26c.1,.12,.15,.27,.13,.46-.01,.19-.07,.43-.18,.72-.1,.25-.2,.45-.31,.59-.11,.14-.21,.23-.29,.27-.08,.04-.21,.09-.37,.14l-.11,.04c-3.31,.93-5.5,1.55-6.58,1.88l4.58,1.74c.21,.08,.36,.15,.45,.2,.09,.06,.19,.14,.29,.26,.1,.12,.15,.27,.13,.46-.01,.19-.07,.43-.18,.72Z"/><path class="cls-2" d="M109.34,107.42c-.94,1.05-1.94,1.1-2.98,.15-1.05-.95-1.1-1.94-.15-2.99,.94-1.05,1.94-1.1,2.98-.15,1.05,.95,1.1,1.94,.15,2.99Z"/><path class="cls-2" d="M24.87,107.26c-.94-1.05-.89-2.05,.16-2.99,1.05-.94,2.04-.89,2.98,.16,.94,1.05,.89,2.05-.16,2.99-1.05,.94-2.04,.89-2.98-.16Z"/></g><g><path class="cls-2" d="M47.39,117.79c.02,.57-.09,1.14-.34,1.72-.25,.58-.59,1.05-1.03,1.41-.43,.36-.89,.61-1.37,.72-.48,.12-.95,.16-1.41,.14-.46-.03-.88-.12-1.25-.29l-1.66-.73-.66,1.5c-.09,.2-.16,.35-.22,.45-.06,.1-.15,.2-.28,.3-.13,.1-.29,.14-.48,.12s-.43-.09-.71-.22c-.23-.1-.41-.21-.54-.32-.13-.11-.22-.21-.28-.31s-.07-.21-.06-.35,.03-.25,.07-.34c.03-.09,.09-.21,.16-.38l3.22-7.38c.09-.2,.16-.35,.22-.45,.06-.1,.15-.2,.28-.3,.13-.1,.29-.14,.48-.12,.19,.02,.43,.09,.71,.22l2.84,1.24c.37,.16,.72,.4,1.05,.72,.33,.32,.61,.69,.85,1.13,.24,.43,.37,.93,.4,1.5Zm-2.67,.68c.17-.38,.16-.73,0-1.04-.17-.31-.39-.53-.67-.65l-1.66-.73-1.03,2.35,1.67,.73c.27,.12,.57,.13,.91,.05,.34-.08,.6-.32,.77-.72Z"/><path class="cls-2" d="M60.44,118.66c.24,.04,.44,.1,.59,.18,.16,.08,.27,.16,.34,.24,.07,.08,.11,.19,.13,.33,.02,.14,.02,.25,.01,.34-.01,.09-.03,.23-.07,.41l-1.42,7.93c-.04,.23-.08,.39-.11,.5-.03,.1-.1,.22-.2,.35-.1,.13-.25,.21-.44,.23-.19,.02-.44,0-.74-.04-.37-.07-.62-.14-.75-.22-.13-.08-.24-.19-.31-.34-1.63-3.24-2.7-5.36-3.22-6.36l-.84,4.7c-.04,.23-.08,.39-.11,.5-.03,.1-.1,.22-.2,.35-.1,.13-.25,.21-.44,.23-.19,.02-.44,0-.74-.04-.29-.05-.52-.12-.69-.21-.17-.09-.27-.21-.32-.37-.05-.16-.07-.29-.07-.41,0-.12,.03-.28,.07-.5l1.42-7.97c.04-.22,.08-.38,.12-.48,.04-.1,.1-.21,.2-.33,.09-.12,.24-.19,.43-.22,.19-.02,.44,0,.74,.04,.27,.05,.48,.11,.63,.19,.16,.08,.26,.16,.32,.23,.06,.07,.12,.19,.2,.34l.06,.1c1.52,3.09,2.53,5.14,3.05,6.13l.86-4.83c.04-.22,.08-.38,.12-.48,.04-.1,.1-.21,.2-.33s.24-.19,.43-.22c.19-.03,.44,0,.74,.04Z"/><path class="cls-2" d="M66.26,120.2c0-.22,0-.39,.01-.5,.01-.11,.06-.24,.13-.39,.08-.15,.2-.25,.39-.31,.18-.06,.43-.09,.74-.1,.25,0,.46,.02,.62,.06,.16,.05,.29,.1,.38,.17s.15,.16,.2,.29c.05,.13,.07,.24,.08,.33s.01,.23,.01,.41l.11,8.07c0,.23,0,.4-.01,.51s-.06,.23-.13,.38c-.08,.15-.2,.25-.39,.31-.18,.06-.43,.09-.74,.1-.25,0-.46-.02-.62-.06-.16-.05-.29-.1-.38-.17-.09-.07-.15-.16-.2-.29-.05-.13-.07-.24-.08-.33,0-.09-.01-.23-.01-.41l-.11-8.07Z"/><path class="cls-2" d="M81.49,119.25c.34,.46,.58,.99,.7,1.61,.12,.62,.11,1.2-.04,1.75-.15,.55-.39,1.01-.71,1.37-.33,.37-.69,.67-1.08,.91-.4,.24-.79,.4-1.19,.48l-1.78,.35,.31,1.61c.04,.22,.07,.38,.07,.5,0,.11-.01,.25-.06,.4-.05,.16-.16,.28-.33,.37-.17,.09-.4,.17-.71,.23-.25,.05-.45,.06-.62,.05-.17-.02-.3-.05-.4-.1-.1-.05-.18-.13-.25-.25s-.11-.22-.13-.31c-.02-.09-.05-.22-.09-.4l-1.54-7.9c-.04-.22-.07-.38-.07-.5,0-.11,.01-.25,.06-.4,.05-.16,.16-.28,.33-.37,.17-.09,.4-.17,.71-.23l3.04-.6c.4-.08,.82-.08,1.27,0,.45,.07,.9,.22,1.34,.44,.44,.22,.83,.56,1.18,1.01Zm-1.81,2.08c-.08-.41-.28-.69-.59-.85-.32-.16-.62-.21-.92-.15l-1.78,.35,.49,2.52,1.79-.35c.28-.06,.54-.21,.78-.48,.23-.26,.31-.61,.23-1.03Z"/><path class="cls-2" d="M90.27,114.5l6.81,5.86c.28,.24,.45,.43,.52,.58,.14,.32,0,.72-.39,1.2-.24,.28-.45,.47-.66,.56-.14,.06-.28,.08-.43,.05s-.26-.08-.35-.15c-.09-.07-.21-.17-.38-.31l-1.31-1.14-3.68,1.6-.07,1.74c-.01,.22-.02,.37-.04,.48-.01,.1-.06,.22-.13,.35-.07,.13-.18,.23-.32,.29-.2,.09-.49,.12-.85,.1-.62-.02-1-.2-1.14-.52-.07-.15-.09-.41-.07-.78l.36-9c0-.25,.09-.48,.23-.69,.15-.21,.33-.36,.55-.46,.48-.21,.93-.13,1.36,.23Zm.31,3.66l-.08,2.21,1.77-.77-1.68-1.44Z"/></g></g><ellipse class="cls-1" cx="68.75" cy="68.92" rx="45.07" ry="45.19"/><g><ellipse class="cls-6" cx="68.75" cy="68.92" rx="45.07" ry="45.19"/><g class="cls-5"><g class="cls-4"><path class="cls-2" d="M99.83,91.26s-.92-2.61,2.09-3.83c0,0-1.58,3.01,1.58,4.49,0,0-1.44,.94-3.67-.66Z"/><path class="cls-2" d="M93.84,79.6s-2.66,3.98,.04,8.33c0,0-2.89-3.09-1.57-7.35l1.53-.97Z"/><path class="cls-2" d="M96.43,77.41c-3.49,2.22-4.53,6.87-2.31,10.37,1.25,1.97,3.26,3.16,5.4,3.43l-.04-.74s-.07-.05-.1-.07c-5.45-3.89-1.12-7.95-1.12-7.95,2.31-2.95,.62-6.04,.62-6.04-.85,.18-1.68,.52-2.45,1.01Zm.94,4.79c-2.07-.44-2.67-2.36-2.67-2.36,1.17,2.13,3.43,1.96,3.43,1.96l-.76,.41Zm.22-3.08c-.14,.26-.46,.35-.72,.21-.26-.14-.35-.46-.21-.72,.14-.26,.46-.35,.72-.21,.26,.14,.35,.46,.21,.72Z"/><path class="cls-2" d="M107.69,88.95s-1.27,7.89-10.06,6.41l1.43,2.26s7.82,1.81,10.06-6.41l-1.43-2.26Z"/><path class="cls-2" d="M95.71,101.43s-1.96-1.94-4.35,.27c0,0,3.39-.16,3.39,3.34,0,0,1.46-.91,.96-3.61Z"/><path class="cls-2" d="M87.72,91.03s4.73-.72,7.5,3.57c0,0-1.56-3.94-5.97-4.54l-1.53,.97Z"/><path class="cls-2" d="M84.64,92.46c-.77,.49-1.43,1.1-1.95,1.79,0,0,2.07,2.85,5.72,2,0,0,5.5-2.2,6.7,4.4,0,.04,.02,.08,.02,.13l.65,.35c.67-2.06,.45-4.39-.8-6.36-2.22-3.5-6.85-4.54-10.35-2.31Zm1.55,1.22c.02,.29-.21,.55-.5,.56-.29,.02-.54-.21-.56-.5-.02-.29,.2-.55,.5-.56,.29-.02,.54,.21,.56,.5Zm2.37,1.67l-.69,.52s1.12-1.98-.31-3.94c0,0,1.48,1.36,1,3.43Z"/><path class="cls-2" d="M86.88,114.6s-.92-2.61,2.09-3.83c0,0-1.58,3.01,1.58,4.49,0,0-1.44,.94-3.67-.66Z"/><path class="cls-2" d="M80.88,102.93s-2.66,3.98,.04,8.33c0,0-2.89-3.09-1.57-7.35l1.53-.97Z"/><path class="cls-2" d="M83.48,100.74c-3.5,2.23-4.53,6.87-2.31,10.37,1.25,1.97,3.26,3.16,5.4,3.43l-.04-.74s-.07-.05-.1-.07c-5.45-3.89-1.12-7.95-1.12-7.95,2.31-2.95,.62-6.04,.62-6.04-.85,.18-1.68,.52-2.45,1.01Zm.94,4.79c-2.07-.44-2.67-2.36-2.67-2.36,1.17,2.13,3.43,1.96,3.43,1.96l-.76,.41Zm.22-3.08c-.14,.26-.46,.35-.72,.21-.26-.14-.35-.47-.21-.72,.14-.26,.46-.35,.72-.21,.26,.14,.35,.47,.21,.72Z"/><path class="cls-2" d="M101.07,100.53s-1.27,7.89-10.06,6.41l1.43,2.26s7.82,1.81,10.06-6.41"/><path class="cls-2" d="M111.14,94.12s-1.27,7.89-10.06,6.41l1.43,2.26s7.82,1.81,10.06-6.41l-1.43-2.26Z"/><path class="cls-2" d="M104.25,105.85s-1.27,7.89-10.06,6.41l1.43,2.26s7.82,1.81,10.06-6.41"/><path class="cls-2" d="M114.32,99.44s-1.27,7.89-10.06,6.41l1.43,2.26s7.82,1.81,10.06-6.41l-1.43-2.26Z"/><path class="cls-2" d="M94.19,112.26s-1.28,7.89-10.07,6.41l1.43,2.26s7.82,1.81,10.07-6.41"/><path class="cls-2" d="M118.4,99.51s4.13,5.87-2.45,10.46l2.34,.55s6.17-3.76,2.45-10.46l-2.34-.55Z"/><polygon class="cls-2" points="105.34 75.53 103.83 76.5 118.41 99.5 119.92 98.54 105.34 75.53"/><path class="cls-2" d="M93.4,74.03s5.86-4.14,10.44,2.46l.55-2.34s-3.75-6.18-10.44-2.46l-.55,2.34Z"/><polygon class="cls-2" points="69.48 87.12 70.44 88.64 93.39 74.02 92.43 72.51 69.48 87.12"/><path class="cls-2" d="M67.95,99.13s-4.13-5.87,2.45-10.46l-2.34-.55s-6.17,3.76-2.45,10.46l2.34,.55Z"/><polygon class="cls-2" points="81.03 123.12 82.54 122.16 67.96 99.15 66.45 100.12 81.03 123.12"/><g><path class="cls-2" d="M92.99,124.61s-5.86,4.14-10.44-2.46l-.55,2.34s3.75,6.18,10.44,2.46l.55-2.34Z"/><polygon class="cls-2" points="116.9 111.5 115.94 109.99 92.99 124.6 93.95 126.12 116.9 111.5"/></g></g></g></g><path class="cls-2" d="M68.75,137.84C30.84,137.84,0,106.92,0,68.92S30.84,0,68.75,0s68.75,30.92,68.75,68.92-30.84,68.92-68.75,68.92ZM68.75,1.59C31.71,1.59,1.58,31.79,1.58,68.92s30.13,67.33,67.17,67.33,67.17-30.21,67.17-67.33S105.78,1.59,68.75,1.59Z"/><g id="_KJbRn"><path class="cls-2" d="M76.38,61.67c1.1,.6,1.96,1.42,2.43,2.59,.71,1.76,.62,3.52,0,5.28-.06,.18-.23,.35-.4,.47-.74,.53-1.6,.69-2.48,.76-.78,.06-1.57,.09-2.35,.19-2.97,.39-5.24,2.58-7.18,4.71-2.13,2.34-4.41,4.2-7.42,5.3-1.42,.52-2.98,.9-4.04,1.99-.82,.84-.93,2.22-1.89,2.87,.07-.05,.09-1.24,.13-1.42,.11-.49,.29-.97,.52-1.42,.47-.91,1.11-1.73,1.94-2.31,1.95-1.38,3.81-2.53,5.92-3.61,2.44-1.24,4.87-2.71,6.49-4.93-3.09,3.14-7.65,4.31-11.22,6.88-1.49,1.07-2.81,2.4-4.46,3.19-1.29,.62-2.71,.89-4.08,1.29-1.37,.4-2.75,.98-3.69,2.06,.18-1.44,1.36-2.56,2.61-3.28,1.25-.73,2.65-1.21,3.81-2.08,1.14-.87,2.28-1.68,3.46-2.5,1.44-1,2.93-1.73,4.56-2.35,1.6-.61,3.07-1.51,4.52-2.41,1.49-.92,3.17-1.65,4.63-2.54-2.06,.32-4.11,1.76-5.95,2.86-2.67,1.59-5.76,2.33-8.53,3.74-1.71,.87-3.29,1.99-5.02,2.81-2.24,1.06-4.47,1.21-6.88,.81-.35-.06-.72-.23-.87-.73,.32-.08,.62-.16,.92-.21,2.61-.41,5.76-.89,7.8-2.62,.77-.65,1.42-1.45,2.21-2.07,1.67-1.31,3.93-2.11,5.99-2.61,3.36-.82,6.48-2.07,9.14-4.29-4.66,2.45-9.6,4.02-14.65,5.39l-2.47,.73c-.87,.26-1.74,.51-2.61,.77-2.18,.65-4.41,1.34-6.18,2.77,.83-2.04,2.7-3.49,4.72-4.36,2.02-.87,4.2-1.24,6.35-1.71,1.34-.3,2.68-.65,3.95-1.19,1.3-.55,2.42-1.42,3.7-2.01,1.99-.93,4.3-.85,6.33-1.79-.26,.12-.65,.12-.93,.16-.29,.05-.59,.1-.88,.14-1.5,.15-2.96,.44-4.42,.84-1.45,.4-2.89,.86-4.39,1.07-1.57,.23-2.94,.89-4.38,1.51-1.72,.75-3.74,1.27-5.44,.47,3.34-1.52,6.25-4.05,9.82-4.88,4.56-1.06,9.09,.34,13.41-1.99,.64-.34,1.26-.72,1.87-1.11,1.38-.9,2.79-1.73,4.52-1.54,.13-.91,.37-1.15,1.37-1.17,1.31-.02,2.5-.36,3.6-1.06,.13-.08,.26-.16,.38-.24,2.94-1.98,6.23-3.13,9.61-4.04,1.69-.45,3.78-.79,5.49-1.13,.07-.01,.13-.04,.18-.1-4.73-.64-8.67,1.07-12.44,3.13,1.35-1.3,2.58-2.75,4.28-3.59,.71-.35,1.6-.45,2.41-.48,2.86-.12,5.7,.12,8.53,.57,1.1,.18,2.23,.12,3.34,.22,.69,.06,1.38,.18,2.05,.36,.76,.21,.9,.6,.51,1.3-.55,.98-1.37,1.71-2.27,2.45l.46-1.9-.1-.04c-.07,.13-.13,.27-.2,.4-1.39,2.89-2.81,5.77-4.55,8.47-.46,.71-.97,1.39-1.52,2.04-.74,.88-1.4,1.07-2.46,.62-.94-.39-1.84-.91-2.75-1.38-1.79-.91-3.68-1.14-5.64-.83-.1,.02-.63,.22-.73,.28,1.35,.14,3.14,.07,4.53,.57-.22,.11-.35,.18-.49,.25-2.31,1.05-4.71,1.79-7.25,2.06-.36,.04-.61,.18-.83,.47-.36,.49-.4,.83-1.11,.81,.15-.88,.37-1.42,.48-2.26,.25-1.93-.71-4.04-2.23-4.89-.35-.19-.96-.41-1.33-.56-.02,.04-.28-.05-.3-.01Zm-.38,5.04c.48-.05,.92-.16,1.37-.14,.49,.02,.84,.33,.99,.8,.15,.47,0,.88-.38,1.17-.31,.24-.64,.47-1.01,.59-1.16,.41-1.69,.35-2.23-.74-.01,.57,.26,.96,.78,1.11,1.03,.29,2.41-.24,3-1.13,.5-.77,.16-1.69-.72-1.95-.64-.19-1.21,0-1.8,.29Zm1.48,1.16c-.26-.38-.66-.45-1.09-.35-.44,.11-.8,.36-.93,.84-.08,.32,.12,.49,.39,.56,.46,.12,.89,.03,1.22-.24-.09-.17-.24-.41-.22-.43,.17-.14,.38-.24,.63-.38Z"/></g><g><path class="cls-2" d="M28.85,57.35c.26,.03,.73-.23,.99-.3,.71-.19,1.44-.34,2.16-.46,1.56-.25,3.15-.26,4.72-.12,1.28,.11,2.55,.32,3.81,.56,1.16,.22,2.39,.38,3.47,.9-.05-.02,.05,1.29,.09,1.42,.15,.45,.38,.86,.77,1.13,.05,.03-3.31,3.88-3.63,4.22-2.6,2.67-5.66,5.5-9.43,6.27,.32-.07,.83-.62,1.07-.82,.59-.48,1.21-.93,1.81-1.41,1.27-.99,2.49-2.07,3.44-3.38,.51-.7,.94-1.47,1.32-2.25,.35-.71,.78-1.45,.73-2.26,0-.07-.01-.14-.05-.2-.05-.07-.13-.12-.21-.15-.52-.25-1.03-.5-1.55-.75-.92-.43-1.87-.81-2.85-1.06-.73-.18-1.57-.37-1.92-1.03-.1-.19-2.03-.11-2.32-.13-.81-.05-1.62-.11-2.43-.19Z"/><path class="cls-2" d="M93.41,41.5c-.52,.21-.45-.06-.45-.06,.92-.58,.36-.99,.36-.99-.64-.47-.77-1.59-1.26-2.23-.22-.12-.81-1.4-.81-1.4-.31-.67-.74-1.21-.74-1.21-.82-1.31-3.56-1.04-3.56-1.04-3.79,.12-7.54,.79-11.24,1.56-1.29,.27-2.34,1.86-3.32,2.75-1.19,1.08-2.42,2.13-3.66,3.16-1.62,1.35-2.24,1.76-3.89,3.07-.14,.15-.92,.66-1.51,1.22,.81-.44,1.97-1.28,2.78-1.72,1.37-.75,2.13-1.42,3.5-2.16,1.38-.75,3.29-1.67,4.61-2.5,1.99-1.25,4.13-1.11,5.98-1.99-.71,.83-2.85,1.39-3.84,1.81-2.64,1.11-5.14,2.52-7.64,3.89-1.34,.74-2.68,1.48-4.02,2.21-.92,.51-1.84,1.01-2.76,1.51-4.97,3.18-17.3,10.21-17.3,10.21-.34,1.94,.83,2.42,.83,2.42l1.13-.31c.17,.27,2.63,.06,2.63,.06,.64-.14,4.13-.72,4.13-.72,.46,.03,5.98-1.29,5.98-1.29,2.19-.49,3.77-.79,3.77-.79,.42,.19,2.21-.65,2.21-.65,.06,.16-.82,.66-.82,.66,.21,.31-.16,.73-.16,.73-.41,.19-.84,.55-.84,.55,.47,.42,4.01-2.29,4.01-2.29,.81-.78,2.54-1.45,2.54-1.45,2.61-.57,8.45-2.16,8.45-2.16,0,.24-2.62,1.15-2.62,1.15-.15,.09-.15,.39-.15,.39,.21,.37,10.52-4.24,10.52-4.24,7.81-3.51,7.83-7.49,7.83-7.49,.05-1.08-.67-.67-.67-.67Zm-2.94,.42c-1.05,.42-1.71-1.22-.66-1.64,1.05-.42,1.71,1.22,.66,1.64Z"/></g><g><path class="cls-2" d="M40.07,88.14c.41,.23,.72,.56,.94,.98,.22,.42,.33,.91,.33,1.45s-.11,1.01-.33,1.42c-.22,.41-.54,.73-.94,.95-.41,.22-.87,.33-1.4,.33h-1.18s-.06,.02-.06,.06v3.11s-.01,.08-.04,.11-.06,.04-.11,.04h-1.78s-.08-.01-.11-.04-.04-.06-.04-.11v-8.5s.01-.08,.04-.11,.06-.04,.11-.04h3.17c.53,0,.99,.12,1.4,.35Zm-1.06,3.22c.18-.18,.26-.43,.26-.74s-.09-.57-.26-.76-.41-.28-.69-.28h-.83s-.06,.02-.06,.06v1.92s.02,.06,.06,.06h.83c.28,0,.51-.09,.69-.27Z"/><path class="cls-2" d="M42.8,96.11c-.48-.39-.77-.93-.87-1.62-.05-.33-.08-.71-.08-1.16,0-.49,.03-.89,.09-1.19,.09-.66,.38-1.19,.87-1.57s1.11-.58,1.88-.58,1.39,.19,1.88,.58c.48,.39,.77,.91,.86,1.56,.06,.32,.09,.72,.09,1.19,0,.39-.02,.77-.06,1.13-.09,.7-.38,1.24-.87,1.64-.48,.4-1.12,.6-1.89,.6s-1.41-.19-1.89-.58Zm2.35-1.4c.12-.13,.2-.3,.24-.52,.02-.28,.04-.57,.04-.87,0-.22-.02-.5-.05-.85-.03-.22-.11-.39-.23-.51s-.27-.18-.46-.18-.35,.06-.47,.19c-.12,.13-.2,.29-.23,.5-.03,.18-.04,.46-.04,.85s0,.69,.02,.87c.04,.22,.12,.39,.24,.52s.28,.19,.47,.19,.34-.06,.46-.19Z"/><path class="cls-2" d="M51.86,91.61s-.06,.04-.11,.04h-.89s-.06,.02-.06,.06v2.46c0,.21,.04,.36,.13,.46,.08,.1,.21,.14,.39,.14h.28s.08,.02,.11,.04c.03,.03,.04,.06,.04,.11v1.47c0,.1-.05,.15-.15,.15-.33,.02-.58,.02-.73,.02-.69,0-1.21-.11-1.55-.33-.34-.22-.51-.63-.51-1.25v-3.29s-.02-.06-.06-.06h-.56s-.08-.01-.11-.04c-.03-.03-.04-.06-.04-.11v-1.26s.01-.08,.04-.11,.06-.04,.11-.04h.56s.06-.02,.06-.06v-1.46s.01-.08,.04-.11c.03-.03,.06-.04,.11-.04h1.69s.08,.01,.11,.04c.03,.03,.04,.06,.04,.11v1.46s.02,.06,.06,.06h.89s.08,.02,.11,.04c.03,.03,.04,.07,.04,.11v1.26s-.02,.08-.04,.11Z"/><path class="cls-2" d="M56.66,90.27c.42,.18,.75,.44,.98,.76,.24,.32,.36,.69,.36,1.1v4.31s-.01,.08-.04,.11-.06,.04-.11,.04h-1.78s-.08-.01-.11-.04-.04-.06-.04-.11v-.35s0-.04-.02-.04c-.02,0-.03,0-.05,.03-.3,.4-.79,.61-1.46,.62-.58,0-1.05-.15-1.42-.44-.37-.29-.56-.78-.56-1.47,0-.73,.22-1.25,.66-1.56s1.08-.47,1.93-.47h.87s.06-.02,.06-.06v-.28c0-.19-.06-.35-.18-.47-.12-.12-.29-.18-.5-.18-.15,0-.28,.04-.38,.11-.1,.07-.18,.17-.22,.28-.02,.09-.08,.13-.16,.13l-1.82-.11c-.1-.02-.15-.06-.15-.14,.02-.4,.16-.76,.4-1.07s.56-.55,.97-.72c.41-.17,.86-.26,1.36-.26,.54,0,1.01,.09,1.43,.28Zm-.98,4.71c.16-.13,.24-.3,.24-.51v-.38s-.02-.06-.06-.06h-.56c-.24,0-.43,.05-.57,.16-.14,.1-.21,.25-.21,.45,0,.17,.05,.3,.16,.4,.1,.1,.24,.14,.42,.14,.23,0,.42-.06,.58-.19Z"/><path class="cls-2" d="M61.38,99.05s-.02-.06-.02-.11v-1.41c0-.1,.02-.15,.06-.15h.06c.49,0,.84-.05,1.05-.15s.33-.3,.35-.6v-.08l-1.79-6.3v-.05c-.01-.08,.03-.11,.13-.11h1.91c.1,0,.15,.05,.16,.14l.61,3.37s.02,.04,.04,.04,.03-.01,.04-.04l.6-3.37c0-.09,.06-.14,.16-.14h1.91c.05,.01,.09,.03,.11,.06,.02,.03,.03,.07,.02,.12l-1.86,6.45c-.2,.63-.41,1.1-.63,1.43-.22,.32-.54,.56-.96,.72-.42,.15-1.03,.23-1.81,.23h-.08s-.05-.01-.06-.04Z"/><path class="cls-2" d="M74.67,88.14c.41,.23,.72,.56,.94,.98,.22,.42,.33,.91,.33,1.45s-.11,1.01-.33,1.42c-.22,.41-.54,.73-.94,.95-.41,.22-.87,.33-1.4,.33h-1.18s-.06,.02-.06,.06v3.11s-.01,.08-.04,.11-.06,.04-.11,.04h-1.78s-.08-.01-.11-.04-.04-.06-.04-.11v-8.5s.01-.08,.04-.11,.06-.04,.11-.04h3.17c.53,0,.99,.12,1.4,.35Zm-1.06,3.22c.18-.18,.26-.43,.26-.74s-.09-.57-.26-.76-.41-.28-.69-.28h-.83s-.06,.02-.06,.06v1.92s.02,.06,.06,.06h.83c.28,0,.51-.09,.69-.27Z"/><path class="cls-2" d="M80.19,94.43c.03-.08,.1-.12,.19-.1l1.47,.28c.1,.02,.14,.08,.11,.18-.17,.6-.48,1.06-.94,1.4s-1.02,.51-1.68,.51-1.27-.18-1.74-.53c-.47-.36-.79-.82-.95-1.39-.13-.43-.19-.96-.19-1.58,0-.33,.02-.61,.05-.84,.09-.75,.37-1.33,.83-1.74,.46-.42,1.11-.62,1.93-.62,1.62,0,2.53,.85,2.73,2.56,.04,.42,.06,.83,.06,1.22,0,.1-.05,.15-.15,.15h-3.31s-.06,.02-.06,.06c.02,.17,.03,.28,.05,.34,.04,.18,.13,.32,.27,.43,.14,.11,.31,.16,.52,.16,.38,0,.64-.16,.8-.48Zm-1.37-2.51c-.1,.1-.17,.24-.21,.43-.02,.08-.03,.19-.05,.34-.02,.04,0,.06,.05,.06h1.29s.06-.02,.06-.06c-.02-.15-.03-.26-.05-.33-.08-.39-.3-.59-.68-.59-.18,0-.32,.05-.42,.14Z"/><path class="cls-2" d="M86.79,90.16c.06,.04,.08,.1,.06,.19l-.28,1.76c0,.09-.07,.13-.18,.1-.13-.03-.26-.05-.38-.05-.14,0-.26,.02-.36,.05-.2,.04-.37,.14-.51,.31s-.21,.36-.21,.6v3.33s-.01,.08-.04,.11-.06,.04-.11,.04h-1.78s-.08-.01-.11-.04-.04-.06-.04-.11v-6.2s.01-.08,.04-.11c.03-.03,.06-.04,.11-.04h1.78s.08,.02,.11,.04c.03,.03,.04,.07,.04,.11v.4s0,.05,.03,.06c.02,0,.03,0,.04-.02,.27-.45,.65-.68,1.15-.68,.23,0,.44,.05,.63,.15Z"/><path class="cls-2" d="M87.69,89.34c-.22-.22-.33-.51-.33-.87s.11-.65,.33-.87c.22-.22,.51-.33,.86-.33s.65,.11,.87,.33c.22,.22,.33,.51,.33,.87s-.11,.65-.33,.87c-.22,.22-.51,.33-.87,.33s-.64-.11-.86-.33Zm-.14,7.21s-.04-.06-.04-.11v-6.2s.01-.08,.04-.11c.03-.03,.06-.04,.11-.04h1.78s.08,.02,.11,.04c.03,.03,.04,.07,.04,.11v6.2s-.01,.08-.04,.11-.06,.04-.11,.04h-1.78s-.08-.01-.11-.04Z"/><path class="cls-2" d="M91.43,96.15c-.48-.36-.77-.87-.89-1.52-.08-.38-.11-.81-.11-1.31s.04-.91,.11-1.31c.12-.62,.42-1.11,.9-1.48,.48-.36,1.09-.55,1.82-.55s1.31,.18,1.79,.53c.48,.35,.79,.83,.9,1.42,.02,.08,.03,.22,.05,.4v.03c0,.08-.05,.12-.14,.14l-1.77,.18h-.04c-.06,0-.1-.03-.11-.1v-.08l-.04-.2c-.04-.16-.12-.29-.23-.38-.11-.1-.26-.14-.43-.14-.35,0-.57,.2-.67,.59-.04,.21-.06,.53-.06,.96,0,.47,.02,.81,.08,1.02,.04,.18,.12,.31,.23,.42s.25,.15,.43,.15c.19,0,.34-.05,.45-.16,.11-.1,.18-.24,.2-.41,.02-.08,.03-.15,.03-.19,.02-.11,.07-.16,.16-.14l1.77,.15c.1,.02,.15,.07,.14,.16,0,.08,0,.17-.03,.29-.09,.65-.38,1.16-.87,1.53-.49,.36-1.1,.55-1.84,.55s-1.35-.18-1.83-.55Z"/><path class="cls-2" d="M97.59,96.11c-.48-.39-.77-.93-.87-1.62-.05-.33-.08-.71-.08-1.16,0-.49,.03-.89,.09-1.19,.09-.66,.38-1.19,.87-1.57s1.11-.58,1.88-.58,1.39,.19,1.88,.58c.48,.39,.77,.91,.86,1.56,.06,.32,.09,.72,.09,1.19,0,.39-.02,.77-.06,1.13-.09,.7-.38,1.24-.87,1.64-.48,.4-1.12,.6-1.89,.6s-1.41-.19-1.89-.58Zm2.35-1.4c.12-.13,.2-.3,.24-.52,.02-.28,.04-.57,.04-.87,0-.22-.02-.5-.05-.85-.03-.22-.11-.39-.23-.51s-.27-.18-.46-.18-.35,.06-.47,.19c-.12,.13-.2,.29-.23,.5-.03,.18-.04,.46-.04,.85s0,.69,.02,.87c.04,.22,.12,.39,.24,.52s.28,.19,.47,.19,.34-.06,.46-.19Z"/></g></g></g></g></svg>