<?xml version="1.0" encoding="UTF-8"?><svg id="Capa_2" xmlns="http://www.w3.org/2000/svg" viewBox="0 0 194.22 75"><defs><style>.cls-1{fill:#fff;}</style></defs><g id="Capa_1-2"><g><g><path class="cls-1" d="M48.25,38.77l3.15,1.2h0c.11,.07,.24,.11,.39,.13,.52,.05,.98-.33,1.03-.84,.05-.52-.33-.98-.84-1.03-.1,0-.19,0-.28,.02h0l-3.44,.53Z"/><path class="cls-1" d="M52.9,42.65c.18-.54-.12-1.12-.66-1.3-.12-.04-.25-.05-.37-.05h0l-4.09-.33,3.49,2.15h0c.1,.08,.21,.14,.33,.18,.54,.18,1.12-.12,1.3-.66"/><path class="cls-1" d="M52.31,46.23c.3-.54,.11-1.22-.43-1.53-.09-.05-.19-.09-.29-.11h0l-4.74-1.55,3.64,3.39h0c.08,.08,.17,.16,.28,.22,.54,.3,1.22,.11,1.53-.43"/><path class="cls-1" d="M51.06,49.87c.45-.49,.42-1.26-.08-1.71-.08-.08-.18-.13-.27-.18h0l-5.19-3.11,3.63,4.85h0c.05,.08,.12,.16,.2,.23,.49,.45,1.26,.42,1.71-.08"/><path class="cls-1" d="M49.09,51.5h0l-5.24-5.12,3.17,6.59h0c.04,.09,.08,.18,.14,.26,.42,.58,1.24,.71,1.82,.29,.58-.42,.71-1.24,.29-1.82-.05-.07-.11-.14-.17-.2"/><path class="cls-1" d="M46.61,54.91s-.03-.05-.04-.07l-4.37-6.66,1.96,7.73s.02,.07,.03,.11v.03h0c.02,.06,.03,.11,.06,.17,.31,.68,1.11,.99,1.79,.68,.68-.31,.99-1.11,.68-1.79-.03-.06-.06-.1-.09-.15h0l-.02-.03Z"/><path class="cls-1" d="M40.48,58.49v.03h0c0,.06,0,.12,.02,.18,.16,.75,.9,1.23,1.65,1.07,.75-.16,1.23-.9,1.07-1.65-.01-.06-.04-.12-.06-.17h0l-.02-.04s-.02-.05-.03-.07l-3.07-8.16,.42,8.71s0,.06,0,.09"/><path class="cls-1" d="M37.46,61.85c.82,0,1.48-.67,1.48-1.48,0-.07-.01-.13-.02-.19h0v-.05s-.01-.05-.02-.08l-1.41-9.19-1.48,9.18s-.01,.06-.02,.1v.04h0c0,.06-.02,.13-.02,.19,0,.82,.67,1.48,1.48,1.48"/><path class="cls-1" d="M31.06,60.51c-.05,.11-.09,.22-.12,.35-.18,.85,.36,1.68,1.21,1.86,.85,.18,1.68-.36,1.86-1.21,.02-.12,.03-.24,.03-.35l.51-9.65-3.49,9.01Z"/><path class="cls-1" d="M28.63,61.55c.05-.12,.09-.24,.11-.37l2.6-9.71-5.54,8.38c-.08,.1-.15,.21-.2,.33-.37,.84,0,1.82,.84,2.19,.84,.37,1.82,0,2.19-.84"/><path class="cls-1" d="M20.08,58.6c-.57,.78-.4,1.87,.38,2.44,.78,.57,1.87,.4,2.44-.38,.08-.11,.15-.23,.2-.35l4.93-9.63-7.68,7.63c-.1,.09-.19,.18-.27,.29"/><path class="cls-1" d="M7.6,56.91l14.28-10.25-16.08,7.12c-.11,.04-.22,.09-.32,.15-.87,.52-1.16,1.65-.64,2.52,.52,.87,1.65,1.16,2.52,.64,.09-.05,.17-.11,.24-.18"/><path class="cls-1" d="M14.62,55.74c-.75,.68-.81,1.84-.13,2.6,.68,.75,1.84,.81,2.6,.12,.1-.09,.19-.19,.27-.3l7.51-9.15-9.91,6.49c-.12,.07-.24,.15-.34,.24"/><path class="cls-1" d="M2.9,46.87c-1.01,.33-1.56,1.42-1.23,2.43,.33,1.01,1.42,1.56,2.43,1.23,.12-.04,.23-.09,.33-.14l14.75-6.79-15.91,3.19c-.12,.02-.25,.04-.37,.08"/><path class="cls-1" d="M2.23,43.35c.14-.01,.28-.05,.41-.09l14.26-3.46-14.67-.46c-.14-.01-.28-.02-.43,0-1.11,.12-1.91,1.11-1.79,2.22,.12,1.11,1.11,1.91,2.22,1.79"/><path class="cls-1" d="M1.7,35.77c.14,.02,.28,.01,.41,0l13.25-.45-12.86-3.23c-.12-.04-.26-.07-.39-.09-1.04-.11-1.98,.64-2.1,1.68-.11,1.04,.64,1.98,1.68,2.1"/><path class="cls-1" d="M3.01,28.65c.18,.06,.36,.09,.54,.1l11.2,1.5-9.94-5.37c-.15-.1-.32-.18-.5-.24-1.11-.36-2.29,.25-2.65,1.35-.36,1.11,.25,2.29,1.36,2.65"/><path class="cls-1" d="M5.57,21.55c.18,.1,.37,.17,.56,.22l9.24,3.09-7.35-6.4c-.13-.14-.28-.26-.46-.36-.95-.55-2.17-.22-2.72,.74-.55,.95-.22,2.17,.74,2.72"/><path class="cls-1" d="M21.55,6.61h0l3.59,3.27-.11-4.76c0-.28-.06-.56-.17-.83-.46-1.04-1.67-1.51-2.72-1.06-1.04,.46-1.52,1.67-1.06,2.72,.11,.26,.27,.48,.46,.66"/><path class="cls-1" d="M15.49,11.13h0l5.21,3.39-1.66-5.92c-.07-.31-.2-.62-.4-.89-.77-1.06-2.26-1.3-3.32-.53-1.06,.77-1.3,2.26-.53,3.32,.19,.26,.42,.47,.68,.63"/><path class="cls-1" d="M10.29,16.12l7.08,3.4-4.08-6.54c-.13-.26-.3-.5-.53-.71-.95-.86-2.42-.79-3.28,.16-.86,.95-.79,2.42,.16,3.28,.19,.18,.41,.31,.64,.41"/><path class="cls-1" d="M28.79,3.81l1.95,2.05,.89-2.72c.11-.3,.14-.63,.08-.96-.19-.95-1.12-1.57-2.08-1.38-.95,.19-1.57,1.12-1.38,2.08,.08,.38,.27,.7,.53,.94"/></g><g><path class="cls-1" d="M33.1,27.77l-.69-3.74h0c-.01-.07-.03-.14-.06-.21-.22-.47-.77-.68-1.25-.47-.47,.21-.69,.77-.47,1.25,.04,.08,.08,.15,.13,.21l2.34,2.97Z"/><path class="cls-1" d="M33.23,22.73c.02,.08,.04,.15,.07,.21h0l1.96,4.13v-4.61h0c0-.05,0-.11-.02-.16-.12-.56-.67-.91-1.23-.79-.56,.12-.91,.67-.79,1.23"/><path class="cls-1" d="M37.48,20.08c-.62,0-1.12,.51-1.12,1.13,0,.1,.02,.19,.04,.28h0l1.1,5.35,1.08-5.41h0v-.02h0c.01-.07,.02-.14,.02-.21,0-.62-.51-1.12-1.13-1.12"/><path class="cls-1" d="M39.75,27.07l2.46-6.1c.04-.08,.07-.16,.08-.25,.14-.65-.27-1.3-.93-1.44-.65-.14-1.3,.27-1.44,.93-.02,.09-.03,.18-.03,.26h0l-.16,6.61Z"/><path class="cls-1" d="M45.67,19.23c-.66-.29-1.43,0-1.72,.66-.04,.08-.06,.16-.08,.24h0l-1.97,7.63,4.31-6.61h0c.05-.07,.09-.14,.12-.21,.29-.66,0-1.43-.66-1.72"/><path class="cls-1" d="M50.19,20.13c-.61-.44-1.45-.3-1.89,.3-.04,.05-.06,.1-.09,.15h0v.03s-.04,.06-.06,.09l-3.54,7.15,5.68-5.61s.05-.04,.07-.07l.02-.02h0s.08-.09,.12-.13c.44-.61,.3-1.45-.3-1.89"/><path class="cls-1" d="M52.75,22.01s-.08,.09-.12,.14h0l-.02,.03s-.04,.04-.05,.06l-5.49,6.8,7.31-4.79s.05-.03,.07-.05l.03-.02h0s.1-.07,.15-.11c.57-.52,.61-1.4,.1-1.96-.52-.57-1.4-.61-1.96-.1"/><path class="cls-1" d="M58.9,25.27c-.41-.71-1.32-.95-2.02-.53-.06,.03-.11,.07-.16,.11h0l-.03,.03s-.05,.03-.07,.05l-7.24,5.86,8.69-3.36s.06-.02,.08-.03h.04v-.02c.06-.02,.12-.05,.18-.08,.71-.41,.95-1.32,.53-2.02"/><path class="cls-1" d="M61.32,31.54c.82-.27,1.27-1.16,1-1.98-.27-.82-1.16-1.27-1.98-1-.12,.04-.23,.09-.33,.15l-8.61,4.42,9.55-1.51c.12-.01,.24-.03,.36-.07"/><path class="cls-1" d="M63.37,36.59c.91-.1,1.57-.91,1.48-1.82-.1-.91-.91-1.57-1.82-1.48-.13,.01-.26,.04-.38,.09l-9.7,2.64,10.03,.57c.13,.02,.25,.02,.39,0"/><path class="cls-1" d="M64.63,42.26c.96,.1,1.82-.59,1.92-1.55,.1-.96-.59-1.82-1.55-1.92-.14-.01-.27-.01-.4,0l-10.81,.57,10.45,2.82c.12,.04,.25,.07,.39,.09"/><path class="cls-1" d="M70.06,56.46c.5-.88,.18-2.01-.7-2.5-.09-.05-.18-.09-.28-.12l-15.85-7.11,14.03,10.24c.09,.08,.19,.14,.29,.2,.88,.5,2.01,.18,2.5-.7"/><path class="cls-1" d="M64.82,48.44c.97,.31,2-.23,2.31-1.19,.31-.97-.23-2-1.19-2.31-.13-.04-.26-.07-.4-.08l-11.68-1.91,10.58,5.31c.12,.07,.25,.13,.38,.17"/><path class="cls-1" d="M65.26,60.11c-.09-.08-.19-.15-.29-.21l-13.13-9.35,10.58,12.14c.08,.1,.16,.2,.26,.29,.79,.71,2.01,.65,2.72-.15,.71-.79,.65-2.01-.15-2.72"/><path class="cls-1" d="M60.02,65.23c-.08-.12-.18-.22-.28-.31l-10.11-10.6,6.92,12.91c.06,.13,.13,.25,.21,.37,.66,.9,1.92,1.1,2.82,.44,.9-.66,1.1-1.92,.44-2.82"/><path class="cls-1" d="M50.3,71.06c.43,.96,1.55,1.39,2.51,.96,.96-.43,1.39-1.55,.96-2.51-.06-.13-.13-.24-.2-.35l-7.07-11.31,3.68,12.82c.03,.13,.07,.26,.12,.39"/><path class="cls-1" d="M42.8,72.83c.25,1.14,1.37,1.86,2.5,1.61,1.14-.25,1.86-1.37,1.61-2.5-.04-.18-.1-.34-.17-.49l-4.32-10.64,.34,11.47c0,.18,0,.37,.04,.56"/><path class="cls-1" d="M37.51,75c1.1,0,1.99-.9,1.98-2,0-.19-.03-.38-.08-.56l-1.9-9.61-1.91,9.59c-.06,.19-.09,.39-.09,.6,0,1.1,.9,1.99,2,1.98"/><path class="cls-1" d="M15.32,68.1c.92,.67,2.21,.47,2.88-.45,.17-.23,.28-.47,.34-.73h0l1.37-5.08-4.41,2.81h0c-.24,.14-.46,.33-.63,.57-.67,.92-.47,2.21,.45,2.88"/><path class="cls-1" d="M25.3,70.81c.13-.29,.2-.6,.2-.91h0l.56-6.58-4.54,4.77h0c-.24,.22-.43,.48-.57,.79-.53,1.2,0,2.6,1.21,3.13,1.2,.53,2.6,0,3.13-1.21"/><path class="cls-1" d="M32.43,72.69c.05-.25,.06-.49,.04-.73l-.51-8.25-3.72,7.21c-.16,.24-.28,.5-.34,.8-.27,1.25,.53,2.49,1.78,2.75,1.25,.27,2.48-.53,2.75-1.78"/><path class="cls-1" d="M9.48,62.82c.65,.73,1.76,.79,2.49,.15,.23-.2,.39-.45,.49-.72l1.22-3.16-3.23,.84c-.29,.06-.58,.19-.82,.41-.73,.65-.79,1.76-.15,2.49"/></g><g><path class="cls-1" d="M28.39,48.52c-.3,.42-.21,1.01,.22,1.32,.42,.3,1.01,.21,1.32-.22,.04-.06,.08-.13,.11-.2h0l1.12-3.04-2.48,1.88c-.1,.06-.2,.15-.27,.26"/><path class="cls-1" d="M25.94,46.7c-.09,.04-.18,.09-.26,.17-.42,.38-.46,1.03-.08,1.46,.38,.42,1.03,.46,1.46,.08,.06-.06,.12-.12,.16-.19h0l2.25-3.34-3.54,1.83h0Z"/><path class="cls-1" d="M22.77,46.13c.31,.54,1,.72,1.53,.4,.1-.06,.19-.14,.26-.22h0l3.57-3.27-4.66,1.43h0c-.11,.03-.21,.06-.31,.12-.54,.31-.72,1-.4,1.53"/><path class="cls-1" d="M21.68,44.06c.09-.03,.18-.07,.25-.12h0l5.28-2.96-5.97,.71h0c-.1,0-.21,.02-.31,.05-.64,.2-.99,.89-.78,1.52s.89,.99,1.52,.78"/><path class="cls-1" d="M19.69,40.77h0l7.06-2-7.31-.5h0c-.11-.01-.22-.02-.33,0-.71,.08-1.23,.72-1.16,1.43,.08,.71,.72,1.23,1.43,1.16,.11-.01,.21-.04,.3-.07"/><path class="cls-1" d="M17.6,36.92c.06,0,.12,0,.18,0h.03s.07,0,.1,0l7.89-.5-7.62-2.12s-.06-.02-.09-.03h-.03c-.06-.02-.11-.04-.17-.04-.75-.08-1.41,.46-1.49,1.21-.08,.74,.46,1.41,1.21,1.49"/><path class="cls-1" d="M15.72,30.58c-.24,.73,.16,1.51,.89,1.75,.06,.02,.12,.03,.18,.04h.04s.06,.02,.08,.02l8.57,1.35-7.73-3.93s-.05-.03-.08-.04l-.03-.02h0c-.05-.02-.11-.05-.17-.07-.73-.24-1.51,.16-1.75,.89"/><path class="cls-1" d="M16.23,25.39c-.41,.71-.16,1.61,.54,2.02,.06,.03,.12,.05,.18,.08h0l.04,.02s.06,.02,.08,.03l8.66,3.31-7.22-5.81s-.04-.04-.07-.05l-.03-.03h0c-.05-.04-.1-.08-.16-.11-.71-.41-1.61-.16-2.02,.54"/><path class="cls-1" d="M20.47,20.26l-.03-.03h0c-.04-.05-.09-.1-.14-.15-.64-.58-1.64-.53-2.22,.12-.58,.64-.53,1.64,.12,2.22,.05,.05,.11,.08,.17,.12h0l.03,.02s.05,.04,.08,.05l8.16,5.26-6.11-7.53s-.04-.05-.06-.07"/><path class="cls-1" d="M23.71,15.94l-.02-.04h0c-.03-.06-.07-.13-.11-.19-.54-.74-1.57-.91-2.32-.37-.74,.54-.91,1.57-.37,2.32,.04,.06,.09,.11,.14,.16h0l.03,.03s.06,.06,.09,.08l7.15,7.04-4.54-8.94s-.03-.06-.04-.09"/><path class="cls-1" d="M24.66,13.11c.06,.12,.12,.23,.2,.33l5.86,8.97-2.76-10.35c-.03-.14-.07-.27-.13-.4-.4-.88-1.44-1.27-2.32-.87-.88,.4-1.27,1.44-.87,2.32"/><path class="cls-1" d="M37.5,19.1l1.81-16.93c.02-.11,.03-.22,.03-.33C39.33,.82,38.51,0,37.49,0c-1.01,0-1.84,.83-1.83,1.84,0,.11,.01,.22,.03,.32l1.81,16.93Z"/><path class="cls-1" d="M30.92,6.83c-.99,.21-1.62,1.19-1.41,2.19,.03,.14,.07,.27,.13,.39l4.21,11.07-.71-11.82c0-.14-.01-.27-.04-.41-.21-.99-1.19-1.62-2.19-1.41"/><path class="cls-1" d="M46.66,3.44c.05-.11,.09-.23,.11-.35,.22-1.04-.44-2.06-1.48-2.29-1.04-.22-2.07,.44-2.29,1.48-.03,.13-.04,.26-.04,.39l-1.35,15.61,5.05-14.85Z"/><path class="cls-1" d="M46.1,18.32l7.48-12.05c.08-.11,.15-.24,.21-.37,.45-1.02,0-2.21-1.02-2.66-1.02-.45-2.21,0-2.66,1.02-.06,.14-.1,.28-.13,.42l-3.88,13.65Z"/><path class="cls-1" d="M50.81,19.32l8.93-9.19c.1-.09,.19-.19,.27-.3,.62-.85,.43-2.04-.42-2.65-.85-.62-2.04-.43-2.65,.42-.08,.12-.15,.24-.21,.36l-5.93,11.36Z"/><path class="cls-1" d="M55.49,21.44l9.33-5.69c.17-.09,.34-.2,.49-.33,.86-.78,.92-2.12,.14-2.98-.78-.86-2.12-.92-2.98-.14-.14,.13-.26,.27-.36,.42l-6.63,8.71Z"/><path class="cls-1" d="M59.79,24.77l8.99-3.01c.19-.04,.39-.12,.57-.22,.95-.55,1.28-1.77,.72-2.72-.55-.95-1.77-1.28-2.72-.72-.18,.1-.34,.23-.47,.38l-7.09,6.3Z"/><path class="cls-1" d="M69.67,24.85l-6.39,4.41,7.61-.24c.29,.02,.59-.01,.88-.11,1.22-.4,1.88-1.71,1.49-2.92-.4-1.22-1.71-1.88-2.92-1.49-.25,.08-.47,.2-.67,.35"/><path class="cls-1" d="M74.99,41.58c.12-1.13-.69-2.15-1.82-2.27-.28-.03-.55,0-.8,.07h0l-4.8,1.42,4.35,2.34h0c.24,.14,.51,.23,.8,.26,1.13,.12,2.15-.69,2.27-1.82"/><path class="cls-1" d="M72.3,31.59c-.32,.03-.62,.13-.89,.28h0l-5.58,2.8,5.99,1.55h0c.3,.1,.63,.14,.97,.1,1.3-.14,2.25-1.3,2.11-2.61-.14-1.3-1.3-2.25-2.61-2.12"/><path class="cls-1" d="M72.13,47.06c-.3-.1-.6-.11-.89-.05l-3.06,.62,2.06,2.25c.2,.24,.47,.43,.8,.54,.93,.3,1.92-.21,2.22-1.13,.3-.93-.2-1.92-1.13-2.22"/></g><g><g><path class="cls-1" d="M95.68,25.68c0,1.42-1.13,2.24-3.28,2.24h-4.25v-8.21h4.01c2.05,0,3.11,.86,3.11,2.13,0,.82-.42,1.45-1.09,1.81,.91,.29,1.5,1,1.5,2.03Zm-5.64-4.54v1.94h1.89c.93,0,1.43-.33,1.43-.97s-.5-.96-1.43-.96h-1.89Zm3.73,4.34c0-.69-.53-1.02-1.51-1.02h-2.22v2.03h2.22c.99,0,1.51-.3,1.51-1.01Z"/><path class="cls-1" d="M98.28,19.71h1.9v8.21h-1.9v-8.21Z"/><path class="cls-1" d="M102.78,23.81c0-2.47,1.9-4.25,4.46-4.25,1.42,0,2.6,.52,3.38,1.45l-1.22,1.13c-.55-.63-1.24-.96-2.06-.96-1.54,0-2.63,1.08-2.63,2.63s1.09,2.63,2.63,2.63c.82,0,1.51-.33,2.06-.97l1.22,1.13c-.77,.95-1.96,1.47-3.39,1.47-2.55,0-4.45-1.77-4.45-4.25Z"/><path class="cls-1" d="M119.41,26.39v1.52h-6.36v-8.21h6.2v1.52h-4.32v1.78h3.81v1.48h-3.81v1.9h4.47Z"/><path class="cls-1" d="M129.62,19.71v8.21h-1.56l-4.09-4.98v4.98h-1.88v-8.21h1.57l4.08,4.98v-4.98h1.88Z"/><path class="cls-1" d="M134.43,21.25h-2.63v-1.55h7.15v1.55h-2.63v6.66h-1.9v-6.66Z"/><path class="cls-1" d="M147.49,26.39v1.52h-6.36v-8.21h6.2v1.52h-4.32v1.78h3.81v1.48h-3.81v1.9h4.47Z"/><path class="cls-1" d="M157.7,19.71v8.21h-1.56l-4.09-4.98v4.98h-1.88v-8.21h1.57l4.08,4.98v-4.98h1.88Z"/><path class="cls-1" d="M166.22,26.16h-3.81l-.73,1.76h-1.95l3.66-8.21h1.88l3.67,8.21h-1.99l-.73-1.76Zm-.6-1.44l-1.3-3.14-1.3,3.14h2.6Z"/><path class="cls-1" d="M176.19,27.92l-1.58-2.29h-1.75v2.29h-1.9v-8.21h3.55c2.19,0,3.57,1.14,3.57,2.98,0,1.23-.62,2.13-1.69,2.59l1.84,2.64h-2.04Zm-1.78-6.66h-1.55v2.86h1.55c1.16,0,1.75-.54,1.75-1.43s-.59-1.43-1.75-1.43Z"/><path class="cls-1" d="M180.74,19.71h1.9v8.21h-1.9v-8.21Z"/><path class="cls-1" d="M185.23,23.81c0-2.44,1.9-4.25,4.49-4.25s4.49,1.79,4.49,4.25-1.91,4.25-4.49,4.25-4.49-1.81-4.49-4.25Zm7.06,0c0-1.56-1.1-2.63-2.57-2.63s-2.57,1.07-2.57,2.63,1.1,2.63,2.57,2.63,2.57-1.07,2.57-2.63Z"/></g><g><path class="cls-1" d="M88.15,34.37h3.73c2.69,0,4.53,1.62,4.53,4.1s-1.84,4.11-4.53,4.11h-3.73v-8.21Zm3.64,6.65c1.63,0,2.7-.97,2.7-2.55s-1.07-2.55-2.7-2.55h-1.74v5.09h1.74Z"/><path class="cls-1" d="M105.36,41.06v1.52h-6.36v-8.21h6.2v1.52h-4.32v1.78h3.81v1.48h-3.81v1.9h4.47Z"/><path class="cls-1" d="M108.03,34.37h1.9v6.66h4.12v1.55h-6.02v-8.21Z"/><path class="cls-1" d="M127.88,37.35c0,1.83-1.37,2.97-3.57,2.97h-1.65v2.26h-1.9v-8.21h3.55c2.19,0,3.57,1.14,3.57,2.98Zm-1.92,0c0-.9-.59-1.43-1.75-1.43h-1.55v2.85h1.55c1.16,0,1.75-.53,1.75-1.42Z"/><path class="cls-1" d="M136.75,41.06v1.52h-6.36v-8.21h6.2v1.52h-4.32v1.78h3.81v1.48h-3.81v1.9h4.47Z"/><path class="cls-1" d="M144.65,42.58l-1.58-2.29h-1.75v2.29h-1.9v-8.21h3.55c2.19,0,3.57,1.14,3.57,2.98,0,1.23-.62,2.13-1.69,2.59l1.84,2.64h-2.04Zm-1.78-6.66h-1.55v2.86h1.55c1.16,0,1.75-.54,1.75-1.43s-.59-1.43-1.75-1.43Z"/><path class="cls-1" d="M149.14,38.97v-4.6h1.9v4.53c0,1.56,.68,2.21,1.83,2.21s1.83-.65,1.83-2.21v-4.53h1.88v4.6c0,2.42-1.38,3.75-3.72,3.75s-3.72-1.34-3.72-3.75Zm4.25-6.96h1.97l-2.12,1.69h-1.43l1.58-1.69Z"/></g><g><path class="cls-1" d="M93.78,54.87v1.35h-5.43v-1.08l2.77-2.62c.64-.61,.75-.98,.75-1.32,0-.56-.39-.89-1.15-.89-.62,0-1.14,.24-1.49,.72l-1.21-.78c.55-.81,1.56-1.33,2.85-1.33,1.6,0,2.67,.82,2.67,2.13,0,.7-.2,1.33-1.2,2.27l-1.65,1.56h3.09Z"/><path class="cls-1" d="M95.47,52.63c0-2.37,1.31-3.72,3.08-3.72s3.08,1.34,3.08,3.72-1.3,3.72-3.08,3.72-3.08-1.34-3.08-3.72Zm4.49,0c0-1.63-.57-2.31-1.41-2.31s-1.4,.68-1.4,2.31,.57,2.31,1.4,2.31,1.41-.68,1.41-2.31Z"/><path class="cls-1" d="M108.76,54.87v1.35h-5.43v-1.08l2.77-2.62c.64-.61,.75-.98,.75-1.32,0-.56-.39-.89-1.15-.89-.62,0-1.14,.24-1.49,.72l-1.21-.78c.55-.81,1.56-1.33,2.85-1.33,1.6,0,2.67,.82,2.67,2.13,0,.7-.2,1.33-1.2,2.27l-1.65,1.56h3.09Z"/><path class="cls-1" d="M113.23,49.04v7.19h-1.66v-5.85h-1.44v-1.33h3.1Z"/><path class="cls-1" d="M118.96,52.69h2.91v1.28h-2.91v-1.28Z"/><path class="cls-1" d="M133.36,54.87v1.35h-5.43v-1.08l2.77-2.62c.64-.61,.75-.98,.75-1.32,0-.56-.39-.89-1.15-.89-.62,0-1.14,.24-1.49,.72l-1.21-.78c.55-.81,1.56-1.33,2.85-1.33,1.6,0,2.67,.82,2.67,2.13,0,.7-.2,1.33-1.2,2.27l-1.65,1.56h3.09Z"/><path class="cls-1" d="M135.04,52.63c0-2.37,1.31-3.72,3.08-3.72s3.08,1.34,3.08,3.72-1.3,3.72-3.08,3.72-3.08-1.34-3.08-3.72Zm4.49,0c0-1.63-.57-2.31-1.41-2.31s-1.4,.68-1.4,2.31,.57,2.31,1.4,2.31,1.41-.68,1.41-2.31Z"/><path class="cls-1" d="M148.33,54.87v1.35h-5.43v-1.08l2.77-2.62c.64-.61,.75-.98,.75-1.32,0-.56-.39-.89-1.15-.89-.62,0-1.14,.24-1.49,.72l-1.21-.78c.55-.81,1.56-1.33,2.85-1.33,1.6,0,2.67,.82,2.67,2.13,0,.7-.2,1.33-1.2,2.27l-1.65,1.56h3.09Z"/><path class="cls-1" d="M156.51,54.71h-1.17v1.51h-1.62v-1.51h-3.87v-1.12l3.39-4.56h1.75l-3.14,4.32h1.93v-1.34h1.57v1.34h1.17v1.35Z"/></g></g></g></g></svg>