<?xml version="1.0" encoding="UTF-8"?><svg id="Capa_2" xmlns="http://www.w3.org/2000/svg" xmlns:xlink="http://www.w3.org/1999/xlink" viewBox="0 0 206.09 42.84"><defs><style>.cls-1{fill:#009fdb;}.cls-2{fill:url(#Degradado_sin_nombre_2);}.cls-3{clip-path:url(#clippath);}.cls-4{fill:none;}.cls-5{fill:#143649;}</style><clipPath id="clippath"><path class="cls-4" d="M26.25,35.03c2.82-.03,5.48-.44,7.85-1.24,.59-.2,1.16-.42,1.7-.66-.66,1.61-1.62,2.95-2.88,3.94-2.49,1.83-5.42,3.08-8.6,3.56,.8-1.38,1.44-3.32,1.93-5.6m-13.24,3.9c-.06-.05-.12-.09-.19-.13-1.11-.54-1.56-3.01-.98-6.78,2.13,.96,4.44,1.72,6.88,2.23,1.85,.39,3.68,.64,5.48,.73-.88,3.83-2.01,5.84-2.76,5.84-.05,0-.09,0-.14,.02-2.96-.02-5.77-.7-8.29-1.91M2.74,26.74c-.17-.65-.28-1.31-.32-1.98,.66,.95,1.48,1.87,2.44,2.76,1.46,1.35,3.19,2.55,5.12,3.59-.39,2.2-.5,4.2-.25,5.81-3.32-2.51-5.81-6.07-6.98-10.18m24.77-5.35c0-.78-.01-1.56-.03-2.34,2.48-.16,4.77-.81,6.65-1.89,1.74,3.44,2.67,7.07,2.67,10.5,0,.99-.09,1.94-.24,2.83-.9,.55-1.93,1.02-3.08,1.41-2.06,.69-4.38,1.07-6.83,1.13,.59-3.54,.88-7.65,.88-11.65m-8.37,10.92c-2.47-.53-4.8-1.31-6.91-2.3,.69-3.12,1.98-6.9,4.03-11.09,.3-.61,.6-1.2,.91-1.79,1.43,.64,2.99,1.15,4.62,1.5,1.24,.27,2.48,.41,3.69,.45,.02,.75,.03,1.52,.03,2.31,0,4.69-.38,8.59-.92,11.63-1.78-.08-3.62-.31-5.46-.7m-12.92-6.25c-1.69-1.56-2.86-3.22-3.45-4.86,.47-1.84,1.38-3.69,2.72-5.47,1.27-1.68,2.85-3.19,4.66-4.49,.52,.94,1.25,1.86,2.19,2.74,.88,.83,1.92,1.58,3.06,2.24-.32,.6-.62,1.21-.92,1.82-1.77,3.62-3.21,7.51-4.06,11.04-1.57-.89-2.99-1.9-4.19-3.01M26.15,7.54c2.26,1.69,4.34,3.86,6.08,6.41,.33,.48,.64,.97,.94,1.47-1.59,.92-3.61,1.47-5.78,1.62-.18-3.44-.59-6.74-1.24-9.5m-3.95,9.13c-1.44-.31-2.81-.75-4.08-1.3,1.86-3.25,3.89-6.08,5.9-8.18,.63,2.46,1.15,5.78,1.37,9.89-1.06-.04-2.13-.18-3.2-.4m-8.51-4.15c-.83-.77-1.45-1.58-1.87-2.38,1.87-1.12,3.93-2.04,6.13-2.7,1.31-.39,2.63-.69,3.96-.89-1.91,2.14-3.81,4.85-5.56,7.92-1-.58-1.89-1.23-2.66-1.95m-4.29-6.35c-.03,.1-.06,.21-.08,.31-.2,.94-.18,1.9,.06,2.86-2.14,1.48-4.01,3.23-5.49,5.19-.45,.6-.86,1.21-1.22,1.82,1.1-4.08,3.51-7.63,6.73-10.18m1.87,.73c.22-1.03,.84-1.96,1.8-2.72,2.33-.7,5.03-.53,7.88,.51-1.2,.21-2.39,.48-3.57,.84-2.2,.66-4.27,1.56-6.17,2.66-.04-.44-.02-.87,.07-1.29m16.16-2.63c.68-.44,1.31-.75,1.84-.87,1,.4,1.99,.91,2.93,1.56-1.51-.38-3.11-.6-4.77-.69m-3.35-2.13c.81,.09,1.67,.23,2.55,.44-.55,.3-1.13,.67-1.72,1.12-.26-.59-.54-1.11-.84-1.56m-2.16,.78c-.9-.34-1.79-.61-2.67-.8,.7-.08,1.42-.12,2.14-.13,.34,0,.76,.41,1.19,1.2-.22-.09-.44-.19-.66-.27M0,21.42c0,2.03,.29,4,.83,5.87,.03,.13,.06,.25,.1,.38,0,.02,.02,.05,.03,.07,2.7,8.74,10.86,15.1,20.47,15.1,4.45,0,8.58-1.36,12.01-3.69l.1-.06c.2-.14,.4-.29,.59-.44,3.94-2.91,6.85-7.14,8.08-12.03,.07-.23,.13-.46,.18-.69,.01-.06,.01-.11,.02-.16,.29-1.41,.44-2.87,.44-4.35,0-2.89-.57-5.7-1.68-8.34-.21-.51-.8-.74-1.31-.53s-.74,.8-.53,1.31c1.01,2.39,1.53,4.94,1.53,7.56,0,1.61-.2,3.17-.57,4.66-.3,.94-.81,1.82-1.53,2.61,.02-.34,.03-.68,.03-1.03,0-3.82-1.05-7.86-3.01-11.65,1.44-1.23,2.35-2.76,2.67-4.46,.1-.54-.26-1.06-.8-1.16-.54-.1-1.06,.26-1.16,.8-.21,1.13-.79,2.16-1.71,3.04-.29-.47-.58-.94-.9-1.4-1.75-2.56-3.83-4.78-6.1-6.55,3,.2,5.78,.92,8.01,2.17,.35,.2,.82,.19,1.14-.08,.43-.35,.48-.98,.13-1.41C33.85,2.47,28.3,0,21.42,0,9.61,0,0,9.61,0,21.42"/></clipPath><radialGradient id="Degradado_sin_nombre_2" cx="502.32" cy="4367.8" fx="502.32" fy="4367.8" r="2.29" gradientTransform="translate(-7739.24 -67642.56) scale(15.49)" gradientUnits="userSpaceOnUse"><stop offset="0" stop-color="#fff"/><stop offset=".06" stop-color="#eaf7fb"/><stop offset=".19" stop-color="#b4e2f4"/><stop offset=".36" stop-color="#5dc2e7"/><stop offset=".54" stop-color="#009fda"/><stop offset="1" stop-color="#143649"/></radialGradient></defs><g id="Capa_1-2"><g><g class="cls-3"><rect class="cls-2" x="0" y="0" width="42.84" height="42.84"/></g><g><path class="cls-5" d="M97.47,35.33c-.22,0-.4-.18-.4-.4v-8.11c0-.22,.18-.4,.4-.4s.4,.18,.4,.4v8.11c0,.22-.18,.4-.4,.4"/><path class="cls-1" d="M49.9,34.49v-7.29h2.76c1.49,0,2.35,.56,2.35,1.92s-.77,1.51-1.13,1.51v.02c.49,0,1.62,.43,1.62,1.79,0,1.52-1.2,2.04-2.54,2.04h-3.06Zm2.59-4.25c.78,0,1.04-.39,1.04-.95s-.38-.93-1.24-.93h-.96v1.88h1.16Zm.16,3.08c.72,0,1.26-.23,1.26-1.03,0-.75-.55-1.04-1.29-1.04h-1.28v2.07h1.31Z"/><rect class="cls-1" x="56.35" y="27.2" width="1.44" height="7.29"/><path class="cls-1" d="M65.16,34.47s-.27,.07-.75,.07c-2.21,0-1.61-2.78-3.14-2.78h-.77v2.73h-1.44v-7.28h2.56c1.79,0,2.75,.66,2.75,2.29,0,1.07-.7,1.64-1.26,1.85,.75,.61,.79,2.03,1.75,2.03h.3v1.09Zm-3.71-3.79c.86,0,1.5-.4,1.5-1.15s-.51-1.17-1.39-1.17h-1.07v2.31h.96Z"/><polygon class="cls-1" points="65.79 34.49 65.79 27.2 70.39 27.2 70.39 28.37 67.23 28.37 67.23 30.38 69.72 30.38 69.72 31.52 67.23 31.52 67.23 34.49 65.79 34.49"/><path class="cls-1" d="M74.2,32.82c-.75,0-1.34-.6-1.34-1.35s.59-1.35,1.34-1.35,1.35,.6,1.35,1.35-.6,1.35-1.35,1.35"/><path class="cls-1" d="M82.55,32.67h-2.58l-.61,1.82h-1.5l2.67-7.29h1.47l2.67,7.29h-1.49l-.63-1.82Zm-2.2-1.09h1.83l-.93-2.64-.91,2.64Z"/><rect class="cls-1" x="85.28" y="27.2" width="1.44" height="7.29"/><polygon class="cls-1" points="87.99 34.49 87.99 27.2 92.59 27.2 92.59 28.37 89.43 28.37 89.43 30.38 91.92 30.38 91.92 31.52 89.43 31.52 89.43 34.49 87.99 34.49"/><path class="cls-5" d="M107.07,32.54c0,.92-.63,2-2.17,2s-2.55-.99-2.55-2.84,.96-2.86,2.54-2.86c1.89,0,2.16,1.68,2.16,1.97l-1.19,.18s0-1.02-.96-1.02c-.72,0-1.21,.55-1.21,1.72s.55,1.71,1.25,1.71,.94-.45,.94-.87v-.06h-1.19v-.95h2.39v1Z"/><path class="cls-5" d="M112.69,34.47s-.21,.06-.65,.06c-1.79,0-1.24-2.05-2.39-2.05h-.42v2.01h-1.29v-5.6h2.04c1.44,0,2.19,.51,2.19,1.8,0,.83-.55,1.26-.92,1.42,.51,.51,.51,1.38,1.2,1.38h.24v.99Zm-2.86-2.95c.63,0,1.07-.27,1.07-.78s-.37-.82-.99-.82h-.7v1.6h.61Z"/><path class="cls-5" d="M116.33,28.89h1.29v3.28c0,1.79-1,2.37-2.2,2.37s-2.23-.58-2.22-2.37v-3.28h1.3v3.38c0,.62,.22,1.12,.92,1.12s.91-.5,.91-1.12v-3.38Z"/><path class="cls-5" d="M118.65,34.49v-5.6h2.01c1.39,0,2.26,.63,2.26,1.96s-.95,1.9-2.09,1.9h-.9v1.74h-1.29Zm1.95-2.75c.66,0,1.03-.31,1.03-.89,0-.54-.34-.94-1.07-.94h-.62v1.82h.66Z"/><path class="cls-5" d="M123.39,31.7c0-1.9,1.13-2.86,2.54-2.86s2.56,.95,2.56,2.86-1.14,2.84-2.56,2.84-2.54-.94-2.54-2.84m3.76,0c0-1.28-.55-1.72-1.22-1.72s-1.21,.44-1.21,1.72,.54,1.74,1.21,1.74,1.22-.47,1.22-1.74"/><path class="cls-5" d="M131.4,34.49v-5.6h2.25c1.14,0,1.82,.43,1.82,1.5,0,.98-.6,1.13-.89,1.13v.02c.38,0,1.26,.34,1.26,1.38,0,1.18-.9,1.58-1.93,1.58h-2.51Zm2.01-3.33c.54,0,.73-.23,.73-.62s-.26-.62-.85-.62h-.6v1.25h.72Zm.15,2.31c.51,0,.83-.18,.83-.7s-.36-.71-.86-.71h-.84v1.41h.87Z"/><path class="cls-5" d="M139.67,33.16h-1.87l-.43,1.33h-1.35l2.06-5.6h1.33l2.05,5.6h-1.35l-.44-1.33Zm-1.55-.96h1.23l-.61-1.82-.62,1.82Z"/><polygon class="cls-5" points="145.18 34.49 143.31 31.3 143.31 34.49 142.02 34.49 142.02 28.89 143.33 28.89 145.2 32.22 145.2 28.89 146.49 28.89 146.49 34.49 145.18 34.49"/><path class="cls-5" d="M152.08,33.46s-.61,1.08-2.07,1.08c-1.6,0-2.68-.99-2.68-2.84s.95-2.86,2.53-2.86c2.05,0,2.22,1.69,2.22,2.04l-1.19,.19s0-1.09-1.01-1.09c-.71,0-1.22,.55-1.22,1.72s.68,1.71,1.42,1.71,1.27-.72,1.27-.72l.74,.78Z"/><path class="cls-5" d="M152.6,31.7c0-1.9,1.13-2.86,2.55-2.86s2.55,.95,2.55,2.86-1.14,2.84-2.55,2.84-2.55-.94-2.55-2.84m3.76,0c0-1.28-.55-1.72-1.22-1.72s-1.21,.44-1.21,1.72,.54,1.74,1.21,1.74,1.22-.47,1.22-1.74"/><polygon class="cls-5" points="161.53 31.5 161.53 34.49 160.24 34.49 160.24 28.89 161.55 28.89 163.12 32.2 164.78 28.89 166.01 28.89 166.01 34.49 164.72 34.49 164.75 31.35 163.53 33.81 162.66 33.81 161.53 31.5"/><path class="cls-5" d="M170.19,28.89h1.29v3.28c0,1.79-1,2.37-2.2,2.37s-2.22-.58-2.22-2.37v-3.28h1.29v3.38c0,.62,.22,1.12,.92,1.12s.91-.5,.91-1.12v-3.38Z"/><polygon class="cls-5" points="175.66 34.49 173.8 31.3 173.8 34.49 172.51 34.49 172.51 28.89 173.82 28.89 175.69 32.22 175.69 28.89 176.97 28.89 176.97 34.49 175.66 34.49"/><path class="cls-5" d="M178.06,34.49v-5.6h1.72c1.47,0,2.81,.78,2.81,2.91s-1.24,2.7-2.59,2.7h-1.94Zm1.94-1.03c.78,0,1.33-.59,1.33-1.69s-.42-1.86-1.56-1.86h-.42v3.55h.65Z"/><rect class="cls-5" x="183.44" y="28.89" width="1.29" height="5.6"/><path class="cls-5" d="M188.94,33.16h-1.86l-.43,1.33h-1.35l2.06-5.6h1.33l2.05,5.6h-1.34l-.44-1.33Zm-1.54-.96h1.23l-.62-1.82-.62,1.82Z"/><polygon class="cls-5" points="191.3 34.49 191.3 28.89 192.59 28.89 192.59 33.47 194.95 33.47 194.95 34.49 191.3 34.49"/><path class="cls-5" d="M49.9,9.57h4.98c.78,0,2.27,0,3.28,.63,1.22,.77,1.49,2.07,1.49,2.84,0,.5-.09,1.36-.78,1.99-.09,.11-.74,.7-1.51,.91v.04c2.03,.37,2.82,1.85,2.82,3.25,0,1.57-.92,2.62-1.96,3.14-1.03,.53-2.84,.53-3.36,.53h-4.98V9.57Zm2.73,5.43h1.99c.81,0,2.29,0,2.29-1.72s-1.4-1.66-2.34-1.66h-1.94v3.38Zm0,5.76h1.94c1.31,0,2.79,0,2.79-1.79,0-1.9-1.72-1.9-3.08-1.9h-1.64v3.69Z"/><path class="cls-5" d="M69.08,9.56l4.63,13.34h-2.88l-.96-2.88h-5.28l-1,2.88h-2.73l4.82-13.34h3.4Zm.07,8.3l-1.85-5.68-1.97,5.68h3.82Z"/><polygon class="cls-5" points="75.24 9.56 79.38 9.56 84.38 20.06 84.38 9.56 87.04 9.56 87.04 22.9 83.11 22.9 77.94 11.83 77.94 22.9 75.24 22.9 75.24 9.56"/><path class="cls-5" d="M96.88,13.91c-.06-.46-.22-2.34-2.16-2.34-2.12,0-3.01,2.22-3.01,4.97,0,.79,0,4.58,2.79,4.58,1.2,0,2.34-.76,2.4-2.53h3.01c-.06,.79-.13,2.03-1.2,3.14-1.18,1.22-2.68,1.49-3.89,1.49-4.6,0-6.09-3.4-6.09-6.7,0-4.23,2.36-7.03,6.11-7.03,2.92,0,4.97,1.77,4.97,4.43h-2.92Z"/><path class="cls-5" d="M107.4,9.28c1.42,0,3.38,.33,4.69,1.81,1.42,1.62,1.7,3.71,1.7,5.02,0,1.94-.59,4-1.68,5.22-1.48,1.66-3.64,1.9-4.74,1.9-1.75,0-3.51-.55-4.73-1.83-1.46-1.55-1.64-3.76-1.64-4.98,0-3.54,1.6-7.14,6.4-7.14m-2.42,10.78c.41,.55,1.09,1.07,2.42,1.07,1.16,0,1.96-.41,2.49-1.24,.44-.66,.91-1.7,.91-3.82,0-.65-.06-1.57-.33-2.38-.55-1.64-1.68-2.36-3.04-2.36-1.07,0-1.92,.44-2.46,1.12-.76,.92-.98,2.36-.98,3.88,0,1.27,.2,2.69,1,3.73"/><polygon class="cls-5" points="120.45 9.56 125.12 9.56 127.95 19.26 130.99 9.56 135.53 9.56 135.53 22.9 132.69 22.9 132.69 11.46 129.06 22.9 126.69 22.9 123.13 11.46 123.13 22.9 120.45 22.9 120.45 9.56"/><path class="cls-5" d="M140.78,9.59v8.12c0,1.46,.11,3.28,2.9,3.28,.46,0,1.85-.02,2.58-1.16,.28-.41,.42-.92,.42-2.27v-7.97h2.79v8.32c0,3.97-3.16,5.24-5.85,5.24-1.33,0-3.77-.3-5.02-2.31-.65-1.01-.68-2.05-.68-3.28v-7.97h2.86Z"/><polygon class="cls-5" points="152.1 9.56 156.23 9.56 161.23 20.06 161.23 9.56 163.89 9.56 163.89 22.9 159.96 22.9 154.79 11.83 154.79 22.9 152.1 22.9 152.1 9.56"/><path class="cls-5" d="M166.15,9.59l4.41,.02c.74,0,2.99,.02,4.6,1.2,1.68,1.24,2.27,3.34,2.27,5.24,0,4.1-2.2,6.24-4.73,6.7-.5,.09-1.05,.15-2.4,.15h-4.15V9.59Zm2.9,11.11c.31,.02,.79,.04,1.12,.04,1.22,0,2.27-.09,3.1-.92,1.13-1.12,1.2-3.12,1.2-3.76,0-1.88-.64-3.62-2.43-4.12-.59-.17-1.35-.26-2.99-.18v8.95Z"/><rect class="cls-5" x="179.2" y="9.52" width="2.86" height="13.38"/><path class="cls-5" d="M191.34,9.56l4.63,13.34h-2.88l-.96-2.88h-5.28l-1,2.88h-2.73l4.82-13.34h3.4Zm.07,8.3l-1.85-5.68-1.98,5.68h3.82Z"/><polygon class="cls-5" points="197.46 9.57 200.37 9.57 200.37 20.63 206.09 20.63 206.09 22.9 197.46 22.9 197.46 9.57"/></g></g></g></svg>