<?xml version="1.0" encoding="UTF-8"?><svg id="Capa_2" xmlns="http://www.w3.org/2000/svg" viewBox="0 0 216.85 46.72"><defs><style>.cls-1{fill:#fff;}</style></defs><g id="Capa_1-2"><g><path class="cls-1" d="M33.46,20.09s.63-2.74,3.88-2.14c0,0-2.99,1.72-1.09,4.71,0,0-1.75,.02-2.79-2.57"/><path class="cls-1" d="M34.66,6.84s-4.45,1.96-4.49,7.15c0,0-.8-4.22,2.65-7.15h1.84Z"/><path class="cls-1" d="M38.07,6.38c-4.21,0-7.62,3.41-7.62,7.62,0,2.37,1.08,4.48,2.77,5.88l.37-.66s-.03-.08-.05-.12c-2.56-6.3,3.36-7.42,3.36-7.42,3.59-1.26,3.82-4.83,3.82-4.83-.82-.3-1.72-.47-2.65-.47m-1.8,4.61c-1.54-1.51-1.01-3.48-1.01-3.48-.16,2.46,1.88,3.54,1.88,3.54l-.87-.06Zm1.86-2.52c-.26,.14-.59,.05-.73-.21-.15-.26-.05-.59,.21-.73,.26-.15,.59-.05,.73,.21,.14,.26,.05,.59-.21,.73"/><path class="cls-1" d="M41.51,22.39s-5.38,6.06-12.12,0v2.71s5.73,5.81,12.12,0v-2.71Z"/><path class="cls-1" d="M24.39,26.55s-.63-2.74-3.88-2.14c0,0,2.99,1.71,1.09,4.71,0,0,1.75,.02,2.79-2.57"/><path class="cls-1" d="M23.19,13.29s4.45,1.96,4.49,7.15c0,0,.8-4.22-2.65-7.15h-1.84Z"/><path class="cls-1" d="M19.78,12.83c-.93,0-1.82,.17-2.65,.47,0,0,.23,3.57,3.82,4.83,0,0,5.92,1.11,3.36,7.42-.02,.04-.03,.08-.05,.12l.37,.66c1.69-1.4,2.77-3.51,2.77-5.88,0-4.21-3.41-7.62-7.62-7.62m.67,1.89c-.14,.26-.47,.35-.73,.21-.26-.14-.36-.47-.21-.73,.14-.26,.47-.36,.73-.21,.26,.14,.35,.47,.21,.73m1.13,2.73l-.87,.06s2.04-1.08,1.88-3.54c0,0,.53,1.97-1.01,3.48"/><path class="cls-1" d="M9.65,33.01s.63-2.74,3.88-2.14c0,0-2.99,1.71-1.09,4.71,0,0-1.75,.02-2.79-2.57"/><path class="cls-1" d="M10.85,19.75s-4.45,1.96-4.49,7.15c0,0-.8-4.22,2.65-7.15h1.84Z"/><path class="cls-1" d="M14.27,19.29c-4.21,0-7.62,3.41-7.62,7.62,0,2.37,1.08,4.48,2.77,5.88l.37-.66s-.03-.08-.05-.12c-2.56-6.3,3.36-7.42,3.36-7.42,3.59-1.26,3.82-4.83,3.82-4.83-.82-.3-1.72-.47-2.65-.47m-1.8,4.61c-1.54-1.51-1.01-3.48-1.01-3.48-.16,2.46,1.88,3.54,1.88,3.54l-.87-.06Zm1.86-2.51c-.26,.14-.59,.05-.73-.21-.14-.26-.05-.59,.21-.74,.26-.14,.59-.05,.73,.21,.14,.26,.05,.59-.21,.73"/><path class="cls-1" d="M29.4,28.7s-5.38,6.06-12.12,0v2.71s5.72,5.82,12.12,0"/><path class="cls-1" d="M41.51,28.7s-5.38,6.06-12.12,0v2.71s5.73,5.81,12.12,0v-2.71Z"/><path class="cls-1" d="M29.4,34.98s-5.38,6.05-12.12,0v2.71s5.72,5.82,12.12,0"/><path class="cls-1" d="M41.51,34.98s-5.38,6.05-12.12,0v2.71s5.73,5.81,12.12,0v-2.71Z"/><path class="cls-1" d="M17.28,34.98s-5.38,6.05-12.12,0v2.71s5.73,5.81,12.12,0"/><path class="cls-1" d="M44.91,37.27s.35,7.28-7.79,7.62l1.71,1.74s7.34,.14,7.79-7.62l-1.71-1.75Z"/><rect class="cls-1" x="44.92" y="9.63" width="1.82" height="27.64"/><path class="cls-1" d="M37.31,1.84s7.28-.35,7.62,7.79l1.74-1.71s.14-7.34-7.62-7.79l-1.75,1.71Z"/><rect class="cls-1" x="9.66" width="27.64" height="1.82"/><path class="cls-1" d="M1.83,9.45S1.48,2.17,9.62,1.83L7.92,.08S.58-.06,.12,7.7l1.71,1.74Z"/><rect class="cls-1" y="9.47" width="1.82" height="27.64"/><path class="cls-1" d="M9.46,44.9s-7.28,.35-7.62-7.79l-1.74,1.71s-.14,7.34,7.62,7.79l1.75-1.71Z"/><rect class="cls-1" x="9.46" y="44.9" width="27.64" height="1.82"/><path class="cls-1" d="M69.32,2.9c4.16,0,7.67,1.42,10.54,4.27,2.71,2.7,4.21,6.35,4.21,10.17,0,4.01-1.43,7.42-4.27,10.23-2.85,2.81-6.34,4.21-10.47,4.21h-6.32v11.26c0,1.09-.89,1.98-1.98,1.98h-5.66c-1.1,0-1.98-.89-1.98-1.98V4.89c0-1.1,.89-1.98,1.98-1.98h13.96Zm0,19.86c1.48,0,2.71-.52,3.67-1.56,.96-1.04,1.44-2.33,1.44-3.85s-.48-2.81-1.44-3.85c-.96-1.04-2.19-1.56-3.67-1.56h-6.32v10.83h6.32Z"/><path class="cls-1" d="M114.13,2.9h5.66c1.1,0,1.98,.89,1.98,1.98V43.05c0,1.1-.89,1.98-1.98,1.98h-4.21c-.64,0-1.24-.31-1.62-.83l-15.66-22.04v20.89c0,1.1-.89,1.98-1.98,1.98h-5.66c-1.1,0-1.98-.89-1.98-1.98V4.89c0-1.09,.89-1.98,1.98-1.98h4.22c.64,0,1.24,.31,1.62,.83l15.66,22.04V4.89c0-1.09,.89-1.98,1.98-1.98"/><path class="cls-1" d="M131.79,2.9h5.66c1.09,0,1.98,.89,1.98,1.98V43.05c0,1.1-.89,1.98-1.98,1.98h-5.66c-1.09,0-1.98-.89-1.98-1.98V4.89c0-1.09,.89-1.98,1.98-1.98"/><path class="cls-1" d="M163.44,2.9c4.16,0,7.67,1.42,10.53,4.27,2.72,2.7,4.22,6.36,4.22,10.19,0,4.01-1.43,7.42-4.27,10.22-2.85,2.81-6.34,4.21-10.47,4.21h-6.32v11.26c0,1.09-.89,1.98-1.98,1.98h-5.66c-1.1,0-1.98-.89-1.98-1.98V4.89c0-1.1,.89-1.98,1.98-1.98h13.96Zm0,19.86c1.48,0,2.71-.52,3.67-1.56,.96-1.04,1.44-2.33,1.44-3.85s-.48-2.81-1.44-3.85c-.96-1.04-2.19-1.56-3.67-1.56h-6.32v10.83h6.32Z"/><path class="cls-1" d="M207.33,43.69l-1.8-5.28h-16.21l-1.67,5.24c-.26,.82-1.03,1.38-1.89,1.38h-6.31c-1.36,0-2.31-1.34-1.88-2.62l12.98-38.16c.27-.8,1.03-1.35,1.88-1.35h9.44c.85,0,1.6,.54,1.88,1.34l13,38.16c.44,1.29-.52,2.62-1.88,2.62h-5.66c-.85,0-1.6-.54-1.88-1.34m-15.09-14.3h10.21l-5.27-15.47-4.94,15.47Z"/></g></g></svg>