<?xml version="1.0" encoding="UTF-8"?><svg id="Capa_2" xmlns="http://www.w3.org/2000/svg" viewBox="0 0 230.86 46.72"><defs><style>.cls-1,.cls-2{fill:#fff;}.cls-3{fill:#388151;}.cls-3,.cls-2,.cls-4,.cls-5,.cls-6,.cls-7,.cls-8,.cls-9,.cls-10,.cls-11,.cls-12,.cls-13,.cls-14{fill-rule:evenodd;}.cls-15,.cls-9{fill:#221f20;}.cls-4{fill:#ea0029;}.cls-5{fill:#76b5d3;}.cls-6{fill:#7e7374;}.cls-7{fill:#91624f;}.cls-16,.cls-17{stroke:#221f20;stroke-width:.03px;}.cls-16,.cls-17,.cls-18{fill:none;}.cls-16,.cls-18{stroke-miterlimit:2.61;}.cls-17{stroke-linecap:round;stroke-linejoin:round;}.cls-18{stroke:#2c8a4e;stroke-width:.02px;}.cls-8{fill:#7b7267;}.cls-10{fill:#2c8a4e;}.cls-11{fill:#dcd752;}.cls-12{fill:#b17240;}.cls-13{fill:#d9b747;}.cls-19{fill:#e1251b;}.cls-14{fill:#b38368;}.cls-20{fill:#58595b;}</style></defs><g id="Capa_1-2"><g><rect class="cls-1" width="230.86" height="46.72"/><rect class="cls-19" x="44.83" y="1.95" width="42.85" height="42.83"/><path class="cls-1" d="M56.81,21.27c0,.5-.08,.96-.25,1.36-.17,.4-.4,.75-.71,1.03-.31,.29-.69,.51-1.14,.66-.45,.15-.99,.23-1.61,.23h-1.14v3.63s-.01,.08-.04,.11c-.02,.03-.06,.05-.11,.07-.05,.02-.12,.03-.2,.05-.09,.01-.19,.02-.32,.02s-.24,0-.32-.02c-.09-.01-.16-.03-.21-.05-.05-.02-.09-.04-.11-.07-.02-.03-.03-.07-.03-.11v-9.3c0-.21,.05-.36,.16-.45,.11-.09,.23-.13,.37-.13h2.16c.22,0,.43,0,.63,.03,.2,.02,.43,.06,.71,.12,.27,.06,.55,.17,.83,.33,.28,.16,.52,.37,.72,.6,.2,.24,.35,.52,.46,.83,.11,.31,.16,.66,.16,1.04m-1.41,.11c0-.41-.07-.75-.23-1.03-.15-.28-.34-.48-.57-.62-.23-.14-.46-.22-.7-.26-.24-.04-.48-.06-.71-.06h-1.24v4.04h1.21c.41,0,.74-.05,1.01-.16,.27-.1,.49-.25,.67-.43,.18-.18,.32-.4,.41-.66,.09-.26,.14-.54,.14-.84"/><path class="cls-1" d="M64.14,27.85c0,.09,0,.17-.01,.25-.01,.07-.03,.13-.05,.17-.03,.05-.06,.08-.09,.1-.03,.02-.07,.03-.11,.03h-4.84c-.12,0-.23-.04-.34-.12-.11-.08-.16-.22-.16-.42v-8.99c0-.2,.05-.34,.16-.43,.11-.08,.22-.12,.34-.12h4.78s.08,.01,.11,.03c.03,.02,.06,.05,.08,.1,.02,.05,.04,.1,.05,.18,.01,.07,.02,.16,.02,.26,0,.09,0,.18-.02,.25-.01,.07-.03,.13-.05,.17-.02,.04-.05,.07-.08,.1-.03,.02-.07,.03-.11,.03h-3.94v3.16h3.38s.08,.01,.11,.04c.03,.02,.07,.05,.09,.1,.02,.04,.04,.1,.05,.17,.01,.07,.02,.16,.02,.26s0,.17-.02,.24c0,.07-.03,.12-.05,.16-.02,.04-.05,.07-.09,.09-.03,.02-.07,.03-.11,.03h-3.38v3.61h3.99s.08,.01,.11,.03c.03,.02,.07,.05,.09,.09,.02,.04,.04,.1,.05,.17,0,.07,.01,.16,.01,.26"/><path class="cls-1" d="M72.72,28.2s0,.08-.02,.11c-.02,.03-.05,.06-.1,.08-.05,.02-.13,.04-.22,.05-.09,.01-.22,.02-.38,.02-.13,0-.25,0-.33-.02-.09-.01-.15-.03-.21-.05-.05-.02-.09-.05-.12-.1-.03-.04-.05-.09-.07-.15l-.93-2.38c-.11-.27-.22-.52-.34-.74-.12-.22-.26-.42-.42-.58-.16-.16-.35-.29-.57-.38-.22-.09-.48-.14-.79-.14h-.9v4.29s-.01,.08-.03,.11c-.02,.03-.06,.05-.11,.07-.05,.02-.12,.03-.2,.05-.09,.01-.19,.02-.32,.02s-.24,0-.33-.02c-.08-.01-.15-.03-.21-.05-.05-.02-.09-.04-.11-.07-.02-.03-.03-.07-.03-.11v-9.33c0-.2,.05-.34,.16-.42,.11-.08,.22-.12,.34-.12h2.14c.25,0,.47,0,.63,.02,.17,.01,.32,.03,.46,.04,.39,.07,.73,.17,1.03,.32,.3,.15,.55,.33,.75,.55,.2,.22,.35,.48,.45,.77,.1,.29,.15,.6,.15,.95s-.05,.64-.14,.91c-.09,.27-.22,.5-.39,.71-.17,.2-.38,.38-.62,.53-.24,.15-.51,.28-.8,.38,.17,.07,.32,.16,.45,.28,.13,.11,.26,.24,.38,.4,.11,.16,.23,.33,.33,.54,.1,.2,.21,.43,.31,.68l.9,2.22c.08,.19,.12,.32,.14,.39,.02,.08,.03,.14,.03,.18m-2.02-7.08c0-.39-.09-.73-.26-1-.18-.27-.47-.47-.89-.59-.13-.04-.28-.06-.44-.08-.16-.01-.38-.02-.64-.02h-1.13v3.4h1.31c.36,0,.66-.04,.92-.13,.26-.09,.47-.2,.64-.36,.17-.15,.3-.33,.38-.54,.08-.21,.12-.43,.12-.68"/><path class="cls-1" d="M81.91,24.68c0,.61-.09,1.16-.27,1.64-.18,.48-.44,.89-.77,1.22-.33,.33-.74,.58-1.21,.75-.48,.17-1.02,.26-1.63,.26-.56,0-1.06-.08-1.52-.24-.46-.16-.85-.4-1.18-.71-.33-.31-.58-.71-.75-1.18-.18-.47-.27-1.02-.27-1.64v-6.26s0-.08,.03-.11c.02-.03,.06-.06,.11-.07,.05-.02,.12-.03,.2-.05,.08-.01,.19-.02,.33-.02,.12,0,.23,0,.32,.02,.09,.01,.16,.03,.21,.05,.05,.02,.08,.04,.11,.07,.02,.03,.03,.07,.03,.11v6.09c0,.47,.06,.87,.17,1.22,.11,.35,.28,.64,.49,.87,.22,.23,.48,.4,.78,.52,.3,.12,.64,.17,1.02,.17s.74-.06,1.04-.17c.3-.11,.56-.28,.77-.52,.21-.23,.37-.51,.48-.85,.11-.34,.17-.73,.17-1.19v-6.16s0-.08,.03-.11c.02-.03,.06-.06,.11-.07,.05-.02,.12-.03,.21-.05,.09-.01,.19-.02,.32-.02s.23,0,.32,.02c.09,.01,.15,.03,.2,.05,.05,.02,.08,.04,.11,.07,.02,.03,.03,.07,.03,.11v6.15Zm-2.99-9.14c.06-.07,.11-.12,.17-.16,.06-.03,.12-.06,.19-.08,.07-.02,.14-.04,.24-.04,.09,0,.2-.01,.34-.01,.15,0,.28,.01,.36,.04,.09,.02,.15,.05,.19,.09,.04,.04,.05,.08,.04,.12-.01,.05-.04,.1-.09,.15l-1.77,1.65c-.05,.05-.1,.09-.14,.12-.04,.03-.09,.05-.15,.07-.06,.02-.13,.03-.2,.04-.08,0-.17,.01-.28,.01-.12,0-.21,0-.28-.02-.07-.01-.11-.03-.14-.06-.03-.03-.03-.06-.02-.11,.01-.04,.04-.09,.09-.15l1.47-1.66Z"/><rect class="cls-1" x="1.99" y="1.94" width="42.84" height="42.84"/><rect class="cls-20" x="89.63" y="1.94" width="139.28" height="42.84"/><g><path class="cls-9" d="M23.38,37.88l-7.72-17.7-6.37-5.16,.23,17.66c.06,3.89,4.28,9.74,13.87,5.2"/><path class="cls-4" d="M23.89,37.58l-7.88-17.42-6.5-5.09,.24,17.38c.06,3.83,4.36,9.58,14.15,5.12"/><path class="cls-9" d="M12.4,17.46l-3.15-2.37,.04-.14s1.79,1.39,3.24,2.38c.06,.04-.09,0-.13,.13"/><path class="cls-16" d="M12.4,17.46l-3.15-2.37,.04-.14s1.79,1.39,3.24,2.38c.06,.04-.09,0-.13,.13Z"/><path class="cls-2" d="M9.63,25.73c.43,.37,1.23,.15,1.32,.82,.05,.37,.58,.36,.73,.66,.4,.77,1.08,.46,1.28,.71,.33,.41,.91,.79,1.38,.7,.53-.11,1.08,.43,1.59,.76,.9,.58,1.77,.33,1.77,2.37,0,.79,.05,1.81-.21,2.17-.53,.72-1.51,.63-2.53,.85-.19,.04-1.06-.81-1.89-.57-.36,.1-.77-.16-1.18-.07-.52,.1-1.06,.04-1.3-.44-.27-.58-.86-.62-.86-.85,0-1.6-.1-5.62-.11-7.11"/><path class="cls-16" d="M9.63,25.73c.43,.37,1.23,.15,1.32,.82,.05,.37,.58,.36,.73,.66,.4,.77,1.08,.46,1.28,.71,.33,.41,.91,.79,1.38,.7,.53-.11,1.08,.43,1.59,.76,.9,.58,1.77,.33,1.77,2.37,0,.79,.05,1.81-.21,2.17-.53,.72-1.51,.63-2.53,.85-.19,.04-1.06-.81-1.89-.57-.36,.1-.77-.16-1.18-.07-.52,.1-1.06,.04-1.3-.44-.27-.58-.86-.62-.86-.85,0-1.6-.1-5.62-.11-7.11Z"/><path class="cls-9" d="M15.49,26.98c-.88-.67-4.45-2.08-4.95-3.08-.5-1,.37-2.38,.13-1.64-.3,.93,2.94,2.26,3.83,2.64,.34,.15,1.47,.54,1.47,1,0,.07-.12,.42-.12,.53,0,.32-.37,.49-.37,.56"/><path class="cls-16" d="M15.49,26.98c-.88-.67-4.45-2.08-4.95-3.08-.5-1,.37-2.38,.13-1.64-.3,.93,2.94,2.26,3.83,2.64,.34,.15,1.47,.54,1.47,1,0,.07-.12,.42-.12,.53,0,.32-.37,.49-.37,.56Z"/><path class="cls-11" d="M15.71,26.84c-.91-.73-4.54-2.24-5.06-3.33-.51-1.08,.38-2.57,.14-1.77-.3,.99,3.01,2.44,3.92,2.85,.35,.16,1.49,.58,1.49,1.06,0,.08-.11,.46-.11,.57,0,.34-.38,.53-.38,.61"/><path class="cls-16" d="M15.71,26.84c-.91-.73-4.54-2.24-5.06-3.33-.51-1.08,.38-2.57,.14-1.77-.3,.99,3.01,2.44,3.92,2.85,.35,.16,1.49,.58,1.49,1.06,0,.08-.11,.46-.11,.57,0,.34-.38,.53-.38,.61Z"/><path class="cls-4" d="M17.17,26.91c.05-3.69,.77-7.69,.3-9.24-1.98-1.31-3.25-2.24-4.52-3.39-.16-.14-1.77,6.23-2.29,7.65,.61,1.81,3.56,2.41,6.51,4.97"/><path class="cls-16" d="M17.17,26.91c.05-3.69,.77-7.69,.3-9.24-1.98-1.31-3.25-2.24-4.52-3.39-.16-.14-1.77,6.23-2.29,7.65,.61,1.81,3.56,2.41,6.51,4.97Z"/><path class="cls-2" d="M15.65,19.49c-.26-.11-.87-.7-1.16-.83-.65-.3-1.98-1.48-2.28-1.19-.58,.53-.68,1.34-.81,2.01-.05,.33,.24,.33,.5,.44,.45,.21,.65,.46,1.14,.51,1.22,.15,1.9,1.1,2.53,.82,.26-.12,.14-1,.44-1.14,.45-.22-.19-.36-.37-.61"/><path class="cls-16" d="M15.65,19.49c-.26-.11-.87-.7-1.16-.83-.65-.3-1.98-1.48-2.28-1.19-.58,.53-.68,1.34-.81,2.01-.05,.33,.24,.33,.5,.44,.45,.21,.65,.46,1.14,.51,1.22,.15,1.9,1.1,2.53,.82,.26-.12,.14-1,.44-1.14,.45-.22-.19-.36-.37-.61Z"/><path class="cls-14" d="M17.35,22.34c.03,.06-.04,.19-.14,.36,.06-.02,.12-.03,.19-.11-.04,.13-.11,.21-.17,.28,.04,0,.1,0,.15-.1v.07c-.01,.06-.05,.15-.07,.2-.06,.03-.07,.15-.1,.23-.08-.13-.14-.27-.05-.61-.08-.06,0-.19,.07-.29-.02,.01-.07,.06-.09,.06,.02-.14,.04-.28,.16-.41,.1-.06,.18-.06,.25,.06,.01,.06,.02,.09-.13,.16-.14,.1-.13,.11-.07,.11"/><path class="cls-9" d="M12.89,14.32c.71,2.05,.77,5.61,1.31,7.82,.03,.12,.11,.63,.15,.69,.01,0-.31-.39-.42-.46-.48-.29-1.7-1.15-2.82-.6-.07,.04-.16,.11-.24,.18-.09,.09-.15,.15-.15,.15-.06-.16-.08-.23,.07-.36,.15-.64,.3-1.33,.46-2.02,.08-.33,.16-.66,.23-.99,.49-2.03,1-3.91,1.41-4.42"/><path class="cls-16" d="M12.89,14.32c.71,2.05,.77,5.61,1.31,7.82,.03,.12,.11,.63,.15,.69,.01,0-.31-.39-.42-.46-.48-.29-1.7-1.15-2.82-.6-.07,.04-.16,.11-.24,.18-.09,.09-.15,.15-.15,.15-.06-.16-.08-.23,.07-.36,.15-.64,.3-1.33,.46-2.02,.08-.33,.16-.66,.23-.99,.49-2.03,1-3.91,1.41-4.42Z"/><path class="cls-9" d="M17.25,17.67l-4.5-3.36,.06-.2s2.55,1.97,4.62,3.38c.09,.06-.12,0-.17,.18"/><path class="cls-17" d="M17.25,17.67l-4.5-3.36,.06-.2s2.56,1.97,4.62,3.38c.09,.06-.12,0-.17,.18Zm-2.71,7.68v.25s-.03,.1-.03,.11c0,.02-.04,.04-.04,.08,0,.03-.02,.1-.02,.15v.08s-.01,.13,.04,0m.42-.44v.24s-.04,.1-.03,.12c0,.01-.04,.04-.04,.08,0,.03-.02,.1,0,.15v.08c0,.05-.02,.13,.03,0m.47-.41c0,.06,0,.18,0,.25,0,.04-.04,.1-.04,.11,0,.01-.04,.05-.04,.08,0,.03-.02,.09-.02,.15v.08s-.01,.13,.04,0m-1.28-1.46s-.07,.06-.07,.1v.05l-.02,.02v.48h0v.12m-.26-1.03c-.09,.13-.07,.27-.07,.43,0,.06,0,.16-.02,.17-.01,.02-.07,.12-.08,.16h-.02c-.05,.07,.05,0-.22,.05m-.28-1.17s-.02,.07-.02,.11v.14h-.01v.04h0v.44h0v.03h0c0,.07-.01,.12,.04-.02m-.32-.97c0,.05-.02,.09-.02,.13v.05l-.02,.04v.08h0v.17s0,.06,0,.08v.23c0,.05-.01,.1,.04-.04m-1.87-2.2s-.05,.05-.07,.08h-.01v.03l-.02,.02v.02l-.02,.02v.02l-.02,.04v.04h-.02v.05s-.02,.08-.02,.12c0,.02-.01,.04-.01,.06v.13h0v.07c0,.06-.02,.06,.04,.02m.61-.22s-.07,.02-.07,.05h-.02v.05l-.02,.03h0v.05h-.02v.18s-.03,.06-.03,.08c0,.04-.02,0-.02,.04v.18s0,.04,0,.05m2.26,.7c-.09,.14-.07,.27-.06,.43,0,.06,0,.16-.02,.17-.01,.03-.08,.12-.09,.16l-.02,.02c-.06,.06,.05-.02-.23,.04m-1.28-2.05c-.01,.16-.07,.31-.07,.49v.35c0,.06-.03,.11,.02,0m.46-.52c-.05,.18-.09,.33-.09,.54v.19c0,.06,.02,.18-.03,.18m3.23,.99s.04,.08,.04,.1v.15h0v.05h0v.06h0v.08l-.03,.02v.04s-.06,.02-.06,.06c0,.02-.04,.06-.04,.07,0,.02-.01,.04-.01,.06l-.02,.02v.06h0v.06m-.63-1.3s-.03,.08-.03,.1v.03l-.02,.02v.02l-.02,.02v.07l-.03,.02v.12s-.02,.04-.02,.08v.21s0,.06,.02,.04m-3.36-2.99s-.06,.06-.07,.08l-.03,.02v.02l-.02,.02h0l-.02,.04v.02l-.02,.04v.09s-.03,.08-.03,.12c0,.01-.01,.04-.01,.05v.2c0,.06-.02,.06,.04,.02m.62-.16v.2h0v.03l-.02,.04v.04l-.02,.04v.02s-.01,.04-.01,.08v.08s-.02,.03-.02,.05v.12c0,.06-.01,.06,.04,.02m.44-.53s-.01,.08-.01,.12v.04h0l-.02,.06h0v.03h0v.05h0v.48c0,.05-.01,.1,.04-.04m.69-.15l-.02,.07v.02l-.02,.02v.06h-.01v.06h-.02v.08s0,.08,0,.12v.23s0,.06,.02,.06m-.22-1s-.02,.07-.02,.1v.02h0v.27s0,.12,0,.18v.18h0v.13m3.48,.98s-.02,.08-.02,.09c0,.02-.02,.04-.02,.07h-.02l-.02,.04v.02h-.01v.02l-.02,.02h0l-.02,.02v.04h-.01v.04l-.02,.03v.4m-1.68-1.76s-.03,.1-.03,.14v.14h0v.04h0v.11s0,.06,0,.08v.05s-.02,0-.02,.04v.04l-.02,.02v.03h-.02s-.06,.09,.02,.01m-.62-1.01v.12l-.03,.02h0l-.02,.03v.08s-.02,.06-.02,.1v.22h0v.07m-.21-.88c-.09,.02-.07,.04-.07,.11,0,.25,0,.57,0,.82m.71-.46l-.05,.1v.04h0v.04l-.02,.02v.53m.72-.37s-.07,.06-.07,.1v.06l-.03,.02h0v.45h0v.05s.01,.07,.01,.08m.7-.54c0,.07,0,.19,0,.25,0,.04-.03,.1-.03,.12,0,.02-.04,.05-.04,.08,0,.03-.02,.09-.02,.14v.09c0,.05-.01,.13,.04,0m-3.64-3.03s-.06,.06-.07,.09h-.02v.04l-.02,.02v.02l-.02,.02h0l-.02,.06v.03l-.02,.02v.04s-.02,.08-.02,.12c0,.01-.02,.04-.02,.06v.2c0,.06,0,.06,.05,.01"/><path class="cls-9" d="M10.41,22.92c-.02,.09,.15-.65,.23-.91,.06-.18,.67-.88,.96-.88,.15,0,.41-.04,.6-.04,.85,0,1.22,.45,1.6,.82,.07,.07,.29,.22,.29,.33,.01,.08,.19,.25,.31,.68-1.25-.92-3.69-1.08-3.99,0"/><path class="cls-16" d="M10.41,22.92c-.02,.09,.15-.65,.23-.91,.06-.18,.67-.88,.96-.88,.15,0,.41-.04,.6-.04,.85,0,1.22,.45,1.6,.82,.07,.07,.29,.22,.29,.33,.01,.08,.19,.25,.31,.68-1.25-.92-3.69-1.08-3.99,0Z"/><path class="cls-11" d="M10.41,22.78c-.02,.08,.15-.6,.23-.83,.06-.17,.67-.83,.96-.83,.15,0,.41-.04,.6-.04,.85,0,1.22,.41,1.6,.76,.07,.06,.26,.21,.29,.3,.03,.1,.12,.29,.19,.6-1.26-.86-3.57-.96-3.87,.03"/><path class="cls-16" d="M10.41,22.78c-.02,.08,.15-.6,.23-.83,.06-.17,.67-.83,.96-.83,.15,0,.41-.04,.6-.04,.85,0,1.22,.41,1.6,.76,.07,.06,.26,.21,.29,.3,.03,.1,.12,.29,.19,.6-1.26-.86-3.57-.96-3.87,.03Z"/><path class="cls-4" d="M12.79,14.22c.72,2.11,.71,5.79,1.35,7.93,0,.06-1.08-1.19-3.08-.57-.17,.06-.42,.36-.42,.36,1.19-4.16,1.52-6.25,2.15-7.71"/><path class="cls-16" d="M12.79,14.22c.72,2.11,.71,5.79,1.35,7.93,0,.06-1.08-1.19-3.08-.57-.17,.06-.42,.36-.42,.36,1.19-4.16,1.52-6.25,2.15-7.71Z"/><path class="cls-2" d="M13.49,17.63c.04,.41,.09,1.06,.13,1.51,0,.08-1.71-.37-2.39,.65,.25-.86,.3-1.34,.46-1.82,.02-.04,.04-.09,.06-.14,.37-.34,1.71-.38,1.73-.2"/><path class="cls-16" d="M13.49,17.63c.04,.41,.09,1.06,.13,1.51,0,.08-1.71-.37-2.39,.65,.25-.86,.3-1.34,.46-1.82,.02-.04,.04-.09,.06-.14,.37-.34,1.71-.38,1.73-.2Z"/><polygon class="cls-9" points="12.76 13.53 11.86 13.1 11.86 14.05 11.86 14.06 11.86 14.09 12.83 14.39 12.76 13.53"/><polygon class="cls-16" points="12.76 13.53 11.86 13.1 11.86 14.05 11.86 14.06 11.86 14.09 12.83 14.39 12.76 13.53"/><path class="cls-11" d="M12.8,14.36l-.1-.83-.81-.42v.9c.02,.1,.88,.25,.9,.36"/><path class="cls-16" d="M12.8,14.36l-.1-.83-.81-.42v.9c.02,.1,.88,.25,.9,.36Z"/><path class="cls-11" d="M12.8,14.36l-.89-1.2,.02,.88c0,.1,.81,.24,.88,.32"/><path class="cls-16" d="M12.8,14.36l-.89-1.2,.02,.88c0,.1,.81,.24,.88,.32Z"/><path class="cls-9" d="M12.81,14.02c.15,0,.27,.12,.27,.27,0,.14-.12,.26-.27,.26s-.27-.12-.27-.26c0-.15,.12-.27,.27-.27"/><path class="cls-16" d="M12.81,14.02c.15,0,.27,.12,.27,.27,0,.14-.12,.26-.27,.26s-.27-.12-.27-.26c0-.15,.12-.27,.27-.27Z"/><path class="cls-11" d="M12.81,14.11c.1,0,.19,.08,.19,.18,0,.1-.09,.18-.19,.18s-.19-.08-.19-.18c0-.1,.08-.18,.19-.18"/><path class="cls-16" d="M12.81,14.11c.1,0,.19,.08,.19,.18,0,.1-.09,.18-.19,.18s-.19-.08-.19-.18c0-.1,.08-.18,.19-.18Z"/><path class="cls-17" d="M14.07,27.35c-.03,.36,.04,.76,.13,1.11,.03,.06,0,.34,0,.42l.04,.1s-.05,.41-.05,.41l.02,.07c-.02,.16,.07,.4-.11,.46m-.82-3.09c.04,.39,.1,.83,.14,1.23,.05,.35-.02,.72,.02,1.08,.01,.14,.12,.72-.15,.64m-1.34-3.75c-.08,.51-.03,1.16-.03,1.66,0,.21-.15,.54-.15,.75v.48m.7-2.86c.16,.61,.42,1.66,.12,2.24-.04,.08-.09,.44-.09,.58v.61m-1.23-3.6c-.56,.65-.37,2.72-.37,3.64m-.56-4.41c-.26,.51-.15,1.49-.15,2.13,0,.72-.04,1.44-.04,2.14m3.89-7.26s-.03,.02-.03,.06v.15s.02,.04,.02,.05v.09s-.02,.04-.03,.07m-.19-.54c0,.09,.03,.21,.03,.32v.13h0m-.21-.56v.48m-.25-.58v.54m-.21-.6c-.02,.15,0,.37-.02,.49m-.23-.55c-.01,.11,0,.23,0,.35v.15s-.01,.08-.01-.02m-.16-.52v.28c0,.08-.03,.13-.03,.22m-.18-.53v.15c0,.06-.02,.12-.02,.17v.18m-.15-.51v.5h-.02m-.14-.54c0,.09,0,.2,0,.29v.23s-.01,.04-.01,.02m-.17-.55v.49s-.03,.04-.03,.05m-.15-.46c0-.09,0,0,0,0v.28s-.03,.09-.03,.1c0,.02,0,.02,0,.04v.02h0m-.51-.34v.08s-.05,.15-.05,.19c0,.03-.01,.08-.01,.12,0,.01,0,.14-.02,.05m.45-.53c0-.1-.02,0-.02,.02,0,.13,0,.3,0,.45m-.18-.43c-.05,.07-.04,.16-.04,.26v.12s-.04,.07-.05,.08m-.17-.37c0,.08-.07,.15-.07,.23,0,.03-.02,.06-.02,.11,0,.03,0,.06,0,.11m-.1-.33c0-.09,0-.02,0,0,0,.03-.02,.03-.03,.05,0,0-.03,.1-.03,.1,0,.07-.01,.09-.01,.14,0,.03,0,.05-.01,.07,0,0,0,.03,0,.04-.01,.01-.01,.04-.02,.01m-.09-.34c-.06,.05-.06,.14-.06,.22,0,.07-.03,.15-.02,.21"/><path class="cls-17" d="M10.41,31.92c.04,.58-.03,1.56,.15,2.06,.11,.27,.3,.67,.3,.95,0,.03,.12,.31,.15,.35,.03,.04,.07,.09,.11,.09s.15,.09,.15-.04m-.07-3.1c.21,.78,.33,1.66,.46,2.46,.05,.31,.21,.6,.37,.85,.06,.08,.35,.48,.43,.47m.21-3.75c.07,.48,.17,1.37,.37,1.79,.07,.19,.13,.53,.19,.71,.07,.2,.2,.43,.23,.62,.02,.14,.06,.43,.13,.58,0,.05,.21,.27,.22,.37,0,.05,.11,.18,.09,.04m-.43-3.25c.07,.22,.17,.55,.24,.77,.08,.28,.37,.55,.46,.84,.1,.33,.37,.55,.46,.82,.07,.22,.26,.65,.34,.93m-3.1-3.73c.2,.6,.32,1.27,.45,1.87,.06,.24,.22,.46,.37,.64,.05,.06,.35,.38,.42,.37"/><path class="cls-9" d="M23.6,37.94l7.73-17.7,6.37-5.16-.23,17.66c-.05,3.9-4.27,9.73-13.87,5.2"/><path class="cls-4" d="M23.08,37.64l7.89-17.42,6.5-5.08-.24,17.38c-.05,3.84-4.37,9.58-14.15,5.12"/><path class="cls-9" d="M34.57,17.52l3.16-2.37-.05-.14s-1.79,1.39-3.24,2.37c-.06,.04,.09,.01,.12,.14"/><path class="cls-16" d="M34.57,17.52l3.16-2.37-.05-.14s-1.79,1.39-3.24,2.37c-.06,.04,.09,.01,.12,.14Z"/><path class="cls-9" d="M37.72,14.61l.63-.3v.66s0,0,0,.01h0l-.68,.22,.05-.6Z"/><path class="cls-16" d="M37.72,14.61l.63-.3v.66s0,0,0,.01h0l-.68,.22,.05-.6Z"/><path class="cls-11" d="M37.7,15.19l.07-.58,.56-.3v.63c-.01,.06-.62,.17-.63,.25"/><path class="cls-16" d="M37.7,15.19l.07-.58,.56-.3v.63c-.01,.06-.62,.17-.63,.25Z"/><path class="cls-11" d="M37.7,15.19l.62-.84v.63c0,.06-.58,.16-.62,.21"/><path class="cls-16" d="M37.7,15.19l.62-.84v.63c0,.06-.58,.16-.62,.21Z"/><path class="cls-9" d="M37.69,14.96c-.11,0-.2,.08-.2,.19s.09,.18,.2,.18,.19-.08,.19-.18-.08-.19-.19-.19"/><path class="cls-16" d="M37.69,14.96c-.11,0-.2,.08-.2,.19s.09,.18,.2,.18,.19-.08,.19-.18-.08-.19-.19-.19Z"/><path class="cls-11" d="M37.69,15.01c-.08,0-.13,.06-.13,.13,0,.07,.05,.13,.13,.13,.06,0,.13-.06,.13-.13,0-.07-.06-.13-.13-.13"/><path class="cls-16" d="M37.69,15.01c-.08,0-.13,.06-.13,.13,0,.07,.05,.13,.13,.13,.06,0,.13-.06,.13-.13,0-.07-.06-.13-.13-.13Z"/><path class="cls-2" d="M37.35,25.79c-.43,.37-1.23,.15-1.31,.82-.05,.38-.58,.36-.73,.66-.4,.78-1.08,.46-1.28,.72-.33,.41-.91,.79-1.38,.69-.53-.11-1.08,.44-1.59,.76-.91,.58-1.77,.33-1.77,2.36,0,.8-.05,1.81,.21,2.18,.53,.72,1.51,.63,2.52,.85,.19,.04,1.07-.81,1.88-.58,.36,.1,.77-.15,1.19-.07,.52,.1,1.06,.04,1.3-.44,.28-.58,.86-.62,.86-.86,0-1.59,.1-5.61,.11-7.1"/><path class="cls-16" d="M37.35,25.79c-.43,.37-1.23,.15-1.31,.82-.05,.38-.58,.36-.73,.66-.4,.78-1.08,.46-1.28,.72-.33,.41-.91,.79-1.38,.69-.53-.11-1.08,.44-1.59,.76-.91,.58-1.77,.33-1.77,2.36,0,.8-.05,1.81,.21,2.18,.53,.72,1.51,.63,2.52,.85,.19,.04,1.07-.81,1.88-.58,.36,.1,.77-.15,1.19-.07,.52,.1,1.06,.04,1.3-.44,.28-.58,.86-.62,.86-.86,0-1.59,.1-5.61,.11-7.1Z"/><path class="cls-9" d="M31.49,27.04c.89-.67,4.45-2.07,4.96-3.08,.49-1-.37-2.39-.14-1.64,.3,.92-2.94,2.26-3.83,2.64-.35,.15-1.47,.53-1.47,1,0,.07,.11,.43,.11,.53,0,.32,.37,.49,.37,.56"/><path class="cls-16" d="M31.49,27.04c.89-.67,4.45-2.07,4.96-3.08,.49-1-.37-2.39-.14-1.64,.3,.92-2.94,2.26-3.83,2.64-.35,.15-1.47,.53-1.47,1,0,.07,.11,.43,.11,.53,0,.32,.37,.49,.37,.56Z"/><path class="cls-11" d="M31.27,26.9c.9-.72,4.54-2.23,5.06-3.33,.51-1.07-.38-2.58-.13-1.77,.3,1-3.01,2.43-3.92,2.85-.35,.16-1.49,.57-1.49,1.06,0,.08,.12,.46,.12,.59,0,.34,.37,.52,.37,.6"/><path class="cls-16" d="M31.27,26.9c.9-.72,4.54-2.23,5.06-3.33,.51-1.07-.38-2.58-.13-1.77,.3,1-3.01,2.43-3.92,2.85-.35,.16-1.49,.57-1.49,1.06,0,.08,.12,.46,.12,.59,0,.34,.37,.52,.37,.6Z"/><path class="cls-4" d="M29.81,26.97c-.05-3.69-.78-7.69-.3-9.24,1.99-1.31,3.25-2.25,4.52-3.39,.15-.14,1.77,6.24,2.29,7.66-.61,1.8-3.56,2.41-6.51,4.97"/><path class="cls-16" d="M29.81,26.97c-.05-3.69-.78-7.69-.3-9.24,1.99-1.31,3.25-2.25,4.52-3.39,.15-.14,1.77,6.24,2.29,7.66-.61,1.8-3.56,2.41-6.51,4.97Z"/><path class="cls-2" d="M31.33,19.56c.26-.11,.87-.7,1.16-.83,.65-.29,1.98-1.47,2.28-1.19,.57,.53,.68,1.34,.8,2.01,.05,.33-.25,.33-.5,.45-.45,.21-.65,.45-1.13,.51-1.23,.15-1.91,1.09-2.55,.81-.25-.12-.13-1-.44-1.15-.44-.22,.19-.36,.38-.61"/><path class="cls-16" d="M31.33,19.56c.26-.11,.87-.7,1.16-.83,.65-.29,1.98-1.47,2.28-1.19,.57,.53,.68,1.34,.8,2.01,.05,.33-.25,.33-.5,.45-.45,.21-.65,.45-1.13,.51-1.23,.15-1.91,1.09-2.55,.81-.25-.12-.13-1-.44-1.15-.44-.22,.19-.36,.38-.61Z"/><path class="cls-14" d="M29.63,22.4c-.03,.06,.04,.19,.14,.35-.06,0-.13-.03-.19-.1,.04,.13,.11,.21,.17,.27-.04,.02-.1,0-.16-.09v.07c.02,.05,.05,.14,.07,.21,.05,.02,.07,.13,.11,.22,.07-.13,.14-.28,.05-.61,.07-.06,0-.19-.07-.29,.02,0,.07,.05,.09,.06-.02-.15-.05-.28-.17-.42-.09-.06-.17-.06-.24,.06-.02,.08-.02,.1,.11,.17,.15,.11,.14,.11,.08,.11"/><path class="cls-9" d="M34.09,14.38c-.71,2.04-.78,5.61-1.32,7.82-.03,.11-.1,.63-.15,.68,0,.01,.32-.38,.43-.45,.49-.3,1.71-1.16,2.83-.6,.07,.04,.17,.11,.24,.18,.09,.09,.16,.14,.16,.14,.06-.15,.07-.22-.08-.36-.14-.64-.3-1.32-.45-2.02-.08-.33-.16-.66-.24-.99-.49-2.03-1.01-3.9-1.4-4.41"/><path class="cls-16" d="M34.09,14.38c-.71,2.04-.78,5.61-1.32,7.82-.03,.11-.1,.63-.15,.68,0,.01,.32-.38,.43-.45,.49-.3,1.71-1.16,2.83-.6,.07,.04,.17,.11,.24,.18,.09,.09,.16,.14,.16,.14,.06-.15,.07-.22-.08-.36-.14-.64-.3-1.32-.45-2.02-.08-.33-.16-.66-.24-.99-.49-2.03-1.01-3.9-1.4-4.41Z"/><path class="cls-9" d="M29.73,17.74l4.5-3.38-.06-.19s-2.56,1.97-4.62,3.38c-.08,.05,.13,0,.18,.18"/><path class="cls-17" d="M29.73,17.74l4.5-3.38-.06-.19s-2.56,1.97-4.62,3.39c-.08,.05,.13,0,.18,.18Zm2.7,7.68v.24c0,.05,.04,.1,.04,.11,0,.02,.04,.05,.04,.09,0,.03,.02,.1,.02,.14v.08c0,.05,.02,.13-.04,0m-.41-.44c0,.06,0,.18,0,.25,0,.05,.03,.1,.03,.11,0,.02,.04,.06,.04,.08,0,.04,.02,.11,.02,.15,0,.02,0,.07,0,.08,0,.04,.02,.13-.03,0m-.48-.41c0,.07,0,.18,0,.24,0,.05,.04,.1,.04,.11,0,.02,.03,.05,.03,.09s.02,.1,0,.15v.08c0,.05,.02,.13-.03,0m1.27-1.46s.07,.06,.07,.1v.53h0v.13m.27-1.02c.09,.14,.07,.28,.06,.43,0,.06,0,.15,.02,.17,.02,.02,.07,.12,.09,.16l.02,.02c.05,.06-.05-.02,.23,.04m.29-1.18s.02,.08,.02,.12v.04h0l.02,.05v.25s0,.06,0,.08v.24c0,.06,.02,.1-.04-.04m.32-.96s.02,.07,.02,.11v.06l.02,.03v.53h0v.04c0,.05,0,.09-.04-.04m1.87-2.2s.05,.06,.08,.08l.02,.02v.02l.02,.02v.06l.03,.04h0v.03l.02,.03v.04s0,.08,0,.11c0,.02,.02,.05,.02,.06v.2c0,.06,.01,.06-.04,.01m-.62-.21s.08,.02,.08,.04v.06h.03v.08h.02v.17s.03,.06,.03,.08c0,.03,.02,0,.02,.03v.18s.01,.03,.01,.05m-2.27,.7c.09,.14,.07,.27,.07,.44,0,.04,0,.15,.01,.17,.02,.01,.08,.11,.09,.15l.02,.02c.05,.06-.06-.02,.22,.04m1.28-2.05c.02,.15,.07,.31,.07,.49,0,.06,0,.18-.01,.23v.12c0,.06,.04,.11-.01,0m-.47-.51c.06,.18,.09,.34,.09,.53v.2c0,.05-.03,.17,.03,.17m-3.23,1s-.04,.09-.04,.1v.27l.02,.04v.02h.02v.05s.06,.02,.06,.06c0,.03,.03,.06,.03,.08,0,.02,.02,.04,.02,.06l.02,.02h0v.12m.64-1.31s.04,.08,.04,.1v.04h0v.03l.02,.02v.03l.02,.02v.03l.02,.02v.02h0v.09s.01,.04,.01,.08v.22s0,.06-.02,.03m3.37-2.99s.06,.06,.07,.08l.02,.02v.02l.02,.02v.02l.02,.02v.02l.02,.04v.04l.02,.02v.03s.02,.08,.02,.11c0,.03,.02,.05,.02,.07v.19c0,.06,.01,.06-.04,.02m-.61-.16v.14h0v.08h0l.02,.05v.04l.02,.04h0s.01,.05,.01,.09v.08s.02,.04,.02,.06v.06h0v.04h0c0,.07,.01,.07-.04,.03m-.44-.53s.02,.08,.02,.11v.07l.02,.03v.02h0v.37s0,.05,0,.08v.1c0,.05,.01,.1-.04-.05m-.68-.15l.02,.07v.1h.03v.06l.02,.02v.06s.02,.08,.02,.12v.2h0v.03s0,.06-.03,.06m.22-1s.02,.07,.02,.1v.02h0v.2h.01v.08s0,.12,0,.17v.22h0v.1m-3.48,.96s.02,.08,.02,.11c0,.02,.03,.04,.02,.05l.02,.03,.02,.03v.02h.02v.02l.02,.02v.02h.02v.02l.02,.02h0v.04h.02v.33s0,.08-.01,.09m1.7-1.75s.03,.09,.03,.14v.18h0v.11s0,.06,0,.08v.04s.02,0,.02,.05v.04l.02,.02v.02h.01s.05,.1-.02,.01m.62-.99v.11l.04,.02v.11s.03,.06,.03,.09v.11s0,.04,0,.06h0v.13m.22-.87c.09,.02,.07,.04,.07,.11,0,.26,0,.57-.01,.83m-.7-.46l.06,.09v.08l.02,.02v.1h0v.07s0,.06,0,.08v.27m-.7-.36s.08,.06,.08,.1v.14h.01v.39h0v.14m-.7-.54v.24s.02,.1,.02,.12c0,.01,.04,.05,.04,.09,0,.03,.02,.09,.02,.15,0,0,0,.06,0,.08,0,.05,.02,.13-.03,0m3.63-3.03s.05,.06,.07,.08v.04l.04,.02v.05l.03,.04v.04l.02,.02v.04s.02,.08,.02,.12c0,.02,.01,.04,.01,.06v.18h0c0,.07,.02,.08-.04,.03"/><path class="cls-9" d="M36.57,22.98c.02,.08-.15-.66-.22-.91-.06-.17-.67-.89-.97-.89-.15,0-.41-.04-.59-.04-.86,0-1.22,.45-1.59,.82-.08,.07-.29,.22-.3,.33,0,.08-.19,.25-.3,.69,1.25-.93,3.69-1.08,3.98,0"/><path class="cls-16" d="M36.57,22.98c.02,.08-.15-.66-.22-.91-.06-.17-.67-.89-.97-.89-.15,0-.41-.04-.59-.04-.86,0-1.22,.45-1.59,.82-.08,.07-.29,.22-.3,.33,0,.08-.19,.25-.3,.69,1.25-.93,3.69-1.08,3.98,0Z"/><path class="cls-11" d="M36.57,22.84c.02,.08-.15-.6-.22-.83-.06-.17-.67-.83-.97-.83-.15,0-.41-.03-.59-.03-.86,0-1.22,.42-1.59,.76-.08,.07-.27,.2-.3,.3-.03,.1-.12,.29-.19,.6,1.25-.87,3.57-.95,3.86,.04"/><path class="cls-16" d="M36.57,22.84c.02,.08-.15-.6-.22-.83-.06-.17-.67-.83-.97-.83-.15,0-.41-.03-.59-.03-.86,0-1.22,.42-1.59,.76-.08,.07-.27,.2-.3,.3-.03,.1-.12,.29-.19,.6,1.25-.87,3.57-.95,3.86,.04Z"/><path class="cls-4" d="M34.19,14.28c-.73,2.11-.72,5.79-1.34,7.91-.02,.07,1.07-1.18,3.07-.55,.17,.05,.43,.35,.43,.35-1.19-4.18-1.52-6.25-2.16-7.71"/><path class="cls-16" d="M34.19,14.28c-.73,2.11-.72,5.79-1.34,7.91-.02,.07,1.07-1.18,3.07-.55,.17,.05,.43,.35,.43,.35-1.19-4.18-1.52-6.25-2.16-7.71Z"/><path class="cls-2" d="M33.5,17.68c-.05,.41-.1,1.05-.13,1.51,0,.08,1.71-.37,2.39,.66-.25-.86-.3-1.36-.47-1.82-.01-.05-.03-.1-.06-.14-.37-.34-1.7-.39-1.73-.21"/><path class="cls-16" d="M33.5,17.68c-.05,.41-.1,1.05-.13,1.51,0,.08,1.71-.37,2.39,.66-.25-.86-.3-1.36-.47-1.82-.01-.05-.03-.1-.06-.14-.37-.34-1.7-.39-1.73-.21Z"/><polygon class="cls-9" points="34.23 13.59 35.12 13.16 35.13 14.11 35.12 14.12 35.12 14.16 34.15 14.45 34.23 13.59"/><polygon class="cls-16" points="34.23 13.59 35.12 13.16 35.13 14.11 35.12 14.12 35.12 14.16 34.15 14.45 34.23 13.59"/><path class="cls-11" d="M34.18,14.42l.1-.83,.8-.42-.02,.89c0,.1-.87,.25-.88,.36"/><path class="cls-16" d="M34.18,14.42l.1-.83,.8-.42-.02,.89c0,.1-.87,.25-.88,.36Z"/><path class="cls-11" d="M34.18,14.42l.89-1.2v.89c-.01,.09-.82,.24-.89,.32"/><path class="cls-16" d="M34.18,14.42l.89-1.2v.89c-.01,.09-.82,.24-.89,.32Z"/><path class="cls-9" d="M34.17,14.09c-.15,0-.27,.11-.27,.26s.12,.26,.27,.26,.26-.11,.26-.26-.12-.26-.26-.26"/><path class="cls-16" d="M34.17,14.09c-.15,0-.27,.11-.27,.26s.12,.26,.27,.26,.26-.11,.26-.26-.12-.26-.26-.26Z"/><path class="cls-11" d="M34.17,14.17c-.11,0-.2,.08-.2,.18s.08,.18,.2,.18c.1,0,.19-.08,.19-.18s-.08-.18-.19-.18"/><path class="cls-17" d="M34.17,14.17c-.11,0-.2,.08-.2,.18s.08,.18,.2,.18c.1,0,.19-.08,.19-.18s-.09-.18-.19-.18Zm-1.23,8.03s.03,.04,.03,.07v.15s-.01,.04-.01,.06v.09s0,.04,.03,.06m.18-.54c.02,.1-.02,.22-.02,.32v.13h0m.21-.56v.48m.26-.59v.54m.2-.61c.02,.15,0,.37,.02,.5m.22-.56c.01,.11,0,.23,0,.34v.15s.01,.08,.01,0m.17-.53v.29c0,.07,.02,.12,.02,.2m.18-.52v.15s.02,.11,.02,.17v.17m.15-.52v.5s.01,0,.01,0m.15-.53c0,.09,0,.2,0,.29v.23s0,.04,0,0m.18-.55v.49s.02,.04,.02,.05m.16-.46c.01-.09,.01,0,.01,0v.27s.02,.09,.02,.11,0,.03,0,.04c0,.02,.01,0,.01,.02h0m.49-.34v.08s.06,.15,.06,.19c0,.02,0,.08,0,.12,0,.01,0,.14,.02,.05m-.45-.53c.01-.09,.02,.01,.02,.02,0,.14,0,.3,0,.44m.18-.42c.05,.07,.05,.16,.05,.25v.12s.04,.08,.05,.09m.16-.37c0,.08,.07,.16,.07,.24,0,.02,.02,.06,.02,.1s0,.06,0,.11m.1-.33c-.01-.09,0-.01,0,0,0,.03,.02,.03,.03,.04,0,0,.03,.1,.03,.11,0,.05,.02,.09,.02,.13,0,.03,0,.05,0,.07,0,0,0,.03,0,.04,0,.01,0,.05,.02,.01m.09-.33c.05,.05,.05,.14,.05,.22,0,.08,.03,.16,.02,.22m.36,2.75c.26,.51,.15,1.48,.15,2.13,0,.72,.04,1.44,.04,2.14m-3.92-2.04c.02,.35-.05,.75-.13,1.1-.03,.06-.01,.34,0,.42l-.03,.11s.05,.39,.05,.39l-.02,.08c.02,.16-.07,.4,.11,.45m.82-3.08c-.05,.39-.1,.82-.15,1.22-.04,.36,.02,.74,0,1.09-.02,.15-.14,.72,.14,.63m1.34-3.75c.08,.51,.04,1.15,.04,1.66,0,.21,.15,.54,.15,.76v.47m-.7-2.86c-.16,.61-.42,1.66-.12,2.25,.04,.07,.08,.43,.08,.57v.62m1.24-3.6c.56,.65,.38,2.71,.38,3.65m.49,2.38c-.04,.58,.04,1.58-.15,2.06-.11,.27-.29,.67-.29,.94,0,.04-.12,.3-.15,.35-.04,.05-.07,.09-.11,.09-.04,0-.15,.1-.15-.04m.07-3.11c-.21,.78-.33,1.68-.46,2.47-.05,.3-.22,.59-.37,.85-.05,.08-.35,.48-.42,.48m-.21-3.75c-.07,.48-.18,1.37-.37,1.79-.07,.19-.12,.53-.19,.72-.08,.19-.19,.42-.22,.62-.02,.14-.07,.43-.13,.57,0,.05-.21,.27-.22,.37-.01,.05-.11,.18-.09,.03m.42-3.24c-.07,.22-.18,.55-.24,.77-.09,.27-.37,.55-.46,.83-.1,.33-.38,.54-.46,.82-.07,.22-.25,.65-.35,.92m3.11-3.72c-.21,.59-.32,1.27-.46,1.88-.06,.23-.22,.45-.37,.64-.06,.06-.35,.37-.43,.37"/><path class="cls-9" d="M23.52,38.95c.21-.26,.52-.63-.1-.75-.42,.16-.08,.52,.1,.75m.77-2.6c0,.28,.6,1.22,1.01,2.2,.04,.11,.11,.23,.04,.32-.42,.56,.35,.85,.29,.96-.06,.11,.12,.13,.16,.23,.08,.27-.24,.23-.5,.22-.27-.01,.43,1,.33,.98-.84-.21-2.02-.05-2.04-.81,0-.33,.45-.52,.4-.78,0-.04-.23,.03-.4-.02-.05-.02-.09-.03-.12-.06,0,.01-.02,.01-.04,.02-.18,.04-.39-.04-.41,.02-.05,.26,.4,.44,.4,.78-.02,.77-1.2,.6-2.04,.81-.09,.03,.62-.98,.34-.97-.25,0-.57,.06-.49-.21,.03-.1,.21-.12,.15-.24-.06-.11,.7-.41,.29-.96-.07-.1,0-.22,.05-.32,.41-.99,1.01-1.92,1.01-2.2,.18,.03,.35-.26,.38-.3,.22-.27,.15-.25,.15-.03,0,.25,.12,.56,.27,.88,.15-.3,.26-.58,.26-.82-.01-.23-.08-.24,.14,.02,.03,.04,.21,.33,.39,.3"/><path class="cls-16" d="M23.52,38.95c.21-.26,.52-.63-.1-.75-.42,.16-.08,.52,.1,.75Zm.77-2.6c0,.28,.6,1.22,1.01,2.2,.04,.11,.11,.23,.04,.32-.42,.56,.35,.85,.29,.96-.06,.11,.12,.13,.16,.23,.08,.27-.24,.23-.5,.22-.27-.01,.43,1,.33,.98-.84-.21-2.02-.05-2.04-.81,0-.33,.45-.52,.4-.78,0-.04-.23,.03-.4-.02-.05-.02-.09-.03-.12-.06,0,.01-.02,.01-.04,.02-.18,.04-.39-.04-.41,.02-.05,.26,.4,.44,.4,.78-.02,.77-1.2,.6-2.04,.81-.09,.03,.62-.98,.34-.97-.25,0-.57,.06-.49-.21,.03-.1,.21-.12,.15-.24-.06-.11,.7-.41,.29-.96-.07-.1,0-.22,.05-.32,.41-.99,1.01-1.92,1.01-2.2,.18,.03,.35-.26,.38-.3,.22-.27,.15-.25,.15-.03,0,.25,.12,.56,.27,.88,.15-.3,.26-.58,.26-.82-.01-.23-.08-.24,.14,.02,.03,.04,.21,.33,.39,.3Z"/><path class="cls-4" d="M22.77,36.47c0,.27-.57,1.18-.96,2.13-.03,.1-.1,.22-.03,.31,.39,.53-.33,.82-.28,.92,.06,.12-.11,.13-.13,.23-.07,.26,.22,.21,.46,.21,.25,0-.4,.96-.31,.93,.78-.19,1.89-.04,1.92-.78,0-.32-.43-.49-.37-.74,0-.05,.21,.03,.38-.02,.17-.04,.19-.21,.19-.27,0-.08,0-.15-.02-.21-.04-.21-.86-.82,.08-.95,.08,0,.34,.12,.34,.05-.04-.59-.79-1.54-.77-2.14,0-.22,.06-.23-.14,.02-.03,.03-.19,.32-.36,.29"/><path class="cls-16" d="M22.77,36.47c0,.27-.57,1.18-.96,2.13-.03,.1-.1,.22-.03,.31,.39,.53-.33,.82-.28,.92,.06,.12-.11,.13-.13,.23-.07,.26,.23,.21,.46,.21,.25,0-.4,.96-.31,.93,.78-.19,1.9-.04,1.92-.78,0-.32-.43-.49-.37-.74,.01-.05,.21,.04,.38-.02,.17-.04,.19-.21,.19-.27,0-.08,0-.15-.02-.21-.04-.21-.86-.82,.08-.95,.08,0,.34,.12,.34,.05-.04-.59-.79-1.54-.77-2.14,0-.22,.06-.23-.14,.02-.03,.03-.19,.32-.36,.29Zm-1.26,4.74c.97-.1,1.74-.22,1.87-.51,.36-.74-2.03-.29-2.04-.47-.03-1.07,2.22-.26,2.29-.71,.12-.86-1.87-.34-1.85-.62,.06-1.09,2.39-.64,2.14-.59"/><path class="cls-4" d="M24.25,36.51c0,.27,.57,1.18,.95,2.13,.04,.1,.1,.22,.04,.31-.39,.54,.33,.82,.28,.93-.07,.12,.11,.13,.14,.24,.07,.26-.22,.21-.46,.2-.26,0,.4,.97,.31,.95-.78-.21-1.9-.05-1.92-.79,0-.33,.42-.5,.37-.75,0-.04-.21,.03-.38-.02-.18-.04-.19-.21-.19-.28,0-.07,0-.14,.02-.21,.04-.21,.87-.82-.09-.94-.07,0-.34,.11-.34,.05,.04-.6,.8-1.55,.78-2.14,0-.22-.07-.22,.13,.03,.02,.03,.2,.31,.36,.28"/><path class="cls-16" d="M24.25,36.51c0,.27,.57,1.18,.95,2.13,.04,.1,.1,.22,.04,.31-.39,.54,.33,.82,.28,.93-.07,.12,.11,.13,.14,.24,.07,.26-.22,.21-.46,.2-.26,0,.4,.97,.31,.95-.78-.21-1.9-.05-1.92-.79,0-.33,.42-.5,.37-.75,0-.04-.21,.03-.38-.02-.18-.04-.2-.21-.2-.28,0-.07,0-.14,.02-.21,.04-.21,.86-.82-.09-.94-.07-.01-.34,.11-.34,.05,.04-.6,.8-1.55,.78-2.14,0-.22-.07-.22,.14,.03,.02,.03,.2,.31,.36,.28Zm1.25,4.76c-.97-.11-1.74-.23-1.87-.52-.35-.74,2.04-.3,2.04-.47,.04-1.06-2.22-.26-2.28-.71-.12-.86,1.87-.34,1.86-.62-.06-1.09-2.39-.63-2.15-.59"/><path class="cls-9" d="M23.51,37.89c-.36-.36-.77-.83-1.51-.87-1.6-.23-3.17,.03-4.67-.62-.97-.41-3.32-1.88-3.07-4.55,.3-3.15,1.61-4.09,1.75-7.54-.15-1.15-.56-2.58-1.53-3.44,.92-1,2.02-2.36,2.94-3.35,1.86,1.48,4.31,1.02,6.09,.01,1.79,1.02,4.23,1.47,6.09,0,.93,.99,2.02,2.35,2.95,3.36-.98,.85-1.38,2.28-1.53,3.43,.14,3.45,1.45,4.4,1.76,7.54,.26,2.68-2.1,4.14-3.07,4.56-1.5,.64-3.07,.39-4.67,.61-.74,.05-1.16,.52-1.52,.87"/><path class="cls-16" d="M23.51,37.89c-.36-.36-.77-.83-1.51-.87-1.6-.23-3.17,.03-4.67-.62-.97-.41-3.32-1.88-3.07-4.55,.3-3.15,1.61-4.09,1.75-7.54-.15-1.15-.56-2.58-1.53-3.44,.92-1,2.02-2.36,2.94-3.35,1.86,1.48,4.31,1.02,6.09,.01,1.79,1.02,4.23,1.47,6.09,0,.93,.99,2.02,2.35,2.95,3.36-.98,.85-1.38,2.28-1.53,3.43,.14,3.45,1.45,4.4,1.76,7.54,.26,2.68-2.1,4.14-3.07,4.56-1.5,.64-3.07,.39-4.67,.61-.74,.05-1.16,.52-1.52,.87Z"/><path class="cls-2" d="M23.9,27.35v-8.77c1.74,.74,3.51,1.04,5.42,0,.87,.93,1.41,1.45,2.27,2.39-.83,.8-1.21,2.37-1.23,3.62,.05,1.18,.28,2,.53,2.76h-6.99Z"/><path class="cls-5" d="M16.28,27.35c.27-.76,.48-1.63,.48-2.8,0-1.08-.39-2.94-1.3-3.73,.86-.94,1.28-1.45,2.14-2.37,1.6,1.27,3.91,.85,5.56,.03v8.88h-6.88Z"/><path class="cls-11" d="M31.21,27.82H15.95c-.44,1.13-.98,2.13-1.14,3.78-.24,2.53,1.98,3.89,2.89,4.28,1.41,.61,2.89,.37,4.39,.58,.71,.04,1.09,.48,1.43,.81,.35-.33,.73-.77,1.43-.81,1.51-.21,2.99,.03,4.39-.58,.92-.39,3.13-1.76,2.9-4.28-.17-1.65-.62-2.66-1.02-3.79m-7.47-.34h7.36c-.26-.81-.57-1.71-.53-2.97,.04-1.09,.34-2.77,1.26-3.57-.87-.94-1.6-1.71-2.48-2.65-1.75,1.19-3.96,.84-5.63-.03v9.22Zm-7.66,0h7.24v-9.24c-1.67,.88-4.07,1.33-5.74,0-.88,.94-1.52,1.65-2.4,2.6,.92,.8,1.41,2.58,1.41,3.67,0,1.27-.22,2.17-.51,2.98m7.44,10.23c-.35-.35-.76-.75-1.5-.81-1.58-.22-3.13,.04-4.62-.6-.95-.42-3.29-1.86-3.03-4.5,.29-3.1,1.6-4.04,1.73-7.45-.14-1.13-.47-2.65-1.43-3.5,.92-.99,1.87-2.16,2.8-3.15,1.83,1.46,4.29,.95,6.05-.05,1.77,1,4.25,1.54,6.08,.07,.92,.98,1.89,2.15,2.81,3.13-.97,.84-1.33,2.36-1.47,3.49,.14,3.41,1.44,4.35,1.73,7.46,.25,2.64-2.07,4.07-3.04,4.5-1.48,.64-3.03,.38-4.61,.6-.74,.05-1.15,.46-1.51,.8"/><path class="cls-4" d="M23.51,37.12c-.33-.32-.72-.72-1.41-.77-1.49-.2-2.95,.03-4.34-.57-.9-.39-3.04-1.75-2.8-4.23,.15-1.58,.65-2.56,1.09-3.64,5.03,0,9.99,.02,15.04,.02,.38,1.08,.8,2.05,.96,3.62,.23,2.49-1.89,3.85-2.79,4.23-1.39,.6-2.85,.36-4.33,.57-.7,.04-1.09,.44-1.42,.76"/><path class="cls-9" d="M24.68,29.03c.38,.13,.78,.28,.8,.61,.38,.06,.62,.29,.73,.68,.3,.14,.46,.2,.48,.41,.18,.01,.33,.12,.43,.33,.24-.02,.45,.1,.62,.34,.13-.05,.27-.06,.47,.09,.17-.04,.34-.13,.55,0,.07-.01,.16-.02,.23-.03,.1-.16,.25-.21,.45-.24-.03-.08,0-.2,.13-.27-.08-.14-.14-.29,.01-.44-.08-.09-.09-.2,0-.36-.09-.07-.12-.17-.09-.29-.12-.05-.21-.12-.24-.24-.22-.04-.33-.11-.37-.2-.07,.05-.14,.05-.22,.03-.07,.1-.17,.09-.27,.1-.06,.14-.17,.21-.28,.27,0,.07,.02,.14,.03,.2,.18-.08,.38,.21,.25,.4-.12,.2-.44,.26-.5,0-.12,0-.25-.12-.33-.26-.07-.17-.12-.23,0-.36-.12-.2-.02-.39,.17-.52,.1-.21,.23-.31,.41-.29,.11-.14,.15-.28,.46-.24,.21-.13,.44-.13,.63,0,.2-.02,.37,.02,.49,.2,.15,.07,.33,.12,.37,.35,.18,.1,.4,.17,.33,.47,.2,.18,.29,.37,.28,.61,.08,.18,.08,.37,.03,.55,.11,.2,.05,.39-.01,.58,.07,.3-.08,.51-.27,.69-.09,.42-.34,.53-.57,.63-.24,.43-.52,.54-.82,.45-.26,.23-.51,.32-.76,.24-.33,.16-.66,.31-.86,.14-.45,.17-.82,.19-1.07-.04-.48,.1-.81-.02-.99-.33-.44,.08-.6-.09-.76-.26-.47,.19-.86,.23-1.12-.04-.08,.07-.17,.07-.25,.07,.26,.34,.17,.62,.07,.87,.26-.03,.5,0,.7,.19,.35-.2,.69-.29,1.04,.2,.71-.27,.98-.05,1.13,.48,.1-.1,.33-.17,.48-.09,.29-.48,.73-.33,.95,.06,.21,.4-.25,.9-.78,.82-.24,.16-.41,.22-.67,.12-.41,.13-.64,.02-.89-.1-.28,.3-.57,.27-.85,.18-.43,.74-.85,.48-1.27,.24-.32,.16-.58-.01-.84-.17-.12,.19-.3,.32-.54,.29-.25,0-.36-.08-.43-.17-.39,.26-.72,.14-1.04-.08-.42,.1-.61-.12-.74-.39-.11,.05-.22,.06-.36,.03-.48,.44-1.16,.22-1.16-.47-.26,0-.53,0-.7-.5-.05-.13,.01-.22,.06-.35-.3-.19-.41-.34-.26-.8-.32-.15-.46-.46-.19-.93-.23-.5-.3-.88,.2-1.34,.28-.27,.57-.49,.91-.56,0-.36,.17-.65,.78-.75,.1-.47,.36-.8,.95-.81,.19-.31,.52-.5,1.13-.4,.16-.27,.51-.38,1.28-.12,.36-.26,.78-.22,1.28,.14,.19-.23,.96,.03,1.22,.36"/><path class="cls-13" d="M17.06,32.41c.06,0,.12-.02,.18-.02-.16-.35,.08-.66,.54-.68,.47-.01,1.1,.3,1.57,.73,.39,.29,.87,.63,1.54,.83,.54,.15,1.21,.14,1.8,.39,.26,.13,.22,.3,.16,.63,.22-.1,.34-.24,.37-.47-.04-.48-.37-.88-1.17-1.15-.71,.03-1.39-.13-2.04-.67-.29-.43-.64-.84-1.32-1.1-.34-.12-.73-.11-1.16,.11-.55,.28-.6,.58-.59,.88,.04,.17,.08,.35,.12,.52m3.69-.18c-.53-.51-.29-.79-.8-1.54-.44-.65-1.64-1.03-1.79-.05,1.5,.11,1.43,.75,2.18,1.33,.17,.02,.44,.2,.42,.26m.86,.22c-.59-.51-.59-1.77-1.03-2.52-.4-.67-1.24-.99-1.64-.03,1.69,.37,1.16,1.65,2.11,2.37,.21,.14,.58,.15,.56,.17m.39-.01c-.37-.62-.18-1.94-.44-2.78-.16-.57-1.12-1.29-1.75-.46,1.62,.38,.9,1.99,1.98,3.23,.16,.05,.25-.04,.21,0m.45,.12c-.35-.72,.07-2.02,.12-2.89,.03-.57-.75-1.58-1.57-.93,1.49,.75,.52,2.22,1.24,3.76,.15,.1,.26,.02,.22,.06m.33,.15c-.23-.73,.61-1.96,.79-2.9,.12-.58-.32-1.43-1.21-1.11,.95,.97-.24,2.89,.19,3.89,.12,.1,.28,.09,.23,.12m.27,.09c.11-.68,1.18-1.96,1.46-2.9,.18-.6,.04-1.16-.9-1.05,.7,1.17-.91,2.79-.73,3.85-.05,.09,.24,.02,.18,.09m.16,.02c.58,.76,3.23-3.14,1.56-3.6,.11,.43-.16,1.2-.58,1.9-.42,.71-.98,1.16-.98,1.7m.5,.13c1.12,.65,3.28-2.67,1.75-3.13,.23,.93-1.29,3.08-1.75,3.13m.98,0c.83,.64,1.67-.24,1.81-1.31,.07-.55-.02-.82-.27-1.09,.01,.8-1.08,2.27-1.54,2.41m.96,.35c.79,.64,1.42-.32,1.47-1.2,.03-.59-.09-1.09-.44-1.14,.13,.91-.41,2.17-1.03,2.34m.87,.25c.84,.52,1.28-.51,1.27-1.24,0-.57-.47-.99-.59-.93,.29,.78-.19,2.12-.68,2.18m1.06-.05c.79,.3,1.2-.89,.78-1.53-.23-.34-.41-.35-.54-.3,.23,.6,.16,1.54-.24,1.82m.87-.07c.64,.1,.81-.85,.5-1.33-.22-.35-.41-.37-.53-.31,.21,.36,.42,1.04,.04,1.64m.71-.28c.63,.09,.64-.69,.34-1.18-.23-.34-.41-.36-.54-.3,.21,.36,.37,.88,.2,1.48m.7-.41c.51-.24,.43-.9,.06-1.19-.35-.26-.55-.24-.72-.03,.45,.23,.7,.6,.66,1.21m.49-.63c.19-.08,.37-.6,0-.88-.34-.27-.64-.15-.76,0,.34-.03,.9,.58,.75,.88m.26-.81c.07-.14,.03-.47-.33-.52-.35-.05-.44,.05-.46,.19,.15-.09,.69,.07,.8,.33m-2.1-2.41c-.11,.03-.37,.09-.28,.38,.08,.28,.37,.18,.4,.11-.1-.05-.19-.29-.12-.49m.54-.06c-.11-.02-.37-.09-.43,.22-.07,.31,.24,.34,.3,.3-.07-.09-.04-.38,.13-.52m.53,.17c-.1-.06-.35-.22-.55,.08-.18,.31,.13,.45,.21,.42-.03-.11,.12-.4,.34-.5m.39,.31c-.09-.07-.29-.25-.51,.02-.18,.22,.02,.35,.08,.39-.02-.15,.19-.38,.43-.41m.31,.51c0-.17-.17-.42-.47-.24-.3,.17-.2,.44-.11,.44,0-.16,.32-.27,.58-.19m.22,.47c-.01-.17-.15-.38-.5-.25-.34,.13-.37,.4-.27,.41,.02-.17,.51-.23,.77-.16m.09,.45c-.02-.17-.23-.48-.59-.35-.33,.12-.34,.26-.29,.4,.09-.17,.64-.26,.88-.06m-2.63-.72c-.1,.02-.25,.04-.36-.05-.03,.14,.11,.36,.29,.31,.18-.06,.16-.18,.07-.26m.05-.28c-.14,.03-.25-.1-.3-.24-.05,.13-.14,.28,0,.37,.12,.06,.25,.09,.3-.13m.04-.6c-.1,.02-.25,.14-.18,.33,.07,.19,.25,.19,.38,.08-.15-.09-.22-.31-.2-.41m.09,1.02c-.02,.07-.11,.19-.19,.2-.01,.09,.21,.25,.33,.09,.12-.18,.03-.31-.14-.28"/><path class="cls-13" d="M23.59,35.02c-.04,.17-.22,.31-.47,.33-.27,.02-.5-.13-.52-.33h0c.15-.08,.25-.2,.27-.35h0c.11,.23,.4,.4,.69,.35h.02Zm-.36,.88s-.02,.02-.03,.02c-.22,.15-.52,.15-.68,0-.15-.14-.13-.37,.05-.53,.17,.13,.44,.16,.64,.06-.05,.09-.07,.21-.04,.33,.01,.04,.03,.09,.05,.12m-1.9-.42c.03,.23-.13,.47-.37,.52-.24,.05-.47-.07-.51-.3,0-.06,0-.12,.02-.17,.14-.02,.26-.1,.33-.2,.12,.07,.27,.1,.42,.08,.03,0,.06,0,.09-.02,0,.04,.03,.06,.03,.09m.95,.3c-.16,.21-.46,.3-.65,.21-.15-.07-.21-.25-.13-.43,.14,.11,.33,.16,.52,.13,.15-.02,.27-.09,.35-.21,.01,.1-.02,.21-.1,.3m-.78-.97c.04,.13,.03,.26-.03,.36-.13,.19-.39,.19-.61,0-.14-.13-.22-.31-.22-.48,.07-.06,.11-.15,.11-.24,0,0,.01-.01,.02-.02,.06,.27,.33,.46,.59,.41,.05,0,.1-.02,.13-.04m.84,.49c-.16,.22-.45,.31-.65,.22-.19-.08-.23-.33-.07-.54,.05-.05,.1-.1,.17-.14,.14,.16,.37,.25,.61,.22,.01,0,.03,0,.05,0,0,.08-.04,.18-.1,.25m5.13-.32c.06,.22-.08,.42-.3,.46-.06,.01-.12,.01-.18-.01,.02-.07,.02-.15,0-.24-.04-.15-.15-.26-.29-.34,.05-.1,.15-.16,.27-.18,.23-.04,.46,.11,.51,.31m-.63,.21c.06,.22-.08,.42-.3,.46-.1,.01-.2,0-.29-.05,.12-.12,.17-.28,.12-.45-.02-.09-.07-.18-.15-.24,.03-.01,.07-.02,.11-.03,.23-.04,.45,.11,.51,.32m-.63,0c.06,.22-.08,.43-.31,.47-.24,.04-.47-.11-.53-.34,0-.02,0-.03-.01-.05,.09,.02,.18,.03,.28,.02,.22-.03,.37-.16,.42-.33,.07,.06,.12,.13,.15,.23m-.97,.1c.05,.19-.08,.38-.29,.41-.13,.03-.27-.03-.37-.13,.11-.11,.17-.27,.12-.44-.02-.03-.02-.06-.04-.1,.03-.02,.07-.04,.11-.04,.08-.01,.14,0,.21,.02,.06,.08,.14,.14,.23,.19,.02,.03,.03,.05,.04,.09m-1.01,.44c.02,.19-.12,.37-.37,.41-.26,.03-.52-.11-.59-.32-.05-.2,.08-.38,.31-.44,.11,.22,.37,.37,.65,.36m.32-.56c.06,.21-.09,.43-.31,.46-.23,.04-.46-.11-.52-.33-.05-.19,.05-.36,.23-.44,.11,.22,.36,.35,.61,.31m-.7-.35c-.06,.08-.16,.14-.27,.16-.25,.04-.51-.12-.57-.35-.06-.24,.08-.46,.33-.5,.19-.03,.38,.06,.49,.2-.07,.09-.1,.21-.07,.34,.02,.05,.04,.11,.08,.16m-3.26-.55c.06,.21-.09,.39-.33,.42-.25,.03-.5-.11-.57-.3-.02-.06-.02-.12,0-.18,.03,.03,.06,.05,.09,.07,.25,.16,.57,.16,.72,0,.02-.03,.04-.05,.05-.08,.01,.02,.02,.04,.03,.07m.09,.96c-.04,.08-.13,.17-.24,.2-.21,.06-.45-.05-.53-.25-.05-.1-.03-.21,.02-.29,.08,.02,.18,.04,.28,.01,.1-.03,.17-.09,.22-.17-.03,.08-.03,.17,0,.26,.05,.1,.14,.19,.26,.24m-.34,.26c.01,.06,0,.13-.04,.18-.1,.13-.33,.13-.49,0-.18-.13-.24-.34-.14-.47,.04-.05,.1-.08,.17-.09-.02,.06-.03,.11-.01,.18,.05,.17,.22,.28,.39,.25,.05,0,.1-.03,.13-.05m5.57-.8c.05,.22-.09,.41-.3,.45-.23,.04-.44-.1-.5-.31-.06-.22,.08-.41,.3-.45,.22-.04,.44,.1,.5,.31m-1.1-.15c.06,.22-.08,.42-.31,.45-.21,.04-.45-.11-.51-.32-.06-.21,.09-.41,.31-.45,.22-.04,.45,.1,.51,.32m-6.13-.65c.04,.12,.04,.23-.03,.31-.12,.15-.38,.15-.58,0-.2-.14-.27-.39-.15-.54,.06-.08,.17-.12,.29-.11,.08,.18,.28,.34,.47,.34h0Zm-.66-1.4c.19,0,.35,.17,.39,.36-.11,.05-.19,.15-.19,.28,0,.03,0,.07,.02,.1-.06,.04-.14,.06-.22,.06-.22,0-.43-.24-.43-.45s.21-.36,.43-.36m-.63,.04c.08,0,.16,.02,.22,.06-.1,.07-.17,.17-.17,.29,0,.14,.1,.31,.23,.39-.08,.06-.17,.1-.28,.1-.23,0-.45-.25-.45-.47s.22-.36,.45-.36m1.3,1.76c.08,.07,.14,.15,.17,.24,.07,.22-.06,.45-.28,.52-.24,.06-.53-.13-.6-.35-.02-.09-.02-.18,.03-.26,0,0,0,0,.01,0,.27,.1,.56,.03,.67-.16m.59-.73c.08,0,.15,.03,.22,.07-.12,.16-.05,.4,.14,.56-.08,.12-.21,.21-.36,.21-.23,0-.46-.25-.46-.46h.03c.22,0,.4-.17,.42-.38h.01Zm-.25,1.9c-.08,.12-.23,.2-.39,.2-.26,0-.51-.29-.51-.53,0-.03,0-.05,.02-.06,.09,.1,.22,.18,.35,.18,.08,0,.16-.02,.23-.06,.06,.12,.17,.23,.3,.28m-.07-.6s0,.01,.02,.02c-.03,.1-.08,.19-.17,.25,.08-.06,.13-.15,.15-.27m-1.05-1.4c-.12,.07-.19,.19-.19,.33,0,.13,.07,.28,.17,.38-.03,.01-.08,.02-.12,.02-.26,0-.52-.3-.52-.55,0-.06,.01-.13,.04-.18,.04,.02,.07,.02,.12,.02,.11,0,.23-.04,.31-.11,.05,.04,.12,.07,.19,.09m.12,.92c-.11,.07-.19,.18-.19,.31,0,.08,.03,.16,.09,.24h-.04c-.22,0-.46-.24-.47-.46,0-.1,.04-.19,.11-.25,.08,.05,.17,.09,.24,.07,.05,0,.08,0,.12,0,.04,.04,.08,.07,.13,.09m1.2,.17c.23,0,.42,.21,.42,.42s-.19,.37-.42,.37c-.16,0-.33-.12-.41-.27,.14-.06,.22-.19,.22-.33,0-.05,0-.11-.03-.16,.07-.02,.14-.04,.22-.04m-.43-1.7c.26,0,.47,.26,.47,.51s-.21,.46-.47,.46-.53-.29-.53-.54,.27-.42,.53-.42m3.67,1.41c.22,.16,.29,.42,.17,.58-.13,.15-.42,.15-.63,0-.21-.16-.28-.42-.16-.58,.13-.16,.41-.16,.62,0m-1.06-.26c.19,.16,.26,.42,.14,.57-.11,.16-.36,.16-.55,0-.19-.15-.26-.42-.15-.58,.11-.16,.36-.16,.56,0m-1.12-.57c.25,.18,.33,.49,.18,.67-.14,.18-.47,.18-.71,0-.25-.18-.34-.48-.19-.67,.15-.18,.47-.18,.72,0"/><path class="cls-16" d="M23.59,35.02c-.04,.17-.22,.31-.47,.33-.27,.02-.5-.13-.52-.33h0c.15-.08,.25-.2,.27-.35h0c.11,.23,.4,.4,.69,.35h.02Zm-.36,.88s-.02,.02-.03,.02c-.22,.15-.52,.15-.68,0-.15-.14-.13-.37,.05-.53,.17,.13,.44,.16,.64,.06-.05,.09-.07,.21-.04,.33,.01,.04,.03,.09,.05,.12Zm-1.9-.42c.03,.23-.13,.47-.37,.52-.24,.05-.47-.07-.51-.3,0-.06,0-.12,.02-.17,.14-.02,.26-.1,.33-.2,.12,.07,.27,.1,.42,.08,.03,0,.06,0,.09-.02,0,.04,.03,.06,.03,.09Zm.95,.3c-.16,.21-.46,.3-.65,.21-.15-.07-.21-.25-.13-.43,.14,.11,.33,.16,.52,.13,.15-.02,.27-.09,.35-.21,.01,.1-.02,.21-.1,.3Zm-.78-.97c.04,.13,.03,.26-.03,.36-.13,.19-.39,.19-.61,0-.14-.13-.22-.31-.22-.48,.07-.06,.11-.15,.11-.24,0,0,.01-.01,.02-.02,.06,.27,.33,.46,.59,.41,.05,0,.1-.02,.13-.04Zm.84,.49c-.16,.22-.45,.31-.65,.22-.19-.08-.23-.33-.07-.54,.05-.05,.1-.1,.17-.14,.14,.16,.37,.25,.61,.22,.01,0,.03,0,.05,0,0,.08-.04,.18-.1,.25Zm5.13-.32c.06,.22-.08,.42-.3,.46-.06,.01-.12,.01-.18-.01,.02-.07,.02-.15,0-.24-.04-.15-.15-.26-.29-.34,.05-.1,.15-.16,.27-.18,.23-.04,.46,.11,.51,.31Zm-.63,.21c.06,.22-.08,.42-.3,.46-.1,.01-.2,0-.29-.05,.12-.12,.17-.28,.12-.45-.02-.09-.07-.18-.15-.24,.03-.01,.07-.02,.11-.03,.23-.04,.45,.11,.51,.32Zm-.63,0c.06,.22-.08,.43-.31,.47-.24,.04-.47-.11-.53-.34,0-.02,0-.03-.01-.05,.09,.02,.18,.03,.28,.02,.22-.03,.37-.16,.42-.33,.07,.06,.12,.13,.15,.23Zm-.97,.1c.05,.19-.08,.38-.29,.41-.13,.03-.27-.03-.37-.13,.11-.11,.17-.27,.12-.44-.02-.03-.02-.06-.04-.1,.03-.02,.07-.04,.11-.04,.08-.01,.14,0,.21,.02,.06,.08,.14,.14,.23,.19,.02,.03,.03,.05,.04,.09Zm-1.01,.44c.02,.19-.12,.37-.37,.41-.26,.03-.52-.11-.59-.32-.05-.2,.08-.38,.31-.44,.11,.22,.37,.37,.65,.36Zm.32-.56c.06,.21-.09,.43-.31,.46-.23,.04-.46-.11-.52-.33-.05-.19,.05-.36,.23-.44,.11,.22,.36,.35,.61,.31Zm-.7-.35c-.06,.08-.16,.14-.27,.16-.25,.04-.51-.12-.57-.35-.06-.24,.08-.46,.33-.5,.19-.03,.38,.06,.49,.2-.07,.09-.1,.21-.07,.34,.02,.05,.04,.11,.08,.16Zm-3.26-.55c.06,.21-.09,.39-.33,.42-.25,.03-.5-.11-.57-.3-.02-.06-.02-.12,0-.18,.03,.03,.06,.05,.09,.07,.25,.16,.57,.16,.72,0,.02-.03,.04-.05,.05-.08,.01,.02,.02,.04,.03,.07Zm.09,.96c-.04,.08-.13,.17-.24,.2-.21,.06-.45-.05-.53-.25-.05-.1-.03-.21,.02-.29,.08,.02,.18,.04,.28,.01,.1-.03,.17-.09,.22-.17-.03,.08-.03,.17,0,.26,.05,.1,.14,.19,.26,.24Zm-.34,.26c.01,.06,0,.13-.04,.18-.1,.13-.33,.13-.49,0-.18-.13-.24-.34-.14-.47,.04-.05,.1-.08,.17-.09-.02,.06-.03,.11-.01,.18,.05,.17,.22,.28,.39,.25,.05,0,.1-.03,.13-.05Zm5.57-.8c.05,.22-.09,.41-.3,.45-.23,.04-.44-.1-.5-.31-.06-.22,.08-.41,.3-.45,.22-.04,.44,.1,.5,.31Zm-1.1-.15c.06,.22-.08,.42-.31,.45-.21,.04-.45-.11-.51-.32-.06-.21,.09-.41,.31-.45,.22-.04,.45,.1,.51,.32Zm-6.13-.65c.04,.12,.04,.23-.03,.31-.12,.15-.38,.15-.58,0-.2-.14-.27-.39-.15-.54,.06-.08,.17-.12,.29-.11,.08,.18,.28,.34,.47,.34h0Zm-.66-1.4c.19,0,.35,.17,.39,.36-.11,.05-.19,.15-.19,.28,0,.03,0,.07,.02,.1-.06,.04-.14,.06-.22,.06-.22,0-.43-.24-.43-.45s.21-.36,.43-.36Zm-.63,.04c.08,0,.16,.02,.22,.06-.1,.07-.17,.17-.17,.29,0,.14,.1,.31,.23,.39-.08,.06-.17,.1-.28,.1-.23,0-.45-.25-.45-.47s.22-.36,.45-.36Zm1.3,1.76c.08,.07,.14,.15,.17,.24,.07,.22-.06,.45-.28,.52-.24,.06-.53-.13-.6-.35-.02-.09-.02-.18,.03-.26,0,0,0,0,.01,0,.27,.1,.56,.03,.67-.16Zm.59-.73c.08,0,.15,.03,.22,.07-.12,.16-.05,.4,.14,.56-.08,.12-.21,.21-.36,.21-.23,0-.46-.25-.46-.46h.03c.22,0,.4-.17,.42-.38h.01Zm-.25,1.9c-.08,.12-.23,.2-.39,.2-.26,0-.51-.29-.51-.53,0-.03,0-.05,.02-.06,.09,.1,.22,.18,.35,.18,.08,0,.16-.02,.23-.06,.06,.12,.17,.23,.3,.28Zm-.07-.6s0,.01,.02,.02c-.03,.1-.08,.19-.17,.25,.08-.06,.13-.15,.15-.27Zm-1.05-1.4c-.12,.07-.19,.19-.19,.33,0,.13,.07,.28,.17,.38-.03,.01-.08,.02-.12,.02-.26,0-.52-.3-.52-.55,0-.06,.01-.13,.04-.18,.04,.02,.07,.02,.12,.02,.11,0,.23-.04,.31-.11,.05,.04,.12,.07,.19,.09Zm.12,.92c-.11,.07-.19,.18-.19,.31,0,.08,.03,.16,.09,.24h-.04c-.22,0-.46-.24-.47-.46,0-.1,.04-.19,.11-.25,.08,.05,.17,.09,.24,.07,.05,0,.08,0,.12,0,.04,.04,.08,.07,.13,.09Zm1.2,.17c.23,0,.42,.21,.42,.42s-.19,.37-.42,.37c-.16,0-.33-.12-.41-.27,.14-.06,.22-.19,.22-.33,0-.05,0-.11-.03-.16,.07-.02,.14-.04,.22-.04Zm-.43-1.7c.26,0,.47,.26,.47,.51s-.21,.46-.47,.46-.53-.29-.53-.54,.27-.42,.53-.42Zm3.67,1.41c.22,.16,.29,.42,.17,.58-.13,.15-.42,.15-.63,0-.21-.16-.28-.42-.16-.58,.13-.16,.41-.16,.62,0Zm-1.06-.26c.19,.16,.26,.42,.14,.57-.11,.16-.36,.16-.55,0-.19-.15-.26-.42-.15-.58,.11-.16,.36-.16,.56,0Zm-1.12-.57c.25,.18,.33,.49,.18,.67-.14,.18-.47,.18-.71,0-.25-.18-.34-.48-.19-.67,.15-.18,.47-.18,.72,0Z"/><path class="cls-12" d="M27.18,23.05c-.18-.85-.44-1.43-.75-1.95-.23-.23-.47-.44-.7-.68,.29,.21,.57,.42,.86,.62,.29,.5,.55,1.02,.69,1.64,.1-.09,.15-.03,.25-.12,.5-.23,1.03-.96,1.53-1.47-.07,.16-.35,.63-.42,.79-.92,.9-1.29,.97-1.28,1.31-.03,.11-.05,.22-.08,.32,.18-.16,.7-.69,.88-.86-.17,.24-.7,.85-.73,1.09-.18,.21-.09,.41-.05,.61,.69-.21,1.45-.77,2.2-1.31-.75,.91-1.45,.93-2.17,1.78-.04,.34-.08,.67-.11,1,.03,.29,.07,.57,.09,.86,.16,.06,.32,.13,.39,.3,.49,.1,1.87,.13,2.34,.38h-5.93c.29-.17,1.67-.29,2.09-.28,.09-.18,.28-.34,.57-.46,.03-.47,.06-.95,.09-1.42,.04-.21-.07-.42-.31-.64-.59-.4-1.07-1.02-1.46-1.56,.62,.62,1.28,1.23,1.84,1.58,.02-.09,.05-.18,.07-.26v-.66c-.44-.35-.88-.68-1.25-1.24,.02-.02-.48-.56-.46-.58,.41,.43,1.34,1.33,1.76,1.57,0-.05,0-.1-.01-.15-.04-.06-.09-.13-.14-.19,.06-.01,.12-.01,.19-.02"/><path class="cls-16" d="M27.18,23.05c-.18-.85-.44-1.43-.75-1.95-.23-.23-.47-.44-.7-.68,.29,.21,.57,.42,.86,.62,.29,.5,.55,1.02,.69,1.64,.1-.09,.15-.03,.25-.12,.5-.23,1.03-.96,1.53-1.47-.07,.16-.35,.63-.42,.79-.92,.9-1.29,.97-1.28,1.31-.03,.11-.05,.22-.08,.32,.18-.16,.7-.69,.88-.86-.17,.24-.7,.85-.73,1.09-.18,.21-.09,.41-.05,.61,.69-.21,1.45-.77,2.2-1.31-.75,.91-1.45,.93-2.17,1.78-.04,.34-.08,.67-.11,1,.03,.29,.07,.57,.09,.86,.16,.06,.32,.13,.39,.3,.49,.1,1.87,.13,2.34,.38h-5.93c.29-.17,1.67-.29,2.09-.28,.09-.18,.28-.34,.57-.46,.03-.47,.06-.95,.09-1.42,.04-.21-.07-.42-.31-.64-.59-.4-1.07-1.02-1.46-1.56,.62,.62,1.28,1.23,1.84,1.58,.02-.09,.05-.18,.07-.26v-.66c-.44-.35-.88-.68-1.25-1.24,.02-.02-.48-.56-.46-.58,.41,.43,1.34,1.33,1.76,1.57,0-.05,0-.1-.01-.15-.04-.06-.09-.13-.14-.19,.06-.01,.12-.01,.19-.02Z"/><path class="cls-3" d="M29.52,22.99c.25-.72,.47-.7,.9-.92-.29,.66-.55,.92-.9,.92"/><path class="cls-18" d="M29.52,22.99c.25-.72,.47-.7,.9-.92-.29,.66-.55,.92-.9,.92Z"/><path class="cls-3" d="M27.54,24.77c.79-.43,.98,.16,1.36,.15-.47,.36-1.07-.15-1.36-.15"/><path class="cls-18" d="M27.54,24.77c.79-.43,.98,.16,1.36,.15-.47,.36-1.07-.15-1.36-.15Z"/><path class="cls-3" d="M28.12,20.78c-.43-.99,.35-1.02,.4-1.44,.38,.61-.36,1.11-.4,1.44"/><path class="cls-18" d="M28.12,20.78c-.43-.99,.35-1.02,.4-1.44,.38,.61-.36,1.11-.4,1.44Z"/><path class="cls-3" d="M26.72,24.35c-.36-.5-.2-.6-.05-.95,.29,.49,.28,.75,.05,.95"/><path class="cls-18" d="M26.72,24.35c-.36-.5-.2-.6-.05-.95,.29,.49,.28,.75,.05,.95Z"/><path class="cls-3" d="M25.77,23.53c-.73-.54-.07-.88-.19-1.2,.55,.29,.1,.95,.19,1.2"/><path class="cls-18" d="M25.77,23.53c-.73-.54-.07-.88-.19-1.2,.55,.29,.1,.95,.19,1.2Z"/><path class="cls-3" d="M26.37,24.03c-.71-.55-.2-.95-.36-1.28,.52,.28,.24,1.02,.36,1.28"/><path class="cls-18" d="M26.37,24.03c-.71-.55-.2-.95-.36-1.28,.52,.28,.24,1.02,.36,1.28Z"/><path class="cls-3" d="M29.1,21.08c-.07-1.01,.48-1.15,.88-1.54,0,.94-.48,1.45-.88,1.54"/><path class="cls-18" d="M29.1,21.08c-.07-1.01,.48-1.15,.88-1.54,0,.94-.48,1.45-.88,1.54Z"/><path class="cls-3" d="M27.97,24.39c.78-.46,.99,.14,1.37,.11-.46,.37-1.07-.13-1.37-.11"/><path class="cls-18" d="M27.97,24.39c.78-.46,.99,.14,1.37,.11-.46,.37-1.07-.13-1.37-.11Z"/><path class="cls-3" d="M28.56,24.02c.84-.36,.97,.26,1.35,.28-.51,.31-1.04-.26-1.35-.28"/><path class="cls-18" d="M28.56,24.02c.84-.36,.97,.26,1.35,.28-.51,.31-1.04-.26-1.35-.28Z"/><path class="cls-3" d="M29.03,23.76c.52-.61,.86-.09,1.16-.2-.28,.47-.92,.13-1.16,.2"/><path class="cls-18" d="M29.03,23.76c.52-.61,.86-.09,1.16-.2-.28,.47-.92,.13-1.16,.2Z"/><path class="cls-3" d="M29.43,23.38c.28-.63,.65-.15,.86-.28-.12,.46-.68,.18-.86,.28"/><path class="cls-18" d="M29.43,23.38c.28-.63,.65-.15,.86-.28-.12,.46-.68,.18-.86,.28Z"/><path class="cls-3" d="M27.03,24.77c-.79-.43-.99,.16-1.37,.15,.47,.36,1.07-.15,1.37-.15"/><path class="cls-18" d="M27.03,24.77c-.79-.43-.99,.16-1.37,.15,.47,.36,1.07-.15,1.37-.15Z"/><path class="cls-3" d="M26.59,24.39c-.79-.46-.99,.14-1.37,.11,.46,.37,1.07-.13,1.37-.11"/><path class="cls-18" d="M26.59,24.39c-.79-.46-.99,.14-1.37,.11,.46,.37,1.07-.13,1.37-.11Z"/><path class="cls-3" d="M26,24.02c-.84-.36-.97,.26-1.34,.28,.5,.31,1.04-.26,1.34-.28"/><path class="cls-18" d="M26,24.02c-.84-.36-.97,.26-1.34,.28,.5,.31,1.04-.26,1.34-.28Z"/><path class="cls-3" d="M25.54,23.76c-.54-.61-.87-.09-1.18-.2,.28,.47,.93,.13,1.18,.2"/><path class="cls-18" d="M25.54,23.76c-.54-.61-.87-.09-1.18-.2,.28,.47,.93,.13,1.18,.2Z"/><path class="cls-3" d="M25.14,23.38c-.28-.63-.65-.15-.86-.28,.13,.46,.68,.18,.86,.28"/><path class="cls-18" d="M25.14,23.38c-.28-.63-.65-.15-.86-.28,.13,.46,.68,.18,.86,.28Z"/><path class="cls-3" d="M25.17,22.94c-.25-.74-.46-.71-.9-.93,.29,.67,.56,.92,.9,.93"/><path class="cls-18" d="M25.17,22.94c-.25-.74-.46-.71-.9-.93,.29,.67,.56,.92,.9,.93Z"/><path class="cls-3" d="M27.78,24.17c.3-.39,.31-.64,.26-1.01-.41,.4-.36,.76-.26,1.01"/><path class="cls-18" d="M27.78,24.17c.3-.39,.31-.64,.26-1.01-.41,.4-.36,.76-.26,1.01Z"/><path class="cls-3" d="M28.95,23.33c.84-.35,.3-.87,.46-1.41-.38,.53-.4,1.21-.46,1.41"/><path class="cls-18" d="M28.95,23.33c.84-.35,.3-.87,.46-1.41-.38,.53-.4,1.21-.46,1.41Z"/><path class="cls-3" d="M28.25,23.83c.83-.35,.41-1.01,.65-1.3-.5,.27-.46,1.07-.65,1.3"/><path class="cls-18" d="M28.25,23.83c.83-.35,.41-1.01,.65-1.3-.5,.27-.46,1.07-.65,1.3Z"/><path class="cls-3" d="M25.72,22.27c-.47-.63-.67-.54-1.16-.62,.49,.55,.82,.71,1.16,.62"/><path class="cls-18" d="M25.72,22.27c-.47-.63-.67-.54-1.16-.62,.49,.55,.82,.71,1.16,.62Z"/><path class="cls-3" d="M25.56,21.98c.05-.9-.19-.95-.57-1.37,.03,.85,.2,1.22,.57,1.37"/><path class="cls-18" d="M25.56,21.98c.05-.9-.19-.95-.57-1.37,.03,.85,.2,1.22,.57,1.37Z"/><path class="cls-3" d="M25.96,20.56c.48-.67,.24-.76,.03-1.14-.38,.64-.36,.95-.03,1.14"/><path class="cls-18" d="M25.96,20.56c.48-.67,.24-.76,.03-1.14-.38,.64-.36,.95-.03,1.14Z"/><path class="cls-3" d="M26.08,22.65c-.72-.54-.08-.89-.19-1.2,.55,.29,.1,.95,.19,1.2"/><path class="cls-18" d="M26.08,22.65c-.72-.54-.08-.89-.19-1.2,.55,.29,.1,.95,.19,1.2Z"/><path class="cls-3" d="M26.72,23.09c-.36-.5-.2-.6-.05-.94,.29,.48,.28,.75,.05,.94"/><path class="cls-18" d="M26.72,23.09c-.36-.5-.2-.6-.05-.94,.29,.48,.28,.75,.05,.94Z"/><path class="cls-3" d="M26.37,22.83c.18-.45,.13-.68,0-1.03-.3,.48-.16,.82,0,1.03"/><path class="cls-18" d="M26.37,22.83c.18-.45,.13-.68,0-1.03-.3,.48-.16,.82,0,1.03Z"/><path class="cls-3" d="M26.55,20.96c-.72-.54-.07-.89-.19-1.2,.55,.3,.11,.96,.19,1.2"/><path class="cls-18" d="M26.55,20.96c-.72-.54-.07-.89-.19-1.2,.55,.3,.11,.96,.19,1.2Z"/><path class="cls-3" d="M28.07,20.61c-.87-.26-.39-.81-.63-1.06,.63,.09,.45,.86,.63,1.06"/><path class="cls-18" d="M28.07,20.61c-.87-.26-.39-.81-.63-1.06,.63,.09,.45,.86,.63,1.06Z"/><path class="cls-3" d="M27.52,22.62c.25-.55,.18-.85,.02-1.28-.37,.59-.21,1.01-.02,1.28"/><path class="cls-18" d="M27.52,22.62c.25-.55,.18-.85,.02-1.28-.37,.59-.21,1.01-.02,1.28Z"/><path class="cls-3" d="M28.73,21.37c.7-.56,.05-.92,.05-1.48-.22,.6-.05,1.27-.05,1.48"/><path class="cls-18" d="M28.73,21.37c.7-.56,.05-.92,.05-1.48-.22,.6-.05,1.27-.05,1.48Z"/><path class="cls-3" d="M27.99,22.3c.67-.74-.16-1.08-.07-1.45-.36,.49,.13,1.16,.07,1.45"/><path class="cls-18" d="M27.99,22.3c.67-.74-.16-1.08-.07-1.45-.36,.49,.13,1.16,.07,1.45Z"/><path class="cls-3" d="M30.49,21.01c-.67,.61-.91,.44-1.55,.38,.68-.52,1.13-.6,1.55-.38"/><path class="cls-18" d="M30.49,21.01c-.67,.61-.91,.44-1.55,.38,.68-.52,1.13-.6,1.55-.38Z"/><path class="cls-3" d="M28.47,21.97c.75-.52,.96-.33,1.59-.19-.74,.43-1.19,.45-1.59,.19"/><path class="cls-18" d="M28.47,21.97c.75-.52,.96-.33,1.59-.19-.74,.43-1.19,.45-1.59,.19Z"/><path class="cls-3" d="M28.53,21.77c.1-.58-.02-.84-.27-1.22-.22,.64,.03,1,.27,1.22"/><path class="cls-18" d="M28.53,21.77c.1-.58-.02-.84-.27-1.22-.22,.64,.03,1,.27,1.22Z"/><path class="cls-3" d="M27.06,21.91c-.25-.57-.05-.63,.17-.94,.17,.54,.11,.8-.17,.94"/><path class="cls-18" d="M27.06,21.91c-.25-.57-.05-.63,.17-.94,.17,.54,.11,.8-.17,.94Z"/><path class="cls-3" d="M26.72,21.31c.32-.37,.35-.61,.35-.99-.44,.37-.42,.73-.35,.99"/><path class="cls-18" d="M26.72,21.31c.32-.37,.35-.61,.35-.99-.44,.37-.42,.73-.35,.99Z"/><path class="cls-3" d="M26.34,21.03c-.4-.28-.66-.28-1.05-.24,.42,.39,.79,.33,1.05,.24"/><path class="cls-18" d="M26.34,21.03c-.4-.28-.66-.28-1.05-.24,.42,.39,.79,.33,1.05,.24Z"/><path class="cls-3" d="M26.79,21.91c-.41-.28-.65-.28-1.04-.24,.42,.39,.78,.34,1.04,.24"/><path class="cls-18" d="M26.79,21.91c-.41-.28-.65-.28-1.04-.24,.42,.39,.78,.34,1.04,.24Z"/><path class="cls-3" d="M26.72,21.55c-.41-.29-.66-.29-1.05-.24,.43,.39,.79,.33,1.05,.24"/><path class="cls-18" d="M26.72,21.55c-.41-.29-.66-.29-1.05-.24,.43,.39,.79,.33,1.05,.24Z"/><path class="cls-3" d="M27.54,22.81c.78,.45,1-.13,1.38-.11-.46-.38-1.07,.12-1.38,.11"/><path class="cls-18" d="M27.54,22.81c.78,.45,1-.13,1.38-.11-.46-.38-1.07,.12-1.38,.11Z"/><path class="cls-3" d="M28.14,22.34c.7-.38,.83-.22,1.31-.1-.68,.3-1.06,.32-1.31,.1"/><path class="cls-18" d="M28.14,22.34c.7-.38,.83-.22,1.31-.1-.68,.3-1.06,.32-1.31,.1Z"/><path class="cls-3" d="M25.84,20.63c-.66,.05-.75-.27-1.02-.52,.61,0,.95,.28,1.02,.52"/><path class="cls-18" d="M25.84,20.63c-.66,.05-.75-.27-1.02-.52,.61,0,.95,.28,1.02,.52Z"/><path class="cls-6" d="M23.16,26.93c-.11-.02-.23-.04-.26-.04-.21,0-.83-.18-.96-.16-.38,.13-.98-.26-1.19-.13-.14,.09-.95,.05-1.22,.05-.62,0-1.01-.14-1.5,.09-.25,.12-.6-.25-.72-.13-.24,.23-.54,.32-.91,.32-.04,.14-.09,.28-.14,.41h6.9v-.42Z"/><path class="cls-16" d="M23.16,26.93c-.11-.02-.23-.04-.26-.04-.21,0-.83-.18-.96-.16-.38,.13-.98-.26-1.19-.13-.14,.09-.95,.05-1.22,.05-.62,0-1.01-.14-1.5,.09-.25,.12-.6-.25-.72-.13-.24,.23-.54,.32-.91,.32-.04,.14-.09,.28-.14,.41h6.9v-.42Z"/><path class="cls-9" d="M21.87,24.12c-.35,.13-.58,1.07-.72,1.35-.08,.15-.26,.5-.09,.73,.07,.1,.19,.14,.21,.22,.24,.03,.37,.14,.35,.32-.1,.16-.45,.12-.62,.04,0-.04-.02-.09-.07-.13-.02-.04-.03-.08-.04-.13-.51-.25-.16-.57-.22-1.26-.03,.12-.07,.25-.1,.38-.03,.3-.07,.59-.05,.86,.07,.11,.15,.21,.27,.26,.11,.05,.11,.09,.23,.24,0,.04,.07,.14,.02,.17-.05,.09-.07,.14-.48,.04,0-.06,0-.11-.02-.16-.05,.03-.09,0-.11-.06-.02-.08-.07-.15-.15-.22,0-.11-.15-.11-.19-.26-.05-.15,.04-.44,.06-.66,.07-.34,.13-.67,.13-1.01-.17-.15-.18-.41-.18-.71-.32,.13-.8-.13-.95-.23-.16-.1-.08,.68-.63,.99-.12,.11-.17,.18-.22,.35-.19,.2,.12,.84,.32,1.05,.1,.11,.25,.3,.34,.41,.15,.09,.36,.19,.35,.36-.18,.09-.52,.07-.67,0-.02-.07-.12-.2-.04-.27-.1,0-.27-.08-.31-.12-.06-.17-.48-1.03-.59-1.18-.07,0-.1-.2-.1-.28,.02-.13,.04,.02,.19-.43-.11,.21-.42,.4-.4,.66,.04,.2,.23,.68,.27,.88,.13,.1,.09,.21,.36,.31,.13,.1,.34,.29,.34,.42-.14,.07-.5,.13-.69,.03-.04-.09-.05-.22-.09-.32-.06-.01-.04-.08-.1-.1-.07-.04-.24-.03-.31-.07-.1-.45-.22-1.2-.33-1.65-.03-.1,.05-.36,.13-.4,.21-.12,.34-.39,.5-.56,.23-.17,.11-.63-.11-.87-.09,.13-.04,.17-.08,.2-.11,.06-.26-.25-.21-.42,.04-.2-.01-.35,.04-.6,.08-.42,.32-.51,.57-.29,.31-.28,.72-.47,1.13-.4,.7-.21,1.21,.02,1.51,.12,.41,.09,.61,.26,.87,.47,.11,.09,.25,.01,.35-.1,0-.65-.05-1.32-.35-2.01-.3,.17-.52-.01-.83-.21-.08-.04-.07-.08-.02-.12,.11,0,.19-.07,.29-.07-.16-.11-.12-.16-.03-.19,.25,.06,.47-.12,.69,.02,.14-.22,.39-.21,.63-.23,.18-.02,.36,.09,.54,.26,.08,.12,.37,.14,.43,.21,.05,.07,.01,.22-.02,.33-.04,.09-.14,.13-.25,.15-.06,.02-.14,0-.2,.02-.01,.05-.11,.11-.19,.15,.19,.47,.31,1.27,.26,2.01-.01,.38-.02,.89-.45,1.22-.16,.13-.06,.32-.15,.47"/><path class="cls-12" d="M21.31,19.86c-.06,.06-.25,.23-.39,.21-.17-.04-.17-.14-.36-.18-.09-.03-.08-.06,.02-.1,.22-.07,.5-.21,.71-.01-.17,.02-.2,.04-.4,.05,.19,.04,.24,.07,.42,.02"/><path class="cls-7" d="M20.68,19.63c-.08-.04-.13-.05-.03-.08,.27,.05,.46-.12,.63,.04-.06,.03-.04,.05-.11,.05-.04-.08-.38,0-.49-.01"/><path class="cls-12" d="M21.39,19.56c.21-.2,.47-.26,.84-.05,.17,.18,.32,.18,.5,.25,.02,.07,.07,.11,.11,.11-.01,.03-.02,.09-.04,.12-.06,.06-.22,.04-.39,.04,.13,.04,.26,.06,.36,.04-.03,.06-.13,.17-.39,.13-.07,.13-.21,.24-.48,.14-.08,.01-.2-.05-.28-.07,.13,.14,.29,.24,.44,.25,.05,.15,.37,1.17,.32,1.8,.02,.23-.08,.7-.22,1.02-.06,.16-.18,.18-.24,.26-.16,.22-.12,.41-.17,.51-.45,.06-.5,1.33-.74,1.28-.18-.04-.26-.7-.03-.83,.78-.44,.49-1.52,.53-1.43-.17,.58-.05,1.14-.43,1.11-.32-.12-.46,.76-.46,.91,0,.2-.05,.24-.09,.4-.04,.13-.04,.34-.09,.74,0,.1,0,.16,.02,.25,.09,.12,.17,.25,.33,.31,.17,.06,.24,.26,.2,.31-.04,.06-.19,.13-.37,.02-.01-.03-.04-.07-.04-.16-.13-.01-.13-.17-.25-.28,.03-.1-.2-.14-.2-.33,0-.2,.1-.63,.19-1.01,.09-.19,.09-.4,.1-.51-.06-.15,.13-.15,0-.26-.25-.23-.22-.62,.12-.99-.07-.03-.11-.15-.16-.22v.27l-.27,.33c-.27,.06-.84-.11-1.04-.36-.13-.11-.26-.23-.24-.47,0-.04-.16,0-.13,.03,.05,.07-.04,.14-.01,.24,.01,.09,.23,.15,.22,.23l-.05,.45c-.03,.28-.24,.57-.54,.85l-.21,.46c-.02,.27,.38,.8,.57,1.04,.08,.06,.14,.2,.21,.26,.09,.02,.22,.12,.34,.27-.1,.03-.31,.07-.54,0-.06-.05-.05-.2,0-.25-.13-.02-.26-.06-.34-.14-.19-.41-.39-.81-.63-1.22-.07-.1-.05-.25,.06-.38,.24-.52,.3-.92,.17-1.19-.21-.07-.39-.44-.44-.78-.06-.4,.02-.85,.24-1.03,.21-.21,.64-.34,1.01-.29,.57-.22,1.68,.1,1.86,.23,.33,.04,.41,.4,.67,.37,.17-.01,.29-.14,.31-.33,0-1.52-.39-1.69-.34-1.94,.03-.09,.09-.15,.18-.18-.07-.05-.12-.12-.11-.17,.02-.05,.03-.1,.05-.16"/><path class="cls-9" d="M22.37,19.8c-.18-.06-.18-.14-.38-.08-.14,.07-.13,.09-.17,.16,.07-.04,.1-.06,.15-.04,.08,.04,.22,.04,.25-.03,.06-.02,.09,.02,.15,0"/><path class="cls-12" d="M21.1,24.35c.05,.16,.05,.25-.05,.41,.11,.16,.12,.36-.07,.57,.16,.27-.05,.41-.04,.76,.08,.22,.25,.22,.25,.36,.21,.03,.35,.08,.36,.23,.01,.03-.04-.05-.1-.03,.07,.04,.09,.09,.07,.1-.06,.04-.16,.04-.3,.04-.05-.02-.12-.03-.15-.11,.01-.03,.03-.1,.03-.14-.2-.03-.28-.14-.29-.35-.03,.08-.06,.13-.06,.17-.05-.08-.12-.17-.09-.27,.1-.37,.1-.61,.07-.87,0-.65,.18-.74,.37-.86"/><path class="cls-14" d="M17.35,22.37c.03,.06-.04,.19-.13,.34,.06-.01,.13-.02,.18-.1-.04,.13-.1,.21-.16,.28,.04,.01,.09,0,.16-.1v.07c-.02,.05-.06,.14-.07,.19-.06,.03-.07,.15-.11,.23-.08-.13-.15-.28-.06-.61-.08-.06,.01-.19,.08-.29-.02,0-.08,.04-.1,.05,.02-.14,.05-.28,.17-.42,.1-.05,.18-.06,.25,.06,.02,.06,.02,.1-.12,.18-.15,.09-.13,.1-.08,.1"/><path class="cls-8" d="M18.07,23.48c0,.35,.08,.56,.08,.85,0,.27-.15,.57-.3,.88,.05-.05,.11-.15,.16-.13,.03-.2,.14-.31,.2-.47,.08-.18,.13-.4,.06-.51-.1-.18-.17-.39-.2-.63"/><path class="cls-12" d="M17.27,25.26c-.01,.06-.02,.13-.03,.2,.07,.37,.16,.7,.3,.92,.08,.05,.14,.1,.17,.17,.05,.04,.1,.09,.15,.13,.17,.07,.28,.19,.38,.32-.17,.09-.35,.05-.52-.01-.03-.1-.07-.21-.12-.31-.03-.03-.06-.04-.09-.08-.08-.04-.31-.12-.32-.21-.03-.48-.13-.87-.25-1.35-.06-.18-.06-.34,.06-.44,.17-.13,.34-.27,.44-.43,.14-.12,.23-.3,.25-.5,.1,.14,.16,.27,.16,.41,.06,.21,.01,.42-.06,.64-.17,.18-.33,.36-.5,.55"/><path class="cls-8" d="M17.62,24c-.04,.43-.55,.69-.56,1.13-.01-.14-.04-.28,.07-.53,.18-.12,.33-.35,.49-.6"/><path class="cls-8" d="M17.14,24.36c-.1,.12-.15,.25-.18,.37,0-.09-.04-.17,.02-.25,.04-.07,.09-.11,.16-.12"/><path class="cls-9" d="M23.68,17.06c.32-.47,.78-.54,1.26-.52,.35-.46,.76-.74,1.31-.6,0-.27,.12-.53,.33-.8-.51-.39-.73-.79-.83-1.19-.39-.02-.77-.19-1.14-.52-.26,.05-.5,.17-.82-.1-.18,.27-.36,.18-.7,0-.28,.02-.66,.17-.94,.19-.17,.31-.6,.42-1,.35,.03,.44-.04,.91-.34,1.19,.22,.31,.12,.25,.22,.56,.14,.28,.72,.49,.83,.82,.27,.16,.44,.21,.8,.15,.28-.04,.72,.25,1,.46m.91,.92c.88,.12,1.38-.02,1.5-.39,.06,.24,1.82-.28,1.54-.72,.58-.17,.8-.59,.89-.95,.02-.07-.33,.11-.4,.05,.28-.29,.63-1.1,.16-1.59-.03-.86-.27-1.42-.76-1.52-.02,.05,.07,.98-.02,.54-.08-.43-.8-1.09-1.18-1.22-.31-.51-1.06-.68-1.73-.58-.19-.05-.41-.02-.71,.1-.33-.11-.95-.19-1.17,0-.35-.19-.44-.11-.81,0-.64-.04-.69,.12-1.17,.53-.32,.02-.81,.38-.99,.87-.34,.31-.75,.56-.75,1.14-.47,.45-.14,1.28-.06,1.5-.12,1.26,.27,1.09,.72,1.24,.02,.7,.97,.42,1.45,.76,.56,.55,.87,.47,2.61,.06,.36,.12,.64,.17,.88,.18"/><path class="cls-16" d="M23.68,17.06c.32-.47,.78-.54,1.26-.52,.35-.46,.76-.74,1.31-.6,0-.27,.12-.53,.33-.8-.51-.39-.73-.79-.83-1.19-.39-.02-.77-.19-1.14-.52-.26,.05-.5,.17-.82-.1-.18,.27-.36,.18-.7,0-.28,.02-.66,.17-.94,.19-.17,.31-.6,.42-1,.35,.03,.44-.04,.91-.34,1.19,.22,.31,.12,.25,.22,.56,.14,.28,.72,.49,.83,.82,.27,.16,.44,.21,.8,.15,.28-.04,.72,.25,1,.46Zm.91,.92c.88,.12,1.38-.02,1.5-.39,.06,.24,1.82-.28,1.54-.72,.58-.17,.8-.59,.89-.95,.02-.07-.33,.11-.4,.05,.28-.29,.63-1.1,.16-1.59-.03-.86-.27-1.42-.76-1.52-.02,.05,.07,.98-.02,.54-.08-.43-.8-1.09-1.18-1.22-.31-.51-1.06-.68-1.73-.58-.19-.05-.41-.02-.71,.1-.33-.11-.95-.19-1.17,0-.35-.19-.44-.11-.81,0-.64-.04-.69,.12-1.17,.53-.32,.02-.81,.38-.99,.87-.34,.31-.75,.56-.75,1.14-.47,.45-.14,1.28-.06,1.5-.12,1.26,.27,1.09,.72,1.24,.02,.7,.97,.42,1.45,.76,.56,.55,.87,.47,2.61,.06,.36,.12,.64,.17,.88,.18Z"/><path class="cls-10" d="M26.36,13.35c-.04,.81,.59,.87,1.31,1.32-.19-.6-.52-.97-1.31-1.32"/><path class="cls-16" d="M26.36,13.35c-.04,.81,.59,.87,1.31,1.32-.19-.6-.52-.97-1.31-1.32Z"/><path class="cls-10" d="M27.74,13.08c.68,1.28-.2,1.46-.15,2.03-.56-.77,.17-1.57,.15-2.03"/><path class="cls-16" d="M27.74,13.08c.68,1.28-.2,1.46-.15,2.03-.56-.77,.17-1.57,.15-2.03Z"/><path class="cls-10" d="M26.12,14.12c.37,1.08,.57,.72,1.25,1.05-.42-.72-.55-.87-1.25-1.05"/><path class="cls-16" d="M26.12,14.12c.37,1.08,.57,.72,1.25,1.05-.42-.72-.55-.87-1.25-1.05Z"/><path class="cls-10" d="M27.69,16.53c-.56-1.37,.5-1.41,.56-1.98,.51,.85-.5,1.53-.56,1.98"/><path class="cls-16" d="M27.69,16.53c-.56-1.37,.5-1.41,.56-1.98,.51,.85-.5,1.53-.56,1.98Z"/><path class="cls-10" d="M26.62,16.77c1.07-.87,.11-1.24,.29-1.7-.81,.5-.15,1.34-.29,1.7"/><path class="cls-16" d="M26.62,16.77c1.07-.87,.11-1.24,.29-1.7-.81,.5-.15,1.34-.29,1.7Z"/><path class="cls-10" d="M27.53,14.81c-.75,.89-.33,.85-.25,1.58,.4-.73,.46-.92,.25-1.58"/><path class="cls-16" d="M27.53,14.81c-.75,.89-.33,.85-.25,1.58,.4-.73,.46-.92,.25-1.58Z"/><path class="cls-10" d="M26.67,17.03c.52-1.21,1.31-.67,1.73-1.03-.21,.85-1.39,.76-1.73,1.03"/><path class="cls-16" d="M26.67,17.03c.52-1.21,1.31-.67,1.73-1.03-.21,.85-1.39,.76-1.73,1.03Z"/><path class="cls-10" d="M25.86,17.02c.48-.77,.73-.6,1.3-.63-.52,.67-.89,.82-1.3,.63"/><path class="cls-16" d="M25.86,17.02c.48-.77,.73-.6,1.3-.63-.52,.67-.89,.82-1.3,.63Z"/><path class="cls-10" d="M25.45,17.22c.99-.88,1.49-.08,2.03-.24-.55,.68-1.59,.13-2.03,.24"/><path class="cls-16" d="M25.45,17.22c.99-.88,1.49-.08,2.03-.24-.55,.68-1.59,.13-2.03,.24Z"/><path class="cls-10" d="M25.04,16.95c.39-1.38,1.32-.66,1.74-1.03-.11,.98-1.39,.75-1.74,1.03"/><path class="cls-16" d="M25.04,16.95c.39-1.38,1.32-.66,1.74-1.03-.11,.98-1.39,.75-1.74,1.03Z"/><path class="cls-10" d="M24.7,17.36c.67-.63,.86-.42,1.42-.3-.66,.53-1.07,.58-1.42,.3"/><path class="cls-16" d="M24.7,17.36c.67-.63,.86-.42,1.42-.3-.66,.53-1.07,.58-1.42,.3Z"/><path class="cls-10" d="M23.68,17.53c.39-1.38,1.32-.66,1.73-1.03-.1,.97-1.4,.74-1.73,1.03"/><path class="cls-16" d="M23.68,17.53c.39-1.38,1.32-.66,1.73-1.03-.1,.97-1.4,.74-1.73,1.03Z"/><path class="cls-10" d="M23.89,17.61c1.11-.74,1.48,.12,2.03,.05-.64,.59-1.58-.1-2.03-.05"/><path class="cls-16" d="M23.89,17.61c1.11-.74,1.48,.12,2.03,.05-.64,.59-1.58-.1-2.03-.05Z"/><path class="cls-10" d="M20.89,13.46c.04,.81-.6,.87-1.31,1.3,.19-.59,.52-.96,1.31-1.3"/><path class="cls-16" d="M20.89,13.46c.04,.81-.6,.87-1.31,1.3,.19-.59,.52-.96,1.31-1.3Z"/><path class="cls-10" d="M19.69,13.34c-1.02,1.05-.23,1.45-.43,1.99,.75-.61,.27-1.56,.43-1.99"/><path class="cls-16" d="M19.69,13.34c-1.02,1.05-.23,1.45-.43,1.99,.75-.61,.27-1.56,.43-1.99Z"/><path class="cls-10" d="M21.05,14.12c-.19,1.13-.45,.79-1.07,1.22,.31-.78,.41-.95,1.07-1.22"/><path class="cls-16" d="M21.05,14.12c-.19,1.13-.45,.79-1.07,1.22,.31-.78,.41-.95,1.07-1.22Z"/><path class="cls-10" d="M19.54,16.4c.57-1.36-.49-1.4-.55-1.98-.51,.85,.5,1.54,.55,1.98"/><path class="cls-16" d="M19.54,16.4c.57-1.36-.49-1.4-.55-1.98-.51,.85,.5,1.54,.55,1.98Z"/><path class="cls-10" d="M20.46,16.84c-.83-1.09,.19-1.24,.13-1.72,.67,.66-.17,1.33-.13,1.72"/><path class="cls-16" d="M20.46,16.84c-.83-1.09,.19-1.24,.13-1.72,.67,.66-.17,1.33-.13,1.72Z"/><path class="cls-10" d="M19.73,14.93c.73,.88,.32,.84,.25,1.58-.41-.74-.46-.93-.25-1.58"/><path class="cls-16" d="M19.73,14.93c.73,.88,.32,.84,.25,1.58-.41-.74-.46-.93-.25-1.58Z"/><path class="cls-10" d="M20.56,17.21c-.4-1.25-1.24-.79-1.63-1.18,.12,.85,1.3,.88,1.63,1.18"/><path class="cls-16" d="M20.56,17.21c-.4-1.25-1.24-.79-1.63-1.18,.12,.85,1.3,.88,1.63,1.18Z"/><path class="cls-10" d="M21.39,17.13c-.48-.77-.73-.61-1.31-.63,.52,.66,.89,.82,1.31,.63"/><path class="cls-16" d="M21.39,17.13c-.48-.77-.73-.61-1.31-.63,.52,.66,.89,.82,1.31,.63Z"/><path class="cls-10" d="M21.8,17.34c-.98-.89-1.48-.09-2.02-.24,.55,.67,1.59,.12,2.02,.24"/><path class="cls-16" d="M21.8,17.34c-.98-.89-1.48-.09-2.02-.24,.55,.67,1.59,.12,2.02,.24Z"/><path class="cls-10" d="M21.6,17.38c.51-1.17-.55-1.15-.62-1.64-.48,.74,.56,1.26,.62,1.64"/><path class="cls-16" d="M21.6,17.38c.51-1.17-.55-1.15-.62-1.64-.48,.74,.56,1.26,.62,1.64Z"/><path class="cls-10" d="M22.55,17.47c-.66-.63-.86-.42-1.42-.3,.68,.52,1.07,.58,1.42,.3"/><path class="cls-16" d="M22.55,17.47c-.66-.63-.86-.42-1.42-.3,.68,.52,1.07,.58,1.42,.3Z"/><path class="cls-10" d="M23.57,17.64c-.39-1.37-1.32-.66-1.74-1.02,.11,.97,1.41,.74,1.74,1.02"/><path class="cls-16" d="M23.57,17.64c-.39-1.37-1.32-.66-1.74-1.02,.11,.97,1.41,.74,1.74,1.02Z"/><path class="cls-10" d="M23.37,17.73c-1.11-.74-1.49,.11-2.04,.04,.64,.6,1.59-.09,2.04-.04"/><path class="cls-16" d="M23.37,17.73c-1.11-.74-1.49,.11-2.04,.04,.64,.6,1.59-.09,2.04-.04Z"/><path class="cls-10" d="M23.98,11.89c.99-.35,1.12,.29,1.57,.32-.6,.33-1.22-.29-1.57-.32"/><path class="cls-16" d="M23.98,11.89c.99-.35,1.12,.29,1.57,.32-.6,.33-1.22-.29-1.57-.32Z"/><path class="cls-10" d="M24.92,11.7c1.12-.12,1.09,.59,1.54,.74-.71,.17-1.19-.63-1.54-.74"/><path class="cls-16" d="M24.92,11.7c1.12-.12,1.09,.59,1.54,.74-.71,.17-1.19-.63-1.54-.74Z"/><path class="cls-10" d="M23.6,13c1.02,.58,1.3-.11,1.79-.06-.59-.47-1.4,.09-1.79,.06"/><path class="cls-16" d="M23.6,13c1.02,.58,1.3-.11,1.79-.06-.59-.47-1.4,.09-1.79,.06Z"/><path class="cls-10" d="M24.92,13.22c.86,.76,1.29,.15,1.77,.29-.49-.57-1.4-.18-1.77-.29"/><path class="cls-16" d="M24.92,13.22c.86,.76,1.29,.15,1.77,.29-.49-.57-1.4-.18-1.77-.29Z"/><path class="cls-10" d="M23.51,12.37c.97,.65,1.24,.27,1.99,.14-.78-.33-1.33-.4-1.99-.14"/><path class="cls-16" d="M23.51,12.37c.97,.65,1.24,.27,1.99,.14-.78-.33-1.33-.4-1.99-.14Z"/><path class="cls-10" d="M25.09,12.38c.66,.94,.74,.55,1.49,.68-.61-.58-.78-.69-1.49-.68"/><path class="cls-16" d="M25.09,12.38c.66,.94,.74,.55,1.49,.68-.61-.58-.78-.69-1.49-.68Z"/><path class="cls-10" d="M26.27,12.26c1.4,.49,.88,1.2,1.32,1.58-.96-.21-.98-1.26-1.32-1.58"/><path class="cls-16" d="M26.27,12.26c1.4,.49,.88,1.2,1.32,1.58-.96-.21-.98-1.26-1.32-1.58Z"/><path class="cls-10" d="M23.08,12c-.99-.35-1.13,.29-1.56,.33,.6,.32,1.21-.3,1.56-.33"/><path class="cls-16" d="M23.08,12c-.99-.35-1.13,.29-1.56,.33,.6,.32,1.21-.3,1.56-.33Z"/><path class="cls-10" d="M22.33,11.81c-1.12-.12-1.09,.6-1.54,.74,.71,.18,1.19-.61,1.54-.74"/><path class="cls-16" d="M22.33,11.81c-1.12-.12-1.09,.6-1.54,.74,.71,.18,1.19-.61,1.54-.74Z"/><path class="cls-10" d="M23.66,13.11c-1.01,.58-1.3-.11-1.8-.06,.6-.47,1.4,.08,1.8,.06"/><path class="cls-16" d="M23.66,13.11c-1.01,.58-1.3-.11-1.8-.06,.6-.47,1.4,.08,1.8,.06Z"/><path class="cls-10" d="M22.34,13.33c-.87,.77-1.3,.15-1.78,.3,.49-.58,1.4-.2,1.78-.3"/><path class="cls-16" d="M22.34,13.33c-.87,.77-1.3,.15-1.78,.3,.49-.58,1.4-.2,1.78-.3Z"/><path class="cls-10" d="M23.74,12.47c-.96,.65-1.24,.28-1.99,.15,.79-.34,1.34-.4,1.99-.15"/><path class="cls-16" d="M23.74,12.47c-.96,.65-1.24,.28-1.99,.15,.79-.34,1.34-.4,1.99-.15Z"/><path class="cls-10" d="M22.17,12.5c-.66,.94-.74,.55-1.5,.68,.62-.59,.79-.69,1.5-.68"/><path class="cls-16" d="M22.17,12.5c-.66,.94-.74,.55-1.5,.68,.62-.59,.79-.69,1.5-.68Z"/><path class="cls-10" d="M20.98,12.38c-1.39,.49-.88,1.19-1.31,1.58,.95-.2,.98-1.26,1.31-1.58"/><path class="cls-16" d="M20.98,12.38c-1.39,.49-.88,1.19-1.31,1.58,.95-.2,.98-1.26,1.31-1.58Z"/><path class="cls-10" d="M23.94,11.94c-.96,.66-.9,.27-1.65,.16,.79-.36,.98-.4,1.65-.16"/><path class="cls-16" d="M23.94,11.94c-.96,.66-.9,.27-1.65,.16,.79-.36,.98-.4,1.65-.16Z"/><path class="cls-9" d="M37.87,11.04l.27,.29-.82,.72c-.13,.11-.21,.19-.24,.23-.05,.07-.08,.14-.07,.22,0,.09,.05,.16,.13,.25,.08,.08,.15,.13,.23,.14,.08,.02,.15,0,.2-.04,.06-.03,.15-.1,.27-.21l.84-.72,.27,.29-.79,.7c-.18,.15-.32,.26-.41,.31-.09,.05-.18,.08-.27,.08s-.19-.02-.29-.06c-.1-.04-.19-.12-.31-.24-.13-.14-.21-.26-.24-.36-.03-.11-.04-.2-.03-.28,.01-.1,.05-.17,.1-.23,.06-.1,.18-.22,.35-.36l.81-.71Zm-1.91-.58l.23,.2c.14,.13,.24,.21,.29,.23,.05,.02,.09,.03,.14,.01,.05-.01,.1-.03,.13-.07,.05-.04,.08-.1,.08-.15,0-.06-.02-.11-.06-.16-.02-.03-.09-.1-.21-.2l-.24-.22-.36,.37Zm-1.1,.55l1.4-1.43,.63,.57c.16,.14,.26,.26,.31,.35,.05,.09,.06,.19,.04,.29-.02,.11-.07,.2-.15,.29-.11,.1-.23,.16-.36,.17-.13,.02-.28-.03-.42-.13,.03,.1,.05,.19,.05,.27,0,.08-.02,.21-.06,.39l-.09,.44-.37-.32,.09-.51c.03-.18,.04-.3,.04-.36,0-.05,0-.1-.03-.14-.02-.04-.07-.08-.14-.15l-.06-.06-.58,.61-.3-.29Zm-1.54-1.08l1.23-1.57,1.21,.88-.21,.26-.88-.64-.27,.35,.83,.6-.22,.26-.81-.59-.34,.43,.92,.67-.21,.27-1.24-.91Zm-.48-2.15l-.28,.49,.19,.11c.15,.06,.25,.11,.31,.12,.06,0,.12,0,.16-.03,.05-.03,.09-.06,.12-.11,.03-.06,.04-.12,.03-.18-.01-.06-.05-.11-.1-.16-.03-.03-.12-.08-.25-.15l-.17-.09Zm-1.18,1.24l.99-1.72,.57,.31c.22,.12,.36,.21,.41,.26,.09,.08,.14,.18,.16,.31,.02,.12,0,.26-.09,.39-.05,.11-.12,.19-.21,.23-.09,.06-.17,.08-.25,.1-.09,0-.17,0-.24-.02-.09-.03-.22-.09-.39-.17l-.23-.13-.37,.65-.36-.19Zm-2.33-.93l.69-1.84,.39,.14-.58,1.52,.96,.34-.12,.31-1.35-.47Zm-1.85-.49l.49-1.91,1.47,.35-.09,.32-1.06-.25-.12,.43,1,.24-.09,.32-.99-.24-.14,.52,1.11,.27-.08,.33-1.51-.36Zm-1.38-1.89l-.19,1.3,.3,.04c.12,.02,.2,.02,.25,.02,.07-.02,.13-.03,.18-.06,.05-.04,.09-.09,.13-.17,.04-.08,.08-.21,.1-.35,.02-.16,.02-.27,0-.35-.02-.08-.04-.15-.08-.21-.05-.06-.11-.09-.18-.12-.05-.02-.17-.04-.33-.06l-.18-.02Zm-.36-.39l.75,.1c.17,.02,.29,.06,.37,.09,.12,.05,.21,.13,.28,.22,.08,.1,.12,.21,.15,.35,.03,.12,.03,.28,0,.47-.02,.15-.06,.29-.12,.4-.07,.14-.16,.24-.27,.32-.08,.05-.18,.09-.31,.12-.1,.02-.21,.02-.37-.01l-.77-.11,.28-1.95Zm-2.08,1.1l-.3-.72-.26,.74,.55-.03Zm.79,.77h-.45l-.19-.43-.81,.03-.16,.45h-.43l.73-1.99h.43l.89,1.94Zm-2.68-.62l.42,.07c-.03,.23-.11,.39-.24,.52-.13,.12-.29,.19-.51,.23-.28,.03-.5-.02-.7-.18-.19-.15-.32-.39-.37-.7-.05-.32,0-.58,.15-.78,.15-.2,.36-.32,.64-.36,.26-.04,.46,0,.64,.13,.1,.07,.19,.18,.26,.33l-.39,.15c-.04-.1-.1-.18-.18-.22-.09-.05-.19-.07-.3-.06-.14,.02-.26,.09-.34,.21-.08,.11-.1,.29-.07,.52,.03,.25,.1,.41,.21,.5,.11,.09,.23,.13,.38,.11,.11-.02,.19-.06,.26-.13,.07-.08,.11-.19,.13-.34m-1.99,1.07l-.49-1.91,.4-.1,.49,1.92-.4,.09Zm-1.64,.46l-.59-1.88,.4-.11,.49,1.56,.98-.29,.11,.31-1.38,.41Zm-1.9-.19l.21,.49,.35-.15c.14-.06,.22-.09,.26-.12,.06-.02,.09-.07,.11-.13,.02-.05,0-.11-.02-.17-.03-.06-.06-.09-.1-.12-.04-.03-.09-.04-.16-.04-.06,0-.17,.04-.35,.12l-.3,.12Zm-.31-.72l.17,.42,.26-.1c.15-.07,.24-.1,.27-.12,.07-.03,.11-.08,.13-.12,.01-.05,.01-.11-.02-.17-.02-.06-.05-.09-.11-.12-.04-.02-.1-.02-.16,0-.04,.02-.15,.05-.32,.13l-.22,.09Zm-.51-.15l.75-.31c.15-.06,.26-.1,.34-.12,.07-.02,.15-.02,.23,0,.07,.02,.15,.05,.21,.09,.07,.05,.12,.11,.16,.2,.03,.08,.05,.17,.03,.26-.02,.09-.05,.17-.12,.25,.12-.02,.24,0,.34,.05,.09,.04,.16,.13,.21,.23,.04,.08,.05,.17,.05,.27,0,.09-.03,.18-.08,.25-.05,.07-.12,.14-.21,.19-.07,.03-.22,.09-.46,.19l-.64,.26-.79-1.82Zm-2.01,1.04l.36-.2,.53,.94c.09,.14,.14,.24,.18,.28,.06,.06,.12,.09,.21,.11,.08,.02,.17,0,.28-.05,.1-.05,.17-.12,.19-.2,.03-.06,.03-.13,0-.19-.03-.06-.08-.16-.15-.3l-.55-.95,.36-.2,.52,.91c.12,.21,.19,.36,.22,.45,.03,.1,.03,.19,.02,.28-.02,.08-.06,.17-.13,.25-.07,.08-.18,.16-.32,.23-.17,.1-.3,.15-.42,.16-.1,0-.21,0-.29-.04-.08-.03-.16-.08-.21-.14-.08-.08-.18-.22-.29-.42l-.53-.92Zm-1.22,1.25l.35,.45,.18-.13c.13-.1,.22-.17,.25-.21,.03-.05,.04-.1,.04-.15,0-.05-.03-.1-.06-.15-.05-.06-.1-.09-.17-.11-.07,0-.13,0-.19,.03-.03,.02-.12,.08-.24,.16l-.16,.12Zm.69,1.55l-1.23-1.58,.54-.38c.2-.14,.33-.23,.4-.26,.11-.05,.23-.05,.36-.02,.12,.03,.23,.11,.33,.24,.08,.09,.12,.19,.14,.29,.02,.09,0,.18-.02,.25-.02,.08-.06,.14-.11,.2-.07,.07-.17,.16-.32,.27l-.22,.16,.46,.58-.33,.25Zm-1.43,1.22l-1.39-1.44,1.1-1,.24,.24-.81,.73,.31,.32,.74-.68,.24,.24-.75,.68,.38,.39,.83-.74,.23,.23-1.13,1.04Zm-2.01,.38l.21-.22c.13-.14,.2-.23,.22-.29,.02-.04,.02-.08,0-.13,0-.04-.04-.09-.09-.12-.05-.05-.1-.07-.16-.07-.06,0-.11,.02-.16,.06-.03,.03-.09,.09-.21,.21l-.22,.22,.38,.34Zm.61,1.06l-1.53-1.32,.59-.63c.15-.15,.26-.26,.36-.3,.1-.05,.2-.07,.31-.05,.11,.02,.21,.07,.3,.15,.11,.09,.17,.21,.19,.34,.01,.12-.04,.26-.14,.41,.1-.03,.19-.04,.28-.05,.09,0,.22,.01,.41,.04l.45,.08-.33,.36-.53-.07c-.18-.03-.31-.05-.36-.04-.06,0-.11,0-.16,.03-.04,.02-.09,.07-.16,.13l-.05,.06,.63,.55-.27,.3Z"/><polygon class="cls-15" points="13.97 7.6 13.93 7.19 14.21 7.03 14.14 7.51 13.97 7.6"/><polygon class="cls-15" points="38.44 11.45 38.84 11.33 39.06 11.57 38.56 11.6 38.44 11.45"/></g><g><path class="cls-1" d="M104.1,26.21s0,.06-.02,.09c-.02,.02-.05,.05-.09,.06-.04,.01-.1,.03-.16,.04-.06,.01-.15,.02-.26,.02-.1,0-.18,0-.25-.02-.07,0-.12-.02-.16-.04-.04-.02-.07-.04-.09-.06-.02-.02-.02-.05-.02-.09v-7.02h0l-2.84,7.06s-.03,.05-.06,.07c-.02,.02-.05,.04-.1,.05-.04,.02-.09,.03-.15,.03-.06,0-.13,0-.21,0-.09,0-.16,0-.23-.01-.06,0-.11-.02-.16-.03-.03-.02-.07-.04-.09-.05-.03-.02-.04-.04-.05-.06l-2.72-7.06h0v7.02s0,.06-.02,.09c-.02,.02-.05,.05-.09,.06-.05,.01-.1,.03-.17,.04-.07,.01-.15,.02-.26,.02s-.19,0-.26-.02c-.07,0-.12-.02-.16-.04-.04-.02-.07-.04-.08-.06-.02-.02-.02-.05-.02-.09v-7.42c0-.17,.05-.3,.14-.37,.1-.08,.2-.12,.31-.12h.66c.14,0,.25,.01,.36,.04,.1,.02,.18,.06,.26,.12,.07,.05,.14,.12,.19,.2,.05,.08,.09,.18,.13,.29l2.31,5.84h.03l2.4-5.82c.05-.13,.1-.23,.15-.32,.06-.09,.11-.16,.18-.2,.07-.06,.14-.09,.22-.12,.08-.02,.17-.03,.28-.03h.68c.06,0,.12,.01,.18,.03,.06,.02,.11,.05,.15,.09,.04,.04,.07,.09,.1,.15,.02,.06,.03,.14,.03,.22v7.42Z"/><path class="cls-1" d="M107.28,18.71c0,.24-.04,.4-.14,.49-.09,.09-.26,.13-.5,.13s-.41-.04-.49-.13c-.09-.08-.14-.24-.14-.48s.05-.41,.14-.49c.09-.09,.26-.13,.5-.13s.41,.04,.5,.13c.09,.09,.13,.25,.13,.49m-.12,7.5s0,.06-.02,.08c-.02,.03-.05,.04-.09,.06-.03,.02-.09,.03-.15,.04-.06,.01-.15,.01-.26,.01-.1,0-.18,0-.24-.01-.07,0-.12-.02-.16-.04-.04-.02-.07-.04-.08-.06-.02-.02-.03-.05-.03-.08v-5.61s0-.05,.03-.08c0-.02,.03-.04,.08-.06,.04-.02,.09-.03,.16-.04,.06,0,.14,0,.24,0,.11,0,.19,0,.26,0,.06,0,.12,.02,.15,.04,.04,.02,.07,.04,.09,.06,.02,.02,.02,.05,.02,.08v5.61Z"/><path class="cls-1" d="M113.89,26.21s0,.06-.02,.08c-.02,.03-.05,.04-.08,.06-.03,.02-.09,.03-.16,.04-.06,.01-.15,.01-.25,.01s-.19,0-.25-.01c-.06,0-.11-.02-.15-.04-.04-.02-.07-.04-.08-.06-.02-.02-.02-.05-.02-.08v-3.28c0-.32-.03-.58-.08-.77-.05-.2-.12-.36-.22-.5-.09-.14-.22-.25-.37-.32-.15-.08-.33-.11-.53-.11-.25,0-.52,.09-.77,.27-.26,.19-.53,.45-.81,.8v3.92s0,.06-.03,.08c-.01,.03-.04,.04-.08,.06-.03,.02-.09,.03-.15,.04-.06,.01-.15,.01-.25,.01s-.18,0-.25-.01c-.06,0-.12-.02-.16-.04-.04-.02-.06-.04-.08-.06-.01-.02-.02-.05-.02-.08v-5.61s0-.06,.02-.08c0-.02,.03-.04,.07-.06,.04-.02,.09-.03,.15-.04,.06,0,.14,0,.23,0s.17,0,.23,0c.06,0,.11,.02,.15,.04,.03,.02,.06,.04,.07,.06,.01,.02,.02,.05,.02,.08v.74c.32-.35,.63-.61,.94-.77,.31-.17,.63-.25,.95-.25,.37,0,.69,.06,.94,.19,.25,.13,.46,.3,.62,.51,.15,.22,.27,.46,.34,.74,.07,.28,.1,.63,.1,1.02v3.42Z"/><path class="cls-1" d="M116.92,18.71c0,.24-.05,.4-.14,.49-.1,.09-.26,.13-.51,.13s-.41-.04-.49-.13c-.09-.08-.14-.24-.14-.48s.05-.41,.14-.49c.09-.09,.26-.13,.5-.13s.41,.04,.5,.13c.09,.09,.13,.25,.13,.49m-.12,7.5s0,.06-.02,.08c-.02,.03-.04,.04-.08,.06-.04,.02-.09,.03-.15,.04-.07,.01-.15,.01-.25,.01-.11,0-.19,0-.26-.01-.06,0-.12-.02-.15-.04-.04-.02-.07-.04-.08-.06-.02-.02-.02-.05-.02-.08v-5.61s0-.05,.02-.08c.01-.02,.04-.04,.08-.06,.04-.02,.1-.03,.15-.04,.06,0,.15,0,.26,0,.1,0,.19,0,.25,0,.06,0,.11,.02,.15,.04,.04,.02,.06,.04,.08,.06,.02,.02,.02,.05,.02,.08v5.61Z"/><path class="cls-1" d="M122.22,24.69c0,.29-.05,.55-.16,.77-.11,.22-.26,.41-.45,.57-.2,.15-.43,.27-.7,.34-.27,.08-.57,.12-.89,.12-.2,0-.39-.02-.58-.05-.17-.03-.34-.08-.48-.12-.15-.05-.27-.1-.37-.15-.1-.05-.18-.1-.22-.14-.04-.04-.08-.1-.1-.18-.02-.07-.03-.17-.03-.3,0-.08,0-.15,.01-.2,0-.05,.02-.1,.03-.13,0-.03,.03-.06,.05-.07,.02-.02,.05-.02,.08-.02,.04,0,.11,.03,.2,.08,.09,.06,.2,.12,.33,.18,.14,.07,.29,.13,.46,.18,.18,.06,.39,.09,.62,.09,.18,0,.33-.02,.48-.05,.14-.04,.26-.09,.36-.16,.1-.07,.19-.17,.24-.28,.05-.12,.09-.25,.09-.4s-.05-.29-.12-.4c-.08-.11-.19-.2-.32-.29-.13-.08-.28-.16-.45-.22-.16-.07-.33-.13-.51-.2-.18-.07-.35-.15-.52-.24-.16-.09-.32-.19-.45-.32-.13-.13-.24-.28-.32-.46-.08-.18-.12-.39-.12-.64,0-.22,.04-.43,.13-.63,.08-.2,.21-.38,.38-.53,.17-.15,.38-.27,.64-.36,.25-.09,.56-.14,.89-.14,.15,0,.3,.01,.45,.04,.15,.02,.29,.06,.41,.1,.12,.03,.22,.08,.31,.12,.08,.05,.15,.09,.19,.12,.04,.04,.07,.07,.08,.09,.02,.03,.03,.06,.04,.09,0,.03,.01,.07,.02,.11,0,.04,0,.1,0,.17s0,.13,0,.18c0,.05-.02,.1-.03,.13,0,.03-.03,.06-.05,.07-.02,.01-.04,.02-.07,.02-.04,0-.1-.02-.16-.07-.07-.05-.17-.09-.28-.15-.11-.05-.25-.1-.4-.15-.15-.05-.32-.07-.52-.07-.17,0-.33,.02-.46,.06-.13,.04-.24,.1-.33,.17-.08,.07-.15,.16-.19,.26-.04,.1-.06,.2-.06,.32,0,.16,.04,.3,.12,.41,.08,.11,.19,.21,.33,.29s.28,.16,.45,.23c.17,.07,.35,.13,.52,.2,.18,.08,.35,.15,.52,.24,.17,.09,.32,.2,.46,.32,.13,.12,.24,.28,.33,.45,.08,.18,.12,.38,.12,.63"/><path class="cls-1" d="M126.61,25.81c0,.12-.01,.22-.03,.28-.02,.07-.04,.12-.07,.15-.03,.04-.09,.06-.15,.1-.06,.03-.14,.05-.23,.07-.08,.02-.17,.03-.28,.05-.09,.02-.19,.02-.28,.02-.29,0-.54-.04-.75-.11-.21-.08-.38-.19-.51-.35-.13-.16-.23-.36-.29-.6-.06-.24-.09-.52-.09-.84v-3.28h-.78c-.06,0-.11-.03-.15-.1-.03-.06-.06-.17-.06-.32,0-.08,0-.15,.02-.2,0-.05,.02-.1,.04-.14,.02-.03,.04-.06,.06-.07,.03-.02,.06-.02,.09-.02h.78v-1.33s.01-.06,.03-.08c.01-.03,.04-.05,.08-.07,.04-.02,.1-.03,.16-.04,.07,0,.15,0,.25,0,.11,0,.19,0,.25,0,.07,0,.12,.02,.15,.04,.04,.02,.07,.04,.09,.07,.01,.02,.02,.05,.02,.08v1.33h1.44s.06,0,.09,.02c.02,.01,.04,.04,.06,.07,.02,.04,.03,.08,.04,.14,0,.05,.01,.12,.01,.2,0,.15-.02,.26-.06,.32-.03,.07-.09,.1-.15,.1h-1.44v3.13c0,.39,.06,.68,.18,.88,.11,.2,.32,.3,.61,.3,.1,0,.18,0,.26-.03,.07-.02,.14-.04,.2-.06,.06-.02,.11-.04,.15-.06,.03-.02,.07-.03,.11-.03,.02,0,.04,0,.06,.02,.02,.01,.03,.03,.05,.06,0,.03,.02,.06,.02,.12,0,.05,.01,.11,.01,.19"/><path class="cls-1" d="M132.75,23.16c0,.16-.04,.28-.12,.35-.09,.06-.18,.1-.28,.1h-3.69c0,.31,.03,.59,.09,.84,.06,.25,.17,.47,.31,.64,.15,.18,.34,.31,.57,.41,.24,.09,.52,.14,.86,.14,.27,0,.51-.02,.72-.07,.2-.04,.39-.09,.54-.15,.15-.06,.28-.1,.38-.15,.09-.04,.17-.06,.22-.06,.02,0,.05,0,.08,.02,.02,0,.03,.03,.05,.06,.02,.03,.02,.07,.02,.12,0,.05,0,.12,0,.19,0,.06,0,.1,0,.14,0,.04,0,.07,0,.11,0,.03-.02,.06-.03,.08-.02,.03-.03,.05-.05,.07-.03,.02-.1,.06-.2,.11-.11,.05-.26,.1-.44,.15-.17,.05-.38,.1-.62,.13-.24,.04-.49,.06-.76,.06-.46,0-.86-.06-1.21-.2-.35-.13-.64-.31-.88-.57-.24-.26-.42-.57-.54-.95-.12-.39-.18-.83-.18-1.33s.06-.92,.19-1.3c.12-.38,.31-.71,.54-.98,.24-.27,.52-.47,.85-.62,.33-.14,.7-.21,1.11-.21,.44,0,.82,.07,1.13,.21,.31,.14,.56,.33,.76,.57,.2,.24,.35,.52,.44,.84,.09,.33,.14,.67,.14,1.04v.18Zm-1.03-.3c.01-.54-.11-.96-.37-1.27-.25-.31-.62-.46-1.12-.46-.26,0-.48,.05-.67,.14-.19,.1-.35,.22-.48,.38-.14,.15-.24,.35-.3,.55-.07,.21-.11,.43-.12,.66h3.06Z"/><path class="cls-1" d="M137.6,20.97c0,.09,0,.17,0,.24,0,.06-.01,.11-.03,.14-.01,.03-.02,.06-.04,.08-.02,.02-.04,.03-.08,.03s-.07,0-.12-.03c-.05-.02-.11-.04-.16-.06-.06-.02-.12-.04-.2-.05-.08-.02-.16-.03-.24-.03-.11,0-.21,.02-.3,.06-.11,.04-.2,.11-.32,.2-.11,.1-.23,.22-.35,.38-.12,.16-.25,.35-.4,.58v3.69s0,.06-.02,.08c-.01,.03-.04,.04-.08,.06-.04,.02-.1,.03-.15,.04-.07,.01-.16,.01-.26,.01s-.18,0-.25-.01c-.07,0-.12-.02-.16-.04-.04-.02-.07-.04-.08-.06-.01-.02-.02-.05-.02-.08v-5.61s.01-.06,.02-.08c.02-.02,.04-.04,.08-.06,.04-.02,.08-.03,.14-.04,.06,0,.14,0,.23,0s.17,0,.23,0c.06,0,.11,.02,.15,.04,.03,.02,.06,.04,.07,.06,.01,.02,.02,.05,.02,.08v.82c.15-.23,.3-.41,.44-.55,.13-.14,.26-.26,.38-.34,.12-.08,.24-.14,.36-.17,.11-.03,.24-.05,.36-.05,.06,0,.11,0,.19,0,.07,0,.14,.02,.22,.04,.07,.01,.14,.03,.2,.06,.06,.02,.1,.04,.13,.06,.02,.02,.04,.04,.05,.06,0,.02,.02,.04,.03,.07,0,.03,0,.07,0,.13,0,.06,0,.13,0,.23"/><path class="cls-1" d="M139.91,18.71c0,.24-.05,.4-.14,.49-.09,.09-.26,.13-.5,.13s-.4-.04-.49-.13c-.09-.08-.14-.24-.14-.48s.05-.41,.14-.49c.09-.09,.26-.13,.5-.13s.41,.04,.5,.13c.09,.09,.13,.25,.13,.49m-.12,7.5s0,.06-.03,.08c-.02,.03-.04,.04-.07,.06-.04,.02-.1,.03-.16,.04-.06,.01-.15,.01-.25,.01-.1,0-.18,0-.25-.01-.06,0-.12-.02-.15-.04-.04-.02-.07-.04-.08-.06-.02-.02-.02-.05-.02-.08v-5.61s0-.05,.02-.08c.02-.02,.04-.04,.08-.06,.04-.02,.09-.03,.15-.04,.06,0,.15,0,.25,0,.11,0,.19,0,.25,0,.07,0,.12,.02,.16,.04,.03,.02,.06,.04,.07,.06,.02,.02,.03,.05,.03,.08v5.61Z"/><path class="cls-1" d="M146.91,23.34c0,.46-.06,.88-.18,1.26-.12,.39-.3,.72-.54,.99-.24,.28-.54,.5-.89,.65-.36,.16-.77,.24-1.25,.24s-.86-.07-1.2-.2c-.34-.14-.63-.34-.85-.6-.23-.26-.4-.58-.51-.95-.11-.37-.17-.8-.17-1.27s.06-.88,.18-1.26c.11-.39,.29-.71,.53-.99,.24-.28,.54-.5,.9-.65,.35-.16,.77-.23,1.25-.23s.86,.07,1.2,.21,.63,.34,.86,.6c.23,.26,.4,.58,.51,.96,.11,.37,.18,.79,.18,1.26m-1.07,.07c0-.3-.02-.59-.08-.86-.06-.27-.16-.51-.28-.71-.13-.2-.31-.37-.53-.48-.22-.12-.5-.18-.83-.18-.31,0-.57,.05-.8,.16-.21,.11-.4,.26-.54,.46-.14,.2-.25,.43-.32,.7-.07,.27-.1,.57-.1,.89s.03,.6,.08,.87c.06,.27,.16,.5,.29,.7,.13,.2,.3,.36,.52,.48,.23,.11,.5,.17,.84,.17,.3,0,.56-.05,.78-.16,.22-.11,.41-.26,.55-.46,.14-.19,.24-.43,.31-.7,.06-.27,.1-.57,.1-.89"/><path class="cls-1" d="M100.03,36.81s0,.06-.03,.09c0,.03-.03,.04-.06,.06-.04,.01-.09,.03-.15,.04-.06,0-.13,.01-.21,.01s-.16,0-.22-.01c-.06,0-.1-.02-.14-.04-.04-.01-.07-.03-.08-.06-.02-.03-.02-.05-.02-.09v-.75c-.3,.32-.6,.57-.92,.75-.32,.18-.67,.27-1.04,.27-.41,0-.76-.08-1.05-.24-.29-.16-.52-.38-.71-.65-.18-.27-.31-.59-.4-.96-.08-.36-.12-.76-.12-1.16,0-.48,.05-.92,.16-1.31,.11-.39,.26-.72,.46-.99,.21-.27,.46-.48,.76-.63,.3-.15,.65-.22,1.04-.22,.33,0,.63,.07,.9,.22,.27,.14,.54,.36,.81,.63v-3.26s0-.06,.02-.08c.02-.03,.05-.05,.08-.07,.04-.01,.1-.02,.16-.03,.06,0,.15-.02,.24-.02,.11,0,.19,0,.26,.02,.07,0,.12,.02,.16,.03,.04,.02,.06,.04,.08,.07,.02,.03,.03,.05,.03,.08v8.31Zm-1.03-3.95c-.28-.34-.55-.6-.81-.78-.26-.18-.53-.27-.81-.27-.26,0-.49,.06-.67,.18-.19,.12-.33,.29-.45,.5-.11,.2-.2,.43-.25,.69-.04,.26-.07,.52-.07,.79s.02,.56,.06,.83c.04,.27,.12,.51,.23,.72,.1,.22,.25,.38,.43,.51,.17,.12,.4,.19,.67,.19,.14,0,.27-.02,.39-.06,.13-.04,.26-.09,.39-.18,.14-.09,.28-.2,.42-.34s.29-.31,.46-.52v-2.25Z"/><path class="cls-1" d="M106.71,33.76c0,.16-.04,.27-.12,.34-.09,.07-.18,.11-.28,.11h-3.69c0,.31,.03,.59,.09,.84,.06,.25,.17,.47,.31,.64,.15,.18,.34,.32,.57,.41,.23,.1,.52,.15,.86,.15,.26,0,.5-.02,.71-.07,.21-.04,.39-.09,.54-.15,.15-.05,.28-.1,.38-.14,.1-.05,.17-.06,.22-.06,.03,0,.06,0,.08,.02,.02,.02,.04,.04,.06,.06,.01,.03,.02,.07,.03,.12,0,.05,0,.11,0,.19,0,.05,0,.1,0,.14,0,.04,0,.08-.02,.11,0,.03-.02,.06-.03,.09-.02,.02-.04,.05-.06,.07-.02,.02-.09,.06-.2,.11-.11,.05-.26,.1-.44,.15-.18,.05-.39,.09-.63,.13-.23,.04-.48,.06-.75,.06-.46,0-.86-.06-1.21-.19-.35-.13-.64-.32-.88-.57-.24-.25-.41-.57-.53-.95-.12-.38-.18-.83-.18-1.33s.06-.92,.19-1.3c.12-.39,.3-.71,.54-.98,.24-.27,.52-.47,.85-.61,.33-.14,.71-.22,1.11-.22,.44,0,.81,.07,1.13,.21,.31,.14,.56,.33,.76,.57,.2,.24,.35,.52,.44,.85,.1,.32,.14,.66,.14,1.03v.19Zm-1.03-.31c.01-.54-.11-.96-.36-1.27-.25-.31-.63-.46-1.13-.46-.25,0-.48,.05-.67,.14-.19,.1-.35,.22-.49,.38-.13,.16-.23,.34-.3,.55-.07,.21-.11,.43-.11,.66h3.06Z"/><path class="cls-1" d="M112.19,36.81s0,.06-.03,.08c-.02,.02-.04,.04-.09,.06-.03,.02-.08,.03-.15,.04-.07,0-.15,.01-.25,.01s-.18,0-.25-.01c-.06,0-.11-.02-.16-.04-.04-.02-.07-.04-.08-.06,0-.02-.02-.05-.02-.08v-8.33s.01-.06,.02-.09c.02-.02,.04-.04,.08-.06,.04-.02,.1-.03,.16-.04,.07,0,.15,0,.25,0s.19,0,.25,0c.07,0,.12,.02,.15,.04,.04,.02,.07,.04,.09,.06,.02,.02,.03,.06,.03,.09v8.33Z"/><path class="cls-1" d="M118.32,36.81c0,.05-.02,.09-.05,.11-.03,.03-.08,.04-.14,.06-.06,.02-.14,.02-.26,.02-.1,0-.19,0-.25-.02s-.11-.03-.14-.06c-.03-.02-.05-.06-.05-.11v-.56c-.24,.26-.52,.47-.82,.61-.3,.15-.62,.22-.95,.22-.3,0-.56-.04-.8-.11-.24-.08-.44-.19-.61-.33-.17-.15-.3-.32-.39-.54-.09-.21-.13-.45-.13-.72,0-.31,.06-.59,.19-.82,.13-.23,.31-.42,.55-.58,.24-.15,.54-.26,.89-.34,.34-.08,.75-.12,1.18-.12h.77v-.44c0-.22-.02-.41-.07-.57-.04-.17-.12-.31-.22-.42-.1-.1-.23-.19-.4-.25-.15-.05-.36-.08-.59-.08-.25,0-.48,.03-.68,.09-.21,.06-.38,.13-.53,.2-.15,.07-.28,.14-.38,.2-.11,.06-.18,.09-.23,.09-.03,0-.06-.01-.09-.02-.02-.02-.04-.04-.06-.08-.02-.03-.03-.07-.04-.13,0-.05,0-.11,0-.17,0-.1,0-.19,.02-.25,.01-.06,.05-.11,.11-.17,.06-.05,.15-.12,.29-.19,.14-.07,.3-.14,.48-.2,.18-.06,.37-.11,.59-.15,.21-.04,.42-.06,.63-.06,.4,0,.75,.05,1.03,.14,.28,.09,.51,.23,.69,.4,.17,.18,.29,.39,.38,.66,.08,.26,.12,.57,.12,.92v3.78Zm-1.02-2.56h-.88c-.28,0-.53,.02-.74,.07-.2,.05-.38,.12-.52,.21-.14,.09-.24,.2-.3,.33-.06,.13-.1,.28-.1,.46,0,.29,.1,.52,.28,.69,.19,.17,.45,.26,.78,.26,.27,0,.52-.07,.75-.2,.23-.14,.47-.35,.72-.63v-1.19Z"/><path class="cls-1" d="M128.16,31.26c0,.4-.06,.76-.2,1.09-.13,.33-.33,.6-.57,.83-.25,.23-.55,.41-.91,.53-.36,.13-.79,.19-1.29,.19h-.92v2.9s0,.06-.02,.09c-.02,.02-.05,.04-.09,.06-.03,.01-.1,.03-.16,.04-.07,.01-.15,.01-.26,.01-.1,0-.19,0-.25-.01-.08-.01-.13-.03-.17-.04-.05-.01-.07-.03-.09-.06-.02-.03-.03-.05-.03-.09v-7.45c0-.16,.05-.28,.14-.35,.09-.07,.19-.11,.29-.11h1.72c.18,0,.34,.01,.5,.02,.16,.02,.35,.05,.56,.09,.22,.04,.44,.14,.67,.27,.23,.13,.42,.29,.57,.48,.16,.19,.28,.41,.37,.67,.09,.25,.13,.52,.13,.83m-1.13,.09c0-.33-.06-.6-.18-.82-.12-.22-.28-.38-.46-.49-.18-.11-.37-.18-.56-.21-.19-.02-.38-.04-.56-.04h-.99v3.24h.97c.32,0,.59-.04,.81-.13,.21-.08,.39-.2,.54-.34,.15-.15,.26-.33,.33-.53,.07-.21,.11-.43,.11-.67"/><path class="cls-1" d="M132.96,31.57v.23c0,.06-.01,.11-.03,.15,0,.04-.02,.06-.04,.08-.02,.02-.05,.03-.08,.03-.03,0-.07-.01-.12-.03-.05-.02-.1-.04-.16-.06-.06-.01-.12-.03-.2-.05-.07-.02-.15-.03-.24-.03-.11,0-.2,.02-.3,.06-.1,.04-.21,.11-.32,.2-.11,.1-.22,.22-.35,.38-.12,.15-.25,.35-.4,.58v3.69s0,.06-.03,.08c-.02,.02-.03,.04-.07,.06-.04,.02-.1,.03-.16,.04-.07,0-.15,.01-.25,.01s-.18,0-.25-.01c-.06,0-.12-.02-.16-.04-.03-.02-.07-.04-.08-.06-.02-.02-.02-.05-.02-.08v-5.61s0-.06,.02-.08c.01-.02,.04-.04,.07-.06,.04-.02,.09-.03,.15-.04,.06,0,.13,0,.23,0s.17,0,.23,0c.06,0,.11,.02,.14,.04,.04,.02,.06,.04,.07,.06,.02,.02,.02,.05,.02,.08v.82c.15-.23,.3-.41,.43-.55,.14-.14,.26-.25,.38-.33,.12-.08,.24-.14,.36-.17,.12-.03,.24-.05,.36-.05,.05,0,.12,0,.19,0,.07,0,.14,.02,.21,.04,.08,.01,.14,.04,.2,.06,.06,.02,.11,.04,.13,.06,.02,.02,.05,.04,.06,.06,0,.02,.01,.04,.02,.07,0,.03,.01,.07,.01,.13v.23Z"/><path class="cls-1" d="M139.35,33.94c0,.46-.06,.88-.18,1.26-.12,.39-.3,.71-.54,.99-.24,.28-.54,.5-.9,.65-.36,.16-.77,.24-1.25,.24s-.86-.06-1.21-.2c-.34-.14-.63-.34-.85-.6-.23-.26-.4-.58-.52-.95-.11-.37-.16-.79-.16-1.27s.06-.88,.18-1.26c.12-.39,.29-.72,.54-1,.24-.28,.54-.49,.89-.65,.36-.15,.77-.24,1.25-.24s.86,.07,1.2,.21c.34,.14,.64,.34,.86,.6,.23,.26,.4,.58,.51,.96,.11,.37,.17,.79,.17,1.26m-1.07,.07c0-.3-.02-.59-.08-.86-.06-.27-.16-.51-.28-.71-.13-.2-.3-.37-.53-.48-.22-.12-.5-.18-.83-.18-.3,0-.57,.05-.78,.16-.23,.11-.41,.26-.55,.46-.14,.19-.25,.43-.32,.7-.07,.27-.1,.56-.1,.88s.03,.6,.08,.87c.06,.27,.15,.5,.28,.71,.13,.2,.31,.36,.53,.48,.23,.12,.51,.18,.83,.18,.3,0,.57-.06,.79-.16,.22-.11,.4-.26,.54-.46,.15-.19,.25-.43,.32-.69,.06-.27,.1-.57,.1-.9"/><path class="cls-1" d="M145.68,36.81s-.01,.06-.02,.09c-.02,.03-.05,.04-.08,.06-.03,.01-.08,.03-.14,.04-.06,0-.13,.01-.21,.01-.09,0-.16,0-.22-.01-.06,0-.1-.02-.14-.04-.04-.01-.06-.03-.08-.06,0-.03-.02-.05-.02-.09v-.75c-.29,.32-.6,.57-.92,.75-.32,.18-.67,.27-1.05,.27-.41,0-.76-.08-1.05-.24-.28-.16-.53-.38-.71-.65-.17-.27-.31-.59-.39-.96-.09-.36-.13-.76-.13-1.16,0-.48,.06-.92,.16-1.31,.1-.39,.25-.72,.46-.99,.2-.27,.46-.48,.76-.63,.3-.15,.65-.22,1.04-.22,.33,0,.63,.07,.9,.22,.27,.14,.54,.36,.81,.63v-3.26s.01-.06,.02-.08c0-.03,.04-.05,.08-.07,.04-.01,.1-.02,.16-.03,.06,0,.14-.02,.25-.02,.1,0,.19,0,.26,.02,.06,0,.11,.02,.15,.03,.03,.02,.06,.04,.08,.07,.02,.03,.03,.05,.03,.08v8.31Zm-1.04-3.95c-.28-.34-.55-.6-.81-.78-.26-.18-.53-.27-.81-.27-.26,0-.48,.06-.67,.18-.18,.12-.33,.29-.44,.5-.12,.2-.2,.43-.25,.69-.05,.26-.08,.52-.08,.79s.02,.56,.07,.83c.04,.27,.12,.51,.23,.72,.11,.22,.25,.38,.42,.51,.18,.12,.41,.19,.67,.19,.14,0,.27-.02,.4-.06,.13-.04,.26-.09,.39-.18,.13-.09,.27-.2,.41-.34,.15-.14,.3-.31,.46-.52v-2.25Z"/><path class="cls-1" d="M152.38,36.81s0,.06-.02,.08c-.01,.02-.04,.04-.07,.06-.04,.02-.09,.03-.15,.04-.06,0-.13,.01-.22,.01-.1,0-.18,0-.24-.01-.06,0-.11-.02-.14-.04-.04-.02-.06-.04-.08-.06,0-.02-.01-.05-.01-.08v-.75c-.32,.35-.64,.61-.95,.77-.32,.16-.63,.24-.95,.24-.38,0-.69-.06-.95-.18-.26-.12-.46-.29-.62-.51-.15-.21-.27-.46-.34-.75-.06-.28-.1-.63-.1-1.04v-3.41s0-.06,.02-.08c.02-.02,.04-.04,.08-.06,.04-.02,.1-.03,.16-.04,.07,0,.15,0,.25,0s.19,0,.25,0c.07,0,.12,.02,.16,.04,.04,.02,.07,.04,.08,.06,.02,.02,.03,.05,.03,.08v3.27c0,.33,.02,.59,.07,.79,.05,.2,.12,.37,.22,.5,.1,.14,.22,.25,.37,.32,.15,.08,.32,.11,.53,.11,.26,0,.51-.09,.77-.27,.26-.18,.53-.45,.81-.81v-3.92s.01-.06,.03-.08c.01-.02,.04-.04,.08-.06,.04-.02,.1-.03,.16-.04,.06,0,.15,0,.26,0,.1,0,.18,0,.24,0,.07,0,.12,.02,.16,.04,.04,.02,.06,.04,.08,.06,.02,.02,.03,.05,.03,.08v5.61Z"/><path class="cls-1" d="M158.31,35.95c0,.07,0,.13,0,.19,0,.05,0,.09-.02,.13,0,.04-.02,.07-.04,.09-.01,.03-.05,.07-.1,.12-.05,.05-.14,.12-.26,.19-.13,.08-.27,.15-.42,.21-.16,.06-.33,.11-.51,.15-.18,.04-.37,.05-.57,.05-.4,0-.76-.06-1.06-.2-.31-.13-.58-.33-.78-.58-.21-.25-.37-.57-.48-.95-.11-.37-.16-.8-.16-1.28,0-.55,.07-1.03,.2-1.42,.14-.39,.32-.72,.55-.97,.24-.26,.51-.44,.83-.57,.32-.12,.66-.18,1.03-.18,.18,0,.35,.02,.52,.05,.17,.03,.32,.08,.46,.13,.14,.05,.27,.12,.37,.19,.11,.07,.2,.13,.24,.18,.05,.05,.08,.09,.1,.12,.02,.03,.03,.06,.05,.1,.02,.04,.02,.09,.02,.13,0,.05,0,.11,0,.19,0,.16-.01,.27-.05,.34-.04,.06-.08,.1-.14,.1-.06,0-.13-.04-.22-.1-.08-.07-.18-.14-.31-.23-.12-.09-.28-.16-.46-.23-.18-.07-.39-.1-.63-.1-.5,0-.87,.19-1.14,.57-.26,.38-.39,.93-.39,1.65,0,.36,.03,.67,.11,.95,.07,.27,.16,.5,.3,.69,.13,.18,.3,.31,.49,.4,.19,.09,.41,.14,.67,.14,.24,0,.44-.04,.62-.12,.18-.07,.33-.16,.47-.24,.13-.09,.24-.17,.33-.24,.09-.07,.16-.11,.21-.11,.03,0,.05,0,.07,.02,.02,.02,.03,.04,.06,.09,0,.04,.02,.09,.02,.15,0,.06,0,.13,0,.22"/><path class="cls-1" d="M163.71,35.95c0,.07,0,.13,0,.19,0,.05,0,.09-.02,.13,0,.04-.02,.07-.03,.09-.02,.03-.05,.07-.1,.12-.05,.05-.14,.12-.26,.19-.12,.08-.27,.15-.42,.21-.15,.06-.33,.11-.5,.15-.19,.04-.38,.05-.57,.05-.41,0-.76-.06-1.08-.2-.31-.13-.57-.33-.78-.58-.2-.25-.37-.57-.48-.95-.11-.37-.16-.8-.16-1.28,0-.55,.06-1.03,.2-1.42,.14-.39,.32-.72,.56-.97,.24-.26,.5-.44,.83-.57,.32-.12,.66-.18,1.03-.18,.18,0,.35,.02,.53,.05,.16,.03,.31,.08,.46,.13,.14,.05,.27,.12,.38,.19,.11,.07,.19,.13,.24,.18,.05,.05,.09,.09,.11,.12,.02,.03,.03,.06,.05,.1,0,.04,.02,.09,.02,.13,0,.05,0,.11,0,.19,0,.16-.02,.27-.06,.34-.03,.06-.08,.1-.14,.1-.06,0-.14-.04-.22-.1-.08-.07-.19-.14-.31-.23-.12-.09-.27-.16-.45-.23-.17-.07-.39-.1-.62-.1-.5,0-.88,.19-1.14,.57-.26,.38-.4,.93-.4,1.65,0,.36,.03,.67,.1,.95,.07,.27,.17,.5,.3,.69,.13,.18,.3,.31,.49,.4,.2,.09,.41,.14,.66,.14s.45-.04,.63-.12c.18-.07,.33-.16,.46-.24,.12-.09,.24-.17,.33-.24,.09-.07,.16-.11,.21-.11,.03,0,.06,0,.07,.02,.02,.02,.04,.04,.05,.09,.01,.04,.02,.09,.03,.15,0,.06,0,.13,0,.22"/><path class="cls-1" d="M166.22,29.31c0,.24-.05,.4-.14,.49-.09,.09-.26,.13-.5,.13s-.41-.04-.5-.13c-.09-.09-.14-.24-.14-.48s.04-.4,.14-.49c.09-.09,.26-.13,.51-.13s.41,.04,.49,.13c.09,.09,.14,.25,.14,.49m-.12,7.51s0,.06-.03,.08c-.02,.02-.04,.04-.08,.06-.04,.02-.09,.03-.16,.04-.06,0-.15,.01-.25,.01s-.18,0-.25-.01c-.06,0-.12-.02-.15-.04-.04-.02-.07-.04-.08-.06-.02-.02-.02-.05-.02-.08v-5.61s0-.06,.02-.08c0-.02,.04-.04,.08-.06,.04-.01,.09-.02,.15-.04,.07,0,.15-.01,.25-.01s.19,0,.25,.01c.07,.01,.12,.02,.16,.04,.04,.02,.06,.04,.08,.06,.02,.02,.03,.05,.03,.08v5.61Z"/><path class="cls-1" d="M173.22,33.94c0,.46-.06,.88-.19,1.26-.11,.39-.3,.71-.54,.99-.24,.28-.54,.5-.9,.65-.36,.16-.77,.24-1.25,.24s-.86-.06-1.2-.2c-.34-.14-.63-.34-.86-.6-.22-.26-.39-.58-.51-.95-.11-.37-.17-.79-.17-1.27s.06-.88,.17-1.26c.12-.39,.3-.72,.54-1,.24-.28,.54-.49,.9-.65,.35-.15,.77-.24,1.25-.24s.86,.07,1.21,.21c.34,.14,.63,.34,.85,.6,.22,.26,.4,.58,.52,.96,.11,.37,.17,.79,.17,1.26m-1.07,.07c0-.3-.02-.59-.08-.86-.06-.27-.15-.51-.28-.71-.13-.2-.31-.37-.53-.48-.22-.12-.5-.18-.83-.18-.3,0-.57,.05-.78,.16-.23,.11-.4,.26-.55,.46-.14,.19-.25,.43-.32,.7-.07,.27-.1,.57-.1,.89s.02,.6,.08,.87,.15,.5,.28,.71c.13,.2,.3,.36,.53,.48,.23,.12,.5,.18,.84,.18,.29,0,.56-.06,.78-.16,.22-.11,.41-.26,.54-.46,.15-.19,.25-.43,.32-.69,.06-.27,.1-.57,.1-.9m-1.22-5.55s.05-.08,.08-.11c.03-.03,.08-.05,.12-.06,.05-.02,.11-.03,.18-.04,.07-.01,.16-.01,.25-.01,.12,0,.22,0,.29,.02,.07,.02,.13,.04,.15,.06,.03,.03,.04,.06,.04,.09,0,.03-.02,.07-.06,.11l-1.13,1.45s-.06,.08-.1,.1c-.02,.02-.06,.05-.09,.06-.03,.02-.08,.03-.14,.03-.05,0-.13,.01-.21,.01-.1,0-.17-.01-.22-.02-.05-.01-.1-.03-.12-.05-.02-.02-.03-.05-.02-.09,0-.03,.02-.07,.05-.12l.91-1.44Z"/><path class="cls-1" d="M179.56,36.81s-.01,.06-.02,.08c-.02,.02-.05,.04-.08,.06-.03,.02-.09,.03-.16,.04-.06,0-.15,.01-.24,.01-.11,0-.19,0-.26-.01-.06,0-.12-.02-.15-.04-.04-.02-.07-.04-.08-.06-.02-.02-.03-.05-.03-.08v-3.29c0-.32-.02-.57-.07-.77-.06-.2-.13-.36-.22-.5-.09-.14-.21-.25-.37-.32-.15-.08-.33-.11-.52-.11-.26,0-.52,.09-.78,.28-.25,.18-.53,.45-.81,.8v3.92s-.01,.06-.02,.08c-.02,.02-.04,.04-.09,.06-.03,.02-.09,.03-.15,.04-.06,0-.15,.01-.26,.01-.1,0-.18,0-.25-.01-.06,0-.12-.02-.16-.04-.03-.02-.06-.04-.07-.06-.02-.02-.02-.05-.02-.08v-5.61s0-.06,.02-.08c.01-.02,.04-.04,.07-.06,.04-.02,.09-.03,.15-.04,.05,0,.13,0,.23,0,.09,0,.16,0,.23,0,.05,0,.11,.02,.14,.04,.03,.02,.06,.04,.07,.06,.01,.02,.03,.05,.03,.08v.74c.31-.35,.62-.61,.93-.77,.32-.17,.63-.25,.95-.25,.37,0,.69,.07,.94,.19,.26,.13,.47,.3,.63,.51,.15,.21,.27,.46,.34,.75,.07,.28,.1,.63,.1,1.03v3.42Z"/></g></g></g></svg>