<?xml version="1.0" encoding="UTF-8"?><svg id="Capa_2" xmlns="http://www.w3.org/2000/svg" viewBox="0 0 198.84 42.84"><defs><style>.cls-1{fill:#fff;}.cls-2{fill:#2e8b73;}.cls-3{fill:#f0b143;}.cls-4{fill:#21ada3;}.cls-5{fill:#00b6eb;}.cls-6{fill:#e89055;}.cls-7{fill:#004ba5;}</style></defs><g id="Capa_1-2"><g><path class="cls-1" d="M1.69,8.67S1.4,1.99,8.88,1.67h25.38s6.69-.3,7,7.17h0v25.38h-.01s.32,6.68-7.15,7H8.69s-6.68,.33-7-7.14h-.02V8.7"/><path class="cls-3" d="M30.68,18.42s.58-2.51,3.55-1.96c0,0-2.75,1.57-1,4.32,0,0-1.6,.02-2.56-2.35"/><path class="cls-3" d="M31.78,6.27s-4.08,1.8-4.12,6.55c0,0-.74-3.87,2.43-6.55h1.69Z"/><path class="cls-6" d="M34.91,5.85c-3.86,0-6.99,3.13-6.99,6.99,0,2.17,.99,4.11,2.54,5.39l.34-.6s-.03-.07-.05-.11c-2.35-5.78,3.08-6.8,3.08-6.8,3.29-1.16,3.5-4.43,3.5-4.43-.76-.28-1.58-.43-2.43-.43m-1.65,4.23c-1.41-1.38-.92-3.19-.92-3.19-.14,2.25,1.72,3.25,1.72,3.25l-.8-.06Zm1.7-2.31c-.24,.13-.54,.05-.67-.19-.13-.24-.05-.54,.19-.67,.24-.13,.54-.05,.67,.19,.13,.24,.05,.54-.19,.67"/><path class="cls-3" d="M38.06,20.53s-4.93,5.55-11.11,0v2.49s5.25,5.33,11.11,0v-2.49Z"/><path class="cls-4" d="M22.37,24.34s-.58-2.51-3.55-1.96c0,0,2.74,1.57,1,4.32,0,0,1.6,.02,2.55-2.35"/><path class="cls-4" d="M21.27,12.19s4.08,1.8,4.12,6.55c0,0,.74-3.87-2.43-6.55h-1.69Z"/><path class="cls-2" d="M18.13,11.77c-.85,0-1.67,.15-2.43,.43,0,0,.21,3.27,3.5,4.43,0,0,5.43,1.02,3.08,6.8-.02,.04-.03,.07-.05,.11l.34,.6c1.55-1.28,2.54-3.22,2.54-5.39,0-3.86-3.13-6.99-6.99-6.99m.62,1.73c-.13,.24-.43,.33-.67,.19-.24-.13-.33-.43-.19-.67,.13-.24,.43-.33,.67-.19,.24,.13,.33,.43,.19,.67m1.03,2.5l-.8,.06s1.87-.99,1.72-3.25c0,0,.48,1.81-.92,3.19"/><path class="cls-5" d="M8.85,30.27s.58-2.51,3.56-1.96c0,0-2.75,1.57-1,4.32,0,0-1.6,.02-2.56-2.35"/><path class="cls-5" d="M9.95,18.11s-4.08,1.8-4.12,6.55c0,0-.74-3.87,2.43-6.55h1.69Z"/><path class="cls-7" d="M13.09,17.69c-3.86,0-6.99,3.13-6.99,6.99,0,2.17,.99,4.11,2.54,5.39l.34-.6s-.03-.07-.05-.11c-2.35-5.78,3.08-6.8,3.08-6.8,3.29-1.16,3.5-4.43,3.5-4.43-.76-.28-1.58-.43-2.43-.43m-1.65,4.23c-1.41-1.38-.92-3.19-.92-3.19-.14,2.25,1.73,3.25,1.73,3.25l-.8-.06Zm1.71-2.31c-.24,.13-.54,.05-.67-.19-.13-.24-.05-.54,.19-.67,.24-.13,.54-.05,.67,.19,.13,.24,.05,.54-.19,.67"/><path class="cls-4" d="M26.96,26.32s-4.93,5.56-11.11,0v2.49s5.25,5.33,11.11,0"/><path class="cls-4" d="M38.06,26.32s-4.93,5.56-11.11,0v2.49s5.25,5.33,11.11,0v-2.49Z"/><path class="cls-7" d="M26.96,32.08s-4.93,5.55-11.11,0v2.49s5.25,5.33,11.11,0"/><path class="cls-7" d="M38.06,32.08s-4.93,5.55-11.11,0v2.49s5.25,5.33,11.11,0v-2.49Z"/><path class="cls-7" d="M15.85,32.08s-4.94,5.55-11.12,0v2.49s5.25,5.33,11.12,0"/><path class="cls-7" d="M41.18,34.17s.32,6.67-7.15,6.99l1.56,1.6s6.73,.13,7.15-6.98l-1.56-1.6Z"/><rect class="cls-7" x="41.19" y="8.83" width="1.67" height="25.34"/><path class="cls-7" d="M34.21,1.69s6.67-.32,6.99,7.15l1.6-1.56s.13-6.73-6.99-7.15l-1.6,1.56Z"/><rect class="cls-7" x="8.86" width="25.34" height="1.67"/><path class="cls-7" d="M1.68,8.66S1.36,1.99,8.82,1.67L7.26,.07S.53-.05,.11,7.06l1.56,1.6Z"/><rect class="cls-7" y="8.69" width="1.67" height="25.34"/><path class="cls-7" d="M8.68,41.17s-6.67,.32-6.99-7.15l-1.6,1.56s-.13,6.73,6.99,7.15l1.6-1.56Z"/><rect class="cls-7" x="8.68" y="41.17" width="25.34" height="1.67"/><path class="cls-7" d="M63.56,2.66c3.82,0,7.04,1.31,9.66,3.92,2.49,2.47,3.86,5.82,3.86,9.33,0,3.68-1.31,6.8-3.92,9.38-2.61,2.58-5.81,3.86-9.6,3.86h-5.79v10.32c0,1-.81,1.82-1.82,1.82h-5.19c-1,0-1.82-.81-1.82-1.82V4.48c0-1,.81-1.82,1.82-1.82h12.8Zm0,18.21c1.36,0,2.48-.48,3.37-1.43,.88-.96,1.32-2.13,1.32-3.53s-.44-2.58-1.32-3.53c-.88-.96-2.01-1.43-3.37-1.43h-5.79v9.93h5.79Z"/><path class="cls-7" d="M104.65,2.66h5.19c1,0,1.82,.81,1.82,1.82V39.47c0,1-.81,1.82-1.82,1.82h-3.86c-.59,0-1.14-.28-1.48-.76l-14.36-20.21v19.15c0,1-.81,1.82-1.82,1.82h-5.19c-1,0-1.82-.81-1.82-1.82V4.48c0-1,.81-1.82,1.82-1.82h3.87c.59,0,1.14,.29,1.48,.77l14.36,20.2V4.48c0-1,.81-1.82,1.82-1.82"/><path class="cls-7" d="M120.84,2.66h5.19c1,0,1.82,.81,1.82,1.82V39.47c0,1-.81,1.82-1.82,1.82h-5.19c-1,0-1.82-.81-1.82-1.82V4.48c0-1,.81-1.82,1.82-1.82"/><path class="cls-7" d="M149.87,2.66c3.81,0,7.03,1.31,9.66,3.91,2.49,2.48,3.87,5.83,3.87,9.34,0,3.68-1.31,6.8-3.92,9.37-2.61,2.58-5.81,3.86-9.6,3.86h-5.79v10.32c0,1-.81,1.82-1.82,1.82h-5.19c-1,0-1.82-.81-1.82-1.82V4.48c0-1,.81-1.82,1.82-1.82h12.8Zm0,18.21c1.36,0,2.48-.48,3.37-1.43,.88-.96,1.32-2.13,1.32-3.53s-.44-2.58-1.32-3.53c-.88-.96-2.01-1.43-3.37-1.43h-5.79v9.93h5.79Z"/><path class="cls-7" d="M190.11,40.06l-1.65-4.84h-14.86l-1.53,4.8c-.24,.75-.94,1.27-1.73,1.27h-5.79c-1.25,0-2.12-1.22-1.72-2.4L174.72,3.9c.25-.74,.94-1.23,1.72-1.23h8.65c.78,0,1.47,.5,1.72,1.23l11.92,34.99c.4,1.18-.48,2.41-1.72,2.41h-5.19c-.78,0-1.47-.5-1.72-1.23m-13.83-13.12h9.36l-4.84-14.18-4.53,14.18Z"/></g></g></svg>