<?xml version="1.0" encoding="UTF-8"?><svg id="Capa_2" xmlns="http://www.w3.org/2000/svg" viewBox="0 0 148.13 53.82"><defs><style>.cls-1{fill:#283f7b;}.cls-2{fill:#05aa97;}.cls-3{fill:#e09f4e;}.cls-4{fill:#dc4949;}</style></defs><g id="Capa_1-2"><g><path class="cls-2" d="M14.4,.15c-1.45,0-.7,.02-2.04,0C5.84,.45,2.88,.14,2.88,.15,1.29-.02,0,.72,0,1.91v.24c0,.85,1.29,1.77,2.88,1.75,0,0,1.48-.04,7.94-.02,1.12-1.46,2.2-2.45,3.58-3.73"/><path class="cls-4" d="M42.92,.16c-.85,.02-1.69,.03-2.54,0-4.27-.2-7.34-.02-11.95,.02-1.14,1.28-3.24,2.27-4.16,3.73,.03,0,.06,0,.09,0,4.68-.1,9.43-.18,14.37-.06,1.58-1.19,3.15-1.93,4.19-3.68"/><path class="cls-3" d="M53.75,1.88c-.07-.4-.21-.8-.49-1.09-.34-.37-.85-.54-1.35-.6-2.89-.36-6.27-.1-9.19-.03-1.16,1.75-2.93,2.49-4.68,3.68,.8,.02,1.11,.04,1.87,.06,2.29-.05,4.57-.17,6.86-.26,.73-.03,1.47-.07,2.21-.04,1.02,.03,2.4,.26,3.44,.08,.4-.07,.83-.19,1.09-.5,.3-.35,.32-.85,.24-1.3"/><path class="cls-1" d="M28.44,.16c-.81,.02-1.14,.03-1.94,0-4.07-.2-7.99-.03-12.4,0-1.54,1.53-2.52,2.27-3.4,3.74,.03,0,.06,0,.09,0,4.47-.1,8.82-.11,13.54,0,1.51-1.19,3.11-1.99,4.11-3.74"/><path class="cls-3" d="M44.07,20.38c-.04,.91-.21,1.78-.21,2.69,0,.81,0,1.61,.03,2.42,.01,.48,.05,.97,.1,1.45,.33-.12,.7-.2,1.08-.22,.45-.02,.87,.01,1.25,.1,0-.13-.02-.25-.03-.36-.21-2.15-.4-4.36-.22-6.55,.07-.87,.06-1.75,.03-2.63,0-.1,0-.2,0-.3-.02-.23-.03-.44-.05-.64,0-.01-.01-.02-.02-.04-.09-.25-.29-.52-.41-.57-.23-.09-.58-.08-1,.01-.35,.08-.5,.26-.58,.41,.03,.79,.13,1.59,.09,2.4-.03,.61-.04,1.22-.07,1.83"/><path class="cls-3" d="M46.28,31.71c-.06-.18-.19-.33-.36-.41-.2-.09-.44-.05-.7,0-.06,.01-.13,.02-.19,.03-.47,.07-.59,.28-.62,.38,.04,.67,.07,1.33,.11,2,.03,.56,.02,1.13-.02,1.69-.08,1.26-.14,2.52-.2,3.78-.04,.98-.36,2.39-.05,3.33,.19,.56,1.03,.59,1.45,.31,.43-.28,.5-.82,.49-1.36,0-.37-.05-.73-.05-1.02,.01-1.38,.21-2.78,.32-4.15,.1-1.3-.01-2.58-.03-3.86-.04-.27-.09-.49-.16-.71"/><path class="cls-3" d="M49.14,3.39c-.51-.23-3.73-.88-4.15-.59-.05,.03-4.39,1.09-4.34,1.09,1.92,.17,3,1.81,2.82,4.3-.08,1.06-.03,2.18,.15,3.23,.21-.06,.42-.11,.65-.14,.53-.07,1-.06,1.44,.02-.05-.47-.09-.95-.1-1.44-.02-1.2,.22-2.5,.34-3.67,.31-3.1,4.44-2.25,3.19-2.82"/><path class="cls-3" d="M47.6,13.83c-.42-1.51-1.52-2.16-3.26-1.94-.51,.06-1.22,.27-1.72,.89-.19,.23-.34,.51-.46,.82-.13,.37-.11,.68,.06,1.02l.02,.03c.24-.5,.77-.91,1.24-1.15,.65-.33,1.44-.37,2.11-.12,.2,.07,.35,.16,.47,.27,.11,.09,.2,.21,.29,.36,.19,.33,.32,.68,.34,1,0,0,.04,.72-.06,1.14,.01,.12,.03,.25,.03,.37,.56-.38,1.32-1.29,.92-2.7"/><path class="cls-3" d="M44.5,15.17c.37-.08,.91-.15,1.34,.01,.1,.04,.19,.1,.27,.17,0-.11,0-.22,0-.29-.02-.22-.11-.49-.26-.74-.06-.1-.11-.17-.17-.22-.07-.06-.16-.11-.29-.16-.22-.08-.46-.12-.7-.12-.32,0-.64,.07-.93,.22-.44,.22-.94,.63-1.03,1.02-.17,.79-.03,1.27,.49,1.66,.09,.06,.16,.12,.23,.16l-.06-.47s0-.03,0-.04c0-.33,.24-1.02,1.11-1.21"/><path class="cls-3" d="M48.19,29.51c-.3-1.54-1.34-2.27-3.09-2.19-.51,.02-1.23,.17-1.79,.75-.21,.22-.38,.48-.52,.78-.16,.36-.17,.67-.02,1.02,.02,.05,.04,.09,.07,.13,.25-.56,.83-.96,1.28-1.14,.68-.27,1.47-.26,2.11,.05,.19,.09,.34,.19,.45,.31,.1,.1,.18,.22,.26,.38,.17,.34,.26,.7,.26,1.02,0,.32-.12,.65-.22,.92-.02,.05-.04,.11-.08,.18,.05,.18,.09,.35,.12,.54,.61-.34,1.45-1.29,1.17-2.74"/><path class="cls-3" d="M44.94,30.73c.06,0,.12-.02,.18-.03,.32-.05,.69-.12,1.05,.05,.13,.06,.26,.15,.36,.25,.04-.14,.07-.27,.07-.39,0-.23-.07-.49-.2-.76-.05-.11-.1-.18-.15-.23-.06-.06-.15-.12-.27-.18-.26-.12-.56-.18-.85-.18-.27,0-.53,.05-.78,.15-.41,.16-.88,.52-1,.94-.23,.76-.26,1.25,.25,1.69,.09,.08,.16,.14,.22,.19l-.03-.48c0-.31,.25-.9,1.15-1.03"/><path class="cls-1" d="M20.7,23.14c.31,2.71,.24,4.77-.01,7.55-.08,.89-.23,1.7-.33,2.56-.02,.16-.03,.33-.04,.49h.03c.87-.13,1.69,.04,2.33,.48,.04,.03,.09,.06,.13,.1,.06-.6,.03-1.22,.08-1.81,.08-.88,.26-1.76,.29-2.66,.08-3.15,.18-6.3-.57-9.28,0-.02,0-.05-.02-.07-.07-.19-.15-.36-.25-.54-.07-.09-.24-.21-.54-.31-.21-.07-.45,0-.7,.07-.06,.02-.13,.03-.19,.05-.39,.1-.57,.29-.65,.42,.04,.27,.08,.53,.12,.8,.06,.46,.26,1.69,.31,2.16"/><path class="cls-1" d="M18.24,3.82c2.09,.03,1.66,3.25,1.58,5.41-.05,1.3-.04,2.55-.03,3.86,0,.77-.09,1.54-.12,2.32,.26-.1,.53-.18,.82-.22,.64-.1,1.22-.08,1.73,.04,0-.02,0-.03,0-.05,.04-1.74-.05-3.44-.14-5.17-.3-5.64,.01-6.01,2.28-6.12-.12-.96-2.57-1.06-3.11-1.06h-.19c-.75,0-3.82,.99-2.81,1"/><path class="cls-1" d="M22.18,39.68c-.02-.06-.03-.13-.02-.23,.02-.15-.04-.6-.09-.89-.04-.07-.22-.35-.8-.32-.06,0-.13,0-.2,0-.26,0-.51,.01-.69,.14-.17,.13-.29,.26-.33,.38,0,.08,0,.15,.02,.23,.11,1.35,.21,2.68,.42,4,.38,2.34-.44,7.87-.57,9.94-.06,1.06,.96,1.07,1.59,.51,.98-.87,.61-2.68,.75-3.84,.15-1.28,.35-2.56,.37-3.84,.02-1.12-.04-2.24-.22-3.41-.12-.77-.21-1.72-.25-2.68"/><path class="cls-1" d="M23.89,17.59c-.46-1.5-1.57-2.12-3.3-1.86-.51,.08-1.21,.3-1.7,.93-.18,.24-.33,.51-.43,.83-.12,.37-.1,.68,.09,1.02,.02,.05,.05,.09,.08,.13,.19-.58,.72-1.04,1.15-1.27,.64-.34,1.43-.41,2.11-.17,.2,.07,.35,.15,.48,.26,.11,.09,.2,.2,.3,.36,.2,.32,.33,.67,.37,.99,.03,.29-.04,.6-.1,.85,.03,.06,.04,.11,.04,.16,.1,.2,.19,.4,.25,.62,.5-.39,1.11-1.41,.67-2.84"/><path class="cls-1" d="M22.01,19.04c.13,.04,.26,.1,.39,.17,.02-.13,.03-.25,.02-.35-.02-.22-.12-.49-.28-.73-.06-.1-.12-.17-.18-.22-.07-.06-.16-.11-.29-.15-.21-.07-.43-.11-.65-.11-.34,0-.68,.08-.98,.24-.39,.21-.82,.61-.9,1.04-.15,.78-.13,1.27,.43,1.66,.04,.03,.08,.05,.11,.08l-.07-.37s0-.06,0-.09c0-.03,.1-.82,1.16-1.08,.06-.02,.12-.03,.18-.05,.32-.09,.67-.19,1.05-.06"/><path class="cls-1" d="M19.42,38.9s-.02-.05-.03-.07c-.15-.25-.33-.55-.39-.86-.06-.31-.04-.68,.06-1.05,.05-.18,.1-.31,.18-.43,.09-.14,.21-.26,.38-.39,.58-.42,1.35-.59,2.06-.45,.48,.09,1.12,.37,1.48,.87,.02-.05,.03-.09,.04-.14,.08-.38,.01-.68-.21-1-.19-.27-.41-.5-.66-.67-.47-.33-.98-.42-1.42-.42-.17,0-.33,.02-.48,.04-1.73,.26-2.61,1.18-2.61,2.75,0,1.46,.99,2.26,1.64,2.49-.02-.22-.04-.44-.04-.66"/><path class="cls-1" d="M22.66,38.42c.01,.06,.04,.21,.06,.39l.1-.13c.41-.53,.29-1.01-.08-1.71-.21-.39-.74-.65-1.17-.73-.56-.11-1.15,.02-1.6,.35-.11,.08-.19,.16-.23,.23-.04,.06-.07,.14-.1,.26-.08,.28-.09,.56-.05,.78,.02,.11,.07,.22,.13,.34,.09-.1,.19-.2,.32-.29,.32-.24,.7-.25,1.02-.26,.06,0,.12,0,.18,0,.04,0,.08,0,.12,0,1,0,1.27,.7,1.28,.73,0,.02,.01,.03,.01,.05"/><path class="cls-4" d="M31.98,30.48c.7-.11,1.33-.08,1.88,.08,.07-1.04,.17-2.09,.27-3.16,.06-.64,.09-1.28,.13-1.92,.03-.51,.1-1.01,.18-1.5l.05-.56c0-.06-.07-.34-.62-.44-.06-.01-.13-.02-.19-.04-.26-.05-.5-.1-.7-.02-.17,.07-.31,.22-.37,.4-.08,.2-.13,.41-.18,.66-.04,.37-.08,.74-.13,1.11-.06,.5-.05,.98-.14,1.47-.24,1.29-.33,2.61-.34,3.94,.06-.01,.11-.02,.17-.03"/><path class="cls-4" d="M33.95,36.07c-.07-.29-.15-.53-.25-.75-.07-.17-.22-.31-.4-.37-.2-.07-.44,0-.7,.07-.06,.02-.13,.04-.19,.05-.2,.05-.33,.12-.41,.19,.02,.26,.04,.51,.06,.72,.27,2.99,.82,5.95,1.01,8.96,.08,1.33-.48,4.34,1.05,4.79l.1-.02c.62-.11,.77-.73,.76-1.39-.04-2.69-.15-5.75-.47-8.4-.16-1.3-.4-2.56-.56-3.85"/><path class="cls-4" d="M29.76,3.79c2.94,0,2.57,3.02,2.57,4.87,0,1.21-.06,2.41-.03,3.61,.04,1.43,.21,2.78,.21,4.23,0,.65,.01,1.3,.03,1.96,.43-.1,.9-.13,1.42-.09,.24,.02,.47,.06,.69,.12,0-.58,0-1.15-.03-1.73-.02-.49-.06-.92-.04-1.41,.05-1.17-.05-2.2-.08-3.35-.03-.99-.06-1.96-.02-2.94,.04-.81,0-1.63,.1-2.45,.39-3.4,3.55-2.44,3.61-3.06,0-.07-9.5,.23-8.43,.23"/><path class="cls-4" d="M35.38,32.93c-.46-1.5-1.57-2.12-3.3-1.86-.51,.08-1.21,.3-1.7,.93-.18,.24-.33,.51-.43,.83-.12,.37-.1,.68,.09,1.02,.02,.04,.05,.08,.08,.12,.19-.58,.72-1.04,1.15-1.27,.64-.34,1.43-.41,2.1-.17,.2,.07,.35,.15,.48,.26,.11,.09,.2,.2,.3,.35,.2,.32,.33,.67,.37,.99,.03,.32-.05,.66-.12,.93-.01,.05-.03,.12-.06,.19,.07,.17,.12,.34,.17,.52,.57-.4,1.31-1.43,.88-2.85"/><path class="cls-4" d="M32.27,34.48c.06-.01,.11-.03,.17-.05,.32-.09,.67-.19,1.06-.06,.14,.05,.27,.12,.39,.22,.03-.14,.04-.28,.03-.39-.02-.22-.12-.49-.28-.73-.06-.1-.12-.17-.18-.21-.07-.06-.16-.11-.29-.15-.21-.07-.43-.11-.65-.11-.34,0-.68,.08-.98,.24-.39,.21-.81,.61-.9,1.04-.15,.78-.13,1.27,.43,1.66,.09,.07,.18,.12,.24,.16l-.08-.48c-.03-.31,.15-.92,1.03-1.14"/><path class="cls-4" d="M31.9,23.15c-.1-.28-.21-.62-.19-.94,.01-.32,.11-.67,.29-1.01,.09-.16,.17-.28,.27-.38,.12-.11,.26-.21,.46-.29,.66-.28,1.45-.28,2.11,.02,.45,.2,1.01,.62,1.24,1.18,.03-.04,.05-.08,.07-.13,.16-.35,.16-.66,.02-1.02-.13-.31-.29-.58-.49-.8-.53-.59-1.26-.76-1.76-.8-.14-.01-.28-.02-.41-.02-1.5,0-2.42,.71-2.75,2.11-.33,1.44,.48,2.42,1.08,2.77,.03-.18,.08-.35,.13-.53-.03-.06-.06-.13-.07-.17"/><path class="cls-4" d="M35.27,23.75c.52-.43,.51-.92,.3-1.69-.11-.43-.57-.79-.97-.97-.52-.23-1.13-.23-1.63-.02-.13,.05-.21,.11-.28,.17-.05,.05-.11,.13-.16,.23-.14,.26-.22,.53-.22,.75,0,.12,.02,.25,.06,.39,.11-.1,.23-.19,.37-.24,.16-.07,.33-.1,.49-.1,.2,0,.39,.04,.57,.07,.06,.01,.12,.02,.18,.03,.9,.15,1.12,.75,1.12,1.04l-.05,.51c.07-.05,.14-.11,.23-.18"/><path class="cls-2" d="M8.3,34.17c.29,.02,.56,.06,.82,.11-.03-.63-.06-1.26-.05-1.89,.03-2.42,.48-4.72,.76-7.06,.32-2.67,.07-5.31,.03-7.99l-.05-.92c-.03-.06-.16-.33-.73-.35-.06,0-.13,0-.19,0-.26-.02-.51-.03-.7,.08-.16,.1-.28,.27-.31,.45-.04,.18-.06,.36-.08,.57,.03,.5,.06,1.01,.08,1.52,.06,1.87-.26,3.51-.36,5.32-.1,1.73-.19,3.47-.38,5.17-.14,1.31-.11,2.56-.17,3.87-.02,.45-.05,.89-.08,1.33,.43-.16,.91-.23,1.41-.2"/><path class="cls-2" d="M8.93,43.19c0-.95,.09-1.9,.18-2.85,0-.01,0-.02,0-.03,0-.35-.04-.66-.12-.99-.1-.28-.19-.43-.33-.51-.19-.11-.43-.1-.7-.08-.06,0-.13,0-.2,0-.54,.02-.8,.27-.89,.38l.04,.8h0c.05,.8,.08,1.59,.04,2.41-.02,.53,.03,1.08,.03,1.62,.02,1.19,.25,4.79,1.72,5.38,.99,.39,1.17-.96,.97-1.85-.25-1.09-.74-3.13-.75-4.29"/><path class="cls-2" d="M7.69,5.81c.15,1.26,.06,2.67-.03,3.92-.04,.66-.06,1.28-.06,1.91,.29-.07,.6-.12,.93-.14,.45-.03,.89,.03,1.28,.15-.02-.65-.06-1.29-.11-1.94-.15-2.01,.05-4.39,1-5.86,.73-1.14-6.15-.03-5.2,0,1.92,.06,2.03,.72,2.18,1.96"/><path class="cls-2" d="M7.15,16.5c-.13-.27-.29-.58-.32-.9-.03-.31,.02-.68,.15-1.04,.06-.17,.13-.3,.22-.41,.1-.13,.23-.24,.41-.35,.61-.37,1.39-.47,2.1-.27,.47,.13,1.08,.47,1.39,1,.02-.04,.04-.09,.05-.14,.11-.37,.07-.68-.13-1.02-.17-.29-.37-.53-.6-.72-.53-.45-1.16-.56-1.65-.56-.07,0-.14,0-.21,0-1.75,.11-2.7,.95-2.84,2.51-.13,1.47,.81,2.33,1.45,2.6,0-.18,.03-.36,.06-.54-.04-.06-.07-.11-.09-.16"/><path class="cls-2" d="M10.4,16.35l.03,.45s.1-.1,.15-.16c.46-.5,.38-.98,.07-1.71-.17-.4-.68-.71-1.1-.83-.54-.16-1.15-.08-1.62,.21-.12,.07-.2,.14-.25,.21-.05,.06-.09,.14-.13,.25-.1,.27-.14,.55-.12,.77,.01,.12,.06,.25,.11,.38,.09-.11,.21-.22,.33-.29,.24-.14,.5-.18,.74-.18,.1,0,.21,0,.3,.01,.06,0,.12,0,.18,0,1.11,.04,1.29,.81,1.3,.84,0,.02,0,.03,0,.05"/><path class="cls-2" d="M11.1,37.28c-.14-1.56-1.09-2.4-2.84-2.51-.51-.03-1.25,.04-1.86,.55-.23,.19-.43,.43-.6,.72-.2,.34-.24,.64-.13,1.02,.01,.05,.03,.1,.05,.14,.31-.53,.92-.86,1.39-1,.7-.2,1.48-.1,2.09,.27,.18,.11,.31,.22,.41,.35,.09,.11,.16,.24,.22,.41,.13,.36,.18,.73,.15,1.04-.03,.32-.19,.63-.32,.88-.02,.03-.02,.04-.03,.06-.01,.03-.03,.08-.06,.12,.04,.19,.07,.38,.08,.58,.62-.28,1.55-1.16,1.42-2.64"/><path class="cls-2" d="M7.74,38.14c.06,0,.12,0,.18,0,.33-.02,.7-.04,1.04,.17,.14,.08,.24,.19,.33,.3,.06-.14,.1-.27,.12-.39,.02-.22-.02-.5-.12-.77-.04-.11-.08-.19-.13-.25-.06-.07-.14-.14-.25-.21-.31-.19-.68-.29-1.05-.29-.19,0-.38,.02-.56,.08-.42,.12-.93,.42-1.1,.83-.31,.73-.39,1.21,.07,1.71l.02,.02v-.28c-.02-.05,0-.11,.02-.15,.02-.03,.39-.72,1.44-.76"/><path class="cls-1" d="M92.63,32.58c.03,.25,.03,.53,0,.83,.53-.27,1.06-.5,1.59-.68,.53-.18,1.1-.27,1.71-.27,1.21,0,2.11,.35,2.68,1.07,.57,.71,.86,1.84,.87,3.37,0,2.07-.43,3.58-1.29,4.54-.86,.96-2,1.44-3.44,1.44-.36,0-.65-.01-.86-.04-.22-.03-.38-.05-.49-.08,0,.99,.02,1.98,.05,2.96h1.31c.11,.22,.16,.47,.16,.74,0,.23-.05,.4-.14,.49-.09,.09-.27,.14-.53,.14h-4.63c-.11-.28-.17-.54-.17-.79,0-.21,.04-.36,.13-.45,.09-.09,.23-.14,.42-.14h.69c.03-.98,.05-2.29,.05-3.93v-3.9c0-1.87-.09-2.98-.26-3.32-.17-.34-.46-.51-.87-.51-.11-.27-.17-.54-.17-.8,0-.24,.08-.4,.25-.47,.17-.07,1.15-.14,2.94-.2m.77,8.13c.2,.13,.41,.23,.63,.32,.22,.08,.49,.13,.82,.13,.55,0,.96-.2,1.24-.6,.28-.4,.42-1.26,.42-2.57,0-1.57-.14-2.59-.43-3.06-.29-.48-.68-.71-1.19-.71-.3,0-.57,.08-.81,.25-.25,.16-.42,.43-.52,.8-.1,.37-.15,.88-.15,1.53v3.93Z"/><path class="cls-1" d="M109.65,38.23c0,1.33,.05,2.16,.14,2.47,.09,.32,.32,.46,.69,.43,.09,.22,.13,.43,.13,.63,0,.33-.23,.58-.69,.75-.46,.17-.88,.26-1.26,.26-.3,0-.5-.05-.62-.14-.12-.1-.3-.34-.56-.73-.59,.32-1.15,.56-1.68,.72-.54,.17-1.11,.25-1.72,.25-.8,0-1.44-.22-1.89-.68-.46-.45-.69-1.37-.69-2.75,0-2.07-.01-3.34-.04-3.83-.02-.48-.07-.84-.15-1.06-.08-.22-.18-.36-.3-.42-.13-.06-.31-.08-.55-.08-.11-.19-.17-.41-.17-.65,0-.31,.18-.52,.53-.64,.35-.12,.91-.18,1.67-.18,.55,0,.93,.03,1.16,.1,.23,.07,.37,.18,.42,.32,.05,.14,.08,.61,.08,1.42v3.57c0,1.3,.12,2.16,.35,2.56,.23,.4,.56,.6,.99,.6,.32,0,.62-.08,.89-.23,.27-.15,.44-.35,.51-.59,.07-.24,.1-.68,.1-1.32,0-1.77,0-2.9-.01-3.38,0-.48-.04-.84-.1-1.06s-.14-.37-.24-.43c-.1-.06-.27-.08-.5-.08-.11-.19-.17-.4-.17-.65,0-.31,.18-.52,.53-.64,.35-.12,.85-.18,1.5-.18,.55,0,.93,.03,1.16,.11,.23,.07,.37,.19,.42,.36,.05,.17,.08,.66,.08,1.47v3.73Z"/><path class="cls-1" d="M116.75,32.45c1.31,0,2.26,.32,2.85,.95,.59,.63,.89,1.63,.89,2.99,0,.68-.13,1.16-.38,1.45-.25,.29-.8,.43-1.65,.43h-3.51c.02,.88,.21,1.56,.56,2.06,.35,.5,.97,.75,1.86,.75,.87,0,1.76-.27,2.68-.8,.33,.34,.49,.71,.49,1.1,0,.54-.37,.91-1.11,1.12-.74,.21-1.61,.32-2.6,.32-1.71,0-2.95-.37-3.72-1.1-.78-.73-1.16-1.95-1.16-3.64,0-1.76,.43-3.14,1.3-4.13,.87-.99,2.04-1.49,3.5-1.49m-.38,1.74c-.46,0-.82,.2-1.07,.6-.25,.4-.37,1.1-.38,2.1h.5c.7,0,1.23-.02,1.6-.07,.37-.04,.58-.12,.65-.22,.06-.1,.09-.27,.09-.52,0-.6-.12-1.07-.37-1.4-.24-.33-.59-.49-1.03-.49"/><path class="cls-1" d="M122.74,37.82c0-3.04-.01-4.94-.04-5.72-.02-.77-.07-1.31-.14-1.59-.07-.29-.19-.47-.37-.55-.17-.08-.4-.13-.67-.13-.11-.27-.16-.55-.16-.82s.1-.46,.29-.54c.19-.08,.83-.12,1.91-.12,.67,0,1.12,.03,1.36,.08,.24,.06,.38,.16,.42,.32,.04,.15,.06,.37,.06,.65l-.17,3.72c.38-.2,.82-.37,1.31-.5,.49-.13,1.01-.2,1.56-.2,1.03,0,1.85,.34,2.47,1.02,.61,.68,.92,1.85,.92,3.51,0,1.95-.43,3.42-1.29,4.41-.86,.99-2.04,1.48-3.51,1.48-.52,0-.98-.05-1.39-.13-.41-.09-.73-.19-.96-.3l-.41,.32c-.55,0-.9-.05-1.05-.14-.15-.09-.22-.29-.22-.58,0-.27,.01-.9,.04-1.87,.03-.97,.04-1.75,.04-2.33m2.65-.63v3.4c.17,.17,.39,.3,.65,.39,.26,.09,.54,.14,.83,.14,.53,0,.93-.19,1.21-.56,.28-.37,.42-1.29,.42-2.75,0-1.33-.14-2.27-.4-2.81-.26-.54-.65-.82-1.17-.82-.33,0-.61,.08-.84,.24-.23,.16-.4,.41-.52,.76-.11,.35-.18,1.02-.18,2.02"/><path class="cls-1" d="M133.93,37.82c0-3.04-.02-4.94-.04-5.72-.03-.78-.07-1.31-.14-1.59-.07-.29-.19-.47-.36-.55-.17-.08-.4-.13-.67-.13-.11-.27-.17-.55-.17-.82s.1-.46,.3-.54c.2-.08,.83-.12,1.9-.12,.67,0,1.12,.03,1.37,.08,.25,.06,.39,.16,.42,.32,.03,.15,.05,.37,.05,.65v7.72c0,1.91,.02,3.3,.06,4.15h1.21c.11,.22,.16,.47,.16,.74,0,.24-.05,.4-.14,.49-.09,.09-.27,.14-.53,.14h-4.61c-.11-.28-.17-.54-.17-.79,0-.21,.04-.36,.13-.45,.09-.09,.23-.14,.42-.14h.77c.04-.86,.06-2.01,.05-3.46"/><path class="cls-1" d="M143.2,42.85c-1.41,0-2.47-.39-3.18-1.17-.71-.78-1.07-1.91-1.07-3.4,0-1.85,.43-3.29,1.29-4.31,.86-1.02,2.08-1.53,3.64-1.53,1.41,0,2.47,.39,3.18,1.17,.71,.78,1.07,1.92,1.07,3.4,0,1.85-.43,3.29-1.29,4.31-.86,1.02-2.07,1.53-3.64,1.53m.44-1.74c.51,0,.89-.22,1.14-.65,.25-.43,.37-1.27,.37-2.51,0-1.36-.14-2.33-.41-2.91-.27-.58-.71-.87-1.3-.87-.51,0-.89,.22-1.14,.65-.25,.43-.37,1.27-.37,2.51,0,1.36,.14,2.33,.41,2.91,.27,.58,.71,.87,1.3,.87"/><path class="cls-1" d="M59.9,40.88c-1,0-1.69-.19-2.09-.59-.4-.39-.59-1.06-.59-2.02,0-1.07,.26-1.89,.77-2.48,.51-.58,1.28-.87,2.31-.87,.54,0,.91,.05,1.12,.15,.21,.1,.31,.27,.32,.5,0,.3-.09,.57-.26,.81-.6-.31-1.08-.47-1.45-.47-.37,0-.65,.14-.83,.42-.18,.28-.27,.78-.27,1.48,0,.7,.09,1.22,.26,1.56,.18,.34,.49,.51,.95,.51,.37,0,.85-.15,1.44-.44,.15,.22,.23,.46,.23,.7s-.19,.43-.57,.55c-.38,.12-.83,.18-1.34,.18"/><path class="cls-1" d="M64.93,40.88c-.8,0-1.41-.22-1.82-.67-.41-.45-.61-1.1-.61-1.94,0-1.06,.24-1.88,.74-2.46,.49-.58,1.19-.88,2.08-.88,.8,0,1.41,.22,1.82,.67,.41,.45,.61,1.09,.61,1.94,0,1.06-.24,1.88-.74,2.46-.49,.58-1.18,.88-2.08,.88m.25-.99c.29,0,.51-.12,.65-.37,.14-.25,.21-.73,.21-1.44,0-.78-.08-1.33-.24-1.66-.16-.33-.4-.5-.74-.5-.29,0-.51,.13-.65,.37-.14,.25-.21,.73-.21,1.44,0,.78,.08,1.33,.24,1.66,.16,.33,.4,.5,.74,.5"/><path class="cls-1" d="M70.41,35.65c.39-.26,.77-.45,1.13-.55,.36-.11,.66-.16,.91-.16,.51,0,.88,.12,1.13,.35s.37,.72,.37,1.43c0,1.88,.03,2.89,.1,3.04,.06,.15,.2,.22,.42,.21,.05,.14,.08,.28,.08,.43,0,.14-.04,.23-.13,.28-.08,.05-.25,.07-.48,.08-.58,0-.95,0-1.11-.03-.15-.02-.26-.08-.32-.19-.06-.11-.09-.28-.09-.53v-2.02c0-.78-.07-1.3-.21-1.57-.13-.27-.35-.4-.65-.4-.25,0-.46,.08-.6,.24s-.22,.49-.22,.99v1.15c0,.48,.01,1,.03,1.56h.64c.06,.13,.09,.27,.09,.43,0,.13-.03,.23-.08,.28-.05,.05-.15,.08-.3,.08h-2.54c-.06-.16-.1-.31-.1-.45,0-.12,.02-.2,.08-.25,.05-.05,.13-.08,.24-.08h.39c.02-.63,.03-1.28,.03-1.95,0-1.07-.05-1.7-.14-1.9-.1-.19-.26-.29-.5-.29-.06-.15-.1-.31-.1-.46,0-.14,.05-.23,.14-.27,.1-.04,.69-.08,1.78-.12,.02,.16,.02,.38,0,.66"/><path class="cls-1" d="M80.72,34.92c.75,0,1.29,.18,1.63,.54,.34,.36,.51,.93,.51,1.71,0,.39-.07,.66-.22,.83-.14,.16-.46,.25-.94,.25h-2c.01,.5,.12,.89,.32,1.18,.2,.28,.56,.43,1.06,.43s1.01-.15,1.53-.46c.19,.19,.28,.4,.28,.63,0,.31-.21,.52-.63,.64-.42,.12-.92,.18-1.48,.18-.98,0-1.69-.21-2.13-.63-.44-.42-.66-1.11-.67-2.08,0-1,.25-1.79,.75-2.36,.5-.57,1.16-.85,2-.85m-.22,.99c-.27,0-.47,.11-.61,.34-.14,.23-.21,.63-.21,1.2h.29c.4,0,.7-.01,.91-.04,.21-.02,.33-.07,.37-.13,.04-.06,.05-.16,.05-.29,0-.34-.07-.61-.21-.8-.14-.19-.33-.28-.59-.28"/><path class="cls-1" d="M84.34,37.99c0-1.73,0-2.82-.02-3.27-.02-.44-.04-.75-.08-.91-.04-.16-.11-.27-.21-.32-.1-.05-.23-.07-.38-.07-.06-.16-.1-.31-.1-.47,0-.16,.06-.26,.17-.31,.11-.04,.47-.07,1.08-.07,.38,0,.64,.02,.78,.05,.14,.03,.22,.09,.24,.18,.02,.09,.03,.21,.03,.37v4.41c0,1.09,.02,1.88,.03,2.37h.69c.06,.13,.09,.27,.09,.42,0,.13-.03,.23-.08,.28-.05,.05-.15,.08-.3,.08h-2.64c-.06-.16-.1-.31-.1-.45,0-.12,.03-.2,.08-.26,.05-.05,.13-.08,.24-.08h.44c.02-.49,.03-1.15,.03-1.98"/><path class="cls-1" d="M63.72,6.87c2.03,0,3.37,.13,4.03,.38,.66,.25,.99,.74,.99,1.47s-.24,1.32-.72,1.88c-1.82-.87-3.41-1.31-4.75-1.31-.89,0-1.51,.16-1.86,.49-.35,.33-.52,.8-.52,1.42,0,.74,.22,1.29,.65,1.65,.43,.36,1.31,.75,2.63,1.16,1.66,.46,2.94,1.05,3.83,1.75,.9,.71,1.37,1.86,1.4,3.45,0,1.81-.61,3.16-1.84,4.04-1.23,.88-3.02,1.32-5.37,1.32-1.71,0-2.96-.13-3.77-.4-.81-.27-1.21-.8-1.21-1.6,0-.71,.28-1.33,.83-1.88,1.81,.97,3.5,1.46,5.08,1.46,1.03,0,1.76-.14,2.17-.44,.41-.29,.62-.77,.62-1.44,0-.79-.32-1.4-.96-1.84-.64-.44-1.69-.88-3.16-1.32-1.56-.45-2.69-1.06-3.37-1.85-.68-.79-1.02-1.8-1.02-3.04,0-1.69,.56-3,1.69-3.95,1.13-.94,2.68-1.41,4.65-1.41"/><path class="cls-1" d="M76.12,22.61h1.4c.13,.28,.2,.59,.2,.93,0,.29-.06,.5-.17,.62-.11,.12-.34,.18-.67,.18h-5.69c-.13-.35-.2-.68-.2-1,0-.26,.06-.45,.17-.56,.11-.11,.29-.17,.53-.17h.97c.04-1.08,.06-2.22,.06-3.44,0-1.86-.01-3.09-.04-3.7-.03-.61-.09-1.05-.18-1.34-.1-.28-.24-.46-.44-.53-.2-.07-.49-.11-.86-.11-.13-.24-.2-.51-.2-.82,0-.47,.18-.76,.54-.87,.36-.11,1.1-.16,2.22-.16,.84,0,1.41,.03,1.71,.1,.3,.07,.48,.2,.52,.4s.06,.47,.06,.83v6.2c0,1.22,.03,2.37,.07,3.44m-2.17-12.11c-.71,0-1.23-.14-1.54-.43-.32-.29-.47-.7-.47-1.23s.2-1.01,.6-1.37,.98-.54,1.72-.54,1.3,.15,1.61,.46c.32,.31,.48,.71,.48,1.21,0,.54-.19,1-.57,1.36-.38,.36-.99,.54-1.83,.54"/><path class="cls-1" d="M85.05,11.5c1.64,0,2.84,.4,3.58,1.19,.74,.8,1.11,2.05,1.11,3.76,0,.85-.16,1.45-.48,1.81-.32,.36-1.01,.54-2.07,.54h-4.41c.02,1.1,.26,1.96,.7,2.59,.44,.63,1.22,.94,2.34,.94s2.21-.34,3.37-1.01c.41,.43,.62,.89,.62,1.39,0,.67-.46,1.14-1.39,1.4-.93,.27-2.02,.4-3.26,.4-2.15,0-3.71-.46-4.68-1.39-.97-.92-1.46-2.45-1.46-4.58s.55-3.94,1.64-5.19c1.09-1.25,2.56-1.87,4.4-1.87m-.47,2.18c-.59,0-1.03,.25-1.34,.76-.31,.5-.47,1.38-.47,2.64h.63c.88,0,1.55-.03,2.01-.08,.46-.05,.73-.15,.81-.28,.08-.13,.12-.35,.12-.65,0-.76-.16-1.34-.46-1.76-.31-.41-.74-.62-1.29-.62"/><path class="cls-1" d="M103.31,16.63c0,2.98,.02,4.97,.06,5.97h1.29c.14,.28,.21,.59,.21,.93,0,.29-.06,.5-.17,.62s-.34,.18-.67,.18h-4.92c-.13-.35-.2-.68-.2-1,0-.26,.06-.45,.17-.56,.11-.11,.29-.17,.53-.17h.3c.04-1.47,.06-2.92,.06-4.36,0-1.71-.15-2.86-.44-3.45-.3-.58-.78-.88-1.44-.88-.4,0-.77,.18-1.09,.52-.32,.35-.49,1.08-.49,2.19v2.53c0,1.06,.02,2.21,.06,3.44h.85c.13,.28,.2,.59,.2,.93,0,.29-.06,.5-.17,.62-.11,.12-.34,.18-.67,.18h-5.03c-.14-.35-.21-.68-.21-1,0-.26,.06-.45,.17-.56,.11-.11,.29-.17,.53-.17h.86c.04-1.39,.06-2.82,.06-4.3,0-2.35-.1-3.74-.31-4.17-.21-.43-.57-.64-1.1-.64-.14-.34-.21-.67-.21-1.01,0-.3,.11-.5,.31-.59,.21-.09,1.52-.18,3.92-.25,.04,.35,.04,.84,0,1.45,.86-.57,1.67-.98,2.42-1.22,.75-.24,1.41-.36,1.97-.36,.78,0,1.38,.13,1.8,.38,.42,.26,.71,.59,.89,1.01,.71-.46,1.43-.81,2.17-1.05,.73-.24,1.37-.35,1.91-.35,1.03,0,1.82,.26,2.36,.78,.54,.52,.81,1.57,.81,3.15,0,4.14,.07,6.37,.21,6.69,.14,.32,.45,.48,.92,.47,.12,.3,.18,.62,.18,.95,0,.3-.09,.51-.28,.62-.19,.11-.54,.16-1.06,.16-1.28,0-2.09-.02-2.43-.06-.34-.04-.57-.18-.7-.41-.13-.23-.19-.62-.19-1.17v-4.45c0-1.71-.15-2.86-.45-3.45-.3-.58-.78-.88-1.44-.88-.4,0-.76,.18-1.09,.52-.32,.35-.49,1.08-.49,2.19"/><path class="cls-1" d="M116.49,11.64c.04,.32,.04,.67,0,1.05,.67-.35,1.34-.63,2-.85,.66-.22,1.38-.33,2.15-.33,1.52,0,2.65,.45,3.37,1.34,.72,.89,1.08,2.31,1.08,4.24,0,2.6-.54,4.5-1.62,5.7-1.08,1.2-2.52,1.8-4.32,1.8-.45,0-.81-.02-1.08-.05-.27-.03-.48-.07-.62-.1,0,1.24,.02,2.48,.06,3.72h1.65c.13,.28,.2,.59,.2,.93,0,.29-.06,.5-.17,.62-.11,.12-.34,.18-.67,.18h-5.82c-.14-.35-.21-.68-.21-1,0-.26,.05-.45,.17-.56,.11-.11,.29-.17,.53-.17h.87c.04-1.24,.06-2.88,.06-4.94v-4.9c0-2.35-.1-3.74-.31-4.17-.21-.43-.57-.64-1.1-.64-.14-.33-.21-.67-.21-1.01,0-.3,.1-.5,.31-.59,.21-.09,1.44-.18,3.69-.25m.96,10.21c.25,.16,.52,.29,.79,.4,.27,.11,.62,.16,1.03,.16,.69,0,1.21-.25,1.56-.75,.35-.5,.53-1.58,.53-3.23,0-1.97-.18-3.25-.54-3.85-.36-.6-.86-.89-1.5-.89-.37,0-.71,.1-1.02,.31-.31,.21-.53,.54-.65,1s-.19,1.1-.19,1.92v4.94Z"/><path class="cls-1" d="M126.72,12.48c0-.3,.1-.5,.31-.59,.21-.09,1.51-.18,3.92-.25,.04,.35,.04,.84,0,1.46,1-.62,1.9-1.04,2.7-1.26s1.52-.33,2.13-.33c.28,0,.47,.03,.57,.11,.1,.07,.14,.24,.14,.5,0,.46-.06,.94-.19,1.44-.13,.5-.29,.82-.49,.97-.19,.14-.5,.25-.92,.32-.42,.07-.66,.08-.73,.05-.07-.03-.29-.32-.67-.84-.59,0-1.03,.22-1.35,.67-.31,.45-.47,1.61-.47,3.47,0,1.71,.02,3.18,.06,4.41h1.86c.14,.28,.21,.59,.21,.93,0,.29-.06,.5-.17,.62-.11,.12-.34,.18-.67,.18h-6.04c-.14-.35-.21-.68-.21-1,0-.26,.05-.45,.17-.56,.11-.11,.29-.17,.53-.17h.87c.04-1.23,.06-2.67,.06-4.3,0-2.35-.1-3.74-.31-4.17-.21-.43-.57-.64-1.1-.64-.14-.33-.21-.67-.21-1.01"/><path class="cls-1" d="M143.28,11.5c1.64,0,2.84,.4,3.58,1.19,.74,.8,1.11,2.05,1.11,3.76,0,.85-.16,1.45-.47,1.81-.32,.36-1.01,.54-2.07,.54h-4.41c.02,1.1,.26,1.96,.7,2.59,.44,.63,1.22,.94,2.34,.94s2.21-.34,3.37-1.01c.41,.43,.62,.89,.62,1.39,0,.67-.46,1.14-1.39,1.4-.93,.27-2.02,.4-3.26,.4-2.15,0-3.71-.46-4.68-1.39-.97-.92-1.46-2.45-1.46-4.58s.55-3.94,1.64-5.19c1.09-1.25,2.56-1.87,4.4-1.87m-.47,2.18c-.59,0-1.03,.25-1.34,.76-.31,.5-.47,1.38-.47,2.64h.63c.88,0,1.55-.03,2.01-.08,.46-.05,.73-.15,.81-.28,.08-.13,.12-.35,.12-.65,0-.76-.16-1.34-.46-1.76-.31-.41-.74-.62-1.29-.62"/></g></g></svg>